<svg width="1440" height="465" viewBox="0 0 1440 465" fill="none" xmlns="http://www.w3.org/2000/svg">
<path d="M1454.01 225.361L1315.62 84.4997L1366.12 48L1412.62 2.85557e-06L1454.01 225.361Z" fill="#FF884C"/>
<path d="M1000.73 456.177L901.358 225.834L1055.48 211.361L1000.73 456.177Z" fill="#FFC7D7"/>
<path d="M931.292 295.355L901 227.548L1063 200.548L1039.46 285.77L931.292 295.355Z" fill="#F7F0F5"/>
<path d="M1020.29 367.923L964.153 372.031L931.292 295.355L1039.46 285.77L1020.29 367.923Z" fill="#4C575E"/>
<path d="M718.461 456.145L799.572 241.763L644.531 239.926L718.461 456.145Z" fill="#F7F0F5"/>
<circle cx="721.766" cy="313.88" r="32.8613" transform="rotate(-1.43304 721.766 313.88)" fill="#FFC7D7"/>
<path d="M1228.49 345.302L1115.5 179.664L1274.48 113.04L1228.49 345.302Z" fill="#FFC7D7"/>
<path d="M1200.62 186.186L1210.63 207.861L1234.33 205.04L1216.81 221.258L1226.82 242.933L1205.98 231.281L1188.46 247.498L1193.1 224.079L1172.27 212.427L1195.97 209.605L1200.62 186.186Z" fill="#FF884C"/>
<path d="M432.815 384.111L389 191.052L447.876 196.528L432.815 384.111Z" fill="#4C575E"/>
<path d="M543.5 229.552L464.307 390.958L494 220.552L543.5 229.552Z" fill="#FFC7D7"/>
<path d="M432.814 382.742L445.137 209.552L495 221.052L465.676 388.219L445.137 436.142L432.814 382.742Z" fill="#F7F0F5"/>
<path d="M8.6557 312.309L220.156 144.309L140.5 104.503L75.4995 54.5032L8.6557 312.309Z" fill="#FFC7D7"/>
<path d="M101.994 165.348L99.289 179.11L112.17 186.642L97.617 187.615L94.9117 201.377L88.6225 188.216L74.0691 189.189L84.7356 180.083L78.4465 166.922L91.3279 174.455L101.994 165.348Z" fill="#FF884C"/>
<path d="M132.07 183.48C137.341 175.647 139.284 166.041 137.473 156.774C135.661 147.508 130.242 139.341 122.409 134.07C114.576 128.799 104.97 126.856 95.7035 128.667C86.4373 130.479 78.2703 135.897 72.9992 143.731L79.4645 148.081C83.5818 141.963 89.961 137.73 97.1988 136.315C104.437 134.9 111.94 136.418 118.059 140.535C124.177 144.653 128.409 151.032 129.825 158.27C131.24 165.508 129.722 173.011 125.604 179.13L132.07 183.48Z" fill="#FF884C"/>
</svg>
