<svg width="342" height="335" viewBox="0 0 342 335" fill="none" xmlns="http://www.w3.org/2000/svg">
<path d="M116.047 100.395L151.078 100.395L146.109 167.395L111.078 167.395L116.047 100.395Z" fill="black"/>
<path d="M153.704 133.24C153.704 126.461 157.739 87.9998 136.051 87.9998C107.554 87.9998 120.556 145 92.9294 145C72.7552 145 74.0161 120.65 74.0161 101.005" stroke="#FFC7D7" stroke-width="30" stroke-linecap="square"/>
<path d="M131.228 59.4759C130.01 57.4357 129.414 55.0855 129.512 52.7126C129.611 50.3397 130.401 48.047 131.785 46.1148C133.17 44.1825 135.088 42.6946 137.306 41.8328C139.525 40.971 141.947 40.7727 144.276 41.2622C146.605 41.7517 148.741 42.9078 150.423 44.5891C152.104 46.2704 153.258 48.4039 153.743 50.729C154.229 53.0541 154.024 55.4698 153.155 57.6809C152.287 59.892 150.791 61.8026 148.851 63.1791C151.059 65.5867 152.444 68.6313 152.807 71.8746C153.17 75.1179 152.492 78.3924 150.871 81.2266C149.249 84.0608 146.768 86.3084 143.784 87.6458C140.8 88.9833 137.468 89.3415 134.267 88.6689C131.066 87.9962 128.162 86.3275 125.972 83.903C123.783 81.4784 122.421 78.4232 122.083 75.1772C121.745 71.9313 122.449 68.6621 124.092 65.8405C125.736 63.0189 128.234 60.7904 131.228 59.4759Z" fill="white"/>
<path d="M74.2993 75C79.9872 75 84.5981 79.6109 84.5981 85.2987C84.5981 90.9866 79.9872 95.5975 74.2993 95.5975C68.6115 95.5975 64.0006 90.9866 64.0006 85.2987C64.0006 79.6109 68.6115 75 74.2993 75Z" fill="white"/>
<path d="M70.8668 85.7887L70.8668 75.4899" stroke="black" stroke-width="2.88653" stroke-linecap="round"/>
<path d="M77.2418 85.7887L77.2418 75.4899" stroke="black" stroke-width="2.88653" stroke-linecap="round"/>
<path d="M154.376 160.519C160.064 160.519 164.675 155.908 164.675 150.22C164.675 144.533 160.064 139.922 154.376 139.922C148.689 139.922 144.078 144.533 144.078 150.22C144.078 155.908 148.689 160.519 154.376 160.519Z" fill="white"/>
<path d="M150.944 149.731L150.944 160.029" stroke="black" stroke-width="2.88653" stroke-linecap="round"/>
<path d="M157.319 149.731L157.319 160.029" stroke="black" stroke-width="2.88653" stroke-linecap="round"/>
<path d="M134.673 74.9998C134.301 76.9125 135.55 78.7643 137.463 79.136C139.376 79.5076 141.228 78.2584 141.599 76.3458" stroke="black" stroke-width="2.1301" stroke-linecap="round"/>
<path d="M171.69 181.596C171.945 172.012 164.382 164.036 154.799 163.781L122.54 162.923L122.078 180.276L171.69 181.596Z" fill="black"/>
<path d="M74.0445 179.295C74.1858 169.719 82.0633 162.07 91.6395 162.212L123.873 162.687L123.617 180.026L74.0445 179.295Z" fill="black"/>
</svg>
