<svg width="203" height="84" viewBox="0 0 203 84" fill="none" xmlns="http://www.w3.org/2000/svg">
<path fill-rule="evenodd" clip-rule="evenodd" d="M9.90009 23.0628H5.88828V40.8701H0V0.35498H5.88828V16.5827H9.90009V0.35498H15.7878V40.8701H9.90009V23.0628Z" fill="#383838"/>
<path fill-rule="evenodd" clip-rule="evenodd" d="M26.1105 41.4036H24.9506C20.206 41.4036 17.6758 38.7314 17.6758 33.7119V25.5835H23.5803V32.676C23.5803 34.5307 24.1599 35.512 25.5309 35.512C26.9539 35.512 27.4815 34.5307 27.4815 32.021V31.0936C27.4815 28.2031 27.2177 27.1665 25.0567 24.2753L21.2604 19.2565C18.7302 15.874 17.9923 13.2558 17.9923 9.21885V7.91003C17.9923 2.5091 20.6274 0 25.3199 0H26.427C31.3293 0 33.2271 2.23616 33.2271 7.03728V13.6924H27.4815V7.85545C27.4815 6.49141 27.2177 5.45489 25.794 5.45489C24.371 5.45489 24.0544 6.38223 24.0544 8.29151V9.05573C24.0544 11.3471 24.4765 12.6013 26.4792 15.2742L30.2749 20.3476C32.9633 23.9478 33.8068 26.0215 33.8068 30.603V31.9131C33.8068 37.858 31.3293 41.4036 26.1105 41.4036Z" fill="#383838"/>
<path fill-rule="evenodd" clip-rule="evenodd" d="M49.11 0.35498V6.23563H41.5932V16.8551H47.4914V23.0089H41.5932V34.717H49.4228V40.8701H35.6943V0.35498H49.11Z" fill="#383838"/>
<path fill-rule="evenodd" clip-rule="evenodd" d="M64.827 27.2022L63.2277 12.2259L61.6824 27.2022H64.827ZM65.4657 33.2457H61.0964L60.2971 40.8701H54.9141L59.7632 0.35498H66.9049L72.0747 40.8701H66.2662L65.4657 33.2457Z" fill="#383838"/>
<path fill-rule="evenodd" clip-rule="evenodd" d="M78.9332 17.018H80.526C82.1719 17.018 82.7033 15.9288 82.7033 14.1318V8.46852C82.7033 6.72606 82.3313 5.85483 80.526 5.85483H78.9332V17.018ZM78.9332 40.8701H72.9326V0.35498H82.6508C86.6328 0.35498 88.6507 2.09744 88.6507 6.61707V13.8049C88.6507 17.1815 87.1104 18.488 86.0489 18.9784C87.3761 19.5772 88.6507 20.667 88.6507 23.3891V37.6025C88.6507 39.236 88.9689 39.9976 89.2352 40.5964V40.8701H83.2872C83.0215 40.4342 82.7033 39.7264 82.7033 37.548V25.3501C82.7033 23.5525 82.3851 22.7903 80.4729 22.7903H78.9332V40.8701Z" fill="#383838"/>
<path fill-rule="evenodd" clip-rule="evenodd" d="M100.399 6.23563V40.8701H94.5447V6.23563H89.5781V0.35498H105.366V6.23563H100.399Z" fill="#383838"/>
<path fill-rule="evenodd" clip-rule="evenodd" d="M119.055 27.2022L117.456 12.2259L115.91 27.2022H119.055ZM119.694 33.2457H115.324L114.524 40.8701H109.142L113.992 0.35498H121.132L126.302 40.8701H120.494L119.694 33.2457Z" fill="#383838"/>
<path fill-rule="evenodd" clip-rule="evenodd" d="M132.665 0.35498L137.736 22.0825V0.35498H143.12V40.8701H138.311L132.665 17.5623V40.8701H127.332V0.35498H132.665Z" fill="#383838"/>
<path fill-rule="evenodd" clip-rule="evenodd" d="M151.469 34.9882H152.89C154.68 34.9882 155.206 34.0086 155.206 31.8308V9.01343C155.206 6.67157 154.627 5.85483 153.153 5.85483H151.469V34.9882ZM145.522 0.35498H154.627C159.731 0.35498 161.31 3.34948 161.31 8.1422V32.8104C161.31 37.7653 159.521 40.8701 154.627 40.8701H145.522V0.35498Z" fill="#383838"/>
<path fill-rule="evenodd" clip-rule="evenodd" d="M5.94697 76.748H7.36758C9.15682 76.748 9.68342 75.7684 9.68342 73.5906V50.7728C9.68342 48.4316 9.10477 47.6142 7.63089 47.6142H5.94697V76.748ZM0 42.1143H9.10477C14.2086 42.1143 15.7878 45.1094 15.7878 49.901V74.5708C15.7878 79.5252 13.9985 82.6294 9.10477 82.6294H0V42.1143Z" fill="#383838"/>
<path fill-rule="evenodd" clip-rule="evenodd" d="M31.4336 42.1143V47.9956H23.9174V58.614H29.8156V64.7685H23.9174V76.4768H31.747V82.6294H18.0186V42.1143H31.4336Z" fill="#383838"/>
<path fill-rule="evenodd" clip-rule="evenodd" d="M41.383 83.1619H40.2231C35.4785 83.1619 32.9482 80.4891 32.9482 75.4698V67.3423H38.8528V74.434C38.8528 76.2886 39.4324 77.2705 40.8027 77.2705C42.2264 77.2705 42.7539 76.2886 42.7539 73.7796V72.8523C42.7539 69.9611 42.4902 68.9246 40.3292 66.0335L36.5329 61.0142C34.0027 57.6325 33.2648 55.0149 33.2648 50.9788V49.6687C33.2648 44.268 35.8999 41.7583 40.5923 41.7583H41.6995C46.6017 41.7583 48.4996 43.9963 48.4996 48.7954V55.4516H42.7539V49.6141C42.7539 48.2501 42.4902 47.2137 41.0665 47.2137C39.6434 47.2137 39.3269 48.141 39.3269 50.0502V50.8144C39.3269 53.1051 39.7489 54.3605 41.7516 57.0327L45.5473 62.1053C48.2358 65.706 49.0792 67.779 49.0792 72.3616V73.671C49.0792 79.6158 46.6017 83.1619 41.383 83.1619Z" fill="#383838"/>
<path fill-rule="evenodd" clip-rule="evenodd" d="M64.4662 83.1619C60.9585 83.1619 58.7266 79.9537 58.7266 75.766V50.4768C58.7266 45.9638 60.4273 41.7754 66.1144 41.7754H67.2832C73.7149 41.7754 74.4589 46.072 74.4589 50.8584V54.9917H68.6122V50.4224C68.6122 48.6284 68.1867 47.6495 66.6994 47.6495C65.4236 47.6495 64.8385 48.6284 64.8385 50.4224V74.0802C64.8385 75.983 65.5825 76.9626 66.8051 76.9626C68.3469 76.9626 69.0371 75.8748 69.0371 74.3517V64.2367H66.3265V58.0367H74.7242V82.6177H71.3228C71.2696 82.4001 70.7916 80.3885 70.3129 78.6483C69.8874 80.0082 67.8676 83.1619 64.8385 83.1619H64.4662Z" fill="#383838"/>
<path fill-rule="evenodd" clip-rule="evenodd" d="M50.6465 82.6171H56.6527V42.1562H50.6465V82.6171Z" fill="#383838"/>
<path fill-rule="evenodd" clip-rule="evenodd" d="M82.0403 42.1143L87.1117 63.8415V42.1143H92.4958V82.6294H87.6866L82.0403 59.3218V82.6294H76.708V42.1143H82.0403Z" fill="#383838"/>
<path fill-rule="evenodd" clip-rule="evenodd" d="M108.138 83.1619H106.978C102.234 83.1619 99.7031 80.4891 99.7031 75.4698V67.3423H105.608V74.434C105.608 76.2886 106.187 77.2705 107.558 77.2705C108.981 77.2705 109.508 76.2886 109.508 73.7796V72.8523C109.508 69.9611 109.245 68.9246 107.083 66.0335L103.288 61.0142C100.758 57.6325 100.02 55.0149 100.02 50.9788V49.6687C100.02 44.268 102.655 41.7583 107.347 41.7583H108.454C113.357 41.7583 115.254 43.9963 115.254 48.7954V55.4516H109.508V49.6141C109.508 48.2501 109.245 47.2137 107.821 47.2137C106.398 47.2137 106.082 48.141 106.082 50.0502V50.8144C106.082 53.1051 106.504 54.3605 108.507 57.0327L112.302 62.1053C114.991 65.706 115.834 67.779 115.834 72.3616V73.671C115.834 79.6158 113.357 83.1619 108.138 83.1619Z" fill="#383838"/>
<path fill-rule="evenodd" clip-rule="evenodd" d="M127.197 74.4454V65.021H132.995V74.3909C132.995 78.7501 131.637 83.1619 125.944 83.1619H124.638C118.684 83.1619 117.379 78.695 117.379 74.6096V49.8757C117.379 45.7365 119.102 41.7583 124.43 41.7583H125.787C132.264 41.7583 132.995 46.2265 132.995 50.2034V57.448H127.197V50.3118C127.197 48.5687 126.675 47.6426 125.214 47.6426C123.75 47.6426 123.385 48.5148 123.385 50.3118V74.3909C123.385 76.1886 123.959 77.1692 125.265 77.1692C126.675 77.1692 127.197 76.0796 127.197 74.4454Z" fill="#383838"/>
<path fill-rule="evenodd" clip-rule="evenodd" d="M144.781 64.823H140.77V82.6294H134.882V42.1143H140.77V58.3422H144.781V42.1143H150.67V82.6294H144.781V64.823Z" fill="#383838"/>
<path fill-rule="evenodd" clip-rule="evenodd" d="M163.136 50.7479C163.136 48.6232 162.451 47.6426 161.079 47.6426C159.55 47.6426 158.968 48.6783 158.968 50.7479V74.0645C158.968 75.8077 159.443 77.1692 161.132 77.1692C162.715 77.1692 163.136 75.8077 163.136 74.0645V50.7479ZM169.204 73.629C169.204 79.294 167.357 83.1619 161.607 83.1619H160.604C154.906 83.1619 152.901 79.294 152.901 73.629V51.0744C152.901 45.4633 154.959 41.7583 160.551 41.7583H161.554C167.357 41.7583 169.204 45.4633 169.204 51.0199V73.629Z" fill="#383838"/>
<path fill-rule="evenodd" clip-rule="evenodd" d="M181.155 50.7479C181.155 48.6232 180.469 47.6426 179.098 47.6426C177.568 47.6426 176.987 48.6783 176.987 50.7479V74.0645C176.987 75.8077 177.462 77.1692 179.15 77.1692C180.733 77.1692 181.155 75.8077 181.155 74.0645V50.7479ZM187.223 73.629C187.223 79.294 185.376 83.1619 179.625 83.1619H178.622C172.924 83.1619 170.92 79.294 170.92 73.629V51.0744C170.92 45.4633 172.977 41.7583 178.57 41.7583H179.573C185.376 41.7583 187.223 45.4633 187.223 51.0199V73.629Z" fill="#383838"/>
<path fill-rule="evenodd" clip-rule="evenodd" d="M195.402 42.1143V76.3672H202.667V82.6294H189.453V42.1143H195.402Z" fill="#383838"/>
</svg>
