<svg width="381" height="241" viewBox="0 0 381 241" fill="none" xmlns="http://www.w3.org/2000/svg">
<path d="M184.635 0C219.274 5.64513e-06 250.953 10.9856 275.291 29.1553C293.413 18.2022 316.109 15.5617 337.061 23.9863C372.752 38.3381 389.866 79.3674 375.285 115.628C364.955 141.317 341.489 157.719 315.992 159.997C297.13 207.148 245.444 241 184.635 241C135.948 241 93.1091 219.3 68.2822 186.448C56.6769 191.867 42.9248 192.648 30.082 187.483C5.53466 177.613 -6.38897 149.775 3.4502 125.306C11.0461 106.416 29.3915 95.0583 48.6562 95.4014C61.9768 40.8979 117.796 0 184.635 0Z" fill="#4C575E"/>
</svg>
