<svg width="33" height="127" viewBox="0 0 33 127" fill="none" xmlns="http://www.w3.org/2000/svg">
<path d="M1.88895 0.541857C1.63583 0.050995 1.0327 -0.141728 0.541841 0.111398C0.0509787 0.364525 -0.141744 0.967646 0.111382 1.45851L1.00017 1.00018L1.88895 0.541857ZM1.046 1.08906L1.94796 0.657247L1.94157 0.643894L1.93478 0.630736L1.046 1.08906ZM1.22799 1.46919L2.22695 1.51476L2.23839 1.26389L2.12995 1.03738L1.22799 1.46919ZM1.20221 2.03412L0.203253 1.98854L0.182971 2.43313L0.499693 2.74578L1.20221 2.03412ZM1.60305 2.4298L2.42371 1.85839L2.3711 1.78282L2.30557 1.71814L1.60305 2.4298ZM1.90084 2.85748L2.88947 2.70708L2.85447 2.47703L2.7215 2.28606L1.90084 2.85748ZM1.9831 3.39821L0.994475 3.54861L1.01815 3.70421L1.08847 3.84502L1.9831 3.39821ZM2.2164 3.86534L1.32177 4.31215L1.39293 4.45464L1.50484 4.56797L2.2164 3.86534ZM2.59687 4.25066L3.52438 3.87684L3.44938 3.69077L3.30843 3.54803L2.59687 4.25066ZM2.79134 4.73316L3.79002 4.68175L3.78141 4.51459L3.71884 4.35935L2.79134 4.73316ZM2.82099 5.30923L1.82232 5.36064L1.85251 5.94711L2.3794 6.20644L2.82099 5.30923ZM3.3845 5.58657L4.33759 5.2839L4.20856 4.87761L3.82609 4.68936L3.3845 5.58657ZM3.54644 6.09652L2.59335 6.39919L2.66821 6.63493L2.84434 6.80859L3.54644 6.09652ZM3.92916 6.47388L4.92725 6.41211L4.90362 6.03035L4.63126 5.7618L3.92916 6.47388ZM3.96491 7.05157L2.96681 7.11334L2.98621 7.42676L3.1813 7.67283L3.96491 7.05157ZM4.29464 7.46747L3.51103 8.08873L3.51392 8.09235L4.29464 7.46747ZM4.61892 7.87262L3.8382 8.4975L3.87591 8.54462L3.91901 8.58686L4.61892 7.87262ZM5.00336 8.24935L5.99979 8.33376L6.03953 7.86464L5.70327 7.53512L5.00336 8.24935ZM4.94905 8.89053L3.95261 8.80612L3.89081 9.53567L4.56763 9.81493L4.94905 8.89053ZM5.54291 9.13556L6.5264 8.9546L6.42784 8.41891L5.92433 8.21116L5.54291 9.13556ZM5.64386 9.68421L4.66037 9.86517L4.7158 10.1664L4.93044 10.3849L5.64386 9.68421ZM6.01737 10.0645L7.0171 10.0415L7.00799 9.64596L6.73079 9.36373L6.01737 10.0645ZM6.03124 10.6672L5.03151 10.6902L5.04708 11.3665L5.68063 11.6037L6.03124 10.6672ZM6.64818 10.8982L7.58808 10.5567L7.43063 10.1233L6.99879 9.96163L6.64818 10.8982ZM6.82786 11.3927L5.88796 11.7342L5.91022 11.7955L5.94024 11.8533L6.82786 11.3927ZM7.07271 11.8646L6.18509 12.3252L6.22179 12.3959L6.26923 12.46L7.07271 11.8646ZM7.37716 12.2755L8.37246 12.1787L8.34563 11.9029L8.18064 11.6802L7.37716 12.2755ZM7.43403 12.8602L6.43872 12.957L6.48167 13.3985L6.83782 13.663L7.43403 12.8602ZM7.88112 13.1922L8.70376 12.6236L8.60989 12.4878L8.47733 12.3894L7.88112 13.1922ZM8.1742 13.6162L9.16411 13.4745L9.13074 13.2414L8.99685 13.0477L8.1742 13.6162ZM8.2566 14.1919L7.26669 14.3336L7.34367 14.8713L7.83665 15.0994L8.2566 14.1919ZM8.80774 14.4469L9.73763 14.0791L9.59057 13.7073L9.22769 13.5394L8.80774 14.4469ZM9.00229 14.9388L9.9413 14.5949L9.9369 14.5828L9.93219 14.5709L9.00229 14.9388ZM9.18937 15.4496L8.25035 15.7935L8.34869 16.062L8.57412 16.2379L9.18937 15.4496ZM9.61468 15.7815L10.4348 15.2093L10.3486 15.0858L10.2299 14.9932L9.61468 15.7815ZM9.91184 16.2074L10.9087 16.1284L10.8873 15.8578L10.7319 15.6352L9.91184 16.2074ZM9.9596 16.8103L8.96272 16.8892L9.01418 17.5388L9.6292 17.7541L9.9596 16.8103ZM10.5662 17.0226L11.566 17.0377L11.5769 16.3169L10.8966 16.0788L10.5662 17.0226ZM10.5567 17.6501L9.55682 17.635L9.55127 18.003L9.78551 18.2867L10.5567 17.6501ZM10.8945 18.0594L10.1233 18.696L10.2734 18.8778L10.4889 18.9734L10.8945 18.0594ZM11.4536 18.3074L12.2939 17.7653L12.132 17.5144L11.8591 17.3934L11.4536 18.3074ZM11.7329 18.7404L12.7317 18.6919L12.7187 18.4238L12.5732 18.1983L11.7329 18.7404ZM11.7626 19.3509L10.7638 19.3995L10.7834 19.803L11.0779 20.0797L11.7626 19.3509ZM12.1552 19.7198L12.9731 19.1444L12.9144 19.0609L12.84 18.991L12.1552 19.7198ZM12.4497 20.1384L13.3371 19.6774L13.3062 19.6179L13.2676 19.5631L12.4497 20.1384ZM12.6908 20.6025L11.8034 21.0636L11.8099 21.076L11.8167 21.0882L12.6908 20.6025ZM12.9481 21.0657L13.8471 20.6277L13.8353 20.6035L13.8223 20.58L12.9481 21.0657ZM13.1767 21.5348L12.2777 21.9728L12.4251 22.2753L12.7253 22.4271L13.1767 21.5348ZM13.7023 21.8007L14.6252 21.4157L14.4831 21.075L14.1537 20.9084L13.7023 21.8007ZM13.9073 22.292L12.9843 22.677L13.0864 22.9216L13.2961 23.0835L13.9073 22.292ZM14.3482 22.6326L15.3374 22.4857L15.2783 22.0873L14.9594 21.8411L14.3482 22.6326ZM14.4318 23.1956L13.4426 23.3424L13.4855 23.6309L13.6767 23.8512L14.4318 23.1956ZM14.7721 23.5875L15.5945 23.0186L15.5632 22.9734L15.5272 22.9319L14.7721 23.5875ZM15.0692 24.017L14.2468 24.5859L14.3011 24.6644L14.3692 24.7312L15.0692 24.017ZM15.4546 24.3947L16.3247 23.9019L16.2552 23.7792L16.1546 23.6805L15.4546 24.3947ZM15.7131 24.8512L16.5902 24.3707L16.5832 24.3584L15.7131 24.8512ZM15.9641 25.3094L15.087 25.7898L15.0935 25.8015L15.1002 25.8131L15.9641 25.3094ZM16.2265 25.7594L15.3627 26.2631L15.4088 26.3422L15.4684 26.4116L16.2265 25.7594ZM16.5693 26.1578L17.3384 25.5187L17.3329 25.5121L17.3274 25.5057L16.5693 26.1578ZM16.9053 26.5621L17.7717 26.0628L17.729 25.9887L17.6744 25.923L16.9053 26.5621ZM17.1657 27.014L18.0591 26.5647L18.0464 26.5393L18.0321 26.5146L17.1657 27.014ZM17.4005 27.4808L18.3966 27.3921L18.3796 27.202L18.2939 27.0315L17.4005 27.4808ZM17.4516 28.0544L16.4555 28.1431L16.48 28.4173L16.6412 28.6403L17.4516 28.0544ZM17.7573 28.4771L16.9469 29.063L17.0342 29.1837L17.1528 29.2737L17.7573 28.4771ZM18.2078 28.819L19.0768 28.3241L18.9754 28.1461L18.8123 28.0224L18.2078 28.819ZM18.4656 29.2716L19.4419 29.055L19.4092 28.9077L19.3346 28.7767L18.4656 29.2716ZM18.5831 29.801L17.6068 30.0176L17.6235 30.0925L17.6513 30.1641L18.5831 29.801ZM18.7733 30.2889L17.8415 30.652L17.85 30.6737L17.8594 30.6949L18.7733 30.2889ZM18.9846 30.7647L19.9038 30.3706L19.8985 30.3587L18.9846 30.7647ZM19.1897 31.2431L18.2706 31.6371L18.3129 31.7358L18.3753 31.8233L19.1897 31.2431ZM19.4941 31.6703L20.4095 31.2677L20.3681 31.1737L20.3085 31.0901L19.4941 31.6703ZM19.7035 32.1465L20.6631 31.8651L20.6449 31.8031L20.6189 31.7439L19.7035 32.1465ZM19.8518 32.6524L18.8922 32.9337L18.983 33.2434L19.2377 33.4416L19.8518 32.6524ZM20.3078 33.0072L21.0785 32.37L21.0085 32.2853L20.9219 32.2179L20.3078 33.0072ZM20.6493 33.4203L21.6161 33.1646L21.5599 32.9523L21.42 32.7831L20.6493 33.4203ZM20.7848 33.9325L19.8181 34.1882L19.8351 34.2527L19.8606 34.3144L20.7848 33.9325ZM20.9838 34.4139L20.0596 34.7958L20.0795 34.8441L20.1044 34.89L20.9838 34.4139ZM21.232 34.8724L22.1343 34.4413L22.1234 34.4185L22.1114 34.3963L21.232 34.8724ZM21.4564 35.3421L22.4562 35.3236L22.4522 35.1067L22.3587 34.911L21.4564 35.3421ZM21.4668 35.9075L20.4669 35.9259L20.4742 36.3192L20.7474 36.6022L21.4668 35.9075ZM21.8512 36.3056L22.797 35.981L22.7249 35.7708L22.5705 35.611L21.8512 36.3056ZM22.0206 36.7992L21.0747 37.1238L21.092 37.1743L21.1146 37.2226L22.0206 36.7992ZM22.2409 37.2706L23.1815 36.9311L23.1661 36.8884L23.1468 36.8473L22.2409 37.2706ZM22.4177 37.7606L23.4105 37.6409L23.3969 37.528L23.3583 37.4211L22.4177 37.7606ZM22.4825 38.2972L21.4897 38.417L21.5468 38.8909L21.9513 39.1445L22.4825 38.2972ZM23.0225 38.6358L23.9866 38.9015L24.1843 38.1839L23.5537 37.7886L23.0225 38.6358ZM22.8477 39.2701L21.8837 39.0044L21.7881 39.3513L21.9354 39.6795L22.8477 39.2701ZM23.0605 39.7442L22.1481 40.1536L22.2084 40.2878L22.3048 40.3991L23.0605 39.7442ZM23.4204 40.1595L24.2158 39.5534L24.1967 39.5284L24.1761 39.5046L23.4204 40.1595ZM23.748 40.5894L24.6798 40.2265L24.6287 40.0953L24.5434 39.9834L23.748 40.5894ZM23.937 41.0746L23.0052 41.4375L23.0134 41.4586L23.0226 41.4793L23.937 41.0746ZM24.1479 41.5511L25.1239 41.7686L25.1956 41.4473L25.0623 41.1463L24.1479 41.5511ZM24.0121 42.1603L23.036 41.9427L22.9403 42.3722L23.1923 42.733L24.0121 42.1603ZM24.319 42.5997L25.2984 42.3977L25.2568 42.196L25.1388 42.0271L24.319 42.5997ZM24.4253 43.1151L23.446 43.3171L23.4841 43.502L23.587 43.6603L24.4253 43.1151ZM24.7156 43.5614L25.6834 43.3098L25.6425 43.1525L25.5539 43.0162L24.7156 43.5614ZM24.8471 44.0673L23.8792 44.3188L23.9466 44.5778L24.1342 44.7685L24.8471 44.0673ZM25.2478 44.4746L26.2099 44.7474L26.3685 44.1879L25.9607 43.7734L25.2478 44.4746ZM25.073 45.0912L24.1109 44.8185L23.9414 45.4162L24.4022 45.8329L25.073 45.0912ZM25.5097 45.4862L26.4975 45.3307L26.4426 44.9816L26.1805 44.7445L25.5097 45.4862ZM25.5927 46.0134L24.6049 46.169L24.614 46.2271L24.6299 46.2837L25.5927 46.0134ZM25.7332 46.514L24.7705 46.7842L24.8364 47.0192L25.0032 47.1974L25.7332 46.514ZM26.1215 46.9287L27.1214 46.9417L27.1266 46.5392L26.8515 46.2454L26.1215 46.9287ZM26.1142 47.4837L25.1143 47.4707L25.1125 47.6137L25.1508 47.7515L26.1142 47.4837ZM26.2527 47.9816L27.2527 47.9827L27.2528 47.8457L27.2161 47.7138L26.2527 47.9816ZM26.2521 48.5338L25.2521 48.5327L25.2516 48.9792L25.5837 49.2776L26.2521 48.5338ZM26.6959 48.9327L27.6603 48.6682L27.5827 48.3851L27.3643 48.1889L26.6959 48.9327ZM26.8337 49.4351L27.8324 49.3828L27.8267 49.2748L27.7981 49.1706L26.8337 49.4351ZM26.8619 49.9736L25.8633 50.0259L25.8663 50.082L25.8755 50.1374L26.8619 49.9736ZM26.9474 50.4885L25.961 50.6523L25.9805 50.7698L26.027 50.8794L26.9474 50.4885ZM27.1527 50.9719L26.2322 51.3627L26.2677 51.4463L26.3177 51.5221L27.1527 50.9719ZM27.4486 51.4209L28.3645 51.0194L28.3303 50.9416L28.2836 50.8707L27.4486 51.4209ZM27.6602 51.9037L28.5789 51.5084L28.5761 51.5021L27.6602 51.9037ZM27.8667 52.3834L28.8249 52.6692L28.9286 52.3215L28.7852 51.9882L27.8667 52.3834ZM27.6889 52.9793L26.7306 52.6934L26.5445 53.3175L27.04 53.7401L27.6889 52.9793ZM28.1622 53.3829L29.1571 53.2819L29.1165 52.8826L28.8111 52.6221L28.1622 53.3829ZM28.2156 53.909L27.2207 54.01L27.2306 54.1073L27.2591 54.2009L28.2156 53.909ZM28.3676 54.4072L29.3663 54.3559L29.36 54.233L29.3241 54.1154L28.3676 54.4072ZM28.3949 54.9383L27.3962 54.9896L27.4062 55.1836L27.488 55.3597L28.3949 54.9383ZM28.6177 55.4179L29.617 55.4565L29.6263 55.2153L29.5246 54.9965L28.6177 55.4179ZM28.5968 55.96L27.5975 55.9214L27.5875 56.1802L27.7044 56.4113L28.5968 55.96ZM28.8373 56.4357L29.8239 56.5991L29.8774 56.2764L29.7297 55.9845L28.8373 56.4357ZM28.7449 56.9939L27.7583 56.8304L27.6684 57.3734L28.0789 57.7398L28.7449 56.9939ZM29.2157 57.4141L30.1457 57.7816L30.4021 57.1328L29.8816 56.6681L29.2157 57.4141ZM28.9824 58.0043L28.0524 57.6368L27.9226 57.9654L28.0279 58.3026L28.9824 58.0043ZM29.1374 58.5003L28.183 58.7986L28.2669 59.0671L28.4784 59.2525L29.1374 58.5003ZM29.6221 58.925L30.6175 58.8288L30.5794 58.4342L30.2811 58.1729L29.6221 58.925ZM29.6724 59.4453L30.6698 59.5172L30.6759 59.4331L30.6678 59.3491L29.6724 59.4453ZM29.6332 59.9882L30.6221 60.1373L30.6279 60.0989L30.6307 60.0601L29.6332 59.9882ZM29.5511 60.5325L28.5623 60.3833L28.5105 60.7268L28.6828 61.0284L29.5511 60.5325ZM29.8239 61.0101L30.8172 60.8944L30.7936 60.6915L30.6923 60.5141L29.8239 61.0101ZM29.8841 61.5271L28.8908 61.6427L28.8984 61.708L28.9145 61.7718L29.8841 61.5271ZM30.0113 62.0312L29.0417 62.2759L29.0465 62.2947L29.0519 62.3132L30.0113 62.0312ZM30.1594 62.5348L31.1579 62.5895L31.1673 62.4178L31.1188 62.2527L30.1594 62.5348ZM30.1303 63.0649L29.1318 63.0101L29.1267 63.1032L29.1389 63.1955L30.1303 63.0649ZM30.1983 63.5808L31.1967 63.6367L31.202 63.5431L31.1897 63.4501L30.1983 63.5808ZM30.1686 64.1109L29.1702 64.055L29.1522 64.3765L29.3253 64.6482L30.1686 64.1109ZM30.4737 64.5897L31.4424 64.8378L31.55 64.4179L31.3171 64.0524L30.4737 64.5897ZM30.3345 65.1332L29.3658 64.8851L29.3062 65.1178L29.3588 65.3522L30.3345 65.1332ZM30.4488 65.6426L31.4476 65.5946L31.4435 65.5081L31.4245 65.4237L30.4488 65.6426ZM30.4737 66.1609L29.4748 66.2089L29.4831 66.3817L29.549 66.5417L30.4737 66.1609ZM30.6788 66.6591L29.7541 67.0399L29.7636 67.0628L29.7741 67.0852L30.6788 66.6591ZM30.9152 67.1611L31.911 67.0696L31.8949 66.8943L31.8199 66.735L30.9152 67.1611ZM30.963 67.6812L31.923 67.9611L31.9762 67.7788L31.9588 67.5897L30.963 67.6812ZM30.8073 68.2152L29.8473 67.9352L29.7578 68.2423L29.8631 68.5444L30.8073 68.2152ZM30.9847 68.7239L31.9508 68.9819L32.0301 68.6849L31.9289 68.3946L30.9847 68.7239ZM30.8437 69.2518L29.8775 68.9937L29.8162 69.2233L29.8648 69.4559L30.8437 69.2518ZM30.9514 69.7683L31.9509 69.7347L31.948 69.6486L31.9304 69.5642L30.9514 69.7683ZM30.9689 70.289L29.9695 70.3226L29.9709 70.3651L29.976 70.4075L30.9689 70.289ZM31.0309 70.8086L30.038 70.9271L30.047 71.0027L30.0674 71.0761L31.0309 70.8086ZM31.1754 71.3289L32.162 71.4922L32.198 71.2742L32.139 71.0614L31.1754 71.3289ZM31.089 71.8508L32.0236 72.2067L32.0592 72.113L32.0756 72.0141L31.089 71.8508ZM30.8919 72.3686L29.9573 72.0128L29.89 72.1898L29.8919 72.3791L30.8919 72.3686ZM30.8973 72.8854L31.8934 72.9734L31.8977 72.9243L31.8972 72.875L30.8973 72.8854ZM30.8515 73.4041L29.8553 73.3161L29.8314 73.5869L29.9479 73.8325L30.8515 73.4041ZM31.1028 73.9343L31.9609 74.4477L32.2354 73.989L32.0064 73.5059L31.1028 73.9343ZM30.7997 74.4409L29.9416 73.9274L29.6845 74.3571L29.8745 74.8204L30.7997 74.4409ZM31.0181 74.9732L32.0179 74.9526L32.0141 74.7662L31.9433 74.5936L31.0181 74.9732ZM31.0288 75.4956L32.0102 75.688L32.0308 75.5825L32.0286 75.475L31.0288 75.4956ZM30.9277 76.0112L31.7329 76.6042L31.8659 76.4237L31.9091 76.2036L30.9277 76.0112ZM30.5615 76.5085L29.7563 75.9154L29.5716 76.1663L29.562 76.4776L30.5615 76.5085ZM30.5455 77.028L29.5459 76.9972L29.5381 77.2499L29.6514 77.4759L30.5455 77.028ZM30.8164 77.569L31.7278 77.9805L31.9237 77.5467L31.7105 77.1211L30.8164 77.569ZM30.5886 78.0736L29.6772 77.6621L29.6535 77.7147L29.6359 77.7697L30.5886 78.0736ZM30.4264 78.5823L29.4736 78.2784L29.3887 78.5447L29.4542 78.8165L30.4264 78.5823ZM30.5546 79.1143L31.5526 79.177L31.562 79.0266L31.5267 78.8801L30.5546 79.1143ZM30.5219 79.6337L29.5239 79.571L29.5153 79.7075L29.5437 79.8413L30.5219 79.6337ZM30.6349 80.1659L31.6349 80.1686L31.6352 80.0623L31.6131 79.9583L30.6349 80.1659ZM30.6335 80.6884L31.3734 81.361L31.6324 81.0761L31.6335 80.6911L30.6335 80.6884ZM30.1954 81.1704L29.4554 80.4977L29.205 80.7732L29.1957 81.1453L30.1954 81.1704ZM30.1823 81.6909L29.1826 81.6658L29.1806 81.7438L29.1908 81.8211L30.1823 81.6909ZM30.2517 82.2198L31.2345 82.4044L31.2639 82.2477L31.2432 82.0897L30.2517 82.2198ZM30.1553 82.7328L31.1139 83.0175L31.1286 82.9681L31.1381 82.9174L30.1553 82.7328ZM30.0046 83.2402L29.046 82.9555L29.0078 83.0841L29.0049 83.2182L30.0046 83.2402ZM29.9932 83.7615L30.9898 83.8441L30.9923 83.8138L30.993 83.7835L29.9932 83.7615ZM29.9503 84.2797L28.9537 84.1972L28.9466 84.2827L28.9542 84.3681L29.9503 84.2797ZM29.9971 84.8075L29.0011 84.8959L29.0065 84.9576L29.0196 85.0182L29.9971 84.8075ZM30.1126 85.3434L31.112 85.3789L31.1164 85.2545L31.0902 85.1327L30.1126 85.3434ZM30.0941 85.865L31.0358 86.2014L31.088 86.0555L31.0935 85.9006L30.0941 85.865ZM29.9143 86.3684L28.9726 86.0319L28.8963 86.2454L28.9196 86.4709L29.9143 86.3684ZM29.9689 86.8985L30.9083 87.2412L30.9872 87.025L30.9636 86.796L29.9689 86.8985ZM29.7857 87.4007L28.8463 87.058L28.7834 87.2302L28.7858 87.4134L29.7857 87.4007ZM29.7924 87.9253L30.6769 88.3919L30.7955 88.1669L30.7923 87.9125L29.7924 87.9253ZM29.5326 88.4176L28.6482 87.951L28.473 88.2832L28.5597 88.6486L29.5326 88.4176ZM29.6609 88.9581L30.6191 89.2445L30.6958 88.9878L30.6339 88.7271L29.6609 88.9581ZM29.5099 89.4635L30.4627 89.7669L30.4654 89.7584L30.468 89.7498L29.5099 89.4635ZM29.3495 89.9671L30.2569 90.3875L30.2833 90.3304L30.3024 90.2705L29.3495 89.9671ZM29.1203 90.4619L28.2129 90.0416L28.1243 90.2328L28.1204 90.4436L29.1203 90.4619ZM29.1107 90.9846L30.1097 91.0296L30.1103 91.0163L30.1105 91.003L29.1107 90.9846ZM29.0872 91.5062L30.023 91.8587L30.079 91.7099L30.0862 91.5512L29.0872 91.5062ZM28.9001 92.0029L27.9643 91.6505L27.8806 91.8729L27.9058 92.1091L28.9001 92.0029ZM28.9573 92.5378L29.9552 92.4733L29.9538 92.4524L29.9516 92.4316L28.9573 92.5378ZM28.9915 93.0679L29.9914 93.0832L29.992 93.0433L29.9894 93.0034L28.9915 93.0679ZM28.9834 93.5955L29.8304 94.1269L29.979 93.8902L29.9833 93.6108L28.9834 93.5955ZM28.6855 94.0703L27.8384 93.5388L27.6897 93.7757L27.6856 94.0554L28.6855 94.0703ZM28.6776 94.5989L27.6777 94.5841L27.6762 94.6888L27.6963 94.7916L28.6776 94.5989ZM28.7848 95.1451L29.7336 95.461L29.8169 95.211L29.7661 94.9525L28.7848 95.1451ZM28.6184 95.6449L29.5609 95.9792L29.5642 95.97L29.5672 95.9608L28.6184 95.6449ZM28.4423 96.1415L29.3844 96.4768L29.3848 96.4758L28.4423 96.1415ZM28.2665 96.6355L27.3244 96.3003L27.2458 96.521L27.2735 96.7536L28.2665 96.6355ZM28.3313 97.1808L29.1675 97.7292L29.3674 97.4246L29.3243 97.0627L28.3313 97.1808ZM28.0252 97.6476L27.189 97.0991L27.028 97.3445L27.0252 97.638L28.0252 97.6476ZM28.0201 98.1783L28.9445 98.5598L29.0182 98.3811L29.0201 98.1878L28.0201 98.1783ZM27.8184 98.6672L26.894 98.2857L26.7688 98.5891L26.8477 98.9076L27.8184 98.6672ZM27.9576 99.2293L28.7071 99.8913L29.0544 99.4981L28.9282 98.9889L27.9576 99.2293ZM27.5644 99.6745L26.8149 99.0125L26.4524 99.4228L26.6029 99.9493L27.5644 99.6745ZM27.7283 100.248L28.5148 100.866L28.8301 100.464L28.6898 99.9733L27.7283 100.248ZM27.3762 100.696L26.5897 100.079L26.4912 100.204L26.4366 100.354L27.3762 100.696ZM27.197 101.188L26.2574 100.846L26.1452 101.154L26.237 101.468L27.197 101.188ZM27.3667 101.77L28.0557 102.495L28.4974 102.075L28.3266 101.49L27.3667 101.77ZM26.9241 102.19L26.2351 101.466L26.003 101.686L25.9422 102.001L26.9241 102.19ZM26.8256 102.7L27.8071 102.892L27.8074 102.89L26.8256 102.7ZM26.7256 103.214L27.549 103.781L27.6672 103.609L27.7071 103.405L26.7256 103.214ZM26.4144 103.665L25.591 103.098L25.285 103.542L25.4879 104.041L26.4144 103.665ZM26.6642 104.28L27.5957 104.644L27.7406 104.273L27.5907 103.904L26.6642 104.28ZM26.4743 104.766L27.207 105.447L27.3365 105.307L27.4057 105.13L26.4743 104.766ZM26.0823 105.188L25.3495 104.508L25.0639 104.816L25.0834 105.235L26.0823 105.188ZM26.1081 105.744L27.0266 106.139L27.1177 105.928L27.107 105.697L26.1081 105.744ZM25.9012 106.225L24.9827 105.829L24.9409 105.926L24.9203 106.03L25.9012 106.225ZM25.7987 106.74L26.4083 107.533L26.7063 107.304L26.7796 106.935L25.7987 106.74ZM25.3061 107.119L24.6966 106.326L24.2413 106.676L24.3142 107.246L25.3061 107.119ZM25.3801 107.697L26.0651 108.426L26.4368 108.076L26.372 107.57L25.3801 107.697ZM24.9575 108.094L24.2726 107.366L23.8193 107.792L24.0012 108.387L24.9575 108.094ZM25.15 108.724L26.0678 109.121L26.2139 108.783L26.1063 108.432L25.15 108.724ZM24.9429 109.203L25.7821 109.747L25.8275 109.676L25.8606 109.6L24.9429 109.203ZM24.6547 109.647L23.8155 109.104L23.7563 109.195L23.7182 109.297L24.6547 109.647ZM24.4712 110.137L25.071 110.938L25.3052 110.762L25.4078 110.488L24.4712 110.137ZM23.9927 110.496L23.393 109.696L23.1155 109.904L23.0263 110.239L23.9927 110.496ZM23.8631 110.983L24.6969 111.535L24.7874 111.399L24.8295 111.24L23.8631 110.983ZM23.5764 111.416L22.7427 110.864L22.7127 110.909L22.6878 110.957L23.5764 111.416ZM23.3362 111.882L22.4475 111.423L22.383 111.548L22.3555 111.686L23.3362 111.882ZM23.2247 112.44L23.9353 113.143L24.1466 112.93L24.2054 112.636L23.2247 112.44ZM22.8533 112.815L23.4343 113.629L23.5039 113.579L23.564 113.518L22.8533 112.815ZM22.4063 113.134L21.8253 112.32L21.7326 112.386L21.6572 112.471L22.4063 113.134ZM22.0604 113.525L21.3114 112.862L21.1229 113.076L21.0748 113.356L22.0604 113.525ZM21.9621 114.098L22.7237 114.746L22.9013 114.538L22.9477 114.267L21.9621 114.098ZM21.6241 114.496L22.3424 115.191L22.3649 115.168L22.3858 115.144L21.6241 114.496ZM21.2591 114.872L20.5408 114.177L20.4767 114.243L20.4258 114.32L21.2591 114.872ZM20.9708 115.307L21.6994 115.992L21.7574 115.93L21.8042 115.86L20.9708 115.307ZM20.6125 115.688L21.3141 116.401L21.3279 116.387L21.3411 116.373L20.6125 115.688ZM20.2383 116.057L19.5367 115.344L19.455 115.425L19.3936 115.521L20.2383 116.057ZM19.9586 116.498L20.7467 117.114L20.777 117.075L20.8033 117.033L19.9586 116.498ZM19.6384 116.908L18.8504 116.292L18.8109 116.343L18.7782 116.398L19.6384 116.908ZM19.3709 117.359L19.8781 118.221L20.0999 118.091L20.2312 117.869L19.3709 117.359ZM18.8906 117.642L18.3834 116.78L18.2248 116.874L18.1098 117.017L18.8906 117.642ZM18.5659 118.048L17.7851 117.423L17.7653 117.448L17.7471 117.474L18.5659 118.048ZM18.2669 118.474L19.0856 119.048L19.0857 119.048L18.2669 118.474ZM17.9676 118.901L17.1489 118.327L17.0342 118.49L16.9911 118.685L17.9676 118.901ZM17.8419 119.47L18.4986 120.225L18.7474 120.008L18.8184 119.686L17.8419 119.47ZM17.4437 119.817L17.996 120.651L18.0508 120.615L18.1004 120.571L17.4437 119.817ZM16.9908 120.117L16.4386 119.283L16.4328 119.287L16.9908 120.117ZM16.5428 120.418L15.9848 119.589L15.593 119.852L15.5474 120.322L16.5428 120.418ZM16.4818 121.048L16.9816 121.914L17.4274 121.657L17.4771 121.144L16.4818 121.048ZM16.0022 121.325L15.5023 120.459L15.4133 120.51L15.3365 120.578L16.0022 121.325ZM15.6117 121.673L14.9461 120.927L14.7536 121.098L14.6682 121.342L15.6117 121.673ZM15.4267 122.2L16.1785 122.86L16.3062 122.714L16.3703 122.531L15.4267 122.2ZM15.0832 122.592L15.4006 123.54L15.6569 123.454L15.835 123.251L15.0832 122.592ZM14.5237 122.779L14.2063 121.831L13.7165 121.995L13.5667 122.489L14.5237 122.779ZM14.3534 123.341L14.9227 124.163L15.2093 123.965L15.3104 123.631L14.3534 123.341ZM13.919 123.642L14.3162 124.56L14.407 124.52L14.4883 124.464L13.919 123.642ZM13.4122 123.861L13.015 122.944L12.6378 123.107L12.4844 123.488L13.4122 123.861ZM13.1981 124.394L13.7669 125.216L14.0138 125.045L14.1258 124.767L13.1981 124.394ZM12.7662 124.692L12.1973 123.87L11.9778 124.022L11.8632 124.263L12.7662 124.692ZM12.5251 125.199L12.9007 126.126L13.261 125.98L13.4281 125.629L12.5251 125.199ZM12.0102 125.408L11.6346 124.481L11.5103 124.531L11.4037 124.613L12.0102 125.408ZM11.2119 124.759C10.7728 125.094 10.6885 125.722 11.0235 126.161C11.3585 126.6 11.986 126.684 12.4251 126.349L11.8185 125.554L11.2119 124.759ZM1.00017 1.00018L0.111382 1.45851L0.157215 1.54739L1.046 1.08906L1.93478 0.630736L1.88895 0.541857L1.00017 1.00018ZM1.046 1.08906L0.144037 1.52088L0.326024 1.901L1.22799 1.46919L2.12995 1.03738L1.94796 0.657247L1.046 1.08906ZM1.22799 1.46919L0.229025 1.42362L0.203253 1.98854L1.20221 2.03412L2.20118 2.07969L2.22695 1.51476L1.22799 1.46919ZM1.20221 2.03412L0.499693 2.74578L0.900531 3.14147L1.60305 2.4298L2.30557 1.71814L1.90473 1.32245L1.20221 2.03412ZM1.60305 2.4298L0.782392 3.00122L1.08018 3.4289L1.90084 2.85748L2.7215 2.28606L2.42371 1.85839L1.60305 2.4298ZM1.90084 2.85748L0.912214 3.00788L0.994475 3.54861L1.9831 3.39821L2.97173 3.24782L2.88947 2.70708L1.90084 2.85748ZM1.9831 3.39821L1.08847 3.84502L1.32177 4.31215L2.2164 3.86534L3.11103 3.41854L2.87773 2.95141L1.9831 3.39821ZM2.2164 3.86534L1.50484 4.56797L1.88531 4.95328L2.59687 4.25066L3.30843 3.54803L2.92796 3.16272L2.2164 3.86534ZM2.59687 4.25066L1.66937 4.62447L1.86384 5.10698L2.79134 4.73316L3.71884 4.35935L3.52438 3.87684L2.59687 4.25066ZM2.79134 4.73316L1.79266 4.78457L1.82232 5.36064L2.82099 5.30923L3.81967 5.25782L3.79002 4.68175L2.79134 4.73316ZM2.82099 5.30923L2.3794 6.20644L2.9429 6.48379L3.3845 5.58657L3.82609 4.68936L3.26259 4.41201L2.82099 5.30923ZM3.3845 5.58657L2.4314 5.88925L2.59335 6.39919L3.54644 6.09652L4.49953 5.79384L4.33759 5.2839L3.3845 5.58657ZM3.54644 6.09652L2.84434 6.80859L3.22705 7.18595L3.92916 6.47388L4.63126 5.7618L4.24855 5.38445L3.54644 6.09652ZM3.92916 6.47388L2.93107 6.53564L2.96681 7.11334L3.96491 7.05157L4.96299 6.98981L4.92725 6.41211L3.92916 6.47388ZM3.96491 7.05157L3.1813 7.67283L3.51103 8.08873L4.29464 7.46747L5.07824 6.8462L4.74851 6.43031L3.96491 7.05157ZM4.29464 7.46747L3.51392 8.09235L3.8382 8.4975L4.61892 7.87262L5.39964 7.24774L5.07536 6.84259L4.29464 7.46747ZM4.61892 7.87262L3.91901 8.58686L4.30345 8.96358L5.00336 8.24935L5.70327 7.53512L5.31883 7.15839L4.61892 7.87262ZM5.00336 8.24935L4.00693 8.16495L3.95261 8.80612L4.94905 8.89053L5.94548 8.97493L5.99979 8.33376L5.00336 8.24935ZM4.94905 8.89053L4.56763 9.81493L5.1615 10.06L5.54291 9.13556L5.92433 8.21116L5.33046 7.96612L4.94905 8.89053ZM5.54291 9.13556L4.55942 9.31652L4.66037 9.86517L5.64386 9.68421L6.62735 9.50325L6.5264 8.9546L5.54291 9.13556ZM5.64386 9.68421L4.93044 10.3849L5.30395 10.7652L6.01737 10.0645L6.73079 9.36373L6.35728 8.98347L5.64386 9.68421ZM6.01737 10.0645L5.01763 10.0875L5.03151 10.6902L6.03124 10.6672L7.03098 10.6442L7.0171 10.0415L6.01737 10.0645ZM6.03124 10.6672L5.68063 11.6037L6.29757 11.8347L6.64818 10.8982L6.99879 9.96163L6.38186 9.73067L6.03124 10.6672ZM6.64818 10.8982L5.70828 11.2396L5.88796 11.7342L6.82786 11.3927L7.76776 11.0513L7.58808 10.5567L6.64818 10.8982ZM6.82786 11.3927L5.94024 11.8533L6.18509 12.3252L7.07271 11.8646L7.96034 11.4041L7.71549 10.9322L6.82786 11.3927ZM7.07271 11.8646L6.26923 12.46L6.57368 12.8709L7.37716 12.2755L8.18064 11.6802L7.87619 11.2693L7.07271 11.8646ZM7.37716 12.2755L6.38186 12.3723L6.43872 12.957L7.43403 12.8602L8.42933 12.7633L8.37246 12.1787L7.37716 12.2755ZM7.43403 12.8602L6.83782 13.663L7.28491 13.995L7.88112 13.1922L8.47733 12.3894L8.03024 12.0573L7.43403 12.8602ZM7.88112 13.1922L7.05847 13.7607L7.35156 14.1848L8.1742 13.6162L8.99685 13.0477L8.70376 12.6236L7.88112 13.1922ZM8.1742 13.6162L7.1843 13.758L7.26669 14.3336L8.2566 14.1919L9.24651 14.0502L9.16411 13.4745L8.1742 13.6162ZM8.2566 14.1919L7.83665 15.0994L8.38778 15.3544L8.80774 14.4469L9.22769 13.5394L8.67656 13.2843L8.2566 14.1919ZM8.80774 14.4469L7.87784 14.8147L8.07239 15.3066L9.00229 14.9388L9.93219 14.5709L9.73763 14.0791L8.80774 14.4469ZM9.00229 14.9388L8.06327 15.2826L8.25035 15.7935L9.18937 15.4496L10.1284 15.1057L9.9413 14.5949L9.00229 14.9388ZM9.18937 15.4496L8.57412 16.2379L8.99943 16.5699L9.61468 15.7815L10.2299 14.9932L9.80462 14.6613L9.18937 15.4496ZM9.61468 15.7815L8.7946 16.3538L9.09176 16.7796L9.91184 16.2074L10.7319 15.6352L10.4348 15.2093L9.61468 15.7815ZM9.91184 16.2074L8.91497 16.2864L8.96272 16.8892L9.9596 16.8103L10.9565 16.7313L10.9087 16.1284L9.91184 16.2074ZM9.9596 16.8103L9.6292 17.7541L10.2358 17.9665L10.5662 17.0226L10.8966 16.0788L10.29 15.8664L9.9596 16.8103ZM10.5662 17.0226L9.56627 17.0075L9.55682 17.635L10.5567 17.6501L11.5566 17.6652L11.566 17.0377L10.5662 17.0226ZM10.5567 17.6501L9.78551 18.2867L10.1233 18.696L10.8945 18.0594L11.6657 17.4228L11.3279 17.0135L10.5567 17.6501ZM10.8945 18.0594L10.4889 18.9734L11.048 19.2215L11.4536 18.3074L11.8591 17.3934L11.3001 17.1453L10.8945 18.0594ZM11.4536 18.3074L10.6133 18.8495L10.8926 19.2826L11.7329 18.7404L12.5732 18.1983L12.2939 17.7653L11.4536 18.3074ZM11.7329 18.7404L10.7341 18.789L10.7638 19.3995L11.7626 19.3509L12.7614 19.3023L12.7317 18.6919L11.7329 18.7404ZM11.7626 19.3509L11.0779 20.0797L11.4705 20.4485L12.1552 19.7198L12.84 18.991L12.4474 18.6221L11.7626 19.3509ZM12.1552 19.7198L11.3373 20.2951L11.6318 20.7137L12.4497 20.1384L13.2676 19.5631L12.9731 19.1444L12.1552 19.7198ZM12.4497 20.1384L11.5623 20.5994L11.8034 21.0636L12.6908 20.6025L13.5782 20.1415L13.3371 19.6774L12.4497 20.1384ZM12.6908 20.6025L11.8167 21.0882L12.0739 21.5513L12.9481 21.0657L13.8223 20.58L13.565 20.1169L12.6908 20.6025ZM12.9481 21.0657L12.0491 21.5037L12.2777 21.9728L13.1767 21.5348L14.0757 21.0968L13.8471 20.6277L12.9481 21.0657ZM13.1767 21.5348L12.7253 22.4271L13.2509 22.693L13.7023 21.8007L14.1537 20.9084L13.6281 20.6425L13.1767 21.5348ZM13.7023 21.8007L12.7794 22.1857L12.9843 22.677L13.9073 22.292L14.8302 21.907L14.6252 21.4157L13.7023 21.8007ZM13.9073 22.292L13.2961 23.0835L13.737 23.424L14.3482 22.6326L14.9594 21.8411L14.5185 21.5005L13.9073 22.292ZM14.3482 22.6326L13.3591 22.7794L13.4426 23.3424L14.4318 23.1956L15.421 23.0487L15.3374 22.4857L14.3482 22.6326ZM14.4318 23.1956L13.6767 23.8512L14.017 24.2431L14.7721 23.5875L15.5272 22.9319L15.1869 22.54L14.4318 23.1956ZM14.7721 23.5875L13.9497 24.1564L14.2468 24.5859L15.0692 24.017L15.8916 23.4481L15.5945 23.0186L14.7721 23.5875ZM15.0692 24.017L14.3692 24.7312L14.7546 25.1089L15.4546 24.3947L16.1546 23.6805L15.7692 23.3029L15.0692 24.017ZM15.4546 24.3947L14.5844 24.8875L14.8429 25.344L15.7131 24.8512L16.5832 24.3584L16.3247 23.9019L15.4546 24.3947ZM15.7131 24.8512L14.836 25.3316L15.087 25.7898L15.9641 25.3094L16.8411 24.8289L16.5901 24.3707L15.7131 24.8512ZM15.9641 25.3094L15.1002 25.8131L15.3627 26.2631L16.2265 25.7594L17.0904 25.2556L16.8279 24.8056L15.9641 25.3094ZM16.2265 25.7594L15.4684 26.4116L15.8112 26.81L16.5693 26.1578L17.3274 25.5057L16.9846 25.1072L16.2265 25.7594ZM16.5693 26.1578L15.8002 26.797L16.1362 27.2013L16.9053 26.5621L17.6744 25.923L17.3384 25.5187L16.5693 26.1578ZM16.9053 26.5621L16.0389 27.0615L16.2994 27.5134L17.1657 27.014L18.0321 26.5146L17.7717 26.0628L16.9053 26.5621ZM17.1657 27.014L16.2723 27.4632L16.5071 27.9301L17.4005 27.4808L18.2939 27.0315L18.0591 26.5647L17.1657 27.014ZM17.4005 27.4808L16.4044 27.5695L16.4555 28.1431L17.4516 28.0544L18.4476 27.9656L18.3966 27.3921L17.4005 27.4808ZM17.4516 28.0544L16.6412 28.6403L16.9469 29.063L17.7573 28.4771L18.5676 27.8911L18.2619 27.4684L17.4516 28.0544ZM17.7573 28.4771L17.1528 29.2737L17.6034 29.6156L18.2078 28.819L18.8123 28.0224L18.3617 27.6805L17.7573 28.4771ZM18.2078 28.819L17.3389 29.3139L17.5967 29.7665L18.4656 29.2716L19.3346 28.7767L19.0768 28.3241L18.2078 28.819ZM18.4656 29.2716L17.4894 29.4882L17.6068 30.0176L18.5831 29.801L19.5593 29.5843L19.4419 29.055L18.4656 29.2716ZM18.5831 29.801L17.6513 30.1641L17.8415 30.652L18.7733 30.2889L19.705 29.9258L19.5148 29.4378L18.5831 29.801ZM18.7733 30.2889L17.8594 30.6949L18.0707 31.1706L18.9846 30.7647L19.8985 30.3587L19.6871 29.8829L18.7733 30.2889ZM18.9846 30.7647L18.0655 31.1587L18.2706 31.6371L19.1897 31.2431L20.1088 30.849L19.9037 30.3706L18.9846 30.7647ZM19.1897 31.2431L18.3753 31.8233L18.6796 32.2505L19.4941 31.6703L20.3085 31.0901L20.0042 30.6629L19.1897 31.2431ZM19.4941 31.6703L18.5787 32.0729L18.7881 32.549L19.7035 32.1465L20.6189 31.7439L20.4095 31.2677L19.4941 31.6703ZM19.7035 32.1465L18.7439 32.4278L18.8922 32.9337L19.8518 32.6524L20.8114 32.371L20.6631 31.8651L19.7035 32.1465ZM19.8518 32.6524L19.2377 33.4416L19.6937 33.7964L20.3078 33.0072L20.9219 32.2179L20.4659 31.8631L19.8518 32.6524ZM20.3078 33.0072L19.5371 33.6444L19.8786 34.0575L20.6493 33.4203L21.42 32.7831L21.0785 32.37L20.3078 33.0072ZM20.6493 33.4203L19.6826 33.676L19.8181 34.1882L20.7848 33.9325L21.7516 33.6768L21.6161 33.1646L20.6493 33.4203ZM20.7848 33.9325L19.8606 34.3144L20.0596 34.7958L20.9838 34.4139L21.908 34.032L21.709 33.5506L20.7848 33.9325ZM20.9838 34.4139L20.1044 34.89L20.3526 35.3485L21.232 34.8724L22.1114 34.3963L21.8632 33.9378L20.9838 34.4139ZM21.232 34.8724L20.3297 35.3035L20.554 35.7731L21.4564 35.3421L22.3587 34.911L22.1343 34.4413L21.232 34.8724ZM21.4564 35.3421L20.4565 35.3605L20.4669 35.9259L21.4668 35.9075L22.4666 35.8891L22.4562 35.3236L21.4564 35.3421ZM21.4668 35.9075L20.7474 36.6022L21.1318 37.0002L21.8512 36.3056L22.5705 35.611L22.1861 35.2129L21.4668 35.9075ZM21.8512 36.3056L20.9053 36.6302L21.0747 37.1238L22.0206 36.7992L22.9664 36.4746L22.797 35.981L21.8512 36.3056ZM22.0206 36.7992L21.1146 37.2226L21.3349 37.694L22.2409 37.2706L23.1468 36.8473L22.9265 36.3759L22.0206 36.7992ZM22.2409 37.2706L21.3003 37.6102L21.4771 38.1002L22.4177 37.7606L23.3583 37.4211L23.1815 36.9311L22.2409 37.2706ZM22.4177 37.7606L21.4249 37.8804L21.4897 38.417L22.4825 38.2972L23.4753 38.1775L23.4105 37.6409L22.4177 37.7606ZM22.4825 38.2972L21.9513 39.1445L22.4913 39.4831L23.0225 38.6358L23.5537 37.7886L23.0137 37.45L22.4825 38.2972ZM23.0225 38.6358L22.0585 38.3702L21.8837 39.0044L22.8477 39.2701L23.8118 39.5358L23.9866 38.9015L23.0225 38.6358ZM22.8477 39.2701L21.9354 39.6795L22.1481 40.1536L23.0605 39.7442L23.9728 39.3347L23.7601 38.8607L22.8477 39.2701ZM23.0605 39.7442L22.3048 40.3991L22.6647 40.8144L23.4204 40.1595L24.1761 39.5046L23.8162 39.0892L23.0605 39.7442ZM23.4204 40.1595L22.625 40.7655L22.9526 41.1955L23.748 40.5894L24.5434 39.9834L24.2158 39.5534L23.4204 40.1595ZM23.748 40.5894L22.8162 40.9524L23.0052 41.4375L23.937 41.0746L24.8688 40.7116L24.6798 40.2265L23.748 40.5894ZM23.937 41.0746L23.0226 41.4793L23.2335 41.9558L24.1479 41.5511L25.0623 41.1463L24.8514 40.6698L23.937 41.0746ZM24.1479 41.5511L23.1719 41.3335L23.036 41.9427L24.0121 42.1603L24.9881 42.3779L25.1239 41.7686L24.1479 41.5511ZM24.0121 42.1603L23.1923 42.733L23.4992 43.1724L24.319 42.5997L25.1388 42.0271L24.8319 41.5877L24.0121 42.1603ZM24.319 42.5997L23.3396 42.8017L23.446 43.3171L24.4253 43.1151L25.4047 42.9131L25.2984 42.3977L24.319 42.5997ZM24.4253 43.1151L23.587 43.6603L23.8773 44.1066L24.7156 43.5614L25.5539 43.0162L25.2636 42.5699L24.4253 43.1151ZM24.7156 43.5614L23.7478 43.813L23.8792 44.3188L24.8471 44.0673L25.8149 43.8157L25.6834 43.3098L24.7156 43.5614ZM24.8471 44.0673L24.1342 44.7685L24.5349 45.1759L25.2478 44.4746L25.9607 43.7734L25.56 43.366L24.8471 44.0673ZM25.2478 44.4746L24.2857 44.2019L24.1109 44.8185L25.073 45.0912L26.035 45.364L26.2099 44.7474L25.2478 44.4746ZM25.073 45.0912L24.4022 45.8329L24.839 46.2279L25.5097 45.4862L26.1805 44.7445L25.7437 44.3495L25.073 45.0912ZM25.5097 45.4862L24.5219 45.6418L24.6049 46.169L25.5927 46.0134L26.5806 45.8579L26.4975 45.3307L25.5097 45.4862ZM25.5927 46.0134L24.6299 46.2837L24.7705 46.7842L25.7332 46.514L26.696 46.2437L26.5555 45.7431L25.5927 46.0134ZM25.7332 46.514L25.0032 47.1974L25.3914 47.6121L26.1215 46.9287L26.8515 46.2454L26.4633 45.8306L25.7332 46.514ZM26.1215 46.9287L25.1215 46.9157L25.1143 47.4707L26.1142 47.4837L27.1142 47.4967L27.1214 46.9417L26.1215 46.9287ZM26.1142 47.4837L25.1508 47.7515L25.2892 48.2495L26.2527 47.9816L27.2161 47.7138L27.0777 47.2158L26.1142 47.4837ZM26.2527 47.9816L25.2527 47.9805L25.2521 48.5327L26.2521 48.5338L27.2521 48.5349L27.2527 47.9827L26.2527 47.9816ZM26.2521 48.5338L25.5837 49.2776L26.0275 49.6765L26.6959 48.9327L27.3643 48.1889L26.9205 47.7901L26.2521 48.5338ZM26.6959 48.9327L25.7315 49.1972L25.8693 49.6997L26.8337 49.4351L27.7981 49.1706L27.6603 48.6682L26.6959 48.9327ZM26.8337 49.4351L25.8351 49.4875L25.8633 50.0259L26.8619 49.9736L27.8606 49.9212L27.8324 49.3828L26.8337 49.4351ZM26.8619 49.9736L25.8755 50.1374L25.961 50.6523L26.9474 50.4885L27.9339 50.3247L27.8484 49.8098L26.8619 49.9736ZM26.9474 50.4885L26.027 50.8794L26.2322 51.3627L27.1527 50.9719L28.0731 50.581L27.8679 50.0977L26.9474 50.4885ZM27.1527 50.9719L26.3177 51.5221L26.6136 51.9712L27.4486 51.4209L28.2836 50.8707L27.9877 50.4216L27.1527 50.9719ZM27.4486 51.4209L26.5328 51.8225L26.7444 52.3052L27.6602 51.9037L28.5761 51.5021L28.3645 51.0194L27.4486 51.4209ZM27.6602 51.9037L26.7417 52.2989L26.9481 52.7786L27.8667 52.3834L28.7852 51.9882L28.5788 51.5084L27.6602 51.9037ZM27.8667 52.3834L26.9084 52.0976L26.7306 52.6934L27.6889 52.9793L28.6472 53.2651L28.8249 52.6692L27.8667 52.3834ZM27.6889 52.9793L27.04 53.7401L27.5132 54.1438L28.1622 53.3829L28.8111 52.6221L28.3379 52.2184L27.6889 52.9793ZM28.1622 53.3829L27.1673 53.4839L27.2207 54.01L28.2156 53.909L29.2105 53.808L29.1571 53.2819L28.1622 53.3829ZM28.2156 53.909L27.2591 54.2009L27.4111 54.6991L28.3676 54.4072L29.3241 54.1154L29.172 53.6172L28.2156 53.909ZM28.3676 54.4072L27.3689 54.4585L27.3962 54.9896L28.3949 54.9383L29.3936 54.8871L29.3663 54.3559L28.3676 54.4072ZM28.3949 54.9383L27.488 55.3597L27.7108 55.8393L28.6177 55.4179L29.5246 54.9965L29.3018 54.5169L28.3949 54.9383ZM28.6177 55.4179L27.6184 55.3793L27.5975 55.9214L28.5968 55.96L29.596 55.9986L29.617 55.4565L28.6177 55.4179ZM28.5968 55.96L27.7044 56.4113L27.945 56.887L28.8373 56.4357L29.7297 55.9845L29.4892 55.5087L28.5968 55.96ZM28.8373 56.4357L27.8508 56.2723L27.7583 56.8304L28.7449 56.9939L29.7314 57.1573L29.8239 56.5991L28.8373 56.4357ZM28.7449 56.9939L28.0789 57.7398L28.5497 58.1601L29.2157 57.4141L29.8816 56.6681L29.4109 56.2479L28.7449 56.9939ZM29.2157 57.4141L28.2856 57.0466L28.0524 57.6368L28.9824 58.0043L29.9124 58.3718L30.1457 57.7816L29.2157 57.4141ZM28.9824 58.0043L28.0279 58.3026L28.183 58.7986L29.1374 58.5003L30.0919 58.202L29.9369 57.706L28.9824 58.0043ZM29.1374 58.5003L28.4784 59.2525L28.9631 59.6771L29.6221 58.925L30.2811 58.1729L29.7964 57.7482L29.1374 58.5003ZM29.6221 58.925L28.6268 59.0211L28.677 59.5414L29.6724 59.4453L30.6678 59.3491L30.6175 58.8288L29.6221 58.925ZM29.6724 59.4453L28.675 59.3733L28.6358 59.9162L29.6332 59.9882L30.6307 60.0601L30.6698 59.5172L29.6724 59.4453ZM29.6332 59.9882L28.6444 59.839L28.5623 60.3833L29.5511 60.5325L30.54 60.6816L30.6221 60.1373L29.6332 59.9882ZM29.5511 60.5325L28.6828 61.0284L28.9555 61.506L29.8239 61.0101L30.6923 60.5141L30.4195 60.0366L29.5511 60.5325ZM29.8239 61.0101L28.8306 61.1257L28.8908 61.6427L29.8841 61.5271L30.8774 61.4115L30.8172 60.8944L29.8239 61.0101ZM29.8841 61.5271L28.9145 61.7718L29.0417 62.2759L30.0113 62.0312L30.9809 61.7864L30.8537 61.2824L29.8841 61.5271ZM30.0113 62.0312L29.0519 62.3132L29.2 62.8169L30.1594 62.5348L31.1188 62.2527L30.9707 61.7491L30.0113 62.0312ZM30.1594 62.5348L29.1609 62.48L29.1318 63.0101L30.1303 63.0649L31.1288 63.1196L31.1579 62.5895L30.1594 62.5348ZM30.1303 63.0649L29.1389 63.1955L29.2069 63.7115L30.1983 63.5808L31.1897 63.4501L31.1217 62.9342L30.1303 63.0649ZM30.1983 63.5808L29.1999 63.5249L29.1702 64.055L30.1686 64.1109L31.1671 64.1667L31.1967 63.6367L30.1983 63.5808ZM30.1686 64.1109L29.3253 64.6482L29.6303 65.127L30.4737 64.5897L31.3171 64.0524L31.012 63.5735L30.1686 64.1109ZM30.4737 64.5897L29.505 64.3416L29.3658 64.8851L30.3345 65.1332L31.3032 65.3813L31.4424 64.8378L30.4737 64.5897ZM30.3345 65.1332L29.3588 65.3522L29.473 65.8615L30.4488 65.6426L31.4245 65.4237L31.3102 64.9143L30.3345 65.1332ZM30.4488 65.6426L29.4499 65.6905L29.4748 66.2089L30.4737 66.1609L31.4725 66.113L31.4476 65.5946L30.4488 65.6426ZM30.4737 66.1609L29.549 66.5417L29.7541 67.0399L30.6788 66.6591L31.6035 66.2784L31.3983 65.7801L30.4737 66.1609ZM30.6788 66.6591L29.7741 67.0852L30.0105 67.5872L30.9152 67.1611L31.8199 66.735L31.5835 66.2331L30.6788 66.6591ZM30.9152 67.1611L29.9194 67.2526L29.9672 67.7727L30.963 67.6812L31.9588 67.5897L31.911 67.0696L30.9152 67.1611ZM30.963 67.6812L30.003 67.4013L29.8473 67.9352L30.8073 68.2152L31.7673 68.4951L31.923 67.9611L30.963 67.6812ZM30.8073 68.2152L29.8631 68.5444L30.0404 69.0531L30.9847 68.7239L31.9289 68.3946L31.7516 67.8859L30.8073 68.2152ZM30.9847 68.7239L30.0185 68.4658L29.8775 68.9937L30.8437 69.2518L31.8098 69.5098L31.9508 68.9819L30.9847 68.7239ZM30.8437 69.2518L29.8648 69.4559L29.9725 69.9725L30.9514 69.7683L31.9304 69.5642L31.8226 69.0476L30.8437 69.2518ZM30.9514 69.7683L29.952 69.8019L29.9695 70.3226L30.9689 70.289L31.9684 70.2554L31.9509 69.7347L30.9514 69.7683ZM30.9689 70.289L29.976 70.4075L30.038 70.9271L31.0309 70.8086L32.0239 70.6901L31.9619 70.1705L30.9689 70.289ZM31.0309 70.8086L30.0674 71.0761L30.2118 71.5964L31.1754 71.3289L32.139 71.0614L31.9945 70.5411L31.0309 70.8086ZM31.1754 71.3289L30.1888 71.1656L30.1024 71.6876L31.089 71.8508L32.0756 72.0141L32.162 71.4922L31.1754 71.3289ZM31.089 71.8508L30.1545 71.495L29.9573 72.0128L30.8919 72.3686L31.8264 72.7245L32.0236 72.2067L31.089 71.8508ZM30.8919 72.3686L29.8919 72.3791L29.8973 72.8958L30.8973 72.8854L31.8972 72.875L31.8918 72.3582L30.8919 72.3686ZM30.8973 72.8854L29.9011 72.7974L29.8553 73.3161L30.8515 73.4041L31.8476 73.4921L31.8934 72.9734L30.8973 72.8854ZM30.8515 73.4041L29.9479 73.8325L30.1992 74.3627L31.1028 73.9343L32.0064 73.5059L31.7551 72.9757L30.8515 73.4041ZM31.1028 73.9343L30.2447 73.4208L29.9416 73.9274L30.7997 74.4409L31.6578 74.9543L31.9609 74.4477L31.1028 73.9343ZM30.7997 74.4409L29.8745 74.8204L30.0929 75.3527L31.0181 74.9732L31.9433 74.5936L31.7249 74.0613L30.7997 74.4409ZM31.0181 74.9732L30.0183 74.9937L30.029 75.5161L31.0288 75.4956L32.0286 75.475L32.0179 74.9526L31.0181 74.9732ZM31.0288 75.4956L30.0475 75.3032L29.9464 75.8188L30.9277 76.0112L31.9091 76.2036L32.0102 75.688L31.0288 75.4956ZM30.9277 76.0112L30.1226 75.4182L29.7563 75.9154L30.5615 76.5085L31.3667 77.1015L31.7329 76.6042L30.9277 76.0112ZM30.5615 76.5085L29.562 76.4776L29.5459 76.9972L30.5455 77.028L31.545 77.0589L31.561 76.5394L30.5615 76.5085ZM30.5455 77.028L29.6514 77.4759L29.9223 78.0169L30.8164 77.569L31.7105 77.1211L31.4396 76.5802L30.5455 77.028ZM30.8164 77.569L29.905 77.1575L29.6772 77.6621L30.5886 78.0736L31.5 78.485L31.7278 77.9805L30.8164 77.569ZM30.5886 78.0736L29.6359 77.7697L29.4736 78.2784L30.4264 78.5823L31.3791 78.8862L31.5413 78.3774L30.5886 78.0736ZM30.4264 78.5823L29.4542 78.8165L29.5824 79.3486L30.5546 79.1143L31.5267 78.8801L31.3985 78.348L30.4264 78.5823ZM30.5546 79.1143L29.5565 79.0516L29.5239 79.571L30.5219 79.6337L31.52 79.6964L31.5526 79.177L30.5546 79.1143ZM30.5219 79.6337L29.5437 79.8413L29.6567 80.3735L30.6349 80.1659L31.6131 79.9583L31.5001 79.4261L30.5219 79.6337ZM30.6349 80.1659L29.6349 80.1632L29.6335 80.6857L30.6335 80.6884L31.6335 80.6911L31.6349 80.1686L30.6349 80.1659ZM30.6335 80.6884L29.8935 80.0158L29.4554 80.4977L30.1954 81.1704L30.9353 81.843L31.3734 81.361L30.6335 80.6884ZM30.1954 81.1704L29.1957 81.1453L29.1826 81.6658L30.1823 81.6909L31.182 81.716L31.195 81.1955L30.1954 81.1704ZM30.1823 81.6909L29.1908 81.8211L29.2602 82.3499L30.2517 82.2198L31.2432 82.0897L31.1738 81.5608L30.1823 81.6909ZM30.2517 82.2198L29.2689 82.0352L29.1725 82.5482L30.1553 82.7328L31.1381 82.9174L31.2345 82.4044L30.2517 82.2198ZM30.1553 82.7328L29.1967 82.4481L29.046 82.9555L30.0046 83.2402L30.9632 83.5249L31.1139 83.0175L30.1553 82.7328ZM30.0046 83.2402L29.0049 83.2182L28.9934 83.7396L29.9932 83.7615L30.993 83.7835L31.0044 83.2621L30.0046 83.2402ZM29.9932 83.7615L28.9966 83.679L28.9537 84.1972L29.9503 84.2797L30.9469 84.3622L30.9898 83.8441L29.9932 83.7615ZM29.9503 84.2797L28.9542 84.3681L29.0011 84.8959L29.9971 84.8075L30.9932 84.7191L30.9464 84.1912L29.9503 84.2797ZM29.9971 84.8075L29.0196 85.0182L29.1351 85.5541L30.1126 85.3434L31.0902 85.1327L30.9747 84.5968L29.9971 84.8075ZM30.1126 85.3434L29.1133 85.3079L29.0947 85.8295L30.0941 85.865L31.0935 85.9006L31.112 85.3789L30.1126 85.3434ZM30.0941 85.865L29.1524 85.5286L28.9726 86.0319L29.9143 86.3684L30.856 86.7048L31.0358 86.2014L30.0941 85.865ZM29.9143 86.3684L28.9196 86.4709L28.9742 87.001L29.9689 86.8985L30.9636 86.796L30.909 86.2659L29.9143 86.3684ZM29.9689 86.8985L29.0295 86.5558L28.8463 87.058L29.7857 87.4007L30.7251 87.7434L30.9083 87.2412L29.9689 86.8985ZM29.7857 87.4007L28.7858 87.4134L28.7925 87.938L29.7924 87.9253L30.7923 87.9125L30.7856 87.388L29.7857 87.4007ZM29.7924 87.9253L28.9079 87.4587L28.6482 87.951L29.5326 88.4176L30.4171 88.8842L30.6769 88.3919L29.7924 87.9253ZM29.5326 88.4176L28.5597 88.6486L28.688 89.189L29.6609 88.9581L30.6339 88.7271L30.5056 88.1867L29.5326 88.4176ZM29.6609 88.9581L28.7028 88.6717L28.5518 89.1771L29.5099 89.4635L30.468 89.7498L30.6191 89.2445L29.6609 88.9581ZM29.5099 89.4635L28.557 89.1601L28.3967 89.6637L29.3495 89.9671L30.3024 90.2705L30.4627 89.7669L29.5099 89.4635ZM29.3495 89.9671L28.4422 89.5467L28.2129 90.0416L29.1203 90.4619L30.0276 90.8823L30.2569 90.3875L29.3495 89.9671ZM29.1203 90.4619L28.1204 90.4436L28.1109 90.9663L29.1107 90.9846L30.1105 91.003L30.1201 90.4803L29.1203 90.4619ZM29.1107 90.9846L28.1117 90.9396L28.0882 91.4612L29.0872 91.5062L30.0862 91.5512L30.1097 91.0296L29.1107 90.9846ZM29.0872 91.5062L28.1514 91.1538L27.9643 91.6505L28.9001 92.0029L29.836 92.3554L30.023 91.8587L29.0872 91.5062ZM28.9001 92.0029L27.9058 92.1091L27.9629 92.644L28.9573 92.5378L29.9516 92.4316L29.8945 91.8968L28.9001 92.0029ZM28.9573 92.5378L27.9593 92.6022L27.9936 93.1323L28.9915 93.0679L29.9894 93.0034L29.9552 92.4733L28.9573 92.5378ZM28.9915 93.0679L27.9916 93.0525L27.9835 93.5801L28.9834 93.5955L29.9833 93.6108L29.9914 93.0832L28.9915 93.0679ZM28.9834 93.5955L28.1363 93.064L27.8384 93.5388L28.6855 94.0703L29.5325 94.6018L29.8304 94.1269L28.9834 93.5955ZM28.6855 94.0703L27.6856 94.0554L27.6777 94.5841L28.6776 94.5989L29.6775 94.6138L29.6854 94.0851L28.6855 94.0703ZM28.6776 94.5989L27.6963 94.7916L27.8036 95.3378L28.7848 95.1451L29.7661 94.9525L29.6589 94.4063L28.6776 94.5989ZM28.7848 95.1451L27.836 94.8293L27.6696 95.3291L28.6184 95.6449L29.5672 95.9608L29.7336 95.461L28.7848 95.1451ZM28.6184 95.6449L27.676 95.3107L27.4998 95.8073L28.4423 96.1415L29.3848 96.4758L29.5609 95.9792L28.6184 95.6449ZM28.4423 96.1415L27.5002 95.8063L27.3244 96.3003L28.2665 96.6355L29.2086 96.9708L29.3844 96.4768L28.4423 96.1415ZM28.2665 96.6355L27.2735 96.7536L27.3383 97.2988L28.3313 97.1808L29.3243 97.0627L29.2595 96.5175L28.2665 96.6355ZM28.3313 97.1808L27.4952 96.6323L27.189 97.0991L28.0252 97.6476L28.8614 98.196L29.1675 97.7292L28.3313 97.1808ZM28.0252 97.6476L27.0252 97.638L27.0202 98.1688L28.0201 98.1783L29.0201 98.1878L29.0251 97.6571L28.0252 97.6476ZM28.0201 98.1783L27.0957 97.7968L26.894 98.2857L27.8184 98.6672L28.7427 99.0487L28.9445 98.5598L28.0201 98.1783ZM27.8184 98.6672L26.8477 98.9076L26.9869 99.4697L27.9576 99.2293L28.9282 98.9889L28.789 98.4268L27.8184 98.6672ZM27.9576 99.2293L27.2081 98.5673L26.8149 99.0125L27.5644 99.6745L28.3139 100.336L28.7071 99.8913L27.9576 99.2293ZM27.5644 99.6745L26.6029 99.9493L26.7668 100.523L27.7283 100.248L28.6898 99.9733L28.5259 99.3997L27.5644 99.6745ZM27.7283 100.248L26.9419 99.6304L26.5897 100.079L27.3762 100.696L28.1626 101.314L28.5148 100.866L27.7283 100.248ZM27.3762 100.696L26.4366 100.354L26.2574 100.846L27.197 101.188L28.1365 101.531L28.3157 101.039L27.3762 100.696ZM27.197 101.188L26.237 101.468L26.4067 102.05L27.3667 101.77L28.3266 101.49L28.1569 100.908L27.197 101.188ZM27.3667 101.77L26.6777 101.045L26.2351 101.466L26.9241 102.19L27.6131 102.915L28.0557 102.495L27.3667 101.77ZM26.9241 102.19L25.9422 102.001L25.8437 102.511L26.8256 102.7L27.8074 102.89L27.9059 102.38L26.9241 102.19ZM26.8256 102.7L25.844 102.509L25.744 103.022L26.7256 103.214L27.7071 103.405L27.8071 102.892L26.8256 102.7ZM26.7256 103.214L25.9021 102.646L25.591 103.098L26.4144 103.665L27.2378 104.233L27.549 103.781L26.7256 103.214ZM26.4144 103.665L25.4879 104.041L25.7377 104.656L26.6642 104.28L27.5907 103.904L27.3409 103.289L26.4144 103.665ZM26.6642 104.28L25.7328 103.916L25.5428 104.402L26.4743 104.766L27.4057 105.13L27.5957 104.644L26.6642 104.28ZM26.4743 104.766L25.7415 104.086L25.3495 104.508L26.0823 105.188L26.8151 105.869L27.207 105.447L26.4743 104.766ZM26.0823 105.188L25.0834 105.235L25.1092 105.79L26.1081 105.744L27.107 105.697L27.0812 105.142L26.0823 105.188ZM26.1081 105.744L25.1896 105.348L24.9827 105.829L25.9012 106.225L26.8197 106.62L27.0266 106.139L26.1081 105.744ZM25.9012 106.225L24.9203 106.03L24.8179 106.545L25.7987 106.74L26.7796 106.935L26.882 106.419L25.9012 106.225ZM25.7987 106.74L25.1892 105.947L24.6966 106.326L25.3061 107.119L25.9156 107.912L26.4083 107.533L25.7987 106.74ZM25.3061 107.119L24.3142 107.246L24.3882 107.824L25.3801 107.697L26.372 107.57L26.298 106.992L25.3061 107.119ZM25.3801 107.697L24.6952 106.969L24.2726 107.366L24.9575 108.094L25.6425 108.823L26.0651 108.426L25.3801 107.697ZM24.9575 108.094L24.0012 108.387L24.1937 109.016L25.15 108.724L26.1063 108.432L25.9138 107.802L24.9575 108.094ZM25.15 108.724L24.2323 108.327L24.0251 108.806L24.9429 109.203L25.8606 109.6L26.0678 109.121L25.15 108.724ZM24.9429 109.203L24.1037 108.659L23.8155 109.104L24.6547 109.647L25.4939 110.191L25.7821 109.747L24.9429 109.203ZM24.6547 109.647L23.7182 109.297L23.5347 109.787L24.4712 110.137L25.4078 110.488L25.5912 109.998L24.6547 109.647ZM24.4712 110.137L23.8715 109.337L23.393 109.696L23.9927 110.496L24.5925 111.296L25.071 110.938L24.4712 110.137ZM23.9927 110.496L23.0263 110.239L22.8968 110.726L23.8631 110.983L24.8295 111.24L24.9591 110.753L23.9927 110.496ZM23.8631 110.983L23.0294 110.431L22.7427 110.864L23.5764 111.416L24.4102 111.968L24.6969 111.535L23.8631 110.983ZM23.5764 111.416L22.6878 110.957L22.4475 111.423L23.3362 111.882L24.2248 112.34L24.4651 111.875L23.5764 111.416ZM23.3362 111.882L22.3555 111.686L22.2441 112.244L23.2247 112.44L24.2054 112.636L24.3168 112.078L23.3362 111.882ZM23.2247 112.44L22.5141 111.736L22.1427 112.111L22.8533 112.815L23.564 113.518L23.9353 113.143L23.2247 112.44ZM22.8533 112.815L22.2723 112.001L21.8253 112.32L22.4063 113.134L22.9873 113.948L23.4343 113.629L22.8533 112.815ZM22.4063 113.134L21.6572 112.471L21.3114 112.862L22.0604 113.525L22.8095 114.188L23.1553 113.797L22.4063 113.134ZM22.0604 113.525L21.0748 113.356L20.9765 113.929L21.9621 114.098L22.9477 114.267L23.046 113.694L22.0604 113.525ZM21.9621 114.098L21.2004 113.45L20.8624 113.848L21.6241 114.496L22.3858 115.144L22.7237 114.746L21.9621 114.098ZM21.6241 114.496L20.9058 113.8L20.5408 114.177L21.2591 114.872L21.9774 115.568L22.3424 115.191L21.6241 114.496ZM21.2591 114.872L20.4258 114.32L20.1375 114.754L20.9708 115.307L21.8042 115.86L22.0925 115.425L21.2591 114.872ZM20.9708 115.307L20.2422 114.622L19.8839 115.003L20.6125 115.688L21.3411 116.373L21.6994 115.992L20.9708 115.307ZM20.6125 115.688L19.9108 114.976L19.5367 115.344L20.2383 116.057L20.9399 116.769L21.3141 116.401L20.6125 115.688ZM20.2383 116.057L19.3936 115.521L19.114 115.963L19.9586 116.498L20.8033 117.033L21.083 116.592L20.2383 116.057ZM19.9586 116.498L19.1706 115.882L18.8504 116.292L19.6384 116.908L20.4265 117.524L20.7467 117.114L19.9586 116.498ZM19.6384 116.908L18.7782 116.398L18.5106 116.85L19.3709 117.359L20.2312 117.869L20.4987 117.418L19.6384 116.908ZM19.3709 117.359L18.8637 116.498L18.3834 116.78L18.8906 117.642L19.3978 118.504L19.8781 118.221L19.3709 117.359ZM18.8906 117.642L18.1098 117.017L17.7851 117.423L18.5659 118.048L19.3467 118.673L19.6714 118.267L18.8906 117.642ZM18.5659 118.048L17.7471 117.474L17.4481 117.9L18.2669 118.474L19.0857 119.048L19.3847 118.622L18.5659 118.048ZM18.2669 118.474L17.4481 117.9L17.1489 118.327L17.9676 118.901L18.7864 119.475L19.0856 119.048L18.2669 118.474ZM17.9676 118.901L16.9911 118.685L16.8654 119.255L17.8419 119.47L18.8184 119.686L18.9441 119.117L17.9676 118.901ZM17.8419 119.47L17.1853 118.716L16.787 119.063L17.4437 119.817L18.1004 120.571L18.4986 120.225L17.8419 119.47ZM17.4437 119.817L16.8915 118.983L16.4386 119.284L16.9908 120.117L17.5431 120.951L17.996 120.651L17.4437 119.817ZM16.9908 120.117L16.4328 119.287L15.9848 119.589L16.5428 120.418L17.1008 121.248L17.5488 120.947L16.9908 120.117ZM16.5428 120.418L15.5474 120.322L15.4864 120.951L16.4818 121.048L17.4771 121.144L17.5381 120.515L16.5428 120.418ZM16.4818 121.048L15.9819 120.182L15.5023 120.459L16.0022 121.325L16.502 122.191L16.9816 121.914L16.4818 121.048ZM16.0022 121.325L15.3365 120.578L14.9461 120.927L15.6117 121.673L16.2774 122.419L16.6678 122.071L16.0022 121.325ZM15.6117 121.673L14.6682 121.342L14.4831 121.869L15.4267 122.2L16.3703 122.531L16.5553 122.004L15.6117 121.673ZM15.4267 122.2L14.6748 121.541L14.3313 121.933L15.0832 122.592L15.835 123.251L16.1785 122.86L15.4267 122.2ZM15.0832 122.592L14.7658 121.644L14.2063 121.831L14.5237 122.779L14.8411 123.728L15.4006 123.54L15.0832 122.592ZM14.5237 122.779L13.5667 122.489L13.3964 123.051L14.3534 123.341L15.3104 123.631L15.4807 123.069L14.5237 122.779ZM14.3534 123.341L13.7841 122.519L13.3497 122.82L13.919 123.642L14.4883 124.464L14.9227 124.163L14.3534 123.341ZM13.919 123.642L13.5218 122.724L13.015 122.944L13.4122 123.861L13.8094 124.779L14.3162 124.56L13.919 123.642ZM13.4122 123.861L12.4844 123.488L12.2703 124.021L13.1981 124.394L14.1258 124.767L14.34 124.234L13.4122 123.861ZM13.1981 124.394L12.6292 123.571L12.1973 123.87L12.7662 124.692L13.335 125.515L13.7669 125.216L13.1981 124.394ZM12.7662 124.692L11.8632 124.263L11.622 124.77L12.5251 125.199L13.4281 125.629L13.6692 125.122L12.7662 124.692ZM12.5251 125.199L12.1494 124.272L11.6346 124.481L12.0102 125.408L12.3859 126.335L12.9007 126.126L12.5251 125.199ZM12.0102 125.408L11.4037 124.613L11.2119 124.759L11.8185 125.554L12.4251 126.349L12.6168 126.203L12.0102 125.408Z" fill="white"/>
</svg>
