<svg width="26" height="27" viewBox="0 0 26 27" fill="none" xmlns="http://www.w3.org/2000/svg">
<path d="M3.46901 15.2378C3.70892 16.7361 3.93761 18.0265 4.14026 19.0639C4.40247 18.9754 4.72099 18.8718 5.13227 18.7446C6.69988 18.2599 9.615 17.4321 15.8954 15.7846C18.789 14.8159 20.1391 14.4348 19.9403 14.4345C19.2626 14.4334 18.1573 14.405 15.6847 15.0085C10.3713 16.3053 6.30863 17.1176 6.51879 16.9712C7.13584 16.5413 10.8886 15.1828 16.6375 14.4418C20.8328 13.9011 24.815 12.5465 24.3675 13.4771C24.3239 13.5679 23.2556 14.2958 19.584 16.1328C16.7637 17.544 11.1229 18.7472 8.6064 20.2194C6.52441 21.4374 4.5247 22.5238 3.33879 23.4608C3.26405 25.0237 3.1107 25.9166 2.76932 25.6985C1.82554 25.0955 2.22007 24.3446 3.33879 23.4608C3.3914 22.3605 3.40505 20.9282 3.41791 19.3178C3.42574 18.336 3.43329 17.288 3.44918 16.2087C3.45402 15.88 3.46076 15.5563 3.46901 15.2378C3.34339 14.4532 3.21469 13.6116 3.08505 12.7195C2.26082 7.04737 3.13913 4.35251 3.42792 4.94538C4.12136 6.36898 3.60122 10.1356 3.46901 15.2378Z" fill="white"/>
<path d="M0.286853 19.4554C0.271155 20.0074 0.705964 20.4677 1.25803 20.4834C1.81009 20.4991 2.27035 20.0643 2.28604 19.5122L1.28645 19.4838L0.286853 19.4554ZM1.28929 19.3838L2.28889 19.4122L2.29034 19.3612L2.28658 19.3103L1.28929 19.3838ZM1.25786 18.9575L0.391261 18.4585L0.237977 18.7247L0.260564 19.031L1.25786 18.9575ZM1.54023 18.4671L2.40683 18.9661L2.61762 18.6001L2.50214 18.1937L1.54023 18.4671ZM1.38666 17.9267L0.388991 17.995L0.396136 18.0994L0.424749 18.2001L1.38666 17.9267ZM1.35073 17.4016L0.430191 17.0109L0.336727 17.2312L0.353059 17.4699L1.35073 17.4016ZM1.56383 16.8995L2.48436 17.2901L2.54451 17.1484L2.55924 16.9951L1.56383 16.8995ZM1.61363 16.3814L2.60904 16.4771L2.6241 16.3204L2.59031 16.1667L1.61363 16.3814ZM1.49718 15.8517L0.513016 15.6744L0.477581 15.8712L0.5205 16.0664L1.49718 15.8517ZM1.58978 15.3376L0.714061 14.8547L0.634742 14.9986L0.60562 15.1603L1.58978 15.3376ZM1.86978 14.8297L2.7455 15.3125L3.03047 14.7957L2.71569 14.2964L1.86978 14.8297ZM1.53452 14.2979L0.561417 14.0676L0.464701 14.4761L0.688612 14.8313L1.53452 14.2979ZM1.65663 13.7822L2.62973 14.0125L2.6894 13.7605L2.61919 13.5111L1.65663 13.7822ZM1.51147 13.2667L0.600812 12.8535L0.449897 13.1861L0.5489 13.5377L1.51147 13.2667ZM1.75128 12.7381L2.66193 13.1513L2.80299 12.8404L2.72448 12.5081L1.75128 12.7381ZM1.63051 12.227L2.60371 11.9971L2.59494 11.96L2.58338 11.9236L1.63051 12.227ZM1.47189 11.7288L2.42476 11.4255L2.40551 11.365L2.37877 11.3074L1.47189 11.7288ZM1.2442 11.2388L0.366454 10.7597L0.124684 11.2026L0.337323 11.6602L1.2442 11.2388ZM1.55257 10.6739L2.43031 11.153L2.74101 10.5838L2.34809 10.068L1.55257 10.6739ZM1.1626 10.1619L0.256967 9.73784L0.000204949 10.2862L0.367074 10.7678L1.1626 10.1619ZM1.40235 9.6499L2.30798 10.074L2.42207 9.83033L2.39851 9.56233L1.40235 9.6499ZM1.35536 9.11544L0.590882 8.47079L0.322783 8.78873L0.359205 9.20301L1.35536 9.11544ZM1.74377 8.65483L2.50825 9.29948L2.93582 8.79242L2.63501 8.2013L1.74377 8.65483ZM1.44636 8.0704L0.52851 7.67347L0.341914 8.10496L0.555123 8.52393L1.44636 8.0704ZM1.65825 7.58042L2.5761 7.97735L2.599 7.9244L2.61566 7.86917L1.65825 7.58042ZM1.80868 7.08165L2.76608 7.37039L2.78809 7.29742L2.79879 7.22196L1.80868 7.08165ZM1.88188 6.56511L1.10834 5.93135L0.931024 6.14778L0.891768 6.4248L1.88188 6.56511ZM2.25359 6.11141L3.02713 6.74516L3.30733 6.40315L3.24292 5.96572L2.25359 6.11141ZM2.17271 5.56213L1.18999 5.377L1.15894 5.54185L1.18338 5.70781L2.17271 5.56213ZM2.26946 5.04854L1.47939 4.43553L1.33142 4.62622L1.28674 4.86342L2.26946 5.04854ZM2.62092 4.59557L3.41099 5.20859L3.74155 4.78255L3.56721 4.27227L2.62092 4.59557ZM2.42291 4.01601L1.51644 3.59373L1.34651 3.95851L1.47661 4.33931L2.42291 4.01601ZM2.64696 3.53506L1.76144 3.07044L1.75047 3.09136L1.74049 3.11278L2.64696 3.53506ZM2.89479 3.0627L3.78031 3.52731L3.90518 3.28932L3.89392 3.0208L2.89479 3.0627ZM2.87185 2.51564L1.93424 2.16794L1.8643 2.35656L1.87273 2.55754L2.87185 2.51564ZM3.05852 2.01225L3.84183 1.39061L2.7382 -2.60911e-05L2.12092 1.66456L3.05852 2.01225ZM3.24807 2.25109L2.46477 2.87273L2.5263 2.95027L2.60184 3.01423L3.24807 2.25109ZM3.73636 2.66458L4.63531 3.10264L4.97585 2.40381L4.3826 1.90144L3.73636 2.66458ZM3.46034 3.23102L2.56139 2.79296L2.40626 3.11132L2.48606 3.45636L3.46034 3.23102ZM3.57771 3.73848L2.60344 3.96382L2.65476 4.18571L2.7971 4.3635L3.57771 3.73848ZM3.96242 4.21895L4.9578 4.12294L4.9292 3.82645L4.74303 3.59393L3.96242 4.21895ZM4.01228 4.73592L4.9207 5.15398L5.03359 4.90868L5.00766 4.63991L4.01228 4.73592ZM3.75821 5.28801L2.84979 4.86995L2.67902 5.24103L2.81689 5.62554L3.75821 5.28801ZM3.93855 5.79095L4.92846 5.64923L4.91409 5.54886L4.87986 5.45342L3.93855 5.79095ZM4.01224 6.30569L5.0122 6.29642L5.01158 6.22986L5.00215 6.16397L4.01224 6.30569ZM4.01709 6.8285L3.01713 6.83777L3.01723 6.84864L3.01757 6.85951L4.01709 6.8285ZM4.03327 7.35018L5.03297 7.37492L5.03366 7.34704L5.03279 7.31917L4.03327 7.35018ZM4.02028 7.87554L3.02058 7.8508L3.01238 8.18235L3.20392 8.45309L4.02028 7.87554ZM4.36289 8.35981L5.35872 8.45113L5.39242 8.08358L5.17925 7.78226L4.36289 8.35981ZM4.31439 8.88871L3.31857 8.79739L3.29425 9.06261L3.40507 9.3048L4.31439 8.88871ZM4.54264 9.38751L5.4857 9.72013L5.62014 9.33896L5.45196 8.97142L4.54264 9.38751ZM4.35107 9.93066L3.40801 9.59804L3.31267 9.86834L3.37499 10.1481L4.35107 9.93066ZM4.46492 10.4417L5.4591 10.334L5.4531 10.2786L5.44099 10.2243L4.46492 10.4417ZM4.52093 10.9589L3.52674 11.0665L3.53706 11.1618L3.56527 11.2533L4.52093 10.9589ZM4.67723 11.4661L5.6771 11.4501L5.67482 11.3077L5.6329 11.1717L4.67723 11.4661ZM4.68561 11.988L5.68558 11.9782L5.68548 11.9719L4.68561 11.988ZM4.69075 12.5101L3.6908 12.52L3.69096 12.5371L3.69172 12.5542L4.69075 12.5101ZM4.71368 13.0302L3.71465 13.0742L3.71884 13.1693L3.74088 13.2618L4.71368 13.0302ZM4.83547 13.5416L5.81056 13.3196L5.80827 13.31L4.83547 13.5416ZM4.95198 14.0533L5.95021 13.9938L5.9453 13.9116L5.92702 13.8313L4.95198 14.0533ZM4.98301 14.5732L5.98297 14.5645L5.98275 14.539L5.98123 14.5137L4.98301 14.5732ZM4.98758 15.0952L5.92241 15.4503L5.98919 15.2745L5.98754 15.0864L4.98758 15.0952ZM4.78329 15.633L3.84845 15.2779L3.74972 15.5379L3.79934 15.8115L4.78329 15.633ZM4.87663 16.1477L3.89268 16.3261L3.91966 16.4749L3.9894 16.609L4.87663 16.1477ZM5.13767 16.6497L6.13463 16.5718L6.11877 16.3689L6.0249 16.1884L5.13767 16.6497ZM5.17815 17.1678L6.15354 17.3883L6.1869 17.2408L6.17512 17.0899L5.17815 17.1678ZM5.05856 17.6968L4.08317 17.4763L4.06654 17.5499L4.06113 17.6251L5.05856 17.6968ZM5.02102 18.2189L4.02359 18.1472L4.02209 18.1681L4.02147 18.189L5.02102 18.2189ZM5.00547 18.7386L4.00592 18.7087L3.97652 19.691L4.95814 19.7375L5.00547 18.7386ZM5.03708 18.7753L4.73071 17.8234L4.45985 17.9105L4.27545 18.1273L5.03708 18.7753ZM5.1524 19.2651L4.17901 19.4943L4.18125 19.5038L4.18369 19.5133L5.1524 19.2651ZM5.28565 19.7853L6.17528 20.242L6.3485 19.9045L6.25437 19.5371L5.28565 19.7853ZM5.02063 20.3015L4.131 19.8448L3.92828 20.2397L4.08518 20.655L5.02063 20.3015ZM5.22085 20.8314L6.19879 21.0403L6.26018 20.7529L6.1563 20.478L5.22085 20.8314ZM5.11059 21.3476L6.04364 21.7073L6.07204 21.6337L6.08853 21.5565L5.11059 21.3476ZM4.92246 21.8355L4.26934 22.5928L5.34465 23.5202L5.85551 22.1953L4.92246 21.8355ZM4.66089 21.6099L3.67651 21.4338L3.57615 21.9949L4.00776 22.3672L4.66089 21.6099ZM4.76215 21.0438L5.74653 21.2199L5.81434 20.8407L5.61032 20.5141L4.76215 21.0438ZM4.47343 20.5815L3.47806 20.6777L3.50068 20.9117L3.62525 21.1112L4.47343 20.5815ZM4.42305 20.0601L3.42602 20.1372L3.42676 20.1467L3.42768 20.1563L4.42305 20.0601ZM4.38275 19.5387L5.37977 19.4617L5.36731 19.3004L5.30466 19.1514L4.38275 19.5387ZM4.17996 19.0561L5.10187 18.6688L4.78671 17.9187L3.98824 18.0747L4.17996 19.0561ZM5.22858 18.7177L5.4976 19.6809L5.54515 19.6676L5.59115 19.6497L5.22858 18.7177ZM5.62081 18.5651L5.52152 17.5701L5.38557 17.5836L5.25824 17.6332L5.62081 18.5651ZM6.14718 18.5126L6.24647 19.5077L6.53872 19.4785L6.76878 19.2959L6.14718 18.5126ZM6.58723 18.1634L6.27468 17.2135L6.1053 17.2692L5.96563 17.3801L6.58723 18.1634ZM7.08161 18.0008L7.09839 17.0009L6.92951 16.9981L6.76906 17.0508L7.08161 18.0008ZM7.62517 18.0099L7.60839 19.0097L7.78776 19.0127L7.95699 18.9532L7.62517 18.0099ZM8.11767 17.8366L7.96643 16.8481L7.87403 16.8623L7.78586 16.8933L8.11767 17.8366ZM8.63388 17.7577L8.78512 18.7462L8.85065 18.7361L8.91429 18.7175L8.63388 17.7577ZM9.13365 17.6117L9.41405 18.5716L9.56795 18.5266L9.70009 18.4358L9.13365 17.6117ZM9.58668 17.3003L9.28579 16.3466L9.14334 16.3916L9.02024 16.4762L9.58668 17.3003ZM10.0847 17.1432L10.1029 16.1433L9.93962 16.1403L9.78384 16.1895L10.0847 17.1432ZM10.625 17.153L10.6067 18.1528L10.9205 18.1585L11.1813 17.9839L10.625 17.153ZM11.0807 16.8478L11.0513 15.8483L10.7636 15.8567L10.5244 16.0169L11.0807 16.8478ZM11.6154 16.8321L11.6448 17.8316L11.6571 17.8313L11.6694 17.8306L11.6154 16.8321ZM12.1465 16.8033L12.2005 17.8019L12.4732 17.7871L12.7006 17.6358L12.1465 16.8033ZM12.6039 16.4989L12.726 15.5064L12.3583 15.4611L12.0498 15.6664L12.6039 16.4989ZM13.1606 16.5674L13.0385 17.5599L13.1897 17.5785L13.3397 17.5512L13.1606 16.5674ZM13.6737 16.474L13.8528 17.4578L14.0089 17.4294L14.1485 17.3541L13.6737 16.474ZM14.1442 16.2202L13.965 15.2364L13.809 15.2648L13.6694 15.3401L14.1442 16.2202ZM14.6569 16.1269L14.836 17.1107L15.0546 17.0709L15.2358 16.9422L14.6569 16.1269ZM15.1094 15.8055L15.4119 14.8523L14.9368 14.7016L14.5305 14.9902L15.1094 15.8055ZM15.6956 15.9915L15.3931 16.9447L15.8185 17.0796L16.2031 16.8531L15.6956 15.9915ZM16.164 15.7156L15.7184 14.8203L15.6869 14.836L15.6565 14.8539L16.164 15.7156ZM16.6345 15.4814L16.3204 14.532L16.2527 14.5544L16.1889 14.5862L16.6345 15.4814ZM17.1282 15.318L17.1632 14.3187L16.9842 14.3124L16.814 14.3687L17.1282 15.318ZM17.6823 15.3375L17.6473 16.3369L17.8253 16.3431L17.9945 16.2875L17.6823 15.3375ZM18.1755 15.1755L18.4877 16.1255L18.5518 16.1044L18.6125 16.075L18.1755 15.1755ZM18.648 14.946L19.0849 15.8455L19.0987 15.8388L19.1123 15.8317L18.648 14.946ZM19.1159 14.7007L19.2301 13.7073L18.9243 13.6721L18.6517 13.815L19.1159 14.7007ZM19.6851 14.7661L19.571 15.7596L20.3343 15.8473L20.6157 15.1324L19.6851 14.7661ZM19.807 14.4565L20.7375 14.8228L21.1766 13.7071L20.0003 13.4754L19.807 14.4565ZM19.2848 14.3536L19.4781 13.3725L19.1594 13.3097L18.8646 13.4462L19.2848 14.3536ZM18.7779 14.5884L18.7443 15.5878L18.9822 15.5958L19.1981 15.4958L18.7779 14.5884ZM18.257 14.5709L18.2906 13.5714L18.0976 13.5649L17.916 13.6308L18.257 14.5709ZM17.7606 14.7509L17.4222 15.6919L17.7621 15.8141L18.1016 15.691L17.7606 14.7509ZM17.2002 14.5494L17.5386 13.6084L17.0868 13.4459L16.6775 13.6969L17.2002 14.5494ZM16.7258 14.8403L16.7734 15.8391L17.0297 15.8269L17.2485 15.6928L16.7258 14.8403ZM16.2 14.8653L16.1524 13.8665L15.8923 13.8789L15.6712 14.0166L16.2 14.8653ZM15.7344 15.1554L15.6001 16.1463L15.9573 16.1947L16.2632 16.0041L15.7344 15.1554ZM15.1808 15.0803L15.3151 14.0894L15.0269 14.0503L14.7627 14.1719L15.1808 15.0803ZM14.6992 15.302L14.281 14.3936L14.2366 14.4141L14.1945 14.4387L14.6992 15.302ZM14.2295 15.5766L14.2975 16.5743L14.5316 16.5583L14.7342 16.4399L14.2295 15.5766ZM13.703 15.6124L13.3716 16.5559L13.5657 16.6241L13.7709 16.6101L13.703 15.6124ZM13.1207 15.4079L13.452 14.4644L12.8764 14.2622L12.4333 14.6816L13.1207 15.4079ZM12.6828 15.8223L12.864 16.8057L13.1552 16.7521L13.3702 16.5486L12.6828 15.8223ZM12.1707 15.9166L11.9896 14.9331L11.9694 14.9368L11.9493 14.9414L12.1707 15.9166ZM11.6639 16.0317L11.8361 17.0167L11.8608 17.0124L11.8853 17.0068L11.6639 16.0317ZM11.1516 16.1212L11.1299 17.121L11.2276 17.1231L11.3238 17.1063L11.1516 16.1212ZM10.615 16.1096L10.6366 15.1098L10.2951 15.1024L10.0204 15.3056L10.615 16.1096ZM10.157 16.4483L10.1118 17.4472L10.4663 17.4633L10.7516 17.2523L10.157 16.4483ZM9.61967 16.424L9.66486 15.425L9.55522 15.42L9.44712 15.439L9.61967 16.424ZM9.10683 16.5138L8.93428 15.5288L8.7207 15.5662L8.5418 15.6887L9.10683 16.5138ZM8.64091 16.8329L8.60761 17.8323L8.93537 17.8432L9.20595 17.6579L8.64091 16.8329ZM8.10587 16.815L8.13918 15.8156L7.99891 15.8109L7.86277 15.845L8.10587 16.815ZM7.59949 16.942L7.25888 17.8822L7.54618 17.9862L7.84259 17.912L7.59949 16.942ZM7.03474 16.7374L7.37535 15.7972L7.02547 15.6704L6.67785 15.8032L7.03474 16.7374ZM6.54942 16.9228L6.19253 15.9886L6.48821 17.9209L6.54942 16.9228ZM7.01666 16.9514L6.95545 17.9496L7.26292 17.9684L7.5277 17.811L7.01666 16.9514ZM7.45934 16.6882L7.97038 17.5478L8.06472 17.4917L8.14466 17.4165L7.45934 16.6882ZM7.86921 16.3025L7.58827 15.3428L7.35835 15.4101L7.18389 15.5743L7.86921 16.3025ZM8.37031 16.1559L8.65124 17.1156L8.69919 17.1015L8.74551 17.0828L8.37031 16.1559ZM8.85493 15.9597L8.59336 14.9945L8.5354 15.0102L8.47973 15.0328L8.85493 15.9597ZM9.3593 15.823L9.30494 14.8245L9.19958 14.8302L9.09774 14.8578L9.3593 15.823ZM9.89102 15.7941L9.94538 16.7926L10.2308 16.777L10.4649 16.613L9.89102 15.7941ZM10.3458 15.4753L10.6683 14.5288L10.1877 14.3651L9.77197 14.6564L10.3458 15.4753ZM10.9314 15.6748L10.609 16.6214L11.0763 16.7806L11.4869 16.5064L10.9314 15.6748ZM11.3922 15.3671L11.3694 14.3673L11.0786 14.3739L10.8368 14.5355L11.3922 15.3671ZM11.9227 15.355L11.9455 16.3547L12.0912 16.3514L12.23 16.3066L11.9227 15.355ZM12.4185 15.1949L12.2733 14.2055L12.1907 14.2176L12.1112 14.2433L12.4185 15.1949ZM12.933 15.1194L13.0782 16.1088L13.2468 16.0841L13.3976 16.0049L12.933 15.1194ZM13.4138 14.8671L13.3359 13.8701L13.1311 13.8861L12.9492 13.9816L13.4138 14.8671ZM13.9358 14.8263L13.8984 13.827L13.8781 13.8278L13.8579 13.8293L13.9358 14.8263ZM14.4603 14.8067L14.4894 13.8071L14.4561 13.8061L14.4229 13.8074L14.4603 14.8067ZM14.9891 14.822L14.96 15.8216L15.2092 15.8288L15.4327 15.7182L14.9891 14.822ZM15.4774 14.5803L15.4312 13.5814L15.2217 13.591L15.0338 13.6841L15.4774 14.5803ZM15.9993 14.5562L16.0455 15.5551L16.2876 15.5439L16.4977 15.4231L15.9993 14.5562ZM16.4867 14.276L16.5038 13.2761L16.2277 13.2714L15.9883 13.409L16.4867 14.276ZM17.0123 14.285L16.9953 15.2848L17.05 15.2858L17.1046 15.2807L17.0123 14.285ZM17.5299 14.237L17.6221 15.2328L17.7701 15.2191L17.9077 15.1629L17.5299 14.237ZM18.0226 14.036L17.9854 13.0367L17.8086 13.0433L17.6448 13.1101L18.0226 14.036ZM18.5448 14.0165L18.5821 15.0158L18.7404 15.0099L18.8892 14.9554L18.5448 14.0165ZM19.0393 13.8352L18.924 12.8419L18.8063 12.8555L18.695 12.8963L19.0393 13.8352ZM19.5557 13.7752L19.6678 12.7815L19.5541 12.7687L19.4404 12.7819L19.5557 13.7752ZM20.0975 13.8363L19.9855 14.83L20.3036 14.8659L20.5834 14.7103L20.0975 13.8363ZM20.5742 13.5713L20.484 12.5754L20.2733 12.5945L20.0883 12.6973L20.5742 13.5713ZM21.0952 13.5242L21.029 12.5263L21.017 12.5271L21.005 12.5282L21.0952 13.5242ZM21.6188 13.4894L21.6357 12.4896L21.5941 12.4889L21.5526 12.4916L21.6188 13.4894ZM22.1521 13.4984L22.1353 14.4983L22.3834 14.5024L22.6047 14.3901L22.1521 13.4984ZM22.6348 13.2535L22.4282 12.2751L22.2995 12.3022L22.1823 12.3617L22.6348 13.2535ZM23.1461 13.1455L23.2246 12.1486L23.0807 12.1373L22.9395 12.1671L23.1461 13.1455ZM23.6783 13.1874L23.9882 12.2366L23.8752 12.1998L23.7568 12.1904L23.6783 13.1874ZM24.1623 13.3451L25.0826 12.9537L24.9046 12.5352L24.4722 12.3943L24.1623 13.3451ZM24.1816 13.3903L25.0541 13.8789L25.2939 13.4506L25.1018 12.999L24.1816 13.3903ZM23.9047 13.8849L24.2093 14.8374L24.5847 14.7173L24.7772 14.3734L23.9047 13.8849ZM23.3958 14.0476L23.0912 13.0951L22.746 13.2055L22.5517 13.5114L23.3958 14.0476ZM23.08 14.5448L23.4019 15.4915L23.7353 15.3782L23.9241 15.0809L23.08 14.5448ZM22.5767 14.7159L22.5608 15.7158L22.7343 15.7185L22.8985 15.6627L22.5767 14.7159ZM21.9815 14.7065L21.9973 13.7066L21.5304 13.6992L21.225 14.0524L21.9815 14.7065ZM21.617 15.1281L22.1087 15.9988L22.2599 15.9134L22.3734 15.7821L21.617 15.1281ZM21.1634 15.3842L21.2504 16.3804L21.4664 16.3616L21.6552 16.2549L21.1634 15.3842ZM20.6054 15.4329L20.5184 14.4367L20.1962 14.4648L19.9515 14.6763L20.6054 15.4329ZM20.1995 15.7836L20.6714 16.6653L20.7694 16.6129L20.8534 16.5403L20.1995 15.7836ZM19.7423 16.0284L19.2704 15.1467L19.1252 15.2245L19.0125 15.3447L19.7423 16.0284ZM19.3585 16.438L19.3853 17.4377L19.8028 17.4265L20.0883 17.1217L19.3585 16.438ZM18.7944 16.4531L18.7676 15.4535L18.4041 15.4632L18.1317 15.7042L18.7944 16.4531ZM18.3805 16.8193L18.611 17.7924L18.8553 17.7345L19.0432 17.5682L18.3805 16.8193ZM17.868 16.9407L17.6375 15.9677L17.6169 15.9725L17.5966 15.9783L17.868 16.9407ZM17.3647 17.0826L17.0934 16.1202L17.0684 16.1272L17.0439 16.1355L17.3647 17.0826ZM16.8722 17.2494L17.0151 18.2392L17.106 18.226L17.193 18.1966L16.8722 17.2494ZM16.3486 17.325L16.2058 16.3353L16.174 16.3399L16.1425 16.3465L16.3486 17.325ZM15.837 17.4328L15.6309 16.4543L15.3033 16.5232L15.0833 16.7755L15.837 17.4328ZM15.4384 17.8899L15.2104 18.8635L15.7964 19.0007L16.192 18.5471L15.4384 17.8899ZM14.8479 17.7516L15.0759 16.778L14.5482 16.6544L14.1566 17.0291L14.8479 17.7516ZM14.4294 18.152L14.157 19.1142L14.7074 19.27L15.1208 18.8746L14.4294 18.152ZM13.8296 17.9822L14.102 17.02L13.8122 16.938L13.5253 17.0296L13.8296 17.9822ZM13.3336 18.1407L13.0293 17.1881L12.8103 17.258L12.6439 17.4165L13.3336 18.1407ZM12.9155 18.5388L12.8137 19.5336L13.2718 19.5805L13.6052 19.2629L12.9155 18.5388ZM12.3485 18.4808L12.4503 17.486L12.2327 17.4637L12.0258 17.5343L12.3485 18.4808ZM11.8543 18.6493L11.5315 17.7028L11.2019 17.8152L11.0133 18.1081L11.8543 18.6493ZM11.4972 19.2042L11.382 20.1975L12.0009 20.2692L12.3381 19.7453L11.4972 19.2042ZM10.9213 19.1374L11.0364 18.144L10.8193 18.1189L10.6115 18.1866L10.9213 19.1374ZM10.4247 19.2992L10.1149 18.3484L9.86174 18.4309L9.68313 18.6283L10.4247 19.2992ZM10.0389 19.7256L10.0319 20.7256L10.4798 20.7287L10.7804 20.3965L10.0389 19.7256ZM9.47052 19.7216L9.47753 18.7216L9.03424 18.7185L8.73426 19.0449L9.47052 19.7216ZM9.09377 20.1315L9.41674 21.0779L9.65772 20.9957L9.83003 20.8082L9.09377 20.1315ZM8.60176 20.2994L8.27879 19.353L8.10733 19.4115L7.96729 19.5265L8.60176 20.2994ZM8.19427 20.6339L8.18562 21.6339L8.54835 21.637L8.82874 21.4069L8.19427 20.6339ZM7.59056 20.6287L7.59921 19.6287L6.97794 19.6234L6.6979 20.1779L7.59056 20.6287ZM7.31033 21.1837L7.52371 22.1606L7.98853 22.0591L8.20298 21.6344L7.31033 21.1837ZM6.77716 21.3001L6.56377 20.3231L6.46604 20.3445L6.37447 20.3848L6.77716 21.3001ZM6.29828 21.5108L5.89559 20.5954L5.88666 20.5994L5.8778 20.6035L6.29828 21.5108ZM5.8238 21.7307L5.40331 20.8234L5.154 20.9389L4.99874 21.1656L5.8238 21.7307ZM5.50027 22.2031L5.52 23.2029L6.03454 23.1927L6.32533 22.7681L5.50027 22.2031ZM4.89879 22.215L4.87906 21.2151L4.32313 21.2261L4.0391 21.7041L4.89879 22.215ZM4.60016 22.7175L4.97355 23.6452L5.28716 23.519L5.45985 23.2284L4.60016 22.7175ZM4.10942 22.9151L3.73603 21.9874L3.69311 22.0047L3.65197 22.0258L4.10942 22.9151ZM3.64192 23.1556L3.18448 22.2663L3.08436 22.3178L2.99821 22.3903L3.64192 23.1556ZM3.31496 23.4306L2.67124 22.6653L1.9291 23.2896L2.53031 24.0505L3.31496 23.4306ZM3.33879 23.4608L4.33472 23.5509L4.37065 23.1537L4.12344 22.8408L3.33879 23.4608ZM4.79507 19.0597L4.90338 20.0538L5.29889 20.0107L5.5567 19.7077L4.79507 19.0597ZM4.37351 19.1056L3.80202 19.9262L4.10942 20.1403L4.48182 20.0998L4.37351 19.1056ZM4.08696 18.9061L4.65845 18.0855L2.16885 16.3516L3.13952 19.226L4.08696 18.9061ZM4.12298 18.9654L5.10793 18.7926L5.07032 18.5782L4.94701 18.3989L4.12298 18.9654ZM3.86288 18.5871L2.86289 18.5816L2.86117 18.8952L3.03884 19.1536L3.86288 18.5871ZM3.86579 18.057L4.86577 18.0625L4.86639 17.9503L4.84213 17.8408L3.86579 18.057ZM3.75317 17.5485L2.81166 17.2115L2.71446 17.4831L2.77683 17.7647L3.75317 17.5485ZM3.9547 16.9854L4.89622 17.3223L5.01385 16.9937L4.90139 16.6632L3.9547 16.9854ZM3.78524 16.4874L2.80168 16.668L2.81492 16.7401L2.83856 16.8096L3.78524 16.4874ZM3.69142 15.9763L4.67499 15.7957L4.66493 15.7409L4.64884 15.6876L3.69142 15.9763ZM3.54006 15.4743L2.58235 15.762L2.58264 15.763L3.54006 15.4743ZM4.04591 19.0971L3.9166 20.0887L4.15279 20.1195L4.3775 20.0405L4.04591 19.0971ZM3.81694 19.0672L3.94625 18.0756L3.34681 17.9974L2.99902 18.4919L3.81694 19.0672ZM3.60093 19.3743L3.17726 20.2801L3.93657 20.6353L4.41885 19.9496L3.60093 19.3743ZM3.40525 19.2828L3.82892 18.377L1.64494 17.3555L2.46485 19.6228L3.40525 19.2828ZM3.46027 15.1382L2.47868 14.9472L2.45179 15.0854L2.4641 15.2257L3.46027 15.1382ZM3.54563 14.6995L4.52722 14.8905L4.55121 14.7672L4.54397 14.6418L3.54563 14.6995ZM3.51553 14.1785L4.51386 14.1208L4.5067 13.9968L4.46943 13.8784L3.51553 14.1785ZM3.35774 13.677L2.35993 13.7431L2.36786 13.8627L2.40384 13.9771L3.35774 13.677ZM3.32329 13.1568L4.3211 13.0908L4.31218 12.956L4.26782 12.8284L3.32329 13.1568ZM3.14926 12.6563L4.09379 12.3279L4.0551 12.2166L3.9916 12.1174L3.14926 12.6563ZM2.84018 12.1732L1.84601 12.2811L1.87133 12.5145L1.99783 12.7122L2.84018 12.1732ZM2.78381 11.6537L1.78391 11.6394L1.78304 11.7007L1.78964 11.7616L2.78381 11.6537ZM2.79134 11.1275L1.79238 11.0819L1.79166 11.0975L1.79144 11.1132L2.79134 11.1275ZM2.81533 10.6016L3.81429 10.6471L3.82406 10.4332L3.74531 10.234L2.81533 10.6016ZM2.61433 10.0931L1.6207 10.2058L1.63564 10.3374L1.68435 10.4607L2.61433 10.0931ZM2.55523 9.57217L1.67311 9.10115L1.52652 9.37567L1.5616 9.6849L2.55523 9.57217ZM2.83871 9.04127L3.72083 9.5123L3.90496 9.16746L3.80641 8.78917L2.83871 9.04127ZM2.70355 8.52244L1.76754 8.17045L1.65585 8.46747L1.73585 8.77455L2.70355 8.52244ZM2.89792 8.00556L3.83393 8.35756L4.00985 7.88976L3.74131 7.46825L2.89792 8.00556ZM2.5587 7.47311L1.7952 6.8273L1.31971 7.38945L1.71532 8.01042L2.5587 7.47311ZM2.97685 6.97875L3.74035 7.62456L4.04884 7.25985L3.95901 6.79069L2.97685 6.97875ZM2.87575 6.45077L3.85791 6.26271L3.85552 6.25021L3.85281 6.23778L2.87575 6.45077ZM2.75624 5.90249L2.01322 5.23322L1.66994 5.61433L1.77918 6.11548L2.75624 5.90249ZM3.15621 5.45845L3.89923 6.12772L3.9533 6.06769L3.99703 5.99976L3.15621 5.45845ZM3.40379 5.07389L4.39558 4.94604L4.04546 2.22983L2.56297 4.53257L3.40379 5.07389ZM3.42152 5.21143L4.41764 5.12344L4.41587 5.10347L4.41331 5.08359L3.42152 5.21143ZM3.46591 5.71394L2.46978 5.80193L2.49934 6.13648L2.72484 6.38537L3.46591 5.71394ZM3.88706 6.17877L4.83089 6.50919L5.02737 5.94798L4.62812 5.50733L3.88706 6.17877ZM3.69883 6.71643L2.755 6.38601L2.73251 6.45023L2.71893 6.51691L3.69883 6.71643ZM3.59305 7.23594L2.61315 7.03642L2.56008 7.2971L2.64354 7.54969L3.59305 7.23594ZM3.76398 7.75324L4.74259 7.54755L4.73107 7.49271L4.71349 7.4395L3.76398 7.75324ZM3.87362 8.27486L4.87008 8.35883L4.8824 8.21269L4.85223 8.06916L3.87362 8.27486ZM3.82978 8.79507L4.82376 8.90464L4.82516 8.89186L4.82624 8.87904L3.82978 8.79507ZM3.7726 9.3137L4.66975 9.75545L4.74734 9.59787L4.76658 9.42328L3.7726 9.3137ZM3.5221 9.82245L2.62496 9.38071L2.39973 9.83812L2.63764 10.2891L3.5221 9.82245ZM3.80396 10.3567L4.67043 10.856L4.94582 10.378L4.68843 9.89011L3.80396 10.3567ZM3.51204 10.8634L2.64557 10.3642L2.48258 10.6471L2.51791 10.9716L3.51204 10.8634ZM3.56894 11.3862L2.57481 11.4944L2.5861 11.5981L2.61855 11.6972L3.56894 11.3862ZM3.74222 11.9156L4.61871 12.397L4.82754 12.0168L4.69261 11.6046L3.74222 11.9156ZM3.46369 12.4227L2.5872 11.9413L2.40027 12.2816L2.49199 12.6589L3.46369 12.4227ZM3.59192 12.9502L4.55825 13.2075L4.62376 12.9615L4.56362 12.714L3.59192 12.9502ZM3.45508 13.4642L2.48875 13.2069L2.41459 13.4854L2.50005 13.7607L3.45508 13.4642ZM3.61858 13.9908L4.61096 13.8676L4.6 13.7793L4.57361 13.6943L3.61858 13.9908ZM3.68336 14.5126L4.54678 15.0171L4.71741 14.7251L4.67574 14.3894L3.68336 14.5126ZM3.3849 15.0235L2.52148 14.519L2.27694 14.9375L2.454 15.3887L3.3849 15.0235ZM3.46776 15.3378L4.38851 15.728L4.46522 15.5469L4.46768 15.3503L3.46776 15.3378ZM3.29126 15.7544L2.37051 15.3642L2.24236 15.6667L2.31851 15.9862L3.29126 15.7544ZM3.41586 16.2772L2.44311 16.509L2.44915 16.5344L2.45651 16.5594L3.41586 16.2772ZM3.56941 16.7992L4.5626 16.6826L4.55271 16.5983L4.52877 16.5169L3.56941 16.7992ZM3.6305 17.3196L4.6066 17.5369L4.64344 17.3714L4.62368 17.203L3.6305 17.3196ZM3.51501 17.8383L2.53891 17.621L2.50609 17.7684L2.51827 17.919L3.51501 17.8383ZM3.55713 18.3586L4.55461 18.4295L4.56 18.3537L4.55387 18.2779L3.55713 18.3586ZM3.52021 18.8783L4.50986 19.0218L4.5151 18.9856L4.51769 18.9491L3.52021 18.8783ZM3.45644 19.3181L3.44845 20.3181L4.32089 20.325L4.44609 19.4616L3.45644 19.3181ZM3.416 19.4178L2.41618 19.3987L2.41509 19.456L2.42055 19.513L3.416 19.4178ZM3.45624 19.8383L4.45237 19.9262L4.46045 19.8346L4.45169 19.743L3.45624 19.8383ZM3.41037 20.3578L2.41425 20.2699L2.40139 20.4156L2.43079 20.5588L3.41037 20.3578ZM3.51737 20.8792L4.51052 20.9961L4.52936 20.836L4.49696 20.6782L3.51737 20.8792ZM3.45623 21.3988L4.34954 21.8482L4.42877 21.6907L4.44937 21.5156L3.45623 21.3988ZM3.19699 21.914L2.30368 21.4646L2.02552 22.0174L2.39624 22.513L3.19699 21.914ZM3.59288 22.4433L4.4738 22.9165L4.77557 22.3548L4.39364 21.8443L3.59288 22.4433ZM3.31746 22.9559L2.43654 22.4827L2.36404 22.6176L2.33526 22.7681L3.31746 22.9559ZM3.22196 23.4552L2.23977 23.2673L2.02329 24.399L3.17419 24.454L3.22196 23.4552ZM3.33298 19.3706L3.49464 20.3574L3.69145 20.3252L3.86084 20.2199L3.33298 19.3706ZM2.89276 19.4427L2.7311 18.4558L2.46155 18.5L2.25187 18.675L2.89276 19.4427ZM2.48673 19.7817L2.91573 20.685L3.03027 20.6306L3.12762 20.5493L2.48673 19.7817ZM2.009 20.0085L1.58001 19.1052L1.52458 19.1316L1.47279 19.1645L2.009 20.0085ZM1.6707 20.2235L1.13448 19.3794L0.23938 19.948L0.859497 20.8082L1.6707 20.2235ZM0.949223 20.9327C1.27218 21.3807 1.89718 21.4821 2.34519 21.1591C2.7932 20.8362 2.89458 20.2112 2.57162 19.7632L1.76042 20.3479L0.949223 20.9327ZM3.17647 23.9713L2.22347 23.6684L2.15974 23.8689L2.18218 24.078L3.17647 23.9713ZM3.23262 24.4948L4.19374 24.7709L4.2478 24.5828L4.22692 24.3881L3.23262 24.4948ZM3.08879 24.9954L2.12767 24.7192L2.07217 24.9124L2.09562 25.1121L3.08879 24.9954ZM3.15409 25.5512L3.23998 26.5475L4.2676 26.4589L4.14726 25.4345L3.15409 25.5512ZM2.72193 25.5885L2.37492 26.5263L2.58483 26.604L2.80782 26.5848L2.72193 25.5885ZM2.13916 25.3729L1.24463 24.9259L0.746035 25.9236L1.79215 26.3107L2.13916 25.3729ZM2.42424 24.8023L3.31878 25.2493L3.39418 25.0985L3.41591 24.9312L2.42424 24.8023ZM2.48899 24.304L2.04154 23.4097L1.56585 23.6477L1.49732 24.1752L2.48899 24.304ZM2.97498 24.0609L3.42243 24.9552L3.58517 24.8737L3.70879 24.7402L2.97498 24.0609ZM3.31802 23.6903L4.05184 24.3697L4.28326 24.1197L4.31395 23.7804L3.31802 23.6903ZM1.28645 19.4838L2.28604 19.5122L2.28889 19.4122L1.28929 19.3838L0.289695 19.3554L0.286853 19.4554L1.28645 19.4838ZM1.28929 19.3838L2.28658 19.3103L2.25515 18.884L1.25786 18.9575L0.260564 19.031L0.291998 19.4574L1.28929 19.3838ZM1.25786 18.9575L2.12445 19.4565L2.40683 18.9661L1.54023 18.4671L0.673637 17.9681L0.391261 18.4585L1.25786 18.9575ZM1.54023 18.4671L2.50214 18.1937L2.34857 17.6534L1.38666 17.9267L0.424749 18.2001L0.578324 18.7405L1.54023 18.4671ZM1.38666 17.9267L2.38433 17.8585L2.34839 17.3333L1.35073 17.4016L0.353059 17.4699L0.388991 17.995L1.38666 17.9267ZM1.35073 17.4016L2.27126 17.7923L2.48436 17.2901L1.56383 16.8995L0.643293 16.5088L0.430191 17.0109L1.35073 17.4016ZM1.56383 16.8995L2.55924 16.9951L2.60904 16.4771L1.61363 16.3814L0.618218 16.2857L0.568417 16.8038L1.56383 16.8995ZM1.61363 16.3814L2.59031 16.1667L2.47386 15.637L1.49718 15.8517L0.5205 16.0664L0.63695 16.5961L1.61363 16.3814ZM1.49718 15.8517L2.48134 16.029L2.57395 15.5148L1.58978 15.3376L0.60562 15.1603L0.513016 15.6744L1.49718 15.8517ZM1.58978 15.3376L2.46551 15.8204L2.7455 15.3125L1.86978 14.8297L0.994059 14.3469L0.714061 14.8547L1.58978 15.3376ZM1.86978 14.8297L2.71569 14.2964L2.38043 13.7646L1.53452 14.2979L0.688612 14.8313L1.02387 15.363L1.86978 14.8297ZM1.53452 14.2979L2.50763 14.5283L2.62973 14.0125L1.65663 13.7822L0.68352 13.5518L0.561417 14.0676L1.53452 14.2979ZM1.65663 13.7822L2.61919 13.5111L2.47403 12.9956L1.51147 13.2667L0.5489 13.5377L0.694059 14.0532L1.65663 13.7822ZM1.51147 13.2667L2.42212 13.6798L2.66193 13.1513L1.75128 12.7381L0.840625 12.3249L0.600812 12.8535L1.51147 13.2667ZM1.75128 12.7381L2.72448 12.5081L2.60371 11.9971L1.63051 12.227L0.657314 12.457L0.778082 12.9681L1.75128 12.7381ZM1.63051 12.227L2.58338 11.9236L2.42476 11.4255L1.47189 11.7288L0.519023 12.0322L0.677642 12.5304L1.63051 12.227ZM1.47189 11.7288L2.37877 11.3074L2.15107 10.8174L1.2442 11.2388L0.337323 11.6602L0.565017 12.1502L1.47189 11.7288ZM1.2442 11.2388L2.12194 11.7179L2.43031 11.153L1.55257 10.6739L0.674821 10.1948L0.366454 10.7597L1.2442 11.2388ZM1.55257 10.6739L2.34809 10.068L1.95812 9.55598L1.1626 10.1619L0.367074 10.7678L0.757043 11.2798L1.55257 10.6739ZM1.1626 10.1619L2.06822 10.586L2.30798 10.074L1.40235 9.6499L0.49672 9.22583L0.256967 9.73784L1.1626 10.1619ZM1.40235 9.6499L2.39851 9.56233L2.35152 9.02786L1.35536 9.11544L0.359205 9.20301L0.406191 9.73748L1.40235 9.6499ZM1.35536 9.11544L2.11984 9.76009L2.50825 9.29948L1.74377 8.65483L0.979288 8.01018L0.590882 8.47079L1.35536 9.11544ZM1.74377 8.65483L2.63501 8.2013L2.3376 7.61686L1.44636 8.0704L0.555123 8.52393L0.85253 9.10837L1.74377 8.65483ZM1.44636 8.0704L2.36421 8.46732L2.5761 7.97735L1.65825 7.58042L0.7404 7.1835L0.52851 7.67347L1.44636 8.0704ZM1.65825 7.58042L2.61566 7.86917L2.76608 7.37039L1.80868 7.08165L0.851272 6.7929L0.700846 7.29168L1.65825 7.58042ZM1.80868 7.08165L2.79879 7.22196L2.87198 6.70541L1.88188 6.56511L0.891768 6.4248L0.81857 6.94134L1.80868 7.08165ZM1.88188 6.56511L2.65541 7.19886L3.02713 6.74516L2.25359 6.11141L1.48005 5.47765L1.10834 5.93135L1.88188 6.56511ZM2.25359 6.11141L3.24292 5.96572L3.16204 5.41644L2.17271 5.56213L1.18338 5.70781L1.26426 6.25709L2.25359 6.11141ZM2.17271 5.56213L3.15542 5.74725L3.25217 5.23367L2.26946 5.04854L1.28674 4.86342L1.18999 5.377L2.17271 5.56213ZM2.26946 5.04854L3.05953 5.66156L3.41099 5.20859L2.62092 4.59557L1.83084 3.98256L1.47939 4.43553L2.26946 5.04854ZM2.62092 4.59557L3.56721 4.27227L3.3692 3.6927L2.42291 4.01601L1.47661 4.33931L1.67462 4.91888L2.62092 4.59557ZM2.42291 4.01601L3.32937 4.43829L3.55342 3.95733L2.64696 3.53506L1.74049 3.11278L1.51644 3.59373L2.42291 4.01601ZM2.64696 3.53506L3.53247 3.99967L3.78031 3.52731L2.89479 3.0627L2.00928 2.59808L1.76144 3.07044L2.64696 3.53506ZM2.89479 3.0627L3.89392 3.0208L3.87097 2.47374L2.87185 2.51564L1.87273 2.55754L1.89567 3.1046L2.89479 3.0627ZM2.87185 2.51564L3.80946 2.86334L3.99613 2.35995L3.05852 2.01225L2.12092 1.66456L1.93424 2.16794L2.87185 2.51564ZM3.05852 2.01225L2.27522 2.63389L2.46477 2.87273L3.24807 2.25109L4.03138 1.62945L3.84183 1.39061L3.05852 2.01225ZM3.24807 2.25109L2.60184 3.01423L3.09013 3.42772L3.73636 2.66458L4.3826 1.90144L3.89431 1.48795L3.24807 2.25109ZM3.73636 2.66458L2.83741 2.22653L2.56139 2.79296L3.46034 3.23102L4.35929 3.66907L4.63531 3.10264L3.73636 2.66458ZM3.46034 3.23102L2.48606 3.45636L2.60344 3.96382L3.57771 3.73848L4.55199 3.51314L4.43462 3.00567L3.46034 3.23102ZM3.57771 3.73848L2.7971 4.3635L3.18181 4.84397L3.96242 4.21895L4.74303 3.59393L4.35833 3.11346L3.57771 3.73848ZM3.96242 4.21895L2.96704 4.31496L3.0169 4.83193L4.01228 4.73592L5.00766 4.63991L4.9578 4.12294L3.96242 4.21895ZM4.01228 4.73592L3.10386 4.31786L2.84979 4.86995L3.75821 5.28801L4.66663 5.70607L4.9207 5.15398L4.01228 4.73592ZM3.75821 5.28801L2.81689 5.62554L2.99723 6.12848L3.93855 5.79095L4.87986 5.45342L4.69952 4.95048L3.75821 5.28801ZM3.93855 5.79095L2.94864 5.93267L3.02234 6.44742L4.01224 6.30569L5.00215 6.16397L4.92846 5.64923L3.93855 5.79095ZM4.01224 6.30569L3.01229 6.31496L3.01713 6.83777L4.01709 6.8285L5.01705 6.81923L5.0122 6.29642L4.01224 6.30569ZM4.01709 6.8285L3.01757 6.85951L3.03376 7.38119L4.03327 7.35018L5.03279 7.31917L5.01661 6.79749L4.01709 6.8285ZM4.03327 7.35018L3.03358 7.32545L3.02058 7.8508L4.02028 7.87554L5.01997 7.90027L5.03297 7.37492L4.03327 7.35018ZM4.02028 7.87554L3.20392 8.45309L3.54654 8.93737L4.36289 8.35981L5.17925 7.78226L4.83663 7.29798L4.02028 7.87554ZM4.36289 8.35981L3.36707 8.2685L3.31857 8.79739L4.31439 8.88871L5.31022 8.98002L5.35872 8.45113L4.36289 8.35981ZM4.31439 8.88871L3.40507 9.3048L3.63332 9.8036L4.54264 9.38751L5.45196 8.97142L5.22372 8.47262L4.31439 8.88871ZM4.54264 9.38751L3.59958 9.05489L3.40801 9.59804L4.35107 9.93066L5.29413 10.2633L5.4857 9.72013L4.54264 9.38751ZM4.35107 9.93066L3.37499 10.1481L3.48884 10.6592L4.46492 10.4417L5.44099 10.2243L5.32714 9.71321L4.35107 9.93066ZM4.46492 10.4417L3.47073 10.5494L3.52674 11.0665L4.52093 10.9589L5.51511 10.8512L5.4591 10.334L4.46492 10.4417ZM4.52093 10.9589L3.56527 11.2533L3.72157 11.7606L4.67723 11.4661L5.6329 11.1717L5.47659 10.6644L4.52093 10.9589ZM4.67723 11.4661L3.67736 11.4822L3.68574 12.004L4.68561 11.988L5.68548 11.9719L5.6771 11.4501L4.67723 11.4661ZM4.68561 11.988L3.68566 11.9978L3.6908 12.52L4.69075 12.5101L5.6907 12.5003L5.68556 11.9782L4.68561 11.988ZM4.69075 12.5101L3.69172 12.5542L3.71465 13.0742L4.71368 13.0302L5.71271 12.9861L5.68978 12.4661L4.69075 12.5101ZM4.71368 13.0302L3.74088 13.2618L3.86266 13.7733L4.83547 13.5416L5.80827 13.31L5.68648 12.7985L4.71368 13.0302ZM4.83547 13.5416L3.86042 13.7636L3.97694 14.2754L4.95198 14.0533L5.92702 13.8313L5.81051 13.3196L4.83547 13.5416ZM4.95198 14.0533L3.95376 14.1129L3.98478 14.6328L4.98301 14.5732L5.98123 14.5137L5.95021 13.9938L4.95198 14.0533ZM4.98301 14.5732L3.98305 14.582L3.98762 15.1039L4.98758 15.0952L5.98754 15.0864L5.98297 14.5645L4.98301 14.5732ZM4.98758 15.0952L4.05275 14.7401L3.84845 15.2779L4.78329 15.633L5.71812 15.9881L5.92241 15.4503L4.98758 15.0952ZM4.78329 15.633L3.79934 15.8115L3.89268 16.3261L4.87663 16.1477L5.86058 15.9692L5.76723 15.4545L4.78329 15.633ZM4.87663 16.1477L3.9894 16.609L4.25044 17.111L5.13767 16.6497L6.0249 16.1884L5.76386 15.6863L4.87663 16.1477ZM5.13767 16.6497L4.14071 16.7276L4.18119 17.2457L5.17815 17.1678L6.17512 17.0899L6.13463 16.5718L5.13767 16.6497ZM5.17815 17.1678L4.20277 16.9473L4.08317 17.4763L5.05856 17.6968L6.03394 17.9173L6.15354 17.3883L5.17815 17.1678ZM5.05856 17.6968L4.06113 17.6251L4.02359 18.1472L5.02102 18.2189L6.01845 18.2906L6.05598 17.7685L5.05856 17.6968ZM5.02102 18.2189L4.02147 18.189L4.00592 18.7087L5.00547 18.7386L6.00502 18.7685L6.02057 18.2489L5.02102 18.2189ZM5.00547 18.7386L4.95814 19.7375L5.08494 19.7435L5.13227 18.7446L5.1796 17.7458L5.0528 17.7397L5.00547 18.7386ZM5.13227 18.7446L4.82591 17.7927L4.73071 17.8234L5.03708 18.7753L5.34344 19.7272L5.43864 19.6965L5.13227 18.7446ZM5.03708 18.7753L4.06369 19.0044L4.17901 19.4943L5.1524 19.2651L6.12579 19.036L6.01047 18.5461L5.03708 18.7753ZM5.1524 19.2651L4.18369 19.5133L4.31694 20.0334L5.28565 19.7853L6.25437 19.5371L6.12111 19.017L5.1524 19.2651ZM5.28565 19.7853L4.39603 19.3286L4.131 19.8448L5.02063 20.3015L5.91026 20.7582L6.17528 20.242L5.28565 19.7853ZM5.02063 20.3015L4.08518 20.655L4.2854 21.1849L5.22085 20.8314L6.1563 20.478L5.95608 19.9481L5.02063 20.3015ZM5.22085 20.8314L4.24291 20.6225L4.13265 21.1387L5.11059 21.3476L6.08853 21.5565L6.19879 21.0403L5.22085 20.8314ZM5.11059 21.3476L4.17754 20.9878L3.98942 21.4758L4.92246 21.8355L5.85551 22.1953L6.04364 21.7073L5.11059 21.3476ZM4.92246 21.8355L5.57559 21.0783L5.31401 20.8527L4.66089 21.6099L4.00776 22.3672L4.26934 22.5928L4.92246 21.8355ZM4.66089 21.6099L5.64527 21.786L5.74653 21.2199L4.76215 21.0438L3.77777 20.8677L3.67651 21.4338L4.66089 21.6099ZM4.76215 21.0438L5.61032 20.5141L5.3216 20.0518L4.47343 20.5815L3.62525 21.1112L3.91397 21.5735L4.76215 21.0438ZM4.47343 20.5815L5.46879 20.4853L5.41841 19.9639L4.42305 20.0601L3.42768 20.1563L3.47806 20.6777L4.47343 20.5815ZM4.42305 20.0601L5.42007 19.983L5.37977 19.4617L4.38275 19.5387L3.38572 19.6158L3.42602 20.1372L4.42305 20.0601ZM4.38275 19.5387L5.30466 19.1514L5.10187 18.6688L4.17996 19.0561L3.25804 19.4435L3.46083 19.9261L4.38275 19.5387ZM4.17996 19.0561L3.98824 18.0747L3.94854 18.0825L4.14026 19.0639L4.33198 20.0454L4.37168 20.0376L4.17996 19.0561ZM5.13227 18.7446L5.40128 19.7078L5.4976 19.6809L5.22858 18.7177L4.95957 17.7546L4.86326 17.7815L5.13227 18.7446ZM5.22858 18.7177L5.59115 19.6497L5.98338 19.4971L5.62081 18.5651L5.25824 17.6332L4.86601 17.7858L5.22858 18.7177ZM5.62081 18.5651L5.72011 19.5602L6.24647 19.5077L6.14718 18.5126L6.04789 17.5176L5.52152 17.5701L5.62081 18.5651ZM6.14718 18.5126L6.76878 19.2959L7.20883 18.9468L6.58723 18.1634L5.96563 17.3801L5.52558 17.7293L6.14718 18.5126ZM6.58723 18.1634L6.89978 19.1133L7.39416 18.9507L7.08161 18.0008L6.76906 17.0508L6.27468 17.2135L6.58723 18.1634ZM7.08161 18.0008L7.06482 19.0006L7.60839 19.0097L7.62517 18.0099L7.64196 17.01L7.09839 17.0009L7.08161 18.0008ZM7.62517 18.0099L7.95699 18.9532L8.44949 18.78L8.11767 17.8366L7.78586 16.8933L7.29336 17.0665L7.62517 18.0099ZM8.11767 17.8366L8.26891 18.8251L8.78512 18.7462L8.63388 17.7577L8.48264 16.7692L7.96643 16.8481L8.11767 17.8366ZM8.63388 17.7577L8.91429 18.7175L9.41405 18.5716L9.13365 17.6117L8.85324 16.6518L8.35348 16.7978L8.63388 17.7577ZM9.13365 17.6117L9.70009 18.4358L10.1531 18.1244L9.58668 17.3003L9.02024 16.4762L8.56721 16.7876L9.13365 17.6117ZM9.58668 17.3003L9.88756 18.2539L10.3856 18.0968L10.0847 17.1432L9.78384 16.1895L9.28579 16.3466L9.58668 17.3003ZM10.0847 17.1432L10.0665 18.143L10.6067 18.1528L10.625 17.153L10.6432 16.1532L10.1029 16.1433L10.0847 17.1432ZM10.625 17.153L11.1813 17.9839L11.6371 17.6788L11.0807 16.8478L10.5244 16.0169L10.0686 16.322L10.625 17.153ZM11.0807 16.8478L11.1102 17.8474L11.6448 17.8316L11.6154 16.8321L11.5859 15.8325L11.0513 15.8483L11.0807 16.8478ZM11.6154 16.8321L11.6694 17.8306L12.2005 17.8019L12.1465 16.8033L12.0925 15.8048L11.5613 15.8335L11.6154 16.8321ZM12.1465 16.8033L12.7006 17.6358L13.158 17.3313L12.6039 16.4989L12.0498 15.6664L11.5924 15.9709L12.1465 16.8033ZM12.6039 16.4989L12.4818 17.4914L13.0385 17.5599L13.1606 16.5674L13.2827 15.5749L12.726 15.5064L12.6039 16.4989ZM13.1606 16.5674L13.3397 17.5512L13.8528 17.4578L13.6737 16.474L13.4946 15.4901L12.9815 15.5835L13.1606 16.5674ZM13.6737 16.474L14.1485 17.3541L14.6189 17.1004L14.1442 16.2202L13.6694 15.3401L13.199 15.5938L13.6737 16.474ZM14.1442 16.2202L14.3233 17.2041L14.836 17.1107L14.6569 16.1269L14.4777 15.1431L13.965 15.2364L14.1442 16.2202ZM14.6569 16.1269L15.2358 16.9422L15.6884 16.6209L15.1094 15.8055L14.5305 14.9902L14.0779 15.3115L14.6569 16.1269ZM15.1094 15.8055L14.807 16.7587L15.3931 16.9447L15.6956 15.9915L15.998 15.0383L15.4119 14.8523L15.1094 15.8055ZM15.6956 15.9915L16.2031 16.8531L16.6716 16.5772L16.164 15.7156L15.6565 14.8539L15.1881 15.1299L15.6956 15.9915ZM16.164 15.7156L16.6097 16.6108L17.0801 16.3766L16.6345 15.4814L16.1889 14.5862L15.7184 14.8203L16.164 15.7156ZM16.6345 15.4814L16.9486 16.4308L17.4423 16.2674L17.1282 15.318L16.814 14.3687L16.3204 14.532L16.6345 15.4814ZM17.1282 15.318L17.0931 16.3174L17.6473 16.3369L17.6823 15.3375L17.7174 14.3381L17.1632 14.3187L17.1282 15.318ZM17.6823 15.3375L17.9945 16.2875L18.4877 16.1255L18.1755 15.1755L17.8634 14.2254L17.3702 14.3874L17.6823 15.3375ZM18.1755 15.1755L18.6125 16.075L19.0849 15.8455L18.648 14.946L18.2111 14.0465L17.7386 14.276L18.1755 15.1755ZM18.648 14.946L19.1123 15.8317L19.5801 15.5864L19.1159 14.7007L18.6517 13.815L18.1838 14.0602L18.648 14.946ZM19.1159 14.7007L19.0017 15.6942L19.571 15.7596L19.6851 14.7661L19.7993 13.7727L19.2301 13.7073L19.1159 14.7007ZM19.6851 14.7661L20.6157 15.1324L20.7375 14.8228L19.807 14.4565L18.8765 14.0903L18.7546 14.3999L19.6851 14.7661ZM19.807 14.4565L20.0003 13.4754L19.4781 13.3725L19.2848 14.3536L19.0915 15.3348L19.6137 15.4377L19.807 14.4565ZM19.2848 14.3536L18.8646 13.4462L18.3577 13.681L18.7779 14.5884L19.1981 15.4958L19.705 15.261L19.2848 14.3536ZM18.7779 14.5884L18.8115 13.589L18.2906 13.5714L18.257 14.5709L18.2234 15.5703L18.7443 15.5878L18.7779 14.5884ZM18.257 14.5709L17.916 13.6308L17.4196 13.8109L17.7606 14.7509L18.1016 15.691L18.598 15.5109L18.257 14.5709ZM17.7606 14.7509L18.099 13.8099L17.5386 13.6084L17.2002 14.5494L16.8618 15.4904L17.4222 15.6919L17.7606 14.7509ZM17.2002 14.5494L16.6775 13.6969L16.2031 13.9877L16.7258 14.8403L17.2485 15.6928L17.7229 15.4019L17.2002 14.5494ZM16.7258 14.8403L16.6782 13.8414L16.1524 13.8665L16.2 14.8653L16.2476 15.8642L16.7734 15.8391L16.7258 14.8403ZM16.2 14.8653L15.6712 14.0166L15.2057 14.3066L15.7344 15.1554L16.2632 16.0041L16.7288 15.7141L16.2 14.8653ZM15.7344 15.1554L15.8687 14.1644L15.3151 14.0894L15.1808 15.0803L15.0465 16.0713L15.6001 16.1463L15.7344 15.1554ZM15.1808 15.0803L14.7627 14.1719L14.281 14.3936L14.6992 15.302L15.1173 16.2104L15.5989 15.9887L15.1808 15.0803ZM14.6992 15.302L14.1945 14.4387L13.7248 14.7133L14.2295 15.5766L14.7342 16.4399L15.2038 16.1653L14.6992 15.302ZM14.2295 15.5766L14.1616 14.5789L13.635 14.6147L13.703 15.6124L13.7709 16.6101L14.2975 16.5743L14.2295 15.5766ZM13.703 15.6124L14.0343 14.6689L13.452 14.4644L13.1207 15.4079L12.7893 16.3514L13.3716 16.5559L13.703 15.6124ZM13.1207 15.4079L12.4333 14.6816L11.9955 15.0959L12.6828 15.8223L13.3702 16.5486L13.808 16.1342L13.1207 15.4079ZM12.6828 15.8223L12.5017 14.8388L11.9896 14.9331L12.1707 15.9166L12.3519 16.9L12.864 16.8057L12.6828 15.8223ZM12.1707 15.9166L11.9493 14.9414L11.4425 15.0565L11.6639 16.0317L11.8853 17.0068L12.3921 16.8918L12.1707 15.9166ZM11.6639 16.0317L11.4917 15.0466L10.9794 15.1362L11.1516 16.1212L11.3238 17.1063L11.8361 17.0167L11.6639 16.0317ZM11.1516 16.1212L11.1732 15.1215L10.6366 15.1098L10.615 16.1096L10.5934 17.1094L11.1299 17.121L11.1516 16.1212ZM10.615 16.1096L10.0204 15.3056L9.56246 15.6442L10.157 16.4483L10.7516 17.2523L11.2096 16.9137L10.615 16.1096ZM10.157 16.4483L10.2022 15.4493L9.66486 15.425L9.61967 16.424L9.57448 17.4229L10.1118 17.4472L10.157 16.4483ZM9.61967 16.424L9.44712 15.439L8.93428 15.5288L9.10683 16.5138L9.27938 17.4988L9.79223 17.409L9.61967 16.424ZM9.10683 16.5138L8.5418 15.6887L8.07588 16.0078L8.64091 16.8329L9.20595 17.6579L9.67186 17.3389L9.10683 16.5138ZM8.64091 16.8329L8.67422 15.8334L8.13918 15.8156L8.10587 16.815L8.07257 17.8145L8.60761 17.8323L8.64091 16.8329ZM8.10587 16.815L7.86277 15.845L7.35639 15.972L7.59949 16.942L7.84259 17.912L8.34897 17.785L8.10587 16.815ZM7.59949 16.942L7.94009 16.0017L7.37535 15.7972L7.03474 16.7374L6.69413 17.6776L7.25888 17.8822L7.59949 16.942ZM7.03474 16.7374L6.67785 15.8032L6.19253 15.9886L6.54942 16.9228L6.9063 17.8569L7.39163 17.6715L7.03474 16.7374ZM6.54942 16.9228L6.48821 17.9209L6.95545 17.9496L7.01666 16.9514L7.07786 15.9533L6.61062 15.9247L6.54942 16.9228ZM7.01666 16.9514L7.5277 17.811L7.97038 17.5478L7.45934 16.6882L6.9483 15.8287L6.50562 16.0919L7.01666 16.9514ZM7.45934 16.6882L8.14466 17.4165L8.55452 17.0308L7.86921 16.3025L7.18389 15.5743L6.77403 15.96L7.45934 16.6882ZM7.86921 16.3025L8.15014 17.2623L8.65124 17.1156L8.37031 16.1559L8.08937 15.1961L7.58827 15.3428L7.86921 16.3025ZM8.37031 16.1559L8.74551 17.0828L9.23013 16.8866L8.85493 15.9597L8.47973 15.0328L7.99511 15.2289L8.37031 16.1559ZM8.85493 15.9597L9.11649 16.9249L9.62087 16.7882L9.3593 15.823L9.09774 14.8578L8.59336 14.9945L8.85493 15.9597ZM9.3593 15.823L9.41367 16.8215L9.94538 16.7926L9.89102 15.7941L9.83665 14.7955L9.30494 14.8245L9.3593 15.823ZM9.89102 15.7941L10.4649 16.613L10.9197 16.2943L10.3458 15.4753L9.77197 14.6564L9.31715 14.9751L9.89102 15.7941ZM10.3458 15.4753L10.0234 16.4219L10.609 16.6214L10.9314 15.6748L11.2538 14.7282L10.6683 14.5288L10.3458 15.4753ZM10.9314 15.6748L11.4869 16.5064L11.9476 16.1986L11.3922 15.3671L10.8368 14.5355L10.376 14.8432L10.9314 15.6748ZM11.3922 15.3671L11.415 16.3668L11.9455 16.3547L11.9227 15.355L11.8999 14.3552L11.3694 14.3673L11.3922 15.3671ZM11.9227 15.355L12.23 16.3066L12.7258 16.1465L12.4185 15.1949L12.1112 14.2433L11.6154 14.4034L11.9227 15.355ZM12.4185 15.1949L12.5637 16.1843L13.0782 16.1088L12.933 15.1194L12.7878 14.13L12.2733 14.2055L12.4185 15.1949ZM12.933 15.1194L13.3976 16.0049L13.8785 15.7526L13.4138 14.8671L12.9492 13.9816L12.4683 14.2339L12.933 15.1194ZM13.4138 14.8671L13.4917 15.864L14.0137 15.8233L13.9358 14.8263L13.8579 13.8293L13.3359 13.8701L13.4138 14.8671ZM13.9358 14.8263L13.9732 15.8256L14.4977 15.806L14.4603 14.8067L14.4229 13.8074L13.8984 13.827L13.9358 14.8263ZM14.4603 14.8067L14.4313 15.8062L14.96 15.8216L14.9891 14.822L15.0181 13.8224L14.4894 13.8071L14.4603 14.8067ZM14.9891 14.822L15.4327 15.7182L15.921 15.4765L15.4774 14.5803L15.0338 13.6841L14.5455 13.9258L14.9891 14.822ZM15.4774 14.5803L15.5236 15.5792L16.0455 15.5551L15.9993 14.5562L15.9531 13.5572L15.4312 13.5814L15.4774 14.5803ZM15.9993 14.5562L16.4977 15.4231L16.9851 15.1429L16.4867 14.276L15.9883 13.409L15.5009 13.6892L15.9993 14.5562ZM16.4867 14.276L16.4696 15.2758L16.9953 15.2848L17.0123 14.285L17.0294 13.2851L16.5038 13.2761L16.4867 14.276ZM17.0123 14.285L17.1046 15.2807L17.6221 15.2328L17.5299 14.237L17.4377 13.2413L16.9201 13.2892L17.0123 14.285ZM17.5299 14.237L17.9077 15.1629L18.4004 14.9619L18.0226 14.036L17.6448 13.1101L17.1521 13.3111L17.5299 14.237ZM18.0226 14.036L18.0598 15.0353L18.5821 15.0158L18.5448 14.0165L18.5076 13.0172L17.9854 13.0367L18.0226 14.036ZM18.5448 14.0165L18.8892 14.9554L19.3836 14.774L19.0393 13.8352L18.695 12.8963L18.2005 13.0777L18.5448 14.0165ZM19.0393 13.8352L19.1547 14.8285L19.6711 14.7685L19.5557 13.7752L19.4404 12.7819L18.924 12.8419L19.0393 13.8352ZM19.5557 13.7752L19.4437 14.7689L19.9855 14.83L20.0975 13.8363L20.2096 12.8426L19.6678 12.7815L19.5557 13.7752ZM20.0975 13.8363L20.5834 14.7103L21.0601 14.4453L20.5742 13.5713L20.0883 12.6973L19.6116 12.9623L20.0975 13.8363ZM20.5742 13.5713L20.6644 14.5672L21.1853 14.5201L21.0952 13.5242L21.005 12.5282L20.484 12.5754L20.5742 13.5713ZM21.0952 13.5242L21.1613 14.522L21.685 14.4872L21.6188 13.4894L21.5526 12.4916L21.029 12.5263L21.0952 13.5242ZM21.6188 13.4894L21.602 14.4893L22.1353 14.4983L22.1521 13.4984L22.169 12.4985L21.6357 12.4896L21.6188 13.4894ZM22.1521 13.4984L22.6047 14.3901L23.0873 14.1452L22.6348 13.2535L22.1823 12.3617L21.6996 12.6066L22.1521 13.4984ZM22.6348 13.2535L22.8414 14.2319L23.3527 14.1239L23.1461 13.1455L22.9395 12.1671L22.4282 12.2751L22.6348 13.2535ZM23.1461 13.1455L23.0677 14.1424L23.5999 14.1843L23.6783 13.1874L23.7568 12.1904L23.2246 12.1486L23.1461 13.1455ZM23.6783 13.1874L23.3685 14.1382L23.8525 14.2959L24.1623 13.3451L24.4722 12.3943L23.9882 12.2366L23.6783 13.1874ZM24.1623 13.3451L23.2421 13.7365L23.2613 13.7817L24.1816 13.3903L25.1018 12.999L25.0826 12.9537L24.1623 13.3451ZM24.1816 13.3903L23.309 12.9018L23.0321 13.3963L23.9047 13.8849L24.7772 14.3734L25.0541 13.8789L24.1816 13.3903ZM23.9047 13.8849L23.6 12.9324L23.0912 13.0951L23.3958 14.0476L23.7004 15.0001L24.2093 14.8374L23.9047 13.8849ZM23.3958 14.0476L22.5517 13.5114L22.2359 14.0086L23.08 14.5448L23.9241 15.0809L24.2399 14.5838L23.3958 14.0476ZM23.08 14.5448L22.7582 13.598L22.2548 13.7691L22.5767 14.7159L22.8985 15.6627L23.4019 15.4915L23.08 14.5448ZM22.5767 14.7159L22.5925 13.716L21.9973 13.7066L21.9815 14.7065L21.9657 15.7063L22.5608 15.7158L22.5767 14.7159ZM21.9815 14.7065L21.225 14.0524L20.8605 14.474L21.617 15.1281L22.3734 15.7821L22.7379 15.3605L21.9815 14.7065ZM21.617 15.1281L21.1252 14.2573L20.6717 14.5135L21.1634 15.3842L21.6552 16.2549L22.1087 15.9988L21.617 15.1281ZM21.1634 15.3842L21.0765 14.388L20.5184 14.4367L20.6054 15.4329L20.6923 16.4291L21.2504 16.3804L21.1634 15.3842ZM20.6054 15.4329L19.9515 14.6763L19.5457 15.027L20.1995 15.7836L20.8534 16.5403L21.2592 16.1895L20.6054 15.4329ZM20.1995 15.7836L19.7277 14.902L19.2704 15.1467L19.7423 16.0284L20.2142 16.91L20.6714 16.6653L20.1995 15.7836ZM19.7423 16.0284L19.0125 15.3447L18.6287 15.7544L19.3585 16.438L20.0883 17.1217L20.4721 16.712L19.7423 16.0284ZM19.3585 16.438L19.3318 15.4384L18.7676 15.4535L18.7944 16.4531L18.8212 17.4528L19.3853 17.4377L19.3585 16.438ZM18.7944 16.4531L18.1317 15.7042L17.7179 16.0704L18.3805 16.8193L19.0432 17.5682L19.4571 17.202L18.7944 16.4531ZM18.3805 16.8193L18.15 15.8462L17.6375 15.9677L17.868 16.9407L18.0985 17.9138L18.611 17.7924L18.3805 16.8193ZM17.868 16.9407L17.5966 15.9783L17.0934 16.1202L17.3647 17.0826L17.6361 18.0451L18.1393 17.9032L17.868 16.9407ZM17.3647 17.0826L17.0439 16.1355L16.5515 16.3023L16.8722 17.2494L17.193 18.1966L17.6855 18.0298L17.3647 17.0826ZM16.8722 17.2494L16.7294 16.2597L16.2058 16.3353L16.3486 17.325L16.4915 18.3147L17.0151 18.2392L16.8722 17.2494ZM16.3486 17.325L16.1425 16.3465L15.6309 16.4543L15.837 17.4328L16.0431 18.4113L16.5548 18.3035L16.3486 17.325ZM15.837 17.4328L15.0833 16.7755L14.6847 17.2326L15.4384 17.8899L16.192 18.5471L16.5907 18.09L15.837 17.4328ZM15.4384 17.8899L15.6663 16.9162L15.0759 16.778L14.8479 17.7516L14.62 18.7253L15.2104 18.8635L15.4384 17.8899ZM14.8479 17.7516L14.1566 17.0291L13.7381 17.4295L14.4294 18.152L15.1208 18.8746L15.5392 18.4742L14.8479 17.7516ZM14.4294 18.152L14.7018 17.1899L14.102 17.02L13.8296 17.9822L13.5572 18.9444L14.157 19.1142L14.4294 18.152ZM13.8296 17.9822L13.5253 17.0296L13.0293 17.1881L13.3336 18.1407L13.6378 19.0932L14.1339 18.9348L13.8296 17.9822ZM13.3336 18.1407L12.6439 17.4165L12.2258 17.8147L12.9155 18.5388L13.6052 19.2629L14.0232 18.8648L13.3336 18.1407ZM12.9155 18.5388L13.0173 17.544L12.4503 17.486L12.3485 18.4808L12.2467 19.4756L12.8137 19.5336L12.9155 18.5388ZM12.3485 18.4808L12.0258 17.5343L11.5315 17.7028L11.8543 18.6493L12.177 19.5958L12.6712 19.4273L12.3485 18.4808ZM11.8543 18.6493L11.0133 18.1081L10.6563 18.663L11.4972 19.2042L12.3381 19.7453L12.6952 19.1905L11.8543 18.6493ZM11.4972 19.2042L11.6123 18.2108L11.0364 18.144L10.9213 19.1374L10.8061 20.1307L11.382 20.1975L11.4972 19.2042ZM10.9213 19.1374L10.6115 18.1866L10.1149 18.3484L10.4247 19.2992L10.7345 20.25L11.2311 20.0882L10.9213 19.1374ZM10.4247 19.2992L9.68313 18.6283L9.29733 19.0547L10.0389 19.7256L10.7804 20.3965L11.1662 19.9701L10.4247 19.2992ZM10.0389 19.7256L10.0459 18.7256L9.47753 18.7216L9.47052 19.7216L9.46351 20.7216L10.0319 20.7256L10.0389 19.7256ZM9.47052 19.7216L8.73426 19.0449L8.35751 19.4548L9.09377 20.1315L9.83003 20.8082L10.2068 20.3983L9.47052 19.7216ZM9.09377 20.1315L8.7708 19.1851L8.27879 19.353L8.60176 20.2994L8.92473 21.2458L9.41674 21.0779L9.09377 20.1315ZM8.60176 20.2994L7.96729 19.5265L7.55981 19.861L8.19427 20.6339L8.82874 21.4069L9.23623 21.0724L8.60176 20.2994ZM8.19427 20.6339L8.20292 19.6339L7.59921 19.6287L7.59056 20.6287L7.58191 21.6287L8.18562 21.6339L8.19427 20.6339ZM7.59056 20.6287L6.6979 20.1779L6.41767 20.7329L7.31033 21.1837L8.20298 21.6344L8.48321 21.0794L7.59056 20.6287ZM7.31033 21.1837L7.09694 20.2067L6.56377 20.3231L6.77716 21.3001L6.99054 22.2771L7.52371 22.1606L7.31033 21.1837ZM6.77716 21.3001L6.37447 20.3848L5.89559 20.5954L6.29828 21.5108L6.70097 22.4261L7.17984 22.2154L6.77716 21.3001ZM6.29828 21.5108L5.8778 20.6035L5.40331 20.8234L5.8238 21.7307L6.24428 22.638L6.71876 22.4181L6.29828 21.5108ZM5.8238 21.7307L4.99874 21.1656L4.67521 21.638L5.50027 22.2031L6.32533 22.7681L6.64886 22.2957L5.8238 21.7307ZM5.50027 22.2031L5.48054 21.2033L4.87906 21.2151L4.89879 22.215L4.91852 23.2148L5.52 23.2029L5.50027 22.2031ZM4.89879 22.215L4.0391 21.7041L3.74047 22.2067L4.60016 22.7175L5.45985 23.2284L5.75848 22.7258L4.89879 22.215ZM4.60016 22.7175L4.22677 21.7899L3.73603 21.9874L4.10942 22.9151L4.48281 23.8427L4.97355 23.6452L4.60016 22.7175ZM4.10942 22.9151L3.65197 22.0258L3.18448 22.2663L3.64192 23.1556L4.09937 24.0448L4.56687 23.8043L4.10942 22.9151ZM3.64192 23.1556L2.99821 22.3903L2.67124 22.6653L3.31496 23.4306L3.95867 24.1959L4.28564 23.9208L3.64192 23.1556ZM3.31496 23.4306L2.53031 24.0505L2.55414 24.0807L3.33879 23.4608L4.12344 22.8408L4.09961 22.8107L3.31496 23.4306ZM5.13227 18.7446L4.82591 17.7927L4.73071 17.8234L5.03708 18.7753L5.34344 19.7272L5.43864 19.6965L5.13227 18.7446ZM5.03708 18.7753L4.27545 18.1273L4.03344 18.4117L4.79507 19.0597L5.5567 19.7077L5.79871 19.4233L5.03708 18.7753ZM4.79507 19.0597L4.68676 18.0656L4.2652 18.1115L4.37351 19.1056L4.48182 20.0998L4.90338 20.0538L4.79507 19.0597ZM4.37351 19.1056L4.945 18.285L4.65845 18.0855L4.08696 18.9061L3.51546 19.7267L3.80202 19.9262L4.37351 19.1056ZM4.08696 18.9061L3.13952 19.226L3.19282 19.3839L4.14026 19.0639L5.08769 18.744L5.03439 18.5861L4.08696 18.9061ZM4.14026 19.0639L5.12521 18.8911L5.10793 18.7926L4.12298 18.9654L3.13802 19.1382L3.1553 19.2367L4.14026 19.0639ZM4.12298 18.9654L4.94701 18.3989L4.68691 18.0206L3.86288 18.5871L3.03884 19.1536L3.29894 19.5319L4.12298 18.9654ZM3.86288 18.5871L4.86286 18.5926L4.86577 18.0625L3.86579 18.057L2.8658 18.0515L2.86289 18.5816L3.86288 18.5871ZM3.86579 18.057L4.84213 17.8408L4.72952 17.3322L3.75317 17.5485L2.77683 17.7647L2.88944 18.2732L3.86579 18.057ZM3.75317 17.5485L4.69469 17.8854L4.89622 17.3223L3.9547 16.9854L3.01319 16.6484L2.81166 17.2115L3.75317 17.5485ZM3.9547 16.9854L4.90139 16.6632L4.73193 16.1653L3.78524 16.4874L2.83856 16.8096L3.00802 17.3075L3.9547 16.9854ZM3.78524 16.4874L4.76881 16.3069L4.67499 15.7957L3.69142 15.9763L2.70785 16.1568L2.80168 16.668L3.78524 16.4874ZM3.69142 15.9763L4.64884 15.6876L4.49749 15.1856L3.54006 15.4743L2.58264 15.763L2.734 16.265L3.69142 15.9763ZM3.54006 15.4743L4.49778 15.1866L4.42673 14.9501L3.46901 15.2378L2.5113 15.5255L2.58235 15.762L3.54006 15.4743ZM4.14026 19.0639L3.80867 18.1205L3.71433 18.1536L4.04591 19.0971L4.3775 20.0405L4.47184 20.0073L4.14026 19.0639ZM4.04591 19.0971L4.17522 18.1055L3.94625 18.0756L3.81694 19.0672L3.68763 20.0588L3.9166 20.0887L4.04591 19.0971ZM3.81694 19.0672L2.99902 18.4919L2.78301 18.799L3.60093 19.3743L4.41885 19.9496L4.63487 19.6425L3.81694 19.0672ZM3.60093 19.3743L4.0246 18.4685L3.82892 18.377L3.40525 19.2828L2.98158 20.1886L3.17726 20.2801L3.60093 19.3743ZM3.40525 19.2828L2.46485 19.6228L2.4775 19.6578L3.41791 19.3178L4.35831 18.9777L4.34565 18.9427L3.40525 19.2828ZM3.46901 15.2378L4.46518 15.1504L4.45644 15.0508L3.46027 15.1382L2.4641 15.2257L2.47285 15.3253L3.46901 15.2378ZM3.46027 15.1382L4.44186 15.3292L4.52722 14.8905L3.54563 14.6995L2.56404 14.5085L2.47868 14.9472L3.46027 15.1382ZM3.54563 14.6995L4.54397 14.6418L4.51386 14.1208L3.51553 14.1785L2.51719 14.2362L2.5473 14.7572L3.54563 14.6995ZM3.51553 14.1785L4.46943 13.8784L4.31165 13.3769L3.35774 13.677L2.40384 13.9771L2.56162 14.4786L3.51553 14.1785ZM3.35774 13.677L4.35556 13.6109L4.3211 13.0908L3.32329 13.1568L2.32548 13.2229L2.35993 13.7431L3.35774 13.677ZM3.32329 13.1568L4.26782 12.8284L4.09379 12.3279L3.14926 12.6563L2.20472 12.9847L2.37876 13.4853L3.32329 13.1568ZM3.14926 12.6563L3.9916 12.1174L3.68252 11.6343L2.84018 12.1732L1.99783 12.7122L2.30691 13.1953L3.14926 12.6563ZM2.84018 12.1732L3.83434 12.0654L3.77798 11.5458L2.78381 11.6537L1.78964 11.7616L1.84601 12.2811L2.84018 12.1732ZM2.78381 11.6537L3.78371 11.668L3.79123 11.1418L2.79134 11.1275L1.79144 11.1132L1.78391 11.6394L2.78381 11.6537ZM2.79134 11.1275L3.7903 11.1731L3.81429 10.6471L2.81533 10.6016L1.81637 10.556L1.79238 11.0819L2.79134 11.1275ZM2.81533 10.6016L3.74531 10.234L3.5443 9.72545L2.61433 10.0931L1.68435 10.4607L1.88535 10.9692L2.81533 10.6016ZM2.61433 10.0931L3.60795 9.98033L3.54886 9.45944L2.55523 9.57217L1.5616 9.6849L1.6207 10.2058L2.61433 10.0931ZM2.55523 9.57217L3.43735 10.0432L3.72083 9.5123L2.83871 9.04127L1.95659 8.57025L1.67311 9.10115L2.55523 9.57217ZM2.83871 9.04127L3.80641 8.78917L3.67125 8.27034L2.70355 8.52244L1.73585 8.77455L1.87101 9.29337L2.83871 9.04127ZM2.70355 8.52244L3.63955 8.87444L3.83393 8.35756L2.89792 8.00556L1.96192 7.65357L1.76754 8.17045L2.70355 8.52244ZM2.89792 8.00556L3.74131 7.46825L3.40209 6.9358L2.5587 7.47311L1.71532 8.01042L2.05454 8.54287L2.89792 8.00556ZM2.5587 7.47311L3.3222 8.11891L3.74035 7.62456L2.97685 6.97875L2.21335 6.33295L1.7952 6.8273L2.5587 7.47311ZM2.97685 6.97875L3.95901 6.79069L3.85791 6.26271L2.87575 6.45077L1.8936 6.63883L1.99469 7.16681L2.97685 6.97875ZM2.87575 6.45077L3.85281 6.23778L3.73329 5.68951L2.75624 5.90249L1.77918 6.11548L1.8987 6.66375L2.87575 6.45077ZM2.75624 5.90249L3.49925 6.57176L3.89923 6.12772L3.15621 5.45845L2.41319 4.78918L2.01322 5.23322L2.75624 5.90249ZM3.15621 5.45845L3.99703 5.99976L4.24461 5.6152L3.40379 5.07389L2.56297 4.53257L2.31539 4.91713L3.15621 5.45845ZM3.40379 5.07389L2.41199 5.20173L2.42972 5.33927L3.42152 5.21143L4.41331 5.08359L4.39558 4.94604L3.40379 5.07389ZM3.42152 5.21143L2.4254 5.29942L2.46978 5.80193L3.46591 5.71394L4.46203 5.62595L4.41764 5.12344L3.42152 5.21143ZM3.46591 5.71394L2.72484 6.38537L3.146 6.8502L3.88706 6.17877L4.62812 5.50733L4.20697 5.0425L3.46591 5.71394ZM3.88706 6.17877L2.94323 5.84834L2.755 6.38601L3.69883 6.71643L4.64266 7.04686L4.83089 6.50919L3.88706 6.17877ZM3.69883 6.71643L2.71893 6.51691L2.61315 7.03642L3.59305 7.23594L4.57294 7.43546L4.67872 6.91595L3.69883 6.71643ZM3.59305 7.23594L2.64354 7.54969L2.81447 8.06699L3.76398 7.75324L4.71349 7.4395L4.54255 6.9222L3.59305 7.23594ZM3.76398 7.75324L2.78536 7.95894L2.895 8.48055L3.87362 8.27486L4.85223 8.06916L4.74259 7.54755L3.76398 7.75324ZM3.87362 8.27486L2.87715 8.19088L2.83331 8.71109L3.82978 8.79507L4.82624 8.87904L4.87008 8.35883L3.87362 8.27486ZM3.82978 8.79507L2.8358 8.68549L2.77862 9.20413L3.7726 9.3137L4.76658 9.42328L4.82376 8.90464L3.82978 8.79507ZM3.7726 9.3137L2.87546 8.87196L2.62496 9.38071L3.5221 9.82245L4.41924 10.2642L4.66975 9.75545L3.7726 9.3137ZM3.5221 9.82245L2.63764 10.2891L2.9195 10.8233L3.80396 10.3567L4.68843 9.89011L4.40656 9.35584L3.5221 9.82245ZM3.80396 10.3567L2.93749 9.8575L2.64557 10.3642L3.51204 10.8634L4.37851 11.3626L4.67043 10.856L3.80396 10.3567ZM3.51204 10.8634L2.51791 10.9716L2.57481 11.4944L3.56894 11.3862L4.56307 11.278L4.50616 10.7552L3.51204 10.8634ZM3.56894 11.3862L2.61855 11.6972L2.79182 12.2267L3.74222 11.9156L4.69261 11.6046L4.51934 11.0751L3.56894 11.3862ZM3.74222 11.9156L2.86572 11.4342L2.5872 11.9413L3.46369 12.4227L4.34018 12.9042L4.61871 12.397L3.74222 11.9156ZM3.46369 12.4227L2.49199 12.6589L2.62021 13.1864L3.59192 12.9502L4.56362 12.714L4.43539 12.1865L3.46369 12.4227ZM3.59192 12.9502L2.62558 12.693L2.48875 13.2069L3.45508 13.4642L4.42142 13.7214L4.55825 13.2075L3.59192 12.9502ZM3.45508 13.4642L2.50005 13.7607L2.66354 14.2873L3.61858 13.9908L4.57361 13.6943L4.41012 13.1677L3.45508 13.4642ZM3.61858 13.9908L2.6262 14.114L2.69098 14.6358L3.68336 14.5126L4.67574 14.3894L4.61096 13.8676L3.61858 13.9908ZM3.68336 14.5126L2.81994 14.0082L2.52148 14.519L3.3849 15.0235L4.24832 15.5279L4.54678 15.0171L3.68336 14.5126ZM3.3849 15.0235L2.454 15.3887L2.53812 15.6031L3.46901 15.2378L4.39991 14.8725L4.3158 14.6582L3.3849 15.0235ZM3.46901 15.2378L2.46909 15.2253L2.46784 15.3253L3.46776 15.3378L4.46768 15.3503L4.46894 15.2503L3.46901 15.2378ZM3.46776 15.3378L2.54701 14.9477L2.37051 15.3642L3.29126 15.7544L4.21202 16.1445L4.38851 15.728L3.46776 15.3378ZM3.29126 15.7544L2.31851 15.9862L2.44311 16.509L3.41586 16.2772L4.38862 16.0453L4.26402 15.5225L3.29126 15.7544ZM3.41586 16.2772L2.45651 16.5594L2.61006 17.0814L3.56941 16.7992L4.52877 16.5169L4.37522 15.995L3.41586 16.2772ZM3.56941 16.7992L2.57623 16.9157L2.63731 17.4362L3.6305 17.3196L4.62368 17.203L4.5626 16.6826L3.56941 16.7992ZM3.6305 17.3196L2.65439 17.1023L2.53891 17.621L3.51501 17.8383L4.49111 18.0556L4.6066 17.5369L3.6305 17.3196ZM3.51501 17.8383L2.51827 17.919L2.56039 18.4393L3.55713 18.3586L4.55387 18.2779L4.51175 17.7576L3.51501 17.8383ZM3.55713 18.3586L2.55964 18.2877L2.52272 18.8074L3.52021 18.8783L4.51769 18.9491L4.55461 18.4295L3.55713 18.3586ZM3.52021 18.8783L2.53056 18.7348L2.46679 19.1746L3.45644 19.3181L4.44609 19.4616L4.50986 19.0218L3.52021 18.8783ZM3.45644 19.3181L3.46442 18.3181L3.42589 18.3178L3.41791 19.3178L3.40993 20.3178L3.44845 20.3181L3.45644 19.3181ZM3.41791 19.3178L2.41809 19.2987L2.41618 19.3987L3.416 19.4178L4.41582 19.4369L4.41773 19.3369L3.41791 19.3178ZM3.416 19.4178L2.42055 19.513L2.46079 19.9335L3.45624 19.8383L4.45169 19.743L4.41145 19.3225L3.416 19.4178ZM3.45624 19.8383L2.46011 19.7503L2.41425 20.2699L3.41037 20.3578L4.4065 20.4457L4.45237 19.9262L3.45624 19.8383ZM3.41037 20.3578L2.43079 20.5588L2.53779 21.0802L3.51737 20.8792L4.49696 20.6782L4.38996 20.1568L3.41037 20.3578ZM3.51737 20.8792L2.52423 20.7623L2.46308 21.2819L3.45623 21.3988L4.44937 21.5156L4.51052 20.9961L3.51737 20.8792ZM3.45623 21.3988L2.56292 20.9493L2.30368 21.4646L3.19699 21.914L4.0903 22.3635L4.34954 21.8482L3.45623 21.3988ZM3.19699 21.914L2.39624 22.513L2.79213 23.0423L3.59288 22.4433L4.39364 21.8443L3.99774 21.315L3.19699 21.914ZM3.59288 22.4433L2.71197 21.97L2.43654 22.4827L3.31746 22.9559L4.19837 23.4292L4.4738 22.9165L3.59288 22.4433ZM3.31746 22.9559L2.33526 22.7681L2.23977 23.2673L3.22196 23.4552L4.20415 23.643L4.29965 23.1438L3.31746 22.9559ZM3.22196 23.4552L3.17419 24.454L3.29103 24.4596L3.33879 23.4608L3.38655 22.4619L3.26972 22.4563L3.22196 23.4552ZM3.41791 19.3178L2.89004 18.4685L2.80511 18.5212L3.33298 19.3706L3.86084 20.2199L3.94577 20.1671L3.41791 19.3178ZM3.33298 19.3706L3.17132 18.3837L2.7311 18.4558L2.89276 19.4427L3.05442 20.4295L3.49464 20.3574L3.33298 19.3706ZM2.89276 19.4427L2.25187 18.675L1.84585 19.014L2.48673 19.7817L3.12762 20.5493L3.53364 20.2103L2.89276 19.4427ZM2.48673 19.7817L2.05774 18.8784L1.58001 19.1052L2.009 20.0085L2.438 20.9119L2.91573 20.685L2.48673 19.7817ZM2.009 20.0085L1.47279 19.1645L1.13448 19.3794L1.6707 20.2235L2.20691 21.0675L2.54522 20.8526L2.009 20.0085ZM1.6707 20.2235L0.859497 20.8082L0.949223 20.9327L1.76042 20.3479L2.57162 19.7632L2.48189 19.6387L1.6707 20.2235ZM3.33879 23.4608L2.38579 23.1578L2.22347 23.6684L3.17647 23.9713L4.12948 24.2743L4.29179 23.7637L3.33879 23.4608ZM3.17647 23.9713L2.18218 24.078L2.23833 24.6014L3.23262 24.4948L4.22692 24.3881L4.17077 23.8647L3.17647 23.9713ZM3.23262 24.4948L2.27151 24.2186L2.12767 24.7192L3.08879 24.9954L4.04991 25.2715L4.19374 24.7709L3.23262 24.4948ZM3.08879 24.9954L2.09562 25.1121L2.16092 25.6679L3.15409 25.5512L4.14726 25.4345L4.08196 24.8787L3.08879 24.9954ZM3.15409 25.5512L3.0682 24.5549L2.63604 24.5922L2.72193 25.5885L2.80782 26.5848L3.23998 26.5475L3.15409 25.5512ZM2.72193 25.5885L3.06894 24.6506L2.48617 24.435L2.13916 25.3729L1.79215 26.3107L2.37492 26.5263L2.72193 25.5885ZM2.13916 25.3729L3.0337 25.8198L3.31878 25.2493L2.42424 24.8023L1.52971 24.3553L1.24463 24.9259L2.13916 25.3729ZM2.42424 24.8023L3.41591 24.9312L3.48065 24.4329L2.48899 24.304L1.49732 24.1752L1.43258 24.6735L2.42424 24.8023ZM2.48899 24.304L2.93644 25.1983L3.42243 24.9552L2.97498 24.0609L2.52753 23.1666L2.04154 23.4097L2.48899 24.304ZM2.97498 24.0609L3.70879 24.7402L4.05184 24.3697L3.31802 23.6903L2.58421 23.011L2.24117 23.3815L2.97498 24.0609ZM3.31802 23.6903L4.31395 23.7804L4.33472 23.5509L3.33879 23.4608L2.34286 23.3707L2.32209 23.6002L3.31802 23.6903Z" fill="white"/>
</svg>
