<svg width="66" height="38" viewBox="0 0 66 38" fill="none" xmlns="http://www.w3.org/2000/svg">
<path d="M64.2498 0.0032709C64.8003 -0.0410524 65.2825 0.369288 65.3268 0.919791C65.3711 1.47029 64.9608 1.9525 64.4103 1.99682L64.33 1.00005L64.2498 0.0032709ZM64.2303 1.00807L64.1182 0.0143734L64.1341 0.0125805L64.1501 0.0112967L64.2303 1.00807ZM63.8137 1.05507L63.2591 0.222948L63.4608 0.0885437L63.7016 0.0613775L63.8137 1.05507ZM63.3413 1.36989L63.8959 2.20202L63.527 2.44788L63.0971 2.33961L63.3413 1.36989ZM62.7957 1.23247L62.8547 0.234209L62.9486 0.239762L63.0399 0.262749L62.7957 1.23247ZM62.2731 1.20158L61.8815 0.281427L62.0976 0.189459L62.3321 0.203318L62.2731 1.20158ZM61.7732 1.4143L62.1648 2.33445L62.02 2.39604L61.8634 2.41022L61.7732 1.4143ZM61.255 1.46123L61.3452 2.45715L61.1882 2.47137L61.0344 2.43659L61.255 1.46123ZM60.7246 1.34125L60.5525 0.356171L60.7498 0.321696L60.9452 0.365889L60.7246 1.34125ZM60.2083 1.43144L59.7245 0.55624L59.8712 0.475194L60.0362 0.446361L60.2083 1.43144ZM59.7015 1.71159L60.1852 2.58679L59.6728 2.87004L59.175 2.56177L59.7015 1.71159ZM59.168 1.3812L58.9154 0.413635L59.3301 0.305368L59.6944 0.531021L59.168 1.3812ZM58.6555 1.51501L58.9081 2.48258L58.6679 2.54527L58.4263 2.4884L58.6555 1.51501ZM58.1331 1.39204L57.6559 0.513208L57.991 0.331282L58.3622 0.418647L58.1331 1.39204ZM57.621 1.67003L58.0981 2.54887L57.8239 2.69775L57.5137 2.66425L57.621 1.67003ZM57.0954 1.61328L56.988 2.6075L56.9853 2.6072L57.0954 1.61328ZM56.5773 1.55588L56.4672 2.54979L56.4064 2.54306L56.347 2.52899L56.5773 1.55588ZM56.0568 1.43266L55.456 0.633244L55.8308 0.351547L56.2871 0.459551L56.0568 1.43266ZM55.5386 1.82208L56.1394 2.6215L55.5552 3.06051L54.9595 2.63732L55.5386 1.82208ZM55.0177 1.45209L54.6432 0.524864L55.1507 0.319899L55.5969 0.636845L55.0177 1.45209ZM54.4997 1.66131L54.8743 2.58853L54.5909 2.70296L54.292 2.6395L54.4997 1.66131ZM53.9776 1.55043L53.4591 0.6953L53.7978 0.489969L54.1853 0.572234L53.9776 1.55043ZM53.4626 1.86259L53.9811 2.71772L53.4025 3.06846L52.8617 2.66192L53.4626 1.86259ZM52.9359 1.46664L52.7184 0.490593L53.1684 0.390301L53.5368 0.667317L52.9359 1.46664ZM52.4215 1.58131L52.639 2.55736L52.5761 2.57137L52.512 2.57721L52.4215 1.58131ZM51.8966 1.62902L51.9871 2.62491L51.9079 2.63212L51.8285 2.6267L51.8966 1.62902ZM51.382 1.59387L50.9279 0.70287L51.1743 0.577351L51.4501 0.596191L51.382 1.59387ZM50.8576 1.86106L51.3116 2.75205L50.9154 2.95395L50.5001 2.79496L50.8576 1.86106ZM50.3418 1.66358L50.3763 0.664177L50.5433 0.669942L50.6993 0.729679L50.3418 1.66358ZM49.8199 1.64556L49.3992 0.738362L49.6158 0.637916L49.8544 0.646155L49.8199 1.64556ZM49.2995 1.88691L49.7202 2.79411L49.2262 3.02317L48.7658 2.73258L49.2995 1.88691ZM48.7826 1.56071L48.5926 0.578919L48.9814 0.503685L49.3163 0.715036L48.7826 1.56071ZM48.2548 1.66283L48.0201 0.690776L48.0424 0.685395L48.0649 0.681041L48.2548 1.66283ZM47.7362 1.78808L47.971 2.76013L47.7024 2.825L47.4386 2.74276L47.7362 1.78808ZM47.2131 1.62498L47.2052 0.625012L47.3615 0.623776L47.5107 0.670301L47.2131 1.62498ZM46.6917 1.6291L46.1585 0.783142L46.3993 0.631381L46.6838 0.629131L46.6917 1.6291ZM46.1881 1.94658L46.7213 2.79254L46.1786 3.13467L45.6414 2.78388L46.1881 1.94658ZM45.6445 1.5916L45.0191 0.811266L45.5845 0.358148L46.1912 0.754299L45.6445 1.5916ZM45.1535 1.98508L45.7788 2.76542L45.4978 2.99067L45.1376 2.98496L45.1535 1.98508ZM44.6324 1.97682L44.6166 2.97669L44.3908 2.97311L44.1885 2.8729L44.6324 1.97682ZM44.0811 1.7037L43.9525 0.711998L44.2532 0.673007L44.525 0.807615L44.0811 1.7037ZM43.5631 1.77086L42.9431 0.98627L43.1601 0.814733L43.4345 0.779159L43.5631 1.77086ZM43.086 2.14783L43.7061 2.93242L43.3919 3.18068L42.9932 3.14351L43.086 2.14783ZM42.555 2.09832L42.4309 1.10604L42.5392 1.09251L42.6478 1.10264L42.555 2.09832ZM42.0387 2.16284L41.7735 1.19866L41.8431 1.17951L41.9147 1.17056L42.0387 2.16284ZM41.5343 2.3016L41.7995 3.26579L41.7916 3.26796L41.7837 3.27L41.5343 2.3016ZM41.0294 2.43164L40.721 1.48039L40.7502 1.47091L40.78 1.46324L41.0294 2.43164ZM40.5309 2.59326L40.8394 3.5445L40.5268 3.64584L40.2151 3.54207L40.5309 2.59326ZM39.9676 2.40574L39.5867 1.48115L39.9306 1.33946L40.2835 1.45693L39.9676 2.40574ZM39.4765 2.6081L39.8575 3.53269L39.6141 3.63298L39.3528 3.60042L39.4765 2.6081ZM38.9315 2.54018L38.3273 1.74339L38.6515 1.49754L39.0552 1.54786L38.9315 2.54018ZM38.4725 2.88832L39.0767 3.68511L38.8505 3.85665L38.5679 3.88375L38.4725 2.88832ZM37.9514 2.93828L37.7414 1.96058L37.7982 1.94838L37.856 1.94284L37.9514 2.93828ZM37.443 3.04749L37.653 4.02519L37.5615 4.04483L37.468 4.04718L37.443 3.04749ZM36.912 3.06078L36.6054 2.10897L36.7427 2.06471L36.887 2.0611L36.912 3.06078ZM36.4149 3.22096L36.0988 2.27219L36.1082 2.26915L36.4149 3.22096ZM35.9196 3.386L36.2357 4.33473L36.221 4.33962L36.2061 4.34406L35.9196 3.386ZM35.4208 3.5352L35.7073 4.49326L35.6177 4.52005L35.5248 4.52977L35.4208 3.5352ZM34.8966 3.59001L34.7793 2.59682L34.7926 2.59543L34.8966 3.59001ZM34.3749 3.65159L34.0931 2.69213L34.174 2.66837L34.2577 2.65849L34.3749 3.65159ZM33.8738 3.79882L33.5395 2.85635L33.5655 2.84713L33.5919 2.83935L33.8738 3.79882ZM33.3822 3.97317L32.7249 3.21957L32.8684 3.09437L33.0479 3.0307L33.3822 3.97317ZM32.9492 4.35087L33.6065 5.10448L33.3983 5.28604L33.1265 5.33502L32.9492 4.35087ZM32.434 4.4437L32.6113 5.42785L32.4643 5.45434L32.316 5.43672L32.434 4.4437ZM31.8722 4.37695L31.5906 3.4174L31.787 3.3598L31.9901 3.38394L31.8722 4.37695ZM31.3731 4.52337L30.8203 3.69007L30.9464 3.60642L31.0916 3.56382L31.3731 4.52337ZM30.9224 4.82241L31.4752 5.65572L31.4111 5.69824L31.3412 5.73046L30.9224 4.82241ZM30.4456 5.04233L30.8645 5.95037L30.8441 5.95978L30.8233 5.96826L30.4456 5.04233ZM29.9632 5.23913L29.5717 4.31894L29.5786 4.31602L29.5855 4.31321L29.9632 5.23913ZM29.4844 5.4428L29.8759 6.36299L29.7781 6.40462L29.6736 6.42474L29.4844 5.4428ZM28.9701 5.54191L28.5823 4.62014L28.6785 4.5797L28.7809 4.55997L28.9701 5.54191ZM28.4915 5.74322L27.985 4.88095L28.0424 4.84726L28.1037 4.82146L28.4915 5.74322ZM28.0379 6.00963L28.5444 6.8719L28.2675 7.03452L27.9477 7.00556L28.0379 6.00963ZM27.4633 5.9576L27.3298 4.96655L27.4414 4.95152L27.5535 4.96167L27.4633 5.9576ZM26.9317 6.02924L26.3911 5.18793L26.578 5.06786L26.7981 5.0382L26.9317 6.02924ZM26.4853 6.31604L27.0259 7.15735L26.9724 7.19172L26.9149 7.21904L26.4853 6.31604ZM26.0148 6.53992L26.4444 7.44292L26.4004 7.46388L26.3545 7.48045L26.0148 6.53992ZM25.5237 6.71729L25.13 5.79805L25.1567 5.78663L25.184 5.77677L25.5237 6.71729ZM25.0441 6.92268L24.2995 6.25522L24.4471 6.09051L24.6505 6.00344L25.0441 6.92268ZM24.6665 7.34399L25.4111 8.01145L25.1522 8.30036L24.7661 8.33901L24.6665 7.34399ZM24.116 7.39911L23.5957 6.54511L23.79 6.42675L24.0163 6.40408L24.116 7.39911ZM23.6702 7.67071L24.1904 8.5247L24.1496 8.54961L24.1065 8.57051L23.6702 7.67071ZM23.2028 7.89732L22.6767 7.0469L22.7203 7.0199L22.7665 6.99751L23.2028 7.89732ZM22.759 8.17186L22.046 7.47068L22.1305 7.38481L22.2329 7.32145L22.759 8.17186ZM22.3806 8.55662L23.0936 9.2578L22.7645 9.59247L22.2968 9.5531L22.3806 8.55662ZM21.7457 8.50318L20.8102 8.15009L21.0769 7.44335L21.8296 7.50671L21.7457 8.50318ZM21.5132 9.11933L22.4488 9.47243L22.325 9.80048L22.0234 9.97938L21.5132 9.11933ZM21.069 9.38282L21.5793 10.2429L21.4595 10.3139L21.3248 10.3496L21.069 9.38282ZM20.5395 9.52292L20.2066 8.57994L20.2447 8.5665L20.2837 8.55617L20.5395 9.52292ZM20.0295 9.70294L19.44 8.89519L19.5584 8.80877L19.6966 8.75997L20.0295 9.70294ZM19.6075 10.0109L20.197 10.8187L20.1818 10.8298L20.1662 10.8403L19.6075 10.0109ZM19.1746 10.3025L18.2307 9.97233L18.3404 9.65872L18.616 9.4731L19.1746 10.3025ZM18.9686 10.8915L19.9125 11.2216L19.7679 11.6351L19.3659 11.8091L18.9686 10.8915ZM18.4773 11.1042L17.7474 10.4206L17.8894 10.269L18.08 10.1865L18.4773 11.1042ZM18.1175 11.4884L18.8474 12.1719L18.7192 12.3088L18.5502 12.3899L18.1175 11.4884ZM17.6374 11.7188L16.94 11.0021L17.0573 10.888L17.2047 10.8172L17.6374 11.7188ZM17.2631 12.083L17.9604 12.7997L17.7694 12.9856L17.5112 13.0517L17.2631 12.083ZM16.7092 12.2249L15.7441 11.9628L15.8968 11.4008L16.461 11.2562L16.7092 12.2249ZM16.5412 12.8433L17.5063 13.1054L17.3437 13.7038L16.7354 13.8242L16.5412 12.8433ZM15.9631 12.9577L15.1944 12.3181L15.4212 12.0455L15.769 11.9767L15.9631 12.9577ZM15.6246 13.3645L16.3932 14.0041L16.3552 14.0499L16.3119 14.0908L15.6246 13.3645ZM15.246 13.7228L15.9334 14.4491L15.7565 14.6165L15.5224 14.6838L15.246 13.7228ZM14.6994 13.88L13.8339 13.3791L14.0357 13.0303L14.423 12.919L14.6994 13.88ZM14.4223 14.3588L15.2878 14.8597L15.2157 14.9842L15.1115 15.0833L14.4223 14.3588ZM14.0449 14.7178L13.1848 14.2075L13.2554 14.0886L13.3556 13.9932L14.0449 14.7178ZM13.7649 15.1897L14.6249 15.6999L14.3969 16.0843L13.9584 16.1708L13.7649 15.1897ZM13.1782 15.3054L12.4859 14.5838L12.6973 14.3809L12.9847 14.3243L13.1782 15.3054ZM12.8024 15.6659L11.9715 15.1095L12.0318 15.0194L12.1101 14.9443L12.8024 15.6659ZM12.5027 16.1133L13.3336 16.6698L13.3023 16.7165L13.266 16.7594L12.5027 16.1133ZM12.163 16.5145L12.9263 17.1607L12.8506 17.2501L12.7563 17.3196L12.163 16.5145ZM11.7433 16.8239L12.3365 17.6289L12.2658 17.681L12.1872 17.7199L11.7433 16.8239ZM11.2586 17.064L10.6686 16.2566L10.7378 16.206L10.8146 16.168L11.2586 17.064ZM10.8354 17.3733L10.2357 16.573L10.2454 16.5659L10.8354 17.3733ZM10.4157 17.6878L9.44127 17.4631L9.52344 17.1068L9.81599 16.8876L10.4157 17.6878ZM10.2762 18.2926L11.2506 18.5174L11.1048 19.1494L10.4683 19.274L10.2762 18.2926ZM9.66527 18.4122L8.84582 17.8391L9.07712 17.5084L9.47317 17.4308L9.66527 18.4122ZM9.36184 18.8461L10.1813 19.4192L10.1266 19.4973L10.0582 19.5638L9.36184 18.8461ZM8.98788 19.2089L8.13597 18.6852L8.2016 18.5784L8.29153 18.4912L8.98788 19.2089ZM8.70889 19.6627L9.5608 20.1864L9.46048 20.3496L9.30696 20.4641L8.70889 19.6627ZM8.28575 19.9785L7.38566 19.5428L7.49203 19.323L7.68768 19.177L8.28575 19.9785ZM8.04921 20.4671L8.9493 20.9028L8.83763 21.1335L8.62876 21.2821L8.04921 20.4671ZM7.61629 20.775L6.66535 20.4656L6.76755 20.1515L7.03673 19.9601L7.61629 20.775ZM7.44091 21.3141L8.39184 21.6235L8.22297 22.1425L7.69505 22.2812L7.44091 21.3141ZM6.83075 21.4744L5.83459 21.3869L5.89618 20.686L6.5766 20.5072L6.83075 21.4744ZM6.77528 22.1056L7.77144 22.1931L7.7408 22.5418L7.49944 22.7952L6.77528 22.1056ZM6.41683 22.482L7.141 23.1716L6.94936 23.3728L6.68138 23.4463L6.41683 22.482ZM5.79637 22.6522L4.93852 22.1383L5.14478 21.794L5.53183 21.6878L5.79637 22.6522ZM5.52564 23.1041L4.58981 22.7516L4.62154 22.6674L4.66779 22.5902L5.52564 23.1041ZM5.3348 23.6108L4.37261 23.3384L4.38411 23.2978L4.39897 23.2583L5.3348 23.6108ZM5.18422 24.1427L6.1464 24.4151L6.05336 24.7437L5.77875 24.9468L5.18422 24.1427ZM4.74451 24.4678L3.87525 23.9735L3.97984 23.7895L4.14997 23.6637L4.74451 24.4678ZM4.48726 24.9201L5.35652 25.4145L5.32744 25.4656L5.29257 25.513L4.48726 24.9201ZM4.17924 25.3386L3.32921 24.8118L3.35024 24.7779L3.37393 24.7457L4.17924 25.3386ZM3.90519 25.7808L2.91618 25.633L2.94663 25.4292L3.05517 25.2541L3.90519 25.7808ZM3.82648 26.3076L4.81551 26.4553L4.80195 26.546L4.77213 26.6328L3.82648 26.3076ZM3.65755 26.7988L2.66777 26.6562L2.68122 26.5628L2.71191 26.4736L3.65755 26.7988ZM3.58196 27.3235L4.57174 27.4661L4.5259 27.7843L4.30321 28.0162L3.58196 27.3235ZM3.18757 27.7342L2.18887 27.785L2.1669 27.3533L2.46632 27.0415L3.18757 27.7342ZM3.21607 28.2943L4.21479 28.2435L4.22704 28.4844L4.12814 28.7044L3.21607 28.2943ZM3.00242 28.7695L2.03403 28.5201L2.05534 28.4374L2.09037 28.3595L3.00242 28.7695ZM2.87258 29.2737L3.84097 29.5231L3.79762 29.6914L3.70004 29.8352L2.87258 29.2737ZM2.56887 29.7212L3.39633 30.2827L3.38075 30.3057L3.36391 30.3278L2.56887 29.7212ZM2.23375 30.1605L1.28006 29.8597L1.33265 29.693L1.43871 29.5539L2.23375 30.1605ZM2.07685 30.658L1.07899 30.7235L1.0667 30.5363L1.12315 30.3573L2.07685 30.658ZM2.1133 31.2134L3.11115 31.1479L3.13223 31.4691L2.96203 31.7422L2.1133 31.2134ZM1.8279 31.6714L0.82847 31.7052L0.818202 31.4009L0.979173 31.1426L1.8279 31.6714ZM1.84637 32.2187L2.8458 32.185L2.85388 32.4245L2.75247 32.6417L1.84637 32.2187ZM1.62408 32.6948L0.659433 32.4312L0.681908 32.349L0.717976 32.2718L1.62408 32.6948ZM1.48677 33.1974L2.45142 33.4609L2.44071 33.5001L2.42686 33.5383L1.48677 33.1974ZM1.30792 33.6905L2.248 34.0315L2.22959 34.0822L2.20584 34.1307L1.30792 33.6905ZM1.06886 34.1782L0.0688742 34.172L0.0702921 33.9433L0.170939 33.738L1.06886 34.1782ZM1.06556 34.7086L0.0845329 34.9024L0.0649515 34.8033L0.0655817 34.7023L1.06556 34.7086ZM1.17298 35.2521L2.15401 35.0582L2.19124 35.2467L2.15602 35.4355L1.17298 35.2521ZM1.07755 35.7637L2.06059 35.9471L2.04956 36.0062L2.03151 36.0636L1.07755 35.7637ZM1.95394 36.3104C1.7883 36.8373 1.22692 37.1301 0.700057 36.9644C0.173194 36.7988 -0.119638 36.2374 0.046001 35.7106L0.999969 36.0105L1.95394 36.3104ZM64.33 1.00005L64.4103 1.99682L64.3106 2.00484L64.2303 1.00807L64.1501 0.0112967L64.2498 0.0032709L64.33 1.00005ZM64.2303 1.00807L64.3424 2.00177L63.9258 2.04877L63.8137 1.05507L63.7016 0.0613775L64.1182 0.0143734L64.2303 1.00807ZM63.8137 1.05507L64.3683 1.8872L63.8959 2.20202L63.3413 1.36989L62.7867 0.537766L63.2591 0.222948L63.8137 1.05507ZM63.3413 1.36989L63.0971 2.33961L62.5514 2.20218L62.7957 1.23247L63.0399 0.262749L63.5855 0.400175L63.3413 1.36989ZM62.7957 1.23247L62.7367 2.23072L62.2141 2.19983L62.2731 1.20158L62.3321 0.203318L62.8547 0.234209L62.7957 1.23247ZM62.2731 1.20158L62.6646 2.12172L62.1648 2.33445L61.7732 1.4143L61.3816 0.494151L61.8815 0.281427L62.2731 1.20158ZM61.7732 1.4143L61.8634 2.41022L61.3452 2.45715L61.255 1.46123L61.1648 0.465305L61.683 0.418375L61.7732 1.4143ZM61.255 1.46123L61.0344 2.43659L60.5039 2.31661L60.7246 1.34125L60.9452 0.365889L61.4756 0.485868L61.255 1.46123ZM60.7246 1.34125L60.8967 2.32633L60.3804 2.41652L60.2083 1.43144L60.0362 0.446361L60.5525 0.356171L60.7246 1.34125ZM60.2083 1.43144L60.6921 2.30664L60.1852 2.58679L59.7015 1.71159L59.2177 0.836386L59.7245 0.55624L60.2083 1.43144ZM59.7015 1.71159L59.175 2.56177L58.6415 2.23139L59.168 1.3812L59.6944 0.531021L60.228 0.861404L59.7015 1.71159ZM59.168 1.3812L59.4206 2.34877L58.9081 2.48258L58.6555 1.51501L58.4028 0.547438L58.9154 0.413635L59.168 1.3812ZM58.6555 1.51501L58.4263 2.4884L57.9039 2.36544L58.1331 1.39204L58.3622 0.418647L58.8846 0.54161L58.6555 1.51501ZM58.1331 1.39204L58.6102 2.27088L58.0981 2.54887L57.621 1.67003L57.1439 0.791199L57.6559 0.513208L58.1331 1.39204ZM57.621 1.67003L57.5137 2.66425L56.988 2.6075L57.0954 1.61328L57.2027 0.619057L57.7284 0.675813L57.621 1.67003ZM57.0954 1.61328L56.9853 2.6072L56.4672 2.54979L56.5773 1.55588L56.6874 0.561957L57.2055 0.61936L57.0954 1.61328ZM56.5773 1.55588L56.347 2.52899L55.8264 2.40577L56.0568 1.43266L56.2871 0.459551L56.8076 0.582765L56.5773 1.55588ZM56.0568 1.43266L56.6575 2.23208L56.1394 2.6215L55.5386 1.82208L54.9378 1.02266L55.456 0.633244L56.0568 1.43266ZM55.5386 1.82208L54.9595 2.63732L54.4386 2.26733L55.0177 1.45209L55.5969 0.636845L56.1177 1.00684L55.5386 1.82208ZM55.0177 1.45209L55.3922 2.37931L54.8743 2.58853L54.4997 1.66131L54.1252 0.734083L54.6432 0.524864L55.0177 1.45209ZM54.4997 1.66131L54.292 2.6395L53.7699 2.52862L53.9776 1.55043L54.1853 0.572234L54.7075 0.683113L54.4997 1.66131ZM53.9776 1.55043L54.496 2.40555L53.9811 2.71772L53.4626 1.86259L52.9442 1.00747L53.4591 0.6953L53.9776 1.55043ZM53.4626 1.86259L52.8617 2.66192L52.335 2.26596L52.9359 1.46664L53.5368 0.667317L54.0635 1.06327L53.4626 1.86259ZM52.9359 1.46664L53.1535 2.44269L52.639 2.55736L52.4215 1.58131L52.2039 0.605263L52.7184 0.490593L52.9359 1.46664ZM52.4215 1.58131L52.512 2.57721L51.9871 2.62491L51.8966 1.62902L51.8061 0.633126L52.3309 0.585418L52.4215 1.58131ZM51.8966 1.62902L51.8285 2.6267L51.3138 2.59154L51.382 1.59387L51.4501 0.596191L51.9648 0.631344L51.8966 1.62902ZM51.382 1.59387L51.836 2.48486L51.3116 2.75205L50.8576 1.86106L50.4036 0.970059L50.9279 0.70287L51.382 1.59387ZM50.8576 1.86106L50.5001 2.79496L49.9842 2.59748L50.3418 1.66358L50.6993 0.729679L51.2151 0.927155L50.8576 1.86106ZM50.3418 1.66358L50.3073 2.66298L49.7854 2.64496L49.8199 1.64556L49.8544 0.646155L50.3763 0.664177L50.3418 1.66358ZM49.8199 1.64556L50.2406 2.55276L49.7202 2.79411L49.2995 1.88691L48.8788 0.979711L49.3992 0.738362L49.8199 1.64556ZM49.2995 1.88691L48.7658 2.73258L48.2489 2.40638L48.7826 1.56071L49.3163 0.715036L49.8332 1.04124L49.2995 1.88691ZM48.7826 1.56071L48.9726 2.54249L48.4448 2.64462L48.2548 1.66283L48.0649 0.681041L48.5926 0.578919L48.7826 1.56071ZM48.2548 1.66283L48.4896 2.63488L47.971 2.76013L47.7362 1.78808L47.5015 0.816027L48.0201 0.690776L48.2548 1.66283ZM47.7362 1.78808L47.4386 2.74276L46.9154 2.57966L47.2131 1.62498L47.5107 0.670301L48.0339 0.8334L47.7362 1.78808ZM47.2131 1.62498L47.221 2.62495L46.6997 2.62907L46.6917 1.6291L46.6838 0.629131L47.2052 0.625012L47.2131 1.62498ZM46.6917 1.6291L47.225 2.47506L46.7213 2.79254L46.1881 1.94658L45.6548 1.10062L46.1585 0.783142L46.6917 1.6291ZM46.1881 1.94658L45.6414 2.78388L45.0977 2.42891L45.6445 1.5916L46.1912 0.754299L46.7348 1.10928L46.1881 1.94658ZM45.6445 1.5916L46.2698 2.37194L45.7788 2.76542L45.1535 1.98508L44.5281 1.20475L45.0191 0.811266L45.6445 1.5916ZM45.1535 1.98508L45.1376 2.98496L44.6166 2.97669L44.6324 1.97682L44.6483 0.976944L45.1693 0.985209L45.1535 1.98508ZM44.6324 1.97682L44.1885 2.8729L43.6372 2.59978L44.0811 1.7037L44.525 0.807615L45.0763 1.08074L44.6324 1.97682ZM44.0811 1.7037L44.2097 2.6954L43.6916 2.76256L43.5631 1.77086L43.4345 0.779159L43.9525 0.711998L44.0811 1.7037ZM43.5631 1.77086L44.1831 2.55545L43.7061 2.93242L43.086 2.14783L42.466 1.36324L42.9431 0.98627L43.5631 1.77086ZM43.086 2.14783L42.9932 3.14351L42.4621 3.094L42.555 2.09832L42.6478 1.10264L43.1789 1.15215L43.086 2.14783ZM42.555 2.09832L42.679 3.0906L42.1628 3.15512L42.0387 2.16284L41.9147 1.17056L42.4309 1.10604L42.555 2.09832ZM42.0387 2.16284L42.304 3.12702L41.7995 3.26579L41.5343 2.3016L41.2691 1.33742L41.7735 1.19866L42.0387 2.16284ZM41.5343 2.3016L41.7837 3.27L41.2788 3.40004L41.0294 2.43164L40.78 1.46324L41.2849 1.3332L41.5343 2.3016ZM41.0294 2.43164L41.3378 3.38288L40.8394 3.5445L40.5309 2.59326L40.2225 1.64201L40.721 1.48039L41.0294 2.43164ZM40.5309 2.59326L40.2151 3.54207L39.6518 3.35455L39.9676 2.40574L40.2835 1.45693L40.8468 1.64444L40.5309 2.59326ZM39.9676 2.40574L40.3486 3.33034L39.8575 3.53269L39.4765 2.6081L39.0955 1.6835L39.5867 1.48115L39.9676 2.40574ZM39.4765 2.6081L39.3528 3.60042L38.8079 3.5325L38.9315 2.54018L39.0552 1.54786L39.6002 1.61577L39.4765 2.6081ZM38.9315 2.54018L39.5358 3.33697L39.0767 3.68511L38.4725 2.88832L37.8682 2.09153L38.3273 1.74339L38.9315 2.54018ZM38.4725 2.88832L38.5679 3.88375L38.0469 3.93371L37.9514 2.93828L37.856 1.94284L38.377 1.89288L38.4725 2.88832ZM37.9514 2.93828L38.1615 3.91598L37.653 4.02519L37.443 3.04749L37.233 2.06979L37.7414 1.96058L37.9514 2.93828ZM37.443 3.04749L37.468 4.04718L36.9371 4.06047L36.912 3.06078L36.887 2.0611L37.418 2.0478L37.443 3.04749ZM36.912 3.06078L37.2187 4.0126L36.7216 4.17277L36.4149 3.22096L36.1082 2.26915L36.6054 2.10897L36.912 3.06078ZM36.4149 3.22096L36.731 4.16968L36.2357 4.33473L35.9196 3.386L35.6035 2.43728L36.0988 2.27223L36.4149 3.22096ZM35.9196 3.386L36.2061 4.34406L35.7073 4.49326L35.4208 3.5352L35.1342 2.57713L35.633 2.42794L35.9196 3.386ZM35.4208 3.5352L35.5248 4.52977L35.0006 4.58459L34.8966 3.59001L34.7926 2.59543L35.3168 2.54062L35.4208 3.5352ZM34.8966 3.59001L35.0138 4.58311L34.4922 4.64469L34.3749 3.65159L34.2577 2.65849L34.7793 2.59691L34.8966 3.59001ZM34.3749 3.65159L34.6568 4.61105L34.1556 4.75828L33.8738 3.79882L33.5919 2.83935L34.0931 2.69213L34.3749 3.65159ZM33.8738 3.79882L34.208 4.74128L33.7165 4.91564L33.3822 3.97317L33.0479 3.0307L33.5395 2.85635L33.8738 3.79882ZM33.3822 3.97317L34.0395 4.72678L33.6065 5.10448L32.9492 4.35087L32.2918 3.59726L32.7249 3.21957L33.3822 3.97317ZM32.9492 4.35087L33.1265 5.33502L32.6113 5.42785L32.434 4.4437L32.2567 3.45955L32.7718 3.36672L32.9492 4.35087ZM32.434 4.4437L32.316 5.43672L31.7542 5.36997L31.8722 4.37695L31.9901 3.38394L32.552 3.45069L32.434 4.4437ZM31.8722 4.37695L32.1537 5.33651L31.6546 5.48293L31.3731 4.52337L31.0916 3.56382L31.5906 3.4174L31.8722 4.37695ZM31.3731 4.52337L31.9259 5.35668L31.4752 5.65572L30.9224 4.82241L30.3695 3.98911L30.8203 3.69007L31.3731 4.52337ZM30.9224 4.82241L31.3412 5.73046L30.8645 5.95037L30.4456 5.04233L30.0267 4.13429L30.5035 3.91437L30.9224 4.82241ZM30.4456 5.04233L30.8233 5.96826L30.3409 6.16505L29.9632 5.23913L29.5855 4.31321L30.0679 4.11641L30.4456 5.04233ZM29.9632 5.23913L30.3547 6.15932L29.8759 6.36299L29.4844 5.4428L29.093 4.52261L29.5717 4.31894L29.9632 5.23913ZM29.4844 5.4428L29.6736 6.42474L29.1593 6.52385L28.9701 5.54191L28.7809 4.55997L29.2952 4.46086L29.4844 5.4428ZM28.9701 5.54191L29.3578 6.46367L28.8792 6.66499L28.4915 5.74322L28.1037 4.82146L28.5823 4.62014L28.9701 5.54191ZM28.4915 5.74322L28.9979 6.6055L28.5444 6.8719L28.0379 6.00963L27.5315 5.14736L27.985 4.88095L28.4915 5.74322ZM28.0379 6.00963L27.9477 7.00556L27.3731 6.95352L27.4633 5.9576L27.5535 4.96167L28.1281 5.01371L28.0379 6.00963ZM27.4633 5.9576L27.5969 6.94864L27.0652 7.02028L26.9317 6.02924L26.7981 5.0382L27.3298 4.96655L27.4633 5.9576ZM26.9317 6.02924L27.4722 6.87054L27.0259 7.15735L26.4853 6.31604L25.9447 5.47474L26.3911 5.18793L26.9317 6.02924ZM26.4853 6.31604L26.9149 7.21904L26.4444 7.44292L26.0148 6.53992L25.5851 5.63692L26.0557 5.41304L26.4853 6.31604ZM26.0148 6.53992L26.3545 7.48045L25.8634 7.65782L25.5237 6.71729L25.184 5.77677L25.675 5.5994L26.0148 6.53992ZM25.5237 6.71729L25.9174 7.63654L25.4378 7.84193L25.0441 6.92268L24.6505 6.00344L25.13 5.79805L25.5237 6.71729ZM25.0441 6.92268L25.7888 7.59014L25.4111 8.01145L24.6665 7.34399L23.9219 6.67653L24.2995 6.25522L25.0441 6.92268ZM24.6665 7.34399L24.7661 8.33901L24.2156 8.39413L24.116 7.39911L24.0163 6.40408L24.5669 6.34896L24.6665 7.34399ZM24.116 7.39911L24.6363 8.25311L24.1904 8.5247L23.6702 7.67071L23.1499 6.81671L23.5957 6.54511L24.116 7.39911ZM23.6702 7.67071L24.1065 8.57051L23.6391 8.79712L23.2028 7.89732L22.7665 6.99751L23.2339 6.7709L23.6702 7.67071ZM23.2028 7.89732L23.7289 8.74773L23.2851 9.02228L22.759 8.17186L22.2329 7.32145L22.6767 7.0469L23.2028 7.89732ZM22.759 8.17186L23.472 8.87305L23.0936 9.2578L22.3806 8.55662L21.6677 7.85544L22.046 7.47068L22.759 8.17186ZM22.3806 8.55662L22.2968 9.5531L21.6619 9.49966L21.7457 8.50318L21.8296 7.50671L22.4645 7.56014L22.3806 8.55662ZM21.7457 8.50318L22.6813 8.85628L22.4488 9.47243L21.5132 9.11933L20.5776 8.76623L20.8102 8.15009L21.7457 8.50318ZM21.5132 9.11933L22.0234 9.97938L21.5793 10.2429L21.069 9.38282L20.5588 8.52276L21.003 8.25927L21.5132 9.11933ZM21.069 9.38282L21.3248 10.3496L20.7952 10.4897L20.5395 9.52292L20.2837 8.55617L20.8133 8.41607L21.069 9.38282ZM20.5395 9.52292L20.8723 10.4659L20.3624 10.6459L20.0295 9.70294L19.6966 8.75997L20.2066 8.57994L20.5395 9.52292ZM20.0295 9.70294L20.619 10.5107L20.197 10.8187L19.6075 10.0109L19.018 9.20316L19.44 8.89519L20.0295 9.70294ZM19.6075 10.0109L20.1662 10.8403L19.7333 11.1319L19.1746 10.3025L18.616 9.4731L19.0489 9.18151L19.6075 10.0109ZM19.1746 10.3025L20.1185 10.6327L19.9125 11.2216L18.9686 10.8915L18.0247 10.5613L18.2307 9.97233L19.1746 10.3025ZM18.9686 10.8915L19.3659 11.8091L18.8746 12.0218L18.4773 11.1042L18.08 10.1865L18.5713 9.97377L18.9686 10.8915ZM18.4773 11.1042L19.2072 11.7877L18.8474 12.1719L18.1175 11.4884L17.3876 10.8048L17.7474 10.4206L18.4773 11.1042ZM18.1175 11.4884L18.5502 12.3899L18.0701 12.6203L17.6374 11.7188L17.2047 10.8172L17.6848 10.5868L18.1175 11.4884ZM17.6374 11.7188L18.3348 12.4355L17.9604 12.7997L17.2631 12.083L16.5657 11.3663L16.94 11.0021L17.6374 11.7188ZM17.2631 12.083L17.5112 13.0517L16.9573 13.1936L16.7092 12.2249L16.461 11.2562L17.0149 11.1143L17.2631 12.083ZM16.7092 12.2249L17.6742 12.487L17.5063 13.1054L16.5412 12.8433L15.5762 12.5811L15.7441 11.9628L16.7092 12.2249ZM16.5412 12.8433L16.7354 13.8242L16.1572 13.9386L15.9631 12.9577L15.769 11.9767L16.3471 11.8623L16.5412 12.8433ZM15.9631 12.9577L16.7318 13.5973L16.3932 14.0041L15.6246 13.3645L14.8559 12.7249L15.1944 12.3181L15.9631 12.9577ZM15.6246 13.3645L16.3119 14.0908L15.9334 14.4491L15.246 13.7228L14.5586 12.9965L14.9372 12.6382L15.6246 13.3645ZM15.246 13.7228L15.5224 14.6838L14.9758 14.841L14.6994 13.88L14.423 12.919L14.9696 12.7617L15.246 13.7228ZM14.6994 13.88L15.5649 14.3809L15.2878 14.8597L14.4223 14.3588L13.5568 13.8578L13.8339 13.3791L14.6994 13.88ZM14.4223 14.3588L15.1115 15.0833L14.7341 15.4423L14.0449 14.7178L13.3556 13.9932L13.7331 13.6342L14.4223 14.3588ZM14.0449 14.7178L14.9049 15.228L14.6249 15.6999L13.7649 15.1897L12.9049 14.6794L13.1848 14.2075L14.0449 14.7178ZM13.7649 15.1897L13.9584 16.1708L13.3716 16.2865L13.1782 15.3054L12.9847 14.3243L13.5714 14.2086L13.7649 15.1897ZM13.1782 15.3054L13.8705 16.027L13.4946 16.3875L12.8024 15.6659L12.1101 14.9443L12.4859 14.5838L13.1782 15.3054ZM12.8024 15.6659L13.6332 16.2224L13.3336 16.6698L12.5027 16.1133L11.6718 15.5569L11.9715 15.1095L12.8024 15.6659ZM12.5027 16.1133L13.266 16.7594L12.9263 17.1607L12.163 16.5145L11.3998 15.8684L11.7395 15.4672L12.5027 16.1133ZM12.163 16.5145L12.7563 17.3196L12.3365 17.6289L11.7433 16.8239L11.15 16.0188L11.5698 15.7095L12.163 16.5145ZM11.7433 16.8239L12.1872 17.7199L11.7026 17.96L11.2586 17.064L10.8146 16.168L11.2993 15.9278L11.7433 16.8239ZM11.2586 17.064L11.8486 17.8714L11.4254 18.1807L10.8354 17.3733L10.2454 16.5659L10.6686 16.2566L11.2586 17.064ZM10.8354 17.3733L11.4351 18.1735L11.0154 18.4881L10.4157 17.6878L9.81599 16.8876L10.2357 16.5731L10.8354 17.3733ZM10.4157 17.6878L11.3901 17.9126L11.2506 18.5174L10.2762 18.2926L9.30177 18.0679L9.44127 17.4631L10.4157 17.6878ZM10.2762 18.2926L10.4683 19.274L9.85737 19.3936L9.66527 18.4122L9.47317 17.4308L10.0841 17.3113L10.2762 18.2926ZM9.66527 18.4122L10.4847 18.9854L10.1813 19.4192L9.36184 18.8461L8.54239 18.2729L8.84582 17.8391L9.66527 18.4122ZM9.36184 18.8461L10.0582 19.5638L9.68422 19.9266L8.98788 19.2089L8.29153 18.4912L8.6655 18.1283L9.36184 18.8461ZM8.98788 19.2089L9.83978 19.7326L9.5608 20.1864L8.70889 19.6627L7.85699 19.139L8.13597 18.6852L8.98788 19.2089ZM8.70889 19.6627L9.30696 20.4641L8.88382 20.7799L8.28575 19.9785L7.68768 19.177L8.11083 18.8613L8.70889 19.6627ZM8.28575 19.9785L9.18584 20.4142L8.9493 20.9028L8.04921 20.4671L7.14912 20.0314L7.38566 19.5428L8.28575 19.9785ZM8.04921 20.4671L8.62876 21.2821L8.19584 21.5899L7.61629 20.775L7.03673 19.9601L7.46965 19.6522L8.04921 20.4671ZM7.61629 20.775L8.56722 21.0844L8.39184 21.6235L7.44091 21.3141L6.48997 21.0047L6.66535 20.4656L7.61629 20.775ZM7.44091 21.3141L7.69505 22.2812L7.08489 22.4416L6.83075 21.4744L6.5766 20.5072L7.18676 20.3469L7.44091 21.3141ZM6.83075 21.4744L7.82691 21.562L7.77144 22.1931L6.77528 22.1056L5.77912 22.018L5.83459 21.3869L6.83075 21.4744ZM6.77528 22.1056L7.49944 22.7952L7.141 23.1716L6.41683 22.482L5.69267 21.7923L6.05112 21.4159L6.77528 22.1056ZM6.41683 22.482L6.68138 23.4463L6.06092 23.6165L5.79637 22.6522L5.53183 21.6878L6.15229 21.5176L6.41683 22.482ZM5.79637 22.6522L6.65422 23.1661L6.38349 23.618L5.52564 23.1041L4.66779 22.5902L4.93852 22.1383L5.79637 22.6522ZM5.52564 23.1041L6.46146 23.4566L6.27062 23.9633L5.3348 23.6108L4.39897 23.2583L4.58981 22.7516L5.52564 23.1041ZM5.3348 23.6108L6.29698 23.8832L6.1464 24.4151L5.18422 24.1427L4.22204 23.8703L4.37261 23.3384L5.3348 23.6108ZM5.18422 24.1427L5.77875 24.9468L5.33904 25.2719L4.74451 24.4678L4.14997 23.6637L4.58968 23.3386L5.18422 24.1427ZM4.74451 24.4678L5.61377 24.9622L5.35652 25.4145L4.48726 24.9201L3.618 24.4258L3.87525 23.9735L4.74451 24.4678ZM4.48726 24.9201L5.29257 25.513L4.98455 25.9314L4.17924 25.3386L3.37393 24.7457L3.68195 24.3273L4.48726 24.9201ZM4.17924 25.3386L5.02926 25.8653L4.75522 26.3075L3.90519 25.7808L3.05517 25.2541L3.32921 24.8118L4.17924 25.3386ZM3.90519 25.7808L4.89421 25.9286L4.81551 26.4553L3.82648 26.3076L2.83746 26.1598L2.91618 25.633L3.90519 25.7808ZM3.82648 26.3076L4.77213 26.6328L4.6032 27.124L3.65755 26.7988L2.71191 26.4736L2.88084 25.9824L3.82648 26.3076ZM3.65755 26.7988L4.64733 26.9414L4.57174 27.4661L3.58196 27.3235L2.59218 27.1809L2.66777 26.6562L3.65755 26.7988ZM3.58196 27.3235L4.30321 28.0162L3.90883 28.4268L3.18757 27.7342L2.46632 27.0415L2.86071 26.6308L3.58196 27.3235ZM3.18757 27.7342L4.18628 27.6834L4.21479 28.2435L3.21607 28.2943L2.21736 28.3451L2.18887 27.785L3.18757 27.7342ZM3.21607 28.2943L4.12814 28.7044L3.91449 29.1796L3.00242 28.7695L2.09037 28.3595L2.30401 27.8843L3.21607 28.2943ZM3.00242 28.7695L3.97082 29.0189L3.84097 29.5231L2.87258 29.2737L1.90418 29.0243L2.03403 28.5201L3.00242 28.7695ZM2.87258 29.2737L3.70004 29.8352L3.39633 30.2827L2.56887 29.7212L1.74141 29.1597L2.04511 28.7122L2.87258 29.2737ZM2.56887 29.7212L3.36391 30.3278L3.0288 30.767L2.23375 30.1605L1.43871 29.5539L1.77383 29.1147L2.56887 29.7212ZM2.23375 30.1605L3.18746 30.4612L3.03055 30.9588L2.07685 30.658L1.12315 30.3573L1.28006 29.8597L2.23375 30.1605ZM2.07685 30.658L3.0747 30.5925L3.11115 31.1479L2.1133 31.2134L1.11545 31.2789L1.07899 30.7235L2.07685 30.658ZM2.1133 31.2134L2.96203 31.7422L2.67662 32.2003L1.8279 31.6714L0.979173 31.1426L1.26458 30.6846L2.1133 31.2134ZM1.8279 31.6714L2.82733 31.6377L2.8458 32.185L1.84637 32.2187L0.84694 32.2524L0.82847 31.7052L1.8279 31.6714ZM1.84637 32.2187L2.75247 32.6417L2.53019 33.1178L1.62408 32.6948L0.717976 32.2718L0.940263 31.7956L1.84637 32.2187ZM1.62408 32.6948L2.58873 32.9584L2.45142 33.4609L1.48677 33.1974L0.522131 32.9338L0.659433 32.4312L1.62408 32.6948ZM1.48677 33.1974L2.42686 33.5383L2.248 34.0315L1.30792 33.6905L0.367833 33.3496L0.546694 32.8564L1.48677 33.1974ZM1.30792 33.6905L2.20584 34.1307L1.96677 34.6184L1.06886 34.1782L0.170939 33.738L0.41 33.2504L1.30792 33.6905ZM1.06886 34.1782L2.06884 34.1844L2.06554 34.7148L1.06556 34.7086L0.0655817 34.7023L0.0688742 34.172L1.06886 34.1782ZM1.06556 34.7086L2.04659 34.5147L2.15401 35.0582L1.17298 35.2521L0.191952 35.446L0.0845329 34.9024L1.06556 34.7086ZM1.17298 35.2521L2.15602 35.4355L2.06059 35.9471L1.07755 35.7637L0.0945057 35.5803L0.189935 35.0687L1.17298 35.2521ZM1.07755 35.7637L2.03151 36.0636L1.95394 36.3104L0.999969 36.0105L0.046001 35.7106L0.123579 35.4638L1.07755 35.7637Z" fill="white"/>
</svg>
