<svg width="19" height="18" viewBox="0 0 19 18" fill="none" xmlns="http://www.w3.org/2000/svg">
<path d="M12.3316 7.25965C11.6316 6.50287 11.0163 5.85945 10.5109 5.34925C10.396 5.49808 10.255 5.67661 10.0703 5.90342C9.36658 6.76794 8.0302 8.33399 5.09989 11.6311C3.82876 13.2687 3.209 13.9927 3.3215 13.918C3.70505 13.6634 4.34071 13.2631 5.51137 11.9906C8.02701 9.25594 10.0181 7.26642 9.95439 7.42836C9.76744 7.90385 8.15735 10.0855 5.18612 12.6698C3.01781 14.5558 1.2765 16.8216 1.17901 16.1269C1.1695 16.0592 1.4993 15.2452 2.88322 12.8236C3.94627 10.9634 6.68227 8.15843 7.55058 6.37818C8.26894 4.90534 8.99035 3.53787 9.30793 2.56143C8.76149 1.64963 8.51187 1.08702 8.78703 1.08174C9.54773 1.06715 9.60751 1.6403 9.30793 2.56143C9.6926 3.20331 10.2244 4.01824 10.8237 4.93362C11.1891 5.49166 11.5796 6.08703 11.9771 6.70328C12.0982 6.89092 12.2163 7.07647 12.3316 7.25965C12.6982 7.65592 13.0879 8.08328 13.4973 8.53886C16.0998 11.4354 16.6183 13.2898 16.2317 13.0634C15.3034 12.5197 14.1787 10.1942 12.3316 7.25965Z" fill="white"/>
<path d="M12.8186 3.5139C12.5298 3.04318 11.914 2.89574 11.4433 3.1846C10.9726 3.47346 10.8251 4.08922 11.114 4.55994L11.9663 4.03692L12.8186 3.5139ZM12.0186 4.12215L11.1663 4.64517L11.1963 4.69412L11.2318 4.73931L12.0186 4.12215ZM12.2817 4.45759L13.2791 4.38609L13.2573 4.08106L13.0685 3.84043L12.2817 4.45759ZM12.3223 5.02412L11.3249 5.09561L11.3552 5.51851L11.6802 5.79075L12.3223 5.02412ZM12.7522 5.38418L13.5368 4.76419L13.4731 4.68355L13.3943 4.61756L12.7522 5.38418ZM13.0785 5.79707L14.0575 5.59359L14.0095 5.36237L13.8631 5.17708L13.0785 5.79707ZM13.1894 6.33107L12.2104 6.53455L12.2426 6.68945L12.321 6.82685L13.1894 6.33107ZM13.4475 6.78312L12.5791 7.2789L12.6604 7.4213L12.7829 7.53029L13.4475 6.78312ZM13.8519 7.14285L14.7445 6.69206L14.6587 6.52217L14.5165 6.39568L13.8519 7.14285ZM14.0863 7.60693L15.07 7.42746L15.0441 7.28521L14.9789 7.15615L14.0863 7.60693ZM14.1908 8.18002L13.2071 8.35949L13.3222 8.99032L13.9435 9.14894L14.1908 8.18002ZM14.7999 8.3355L15.6491 7.80743L15.4368 7.46603L15.0472 7.36658L14.7999 8.3355ZM15.0822 8.78954L14.233 9.31762L14.3328 9.47804L14.4842 9.59102L15.0822 8.78954ZM15.5293 9.12314L16.5271 9.05617L16.4962 8.59692L16.1273 8.32166L15.5293 9.12314ZM15.5689 9.71278L14.5711 9.77975L14.5887 10.0408L14.7318 10.2598L15.5689 9.71278ZM15.8548 10.1502L16.713 9.63696L16.7028 9.61986L16.6919 9.60318L15.8548 10.1502ZM16.1245 10.6012L15.2663 11.1145L15.2921 11.1577L15.3222 11.1981L16.1245 10.6012ZM16.4459 11.0332L17.4143 11.2827L17.5335 10.8198L17.2482 10.4364L16.4459 11.0332ZM16.2852 11.6574L15.3168 11.408L15.1359 12.1101L15.747 12.5002L16.2852 11.6574ZM16.8263 12.0029L17.8263 12.002L17.8258 11.4546L17.3645 11.16L16.8263 12.0029ZM16.8268 12.5643L15.8268 12.5652L15.8271 12.866L15.9933 13.1167L16.8268 12.5643ZM17.1212 13.0085L18.1051 13.1876L18.1771 12.7916L17.9548 12.4561L17.1212 13.0085ZM17.0131 13.6029L16.0292 13.4238L15.9112 14.0727L16.4611 14.4367L17.0131 13.6029ZM17.5608 13.9654L18.5594 13.9133L18.5332 13.4099L18.1128 13.1316L17.5608 13.9654ZM17.5897 14.5206L17.7569 15.5065L18.6347 15.3577L18.5884 14.4685L17.5897 14.5206ZM17.1319 14.5982L16.4521 15.3316L16.8134 15.6665L17.2991 15.5841L17.1319 14.5982ZM16.7447 14.2393L15.772 14.4712L15.8424 14.7664L16.0649 14.9727L16.7447 14.2393ZM16.6091 13.6705L17.5818 13.4385L17.4801 13.0118L17.0973 12.7977L16.6091 13.6705ZM16.1241 13.3992L15.38 14.0672L15.4909 14.1908L15.6359 14.2719L16.1241 13.3992ZM15.7767 13.0122L14.8123 13.2767L14.8748 13.5045L15.0326 13.6803L15.7767 13.0122ZM15.6247 12.4579L16.5891 12.1934L16.4451 11.6682L15.9257 11.5042L15.6247 12.4579ZM15.0405 12.2735L14.1647 12.7562L14.3579 13.1067L14.7395 13.2271L15.0405 12.2735ZM14.7843 11.8087L13.8915 12.2592L13.8997 12.2755L13.9085 12.2914L14.7843 11.8087ZM14.5436 11.3317L15.4364 10.8812L15.3091 10.629L15.0687 10.4806L14.5436 11.3317ZM14.0768 11.0436L13.3251 11.7031L13.424 11.8159L13.5517 11.8947L14.0768 11.0436ZM13.7337 10.6525L12.7495 10.8294L12.7987 11.103L12.9819 11.3119L13.7337 10.6525ZM13.6282 10.0657L14.6125 9.88883L14.4977 9.25025L13.8678 9.09485L13.6282 10.0657ZM12.9976 9.91016L12.0013 9.99601L12.0628 10.7095L12.7581 10.8811L12.9976 9.91016ZM12.9436 9.28324L13.9399 9.19739L13.9085 8.83297L13.6494 8.57481L12.9436 9.28324ZM12.5734 8.91449L13.2792 8.20606L13.1156 8.04304L12.8971 7.9683L12.5734 8.91449ZM11.9913 8.7154L11.202 9.32934L11.3853 9.56498L11.6677 9.66159L11.9913 8.7154ZM11.6715 8.30422L10.6798 8.43254L10.7148 8.70294L10.8822 8.91817L11.6715 8.30422ZM11.5936 7.70177L12.5853 7.57346L12.5334 7.17232L12.2172 6.92007L11.5936 7.70177ZM11.176 7.36859L10.402 8.00186L10.4693 8.08406L10.5523 8.15029L11.176 7.36859ZM10.847 6.96655L9.99036 7.48244L10.0275 7.54411L10.0731 7.59981L10.847 6.96655ZM10.5772 6.51846L11.4339 6.00253L11.4277 5.99256L10.5772 6.51846ZM10.3032 6.07536L9.3705 6.43605L9.40392 6.52246L9.45264 6.60126L10.3032 6.07536ZM10.2006 5.81001L11.1333 5.44931L10.6674 4.24465L9.61778 4.99739L10.2006 5.81001ZM9.79734 5.46004L10.534 4.78374L10.4575 4.70047L10.3644 4.63637L9.79734 5.46004ZM9.33222 5.13983L8.33889 5.02447L8.26947 5.62225L8.76516 5.9635L9.33222 5.13983ZM9.40712 4.49485L10.4004 4.61022L10.4451 4.2257L10.2192 3.91134L9.40712 4.49485ZM9.11731 4.09151L9.91697 3.49106L8.30521 4.67503L9.11731 4.09151ZM9.26763 4.2917L8.46797 4.89216L8.66879 5.15961L8.99011 5.25242L9.26763 4.2917ZM9.82398 4.45241L10.7453 4.06366L10.5599 3.62409L10.1015 3.49169L9.82398 4.45241ZM10.0446 4.97532L9.12328 5.36407L9.25742 5.68198L9.55906 5.84952L10.0446 4.97532ZM10.5167 5.23754L11.5154 5.28928L11.5477 4.66626L11.0023 4.36334L10.5167 5.23754ZM10.005 5.97913L9.24791 5.32581L9.14771 5.44192L9.08691 5.58273L10.005 5.97913ZM9.83176 6.38032L10.4537 7.16335L10.6503 7.0072L10.7498 6.77672L9.83176 6.38032ZM9.4152 6.71121L8.79322 5.92818L8.77403 5.94342L8.75562 5.95958L9.4152 6.71121ZM9.02041 7.05765L8.36083 6.30602L8.33938 6.32484L8.31905 6.34485L9.02041 7.05765ZM8.6489 7.42319L7.94754 6.71039L7.9055 6.75176L7.86861 6.79778L8.6489 7.42319ZM8.32367 7.82897L7.54338 7.20356L7.41994 7.35756L7.36427 7.54692L8.32367 7.82897ZM8.16254 8.37705L8.54868 9.29949L8.9877 9.11571L9.12194 8.6591L8.16254 8.37705ZM7.62786 8.60088L7.24172 7.67844L7.0215 7.77062L6.86668 7.95234L7.62786 8.60088ZM7.29053 8.9968L6.52935 8.34827L6.51916 8.36023L6.50935 8.3725L7.29053 8.9968ZM6.9652 9.40389L7.62293 10.1571L7.69043 10.0982L7.74638 10.0282L6.9652 9.40389ZM6.57113 9.74798L5.9134 8.99473L5.76278 9.12625L5.67432 9.30558L6.57113 9.74798ZM6.33242 10.2319L7.21958 10.6934L7.22451 10.6839L7.22924 10.6743L6.33242 10.2319ZM6.08557 10.7065L6.51925 11.6075L6.81914 11.4632L6.97273 11.1679L6.08557 10.7065ZM5.57624 10.9516L5.14255 10.0505L5.01209 10.1133L4.90479 10.2105L5.57624 10.9516ZM5.18933 11.3022L4.51789 10.5611L4.47305 10.6017L4.43344 10.6475L5.18933 11.3022ZM4.84135 11.7039L4.08545 11.0492L3.85442 11.316L3.84197 11.6686L4.84135 11.7039ZM4.81866 12.3461L5.43215 13.1358L5.80153 12.8489L5.81804 12.3814L4.81866 12.3461ZM4.39465 12.6755L3.78117 11.8858L3.72248 11.9314L3.67118 11.9852L4.39465 12.6755ZM4.0341 13.0534L3.31063 12.363L3.28134 12.3937L3.25475 12.4268L4.0341 13.0534ZM3.70829 13.4586L4.28119 14.2782L4.39819 14.1965L4.48763 14.0852L3.70829 13.4586ZM3.25972 13.7722L2.57912 13.0395L3.83262 14.5918L3.25972 13.7722ZM3.53938 13.5124L3.10619 12.6111L2.96971 12.6767L2.85878 12.7797L3.53938 13.5124ZM4.00739 13.2874L3.70337 12.3348L3.63699 12.3559L3.57419 12.3861L4.00739 13.2874ZM4.54534 13.1158L4.84936 14.0684L5.27753 13.9318L5.4596 13.5209L4.54534 13.1158ZM4.77378 12.6002L4.1917 11.7871L3.96998 11.9458L3.85952 12.1951L4.77378 12.6002ZM5.20127 12.2942L5.78335 13.1073L5.87256 13.0435L5.9458 12.9618L5.20127 12.2942ZM5.54881 11.9066L4.95511 11.1019L4.87267 11.1628L4.80428 11.239L5.54881 11.9066ZM5.97483 11.5923L6.56852 12.397L6.80571 12.222L6.91006 11.9464L5.97483 11.5923ZM6.17373 11.0669L5.41782 10.4122L5.30144 10.5466L5.2385 10.7129L6.17373 11.0669ZM6.51438 10.6736L6.01505 9.80716L5.8689 9.89139L5.75847 10.0189L6.51438 10.6736ZM6.98587 10.4018L7.4852 11.2683L7.6403 11.1789L7.75476 11.0412L6.98587 10.4018ZM7.3191 10.0011L6.6828 9.22966L6.6103 9.28946L6.55022 9.36172L7.3191 10.0011ZM7.72295 9.66801L8.35925 10.4394L8.40957 10.3979L8.45408 10.3502L7.72295 9.66801ZM8.07763 9.2879L8.80876 9.97014L8.91692 9.85423L8.98392 9.71056L8.07763 9.2879ZM8.31057 8.78843L7.56922 8.1173L7.46802 8.2291L7.40428 8.36577L8.31057 8.78843ZM8.66072 8.40164L8.17541 7.5273L8.03056 7.6077L7.91938 7.73052L8.66072 8.40164ZM9.1349 8.13845L9.6202 9.01279L9.88868 8.86378L10.0273 8.58977L9.1349 8.13845ZM9.38349 7.64693L8.89149 6.77634L8.62782 6.92535L8.49113 7.19561L9.38349 7.64693ZM9.85958 7.37788L10.8024 7.7113L11.6929 5.19315L9.36757 6.50729L9.85958 7.37788ZM9.70639 7.81103L8.76361 7.47761L8.75538 7.50087L8.74831 7.52451L9.70639 7.81103ZM9.54827 8.33976L10.0551 9.20179L10.3938 9.00267L10.5063 8.62628L9.54827 8.33976ZM9.06355 8.62475L8.55671 7.76272L8.43833 7.83232L8.3431 7.93125L9.06355 8.62475ZM8.70282 8.9995L7.98237 8.306L7.88024 8.41209L7.81303 8.54313L8.70282 8.9995ZM8.4591 9.47468L9.15003 10.1976L9.27194 10.0811L9.34889 9.93105L8.4591 9.47468ZM8.08213 9.83496L7.3912 9.11204L7.23769 9.25876L7.15705 9.4552L8.08213 9.83496ZM7.87058 10.3503L8.11076 11.321L8.60307 11.1992L8.79566 10.73L7.87058 10.3503ZM7.27286 10.4982L7.03268 9.52744L6.62614 9.62803L6.41261 9.9883L7.27286 10.4982ZM7.0006 10.9575L7.79421 11.5659L7.83047 11.5186L7.86085 11.4674L7.0006 10.9575ZM6.68082 11.3746L7.37152 12.0978L7.42741 12.0444L7.47443 11.983L6.68082 11.3746ZM6.3039 11.7346L6.68892 12.6575L6.86031 12.586L6.9946 12.4578L6.3039 11.7346ZM5.79375 11.9474L5.40874 11.0245L5.24918 11.0911L5.12124 11.2074L5.79375 11.9474ZM5.40989 12.2963L4.73738 11.5562L4.69137 11.598L4.6509 11.6452L5.40989 12.2963ZM5.06807 12.6947L4.30908 12.0436L4.29535 12.0596L4.2823 12.0762L5.06807 12.6947ZM4.74134 13.1098L5.05825 14.0583L5.34204 13.9634L5.52711 13.7283L4.74134 13.1098ZM4.19757 13.2915L3.88066 12.3431L3.44723 12.4879L3.27305 12.9104L4.19757 13.2915ZM3.98054 13.818L4.52199 14.6587L4.78557 14.4889L4.90506 14.1991L3.98054 13.818ZM3.53343 14.1059L2.99198 13.2652L2.73509 13.4306L2.61454 13.7114L3.53343 14.1059ZM3.31266 14.6201L3.92573 15.4101L4.1297 15.2518L4.23155 15.0146L3.31266 14.6201ZM2.89858 14.9414L2.28552 14.1514L2.14976 14.2567L2.05696 14.4014L2.89858 14.9414ZM2.61077 15.3899L2.87395 16.3547L3.24479 16.2535L3.45239 15.93L2.61077 15.3899ZM2.03597 15.5468L1.77278 14.582L1.34687 14.6982L1.14575 15.0912L2.03597 15.5468ZM1.78317 16.0408L2.15363 16.9696L2.50235 16.8305L2.67338 16.4963L1.78317 16.0408ZM1.29955 16.2337L0.348616 16.543L0.678773 17.5578L1.67001 17.1625L1.29955 16.2337ZM1.14664 15.7636L0.458223 15.0383L0.000437567 15.4728L0.195703 16.073L1.14664 15.7636ZM1.55402 15.377L2.24244 16.1023L2.44182 15.9131L2.51646 15.6485L1.55402 15.377ZM1.69776 14.8674L2.6602 15.1389L2.67144 15.0991L2.67935 15.0584L1.69776 14.8674ZM1.80177 14.3329L1.01283 13.7184L0.865866 13.9071L0.820184 14.1419L1.80177 14.3329ZM2.1268 13.9156L1.65095 13.036L1.46663 13.1358L1.33786 13.3011L2.1268 13.9156ZM2.66914 13.6222L3.14499 14.5017L3.67902 14.2127L3.669 13.6056L2.66914 13.6222ZM2.65918 13.0194L1.81688 12.4804L1.65434 12.7344L1.65932 13.0359L2.65918 13.0194ZM2.94112 12.5788L2.1019 12.035L2.09881 12.0398L2.94112 12.5788ZM3.22558 12.1398L2.43586 11.5263L2.40962 11.5601L2.38637 11.596L3.22558 12.1398ZM3.54628 11.727L2.90805 10.9571L2.82374 11.027L2.75656 11.1135L3.54628 11.727ZM3.95849 11.3852L4.59672 12.1551L4.85365 11.9421L4.93115 11.6175L3.95849 11.3852ZM4.09091 10.8306L3.48791 10.0329L3.2016 10.2493L3.11825 10.5984L4.09091 10.8306ZM4.52064 10.5058L5.12364 11.3036L5.20977 11.2385L5.28002 11.1565L4.52064 10.5058ZM4.85932 10.1105L5.6187 10.7612L5.76049 10.5957L5.82057 10.3862L4.85932 10.1105ZM5.01477 9.56858L4.39955 8.78021L4.14318 8.98028L4.05352 9.29288L5.01477 9.56858ZM5.43598 9.23988L6.05119 10.0282L6.16684 9.93799L6.2517 9.81832L5.43598 9.23988ZM5.73682 8.81564L5.36331 7.88801L5.09094 7.99768L4.9211 8.23719L5.73682 8.81564ZM6.29525 8.59078L6.66876 9.51841L7.03966 9.36906L7.20535 9.00516L6.29525 8.59078ZM6.51692 8.10393L5.90197 7.31536L5.70849 7.46624L5.60681 7.68955L6.51692 8.10393ZM6.94663 7.76883L7.56158 8.5574L7.74019 8.41811L7.84135 8.21546L6.94663 7.76883ZM7.18406 7.2932L8.07877 7.73983L8.14741 7.60233L8.1716 7.45057L7.18406 7.2932ZM7.27306 6.73468L6.41114 6.22762L6.31527 6.39059L6.28552 6.57731L7.27306 6.73468ZM7.53408 6.29099L8.39599 6.79804L8.43474 6.73217L8.46303 6.66118L7.53408 6.29099ZM7.72726 5.8062L6.84241 5.34033L6.81783 5.38701L6.79831 5.43601L7.72726 5.8062ZM7.96967 5.34578L7.19117 4.71814L7.13013 4.79385L7.08482 4.87991L7.96967 5.34578ZM8.304 4.93109L9.0825 5.55873L9.26871 5.32777L9.29883 5.03263L8.304 4.93109ZM8.36021 4.38031L7.83509 3.52929L7.41544 3.78822L7.36538 4.27878L8.36021 4.38031ZM8.88769 4.05484L9.41281 4.90587L9.84753 4.63763L9.885 4.12819L8.88769 4.05484ZM8.92847 3.50041L8.10127 2.9385L7.95081 3.16L7.93116 3.42706L8.92847 3.50041ZM9.22758 3.06008L10.0548 3.62199L10.1548 3.47476L10.1979 3.30206L9.22758 3.06008ZM9.34864 2.57467L10.3189 2.81665L10.5445 1.91205L9.65793 1.6237L9.34864 2.57467ZM10.3945 5.8001L10.4897 6.79556L10.9461 6.75191L11.2109 6.37761L10.3945 5.8001ZM10.5594 5.56695L11.3758 6.14446L11.6593 5.7437L11.5156 5.27431L10.5594 5.56695ZM10.4872 5.33091L11.0983 4.53935L8.61162 2.61964L9.53095 5.62356L10.4872 5.33091ZM10.5799 5.42164L9.85602 6.11154L10.0203 6.28394L10.2447 6.36378L10.5799 5.42164ZM11.0209 5.57854L11.9832 5.30671L11.8428 4.80958L11.3561 4.63641L11.0209 5.57854ZM11.1815 6.14703L10.2191 6.41886L10.3549 6.89966L10.8209 7.07978L11.1815 6.14703ZM11.7181 6.35446L12.3915 5.61517L12.2532 5.48917L12.0786 5.4217L11.7181 6.35446ZM12.1045 6.70643L12.9202 6.12796L12.8578 6.03987L12.7779 5.96714L12.1045 6.70643ZM12.4085 7.13502L13.2596 7.65992L13.6071 7.0965L13.2242 6.55654L12.4085 7.13502ZM10.5711 5.26935L10.0566 4.41182L9.88934 4.51218L9.77204 4.66805L10.5711 5.26935ZM10.671 5.20939L11.1855 6.06691L11.2054 6.05496L11.2247 6.04208L10.671 5.20939ZM10.8555 5.0867L11.4092 5.9194L12.2504 5.36007L11.6826 4.52461L10.8555 5.0867ZM10.6787 4.82651L11.2728 4.02211L9.85161 5.3886L10.6787 4.82651ZM10.8237 4.93362L10.2296 5.73803L10.2985 5.78891L10.3751 5.82733L10.8237 4.93362ZM12.3849 7.34425L11.5389 7.87734L11.6065 7.98477L11.6989 8.07187L12.3849 7.34425ZM12.6925 7.63424L12.0065 8.36185L12.0907 8.44124L12.1908 8.4993L12.6925 7.63424ZM13.1646 7.90799L13.9776 7.32574L13.8523 7.15084L13.6662 7.04293L13.1646 7.90799ZM13.4697 8.33402L14.3007 7.77781L14.2919 7.76465L14.2827 7.75177L13.4697 8.33402ZM13.7623 8.77132L14.6445 8.30035L14.6211 8.25646L14.5934 8.21511L13.7623 8.77132ZM14.0137 9.24212L13.1316 9.71309L13.2454 9.92625L13.4439 10.0639L14.0137 9.24212ZM14.4574 9.54972L15.2235 8.90705L15.1374 8.80431L15.0271 8.72791L14.4574 9.54972ZM14.7935 9.95035L15.7034 9.53571L15.647 9.41191L15.5596 9.30768L14.7935 9.95035ZM15.0145 10.4354L15.9671 10.1313L15.9491 10.0748L15.9244 10.0207L15.0145 10.4354ZM15.1788 10.9502L14.2261 11.2542L14.2597 11.3594L14.3154 11.4548L15.1788 10.9502ZM15.4374 11.3927L14.574 11.8972L14.6914 12.0981L14.8854 12.2265L15.4374 11.3927ZM15.9194 11.7117L16.891 11.4749L16.7981 11.0941L16.4714 10.8778L15.9194 11.7117ZM16.0459 12.2304L15.0743 12.4673L15.1493 12.7748L15.3876 12.9831L16.0459 12.2304ZM16.4967 12.6246L17.3252 13.1846L17.8196 12.4531L17.155 11.8719L16.4967 12.6246ZM16.1408 13.1511L15.2052 13.5043L15.8875 15.3117L16.9693 13.7111L16.1408 13.1511ZM15.9312 12.5957L16.8667 12.2426L16.7342 11.8916L16.4036 11.7143L15.9312 12.5957ZM15.4468 12.3361L14.6564 12.9487L14.7868 13.1169L14.9744 13.2175L15.4468 12.3361ZM15.1267 11.9231L14.1459 12.118L14.1919 12.3493L14.3363 12.5357L15.1267 11.9231ZM15.0176 11.3736L15.9984 11.1788L15.9373 10.8715L15.7118 10.6539L15.0176 11.3736ZM14.6334 11.0031L13.792 11.5435L13.8551 11.6417L13.9391 11.7228L14.6334 11.0031ZM14.3526 10.5659L15.194 10.0255L15.1028 9.88349L14.9701 9.77929L14.3526 10.5659ZM13.9142 10.2218L12.9246 10.3657L12.9822 10.7615L13.2968 11.0084L13.9142 10.2218ZM13.8333 9.66491L14.8229 9.52104L14.768 9.14331L14.4753 8.89824L13.8333 9.66491ZM13.4107 9.31103L12.4915 9.70482L12.5856 9.92435L12.7687 10.0777L13.4107 9.31103ZM13.2042 8.82885L14.1234 8.43507L14.1108 8.40584L14.0965 8.37746L13.2042 8.82885ZM12.9688 8.36355L13.8611 7.91216L13.8452 7.88069L13.8271 7.85043L12.9688 8.36355ZM12.7023 7.91781L11.7708 8.28154L11.8012 8.35929L11.844 8.43093L12.7023 7.91781ZM12.5099 7.42506L13.4414 7.06133L13.358 6.84783L13.19 6.69194L12.5099 7.42506ZM12.2772 7.17574L11.292 7.34709L11.327 7.54832L11.4381 7.7197L12.2772 7.17574ZM12.1991 6.72682L13.1843 6.55547L13.1224 6.19921L12.8469 5.96498L12.1991 6.72682ZM11.7849 6.37463L10.9733 6.95883L11.0444 7.05762L11.1372 7.13647L11.7849 6.37463ZM11.4808 5.95211L10.665 6.53046L10.6692 6.53631L11.4808 5.95211ZM11.1799 5.52761L10.237 5.86084L10.2835 5.99224L10.3641 6.10594L11.1799 5.52761ZM11.0015 5.02286L11.9443 4.68963L11.8101 4.30987L11.4501 4.12916L11.0015 5.02286ZM10.7699 4.84936L11.6125 4.31091L11.5898 4.27537L11.5642 4.24187L10.7699 4.84936ZM10.514 4.51477L9.60379 4.92895L9.65076 5.03217L9.71965 5.12226L10.514 4.51477ZM10.2961 4.03605L11.2063 3.62188L11.1088 3.40759L10.926 3.25931L10.2961 4.03605ZM9.87103 3.69136L8.88892 3.87966L8.95766 4.23818L9.24122 4.4681L9.87103 3.69136ZM9.76568 3.14186L10.7478 2.95356L10.6931 2.66843L10.4943 2.45691L9.76568 3.14186ZM9.40273 2.75579L8.50394 3.19417L8.57036 3.33035L8.67414 3.44074L9.40273 2.75579ZM10.8651 4.8426L11.7753 5.25677L11.8117 5.17695L11.8335 5.09203L10.8651 4.8426ZM10.9699 4.43597L10.0889 3.96277L10.0317 4.06936L10.0015 4.18654L10.9699 4.43597ZM11.2156 3.97839L12.0966 4.45159L12.1989 4.26122L12.2134 4.0456L11.2156 3.97839ZM11.236 3.67562L11.5869 2.7392L10.3286 2.2677L10.2383 3.60841L11.236 3.67562ZM11.0219 4.66329C11.5391 4.85708 12.1155 4.59492 12.3092 4.07775C12.503 3.56058 12.2409 2.98424 11.7237 2.79045L11.3728 3.72687L11.0219 4.66329ZM8.91512 2.18454L7.91695 2.12402L7.88895 2.58581L8.22279 2.90612L8.91512 2.18454ZM8.95152 1.58426L9.94968 1.64479L9.97533 1.22185L9.6893 0.909231L8.95152 1.58426ZM8.50597 1.0973L8.54681 0.0981293L6.14662 1.95741e-05L7.76818 1.77233L8.50597 1.0973ZM9.17046 1.12446L10.029 0.611716L9.75169 0.147381L9.2113 0.125291L9.17046 1.12446ZM9.42244 1.54637L10.4128 1.68506L10.4616 1.33613L10.281 1.03363L9.42244 1.54637ZM9.35331 2.03997L8.36298 1.90128L8.34113 2.05729L8.3683 2.21247L9.35331 2.03997ZM9.45239 2.60571L9.15931 3.5618L10.7187 4.03982L10.4374 2.43321L9.45239 2.60571ZM11.9663 4.03692L11.114 4.55994L11.1663 4.64517L12.0186 4.12215L12.8709 3.59913L12.8186 3.5139L11.9663 4.03692ZM12.0186 4.12215L11.2318 4.73931L11.4949 5.07475L12.2817 4.45759L13.0685 3.84043L12.8054 3.50499L12.0186 4.12215ZM12.2817 4.45759L11.2843 4.52908L11.3249 5.09561L12.3223 5.02412L13.3197 4.95263L13.2791 4.38609L12.2817 4.45759ZM12.3223 5.02412L11.6802 5.79075L12.1101 6.15081L12.7522 5.38418L13.3943 4.61756L12.9644 4.25749L12.3223 5.02412ZM12.7522 5.38418L11.9676 6.00418L12.2939 6.41707L13.0785 5.79707L13.8631 5.17708L13.5368 4.76419L12.7522 5.38418ZM13.0785 5.79707L12.0994 6.00055L12.2104 6.53455L13.1894 6.33107L14.1685 6.12759L14.0575 5.59359L13.0785 5.79707ZM13.1894 6.33107L12.321 6.82685L12.5791 7.2789L13.4475 6.78312L14.316 6.28734L14.0579 5.83529L13.1894 6.33107ZM13.4475 6.78312L12.7829 7.53029L13.1873 7.89002L13.8519 7.14285L14.5165 6.39568L14.1121 6.03595L13.4475 6.78312ZM13.8519 7.14285L12.9593 7.59363L13.1936 8.05772L14.0863 7.60693L14.9789 7.15615L14.7445 6.69206L13.8519 7.14285ZM14.0863 7.60693L13.1025 7.78641L13.2071 8.35949L14.1908 8.18002L15.1746 8.00054L15.07 7.42746L14.0863 7.60693ZM14.1908 8.18002L13.9435 9.14894L14.5525 9.30443L14.7999 8.3355L15.0472 7.36658L14.4382 7.21109L14.1908 8.18002ZM14.7999 8.3355L13.9507 8.86358L14.233 9.31762L15.0822 8.78954L15.9314 8.26146L15.6491 7.80743L14.7999 8.3355ZM15.0822 8.78954L14.4842 9.59102L14.9313 9.92461L15.5293 9.12314L16.1273 8.32166L15.6802 7.98806L15.0822 8.78954ZM15.5293 9.12314L14.5316 9.19011L14.5711 9.77975L15.5689 9.71278L16.5666 9.64581L16.5271 9.05617L15.5293 9.12314ZM15.5689 9.71278L14.7318 10.2598L15.0177 10.6973L15.8548 10.1502L16.6919 9.60318L16.406 9.16573L15.5689 9.71278ZM15.8548 10.1502L14.9965 10.6635L15.2663 11.1145L16.1245 10.6012L16.9827 10.0879L16.713 9.63696L15.8548 10.1502ZM16.1245 10.6012L15.3222 11.1981L15.6436 11.6301L16.4459 11.0332L17.2482 10.4364L16.9268 10.0043L16.1245 10.6012ZM16.4459 11.0332L15.4775 10.7838L15.3168 11.408L16.2852 11.6574L17.2536 11.9068L17.4143 11.2827L16.4459 11.0332ZM16.2852 11.6574L15.747 12.5002L16.2882 12.8457L16.8263 12.0029L17.3645 11.16L16.8233 10.8145L16.2852 11.6574ZM16.8263 12.0029L15.8263 12.0038L15.8268 12.5652L16.8268 12.5643L17.8268 12.5634L17.8263 12.002L16.8263 12.0029ZM16.8268 12.5643L15.9933 13.1167L16.2877 13.561L17.1212 13.0085L17.9548 12.4561L17.6604 12.0118L16.8268 12.5643ZM17.1212 13.0085L16.1374 12.8295L16.0292 13.4238L17.0131 13.6029L17.9969 13.7819L18.1051 13.1876L17.1212 13.0085ZM17.0131 13.6029L16.4611 14.4367L17.0088 14.7993L17.5608 13.9654L18.1128 13.1316L17.5651 12.769L17.0131 13.6029ZM17.5608 13.9654L16.5621 14.0175L16.5911 14.5727L17.5897 14.5206L18.5884 14.4685L18.5594 13.9133L17.5608 13.9654ZM17.5897 14.5206L17.4226 13.5347L16.9648 13.6123L17.1319 14.5982L17.2991 15.5841L17.7569 15.5065L17.5897 14.5206ZM17.1319 14.5982L17.8117 13.8648L17.4245 13.5059L16.7447 14.2393L16.0649 14.9727L16.4521 15.3316L17.1319 14.5982ZM16.7447 14.2393L17.7175 14.0073L17.5818 13.4385L16.6091 13.6705L15.6364 13.9024L15.772 14.4712L16.7447 14.2393ZM16.6091 13.6705L17.0973 12.7977L16.6123 12.5264L16.1241 13.3992L15.6359 14.2719L16.1209 14.5432L16.6091 13.6705ZM16.1241 13.3992L16.8682 12.7311L16.5208 12.3442L15.7767 13.0122L15.0326 13.6803L15.38 14.0672L16.1241 13.3992ZM15.7767 13.0122L16.7411 12.7478L16.5891 12.1934L15.6247 12.4579L14.6603 12.7223L14.8123 13.2767L15.7767 13.0122ZM15.6247 12.4579L15.9257 11.5042L15.3414 11.3198L15.0405 12.2735L14.7395 13.2271L15.3237 13.4115L15.6247 12.4579ZM15.0405 12.2735L15.9162 11.7907L15.66 11.326L14.7843 11.8087L13.9085 12.2914L14.1647 12.7562L15.0405 12.2735ZM14.7843 11.8087L15.6771 11.3582L15.4364 10.8812L14.5436 11.3317L13.6508 11.7821L13.8915 12.2592L14.7843 11.8087ZM14.5436 11.3317L15.0687 10.4806L14.602 10.1926L14.0768 11.0436L13.5517 11.8947L14.0184 12.1827L14.5436 11.3317ZM14.0768 11.0436L14.8286 10.3842L14.4855 9.99305L13.7337 10.6525L12.9819 11.3119L13.3251 11.7031L14.0768 11.0436ZM13.7337 10.6525L14.7179 10.4756L14.6125 9.88883L13.6282 10.0657L12.644 10.2427L12.7495 10.8294L13.7337 10.6525ZM13.6282 10.0657L13.8678 9.09485L13.2371 8.93927L12.9976 9.91016L12.7581 10.8811L13.3887 11.0366L13.6282 10.0657ZM12.9976 9.91016L13.9939 9.82432L13.9399 9.19739L12.9436 9.28324L11.9473 9.36908L12.0013 9.99601L12.9976 9.91016ZM12.9436 9.28324L13.6494 8.57481L13.2792 8.20606L12.5734 8.91449L11.8677 9.62291L12.2378 9.99167L12.9436 9.28324ZM12.5734 8.91449L12.8971 7.9683L12.315 7.76921L11.9913 8.7154L11.6677 9.66159L12.2498 9.86068L12.5734 8.91449ZM11.9913 8.7154L12.7807 8.10145L12.4609 7.69028L11.6715 8.30422L10.8822 8.91817L11.202 9.32934L11.9913 8.7154ZM11.6715 8.30422L12.6633 8.17591L12.5853 7.57346L11.5936 7.70177L10.6019 7.83008L10.6798 8.43254L11.6715 8.30422ZM11.5936 7.70177L12.2172 6.92007L11.7996 6.58689L11.176 7.36859L10.5523 8.15029L10.9699 8.48347L11.5936 7.70177ZM11.176 7.36859L11.9499 6.73533L11.6209 6.33328L10.847 6.96655L10.0731 7.59981L10.402 8.00186L11.176 7.36859ZM10.847 6.96655L11.7037 6.45065L11.4338 6.00256L10.5772 6.51846L9.72051 7.03435L9.99036 7.48244L10.847 6.96655ZM10.5772 6.51846L11.4277 5.99256L11.1537 5.54946L10.3032 6.07536L9.45264 6.60126L9.72661 7.04436L10.5772 6.51846ZM10.3032 6.07536L11.2359 5.71466L11.1333 5.44931L10.2006 5.81001L9.26788 6.17071L9.3705 6.43605L10.3032 6.07536ZM10.2006 5.81001L9.61778 4.99739L9.48752 5.0908L10.0703 5.90342L10.6531 6.71604L10.7834 6.62263L10.2006 5.81001ZM10.0703 5.90342L10.8531 6.52577L10.9153 6.4475L10.1326 5.82515L9.34981 5.2028L9.28758 5.28108L10.0703 5.90342ZM10.1326 5.82515L10.8692 5.14884L10.534 4.78374L9.79734 5.46004L9.06072 6.13635L9.39593 6.50146L10.1326 5.82515ZM9.79734 5.46004L10.3644 4.63637L9.89928 4.31615L9.33222 5.13983L8.76516 5.9635L9.23028 6.28372L9.79734 5.46004ZM9.33222 5.13983L10.3255 5.25519L10.4004 4.61022L9.40712 4.49485L8.4138 4.37949L8.33889 5.02447L9.33222 5.13983ZM9.40712 4.49485L10.2192 3.91134L9.92941 3.508L9.11731 4.09151L8.30521 4.67503L8.59502 5.07837L9.40712 4.49485ZM9.11731 4.09151L8.31765 4.69197L8.46797 4.89216L9.26763 4.2917L10.0673 3.69125L9.91697 3.49106L9.11731 4.09151ZM9.26763 4.2917L8.99011 5.25242L9.54647 5.41313L9.82398 4.45241L10.1015 3.49169L9.54515 3.33098L9.26763 4.2917ZM9.82398 4.45241L8.90264 4.84117L9.12328 5.36407L10.0446 4.97532L10.966 4.58656L10.7453 4.06366L9.82398 4.45241ZM10.0446 4.97532L9.55906 5.84952L10.0312 6.11174L10.5167 5.23754L11.0023 4.36334L10.5302 4.10112L10.0446 4.97532ZM10.5167 5.23754L9.51806 5.1858L9.51227 5.29751L10.5109 5.34925L11.5096 5.40099L11.5154 5.28928L10.5167 5.23754ZM10.0703 5.90342L9.31324 5.2501L9.24791 5.32581L10.005 5.97913L10.7621 6.63245L10.8274 6.55675L10.0703 5.90342ZM10.005 5.97913L9.08691 5.58273L8.91369 5.98392L9.83176 6.38032L10.7498 6.77672L10.9231 6.37553L10.005 5.97913ZM9.83176 6.38032L9.20978 5.59729L8.79322 5.92818L9.4152 6.71121L10.0372 7.49423L10.4537 7.16335L9.83176 6.38032ZM9.4152 6.71121L8.75562 5.95958L8.36083 6.30602L9.02041 7.05765L9.68 7.80928L10.0748 7.46284L9.4152 6.71121ZM9.02041 7.05765L8.31905 6.34485L7.94754 6.71039L8.6489 7.42319L9.35026 8.136L9.72177 7.77046L9.02041 7.05765ZM8.6489 7.42319L7.86861 6.79778L7.54338 7.20356L8.32367 7.82897L9.10396 8.45439L9.4292 8.04861L8.6489 7.42319ZM8.32367 7.82897L7.36427 7.54692L7.20314 8.095L8.16254 8.37705L9.12194 8.6591L9.28307 8.11102L8.32367 7.82897ZM8.16254 8.37705L7.77639 7.45462L7.24172 7.67844L7.62786 8.60088L8.01401 9.52331L8.54868 9.29949L8.16254 8.37705ZM7.62786 8.60088L6.86668 7.95234L6.52935 8.34827L7.29053 8.9968L8.05172 9.64534L8.38905 9.24941L7.62786 8.60088ZM7.29053 8.9968L6.50935 8.3725L6.18401 8.77959L6.9652 9.40389L7.74638 10.0282L8.07172 9.6211L7.29053 8.9968ZM6.9652 9.40389L6.30747 8.65064L5.9134 8.99473L6.57113 9.74798L7.22886 10.5012L7.62293 10.1571L6.9652 9.40389ZM6.57113 9.74798L5.67432 9.30558L5.4356 9.78949L6.33242 10.2319L7.22924 10.6743L7.46795 10.1904L6.57113 9.74798ZM6.33242 10.2319L5.44527 9.77042L5.19841 10.245L6.08557 10.7065L6.97273 11.1679L7.21958 10.6934L6.33242 10.2319ZM6.08557 10.7065L5.65188 9.80539L5.14255 10.0505L5.57624 10.9516L6.00992 11.8527L6.51925 11.6075L6.08557 10.7065ZM5.57624 10.9516L4.90479 10.2105L4.51789 10.5611L5.18933 11.3022L5.86078 12.0432L6.24768 11.6926L5.57624 10.9516ZM5.18933 11.3022L4.43344 10.6475L4.08545 11.0492L4.84135 11.7039L5.59724 12.3586L5.94523 11.9569L5.18933 11.3022ZM4.84135 11.7039L3.84197 11.6686L3.81929 12.3108L4.81866 12.3461L5.81804 12.3814L5.84072 11.7392L4.84135 11.7039ZM4.81866 12.3461L4.20518 11.5564L3.78117 11.8858L4.39465 12.6755L5.00813 13.4652L5.43215 13.1358L4.81866 12.3461ZM4.39465 12.6755L3.67118 11.9852L3.31063 12.363L4.0341 13.0534L4.75757 13.7437L5.11812 13.3659L4.39465 12.6755ZM4.0341 13.0534L3.25475 12.4268L2.92894 12.832L3.70829 13.4586L4.48763 14.0852L4.81344 13.68L4.0341 13.0534ZM3.70829 13.4586L3.13539 12.639L2.68682 12.9525L3.25972 13.7722L3.83262 14.5918L4.28119 14.2782L3.70829 13.4586ZM3.25972 13.7722L3.94032 14.5048L4.21998 14.245L3.53938 13.5124L2.85878 12.7797L2.57912 13.0395L3.25972 13.7722ZM3.53938 13.5124L3.97257 14.4137L4.44058 14.1887L4.00739 13.2874L3.57419 12.3861L3.10619 12.6111L3.53938 13.5124ZM4.00739 13.2874L4.3114 14.2401L4.84936 14.0684L4.54534 13.1158L4.24133 12.1631L3.70337 12.3348L4.00739 13.2874ZM4.54534 13.1158L5.4596 13.5209L5.68804 13.0054L4.77378 12.6002L3.85952 12.1951L3.63108 12.7106L4.54534 13.1158ZM4.77378 12.6002L5.35586 13.4134L5.78335 13.1073L5.20127 12.2942L4.6192 11.4811L4.1917 11.7871L4.77378 12.6002ZM5.20127 12.2942L5.9458 12.9618L6.29333 12.5742L5.54881 11.9066L4.80428 11.239L4.45675 11.6266L5.20127 12.2942ZM5.54881 11.9066L6.1425 12.7113L6.56852 12.397L5.97483 11.5923L5.38114 10.7876L4.95511 11.1019L5.54881 11.9066ZM5.97483 11.5923L6.91006 11.9464L7.10897 11.4209L6.17373 11.0669L5.2385 10.7129L5.0396 11.2383L5.97483 11.5923ZM6.17373 11.0669L6.92965 11.7216L7.27029 11.3282L6.51438 10.6736L5.75847 10.0189L5.41782 10.4122L6.17373 11.0669ZM6.51438 10.6736L7.01371 11.54L7.4852 11.2683L6.98587 10.4018L6.48653 9.53543L6.01505 9.80716L6.51438 10.6736ZM6.98587 10.4018L7.75476 11.0412L8.08799 10.6405L7.3191 10.0011L6.55022 9.36172L6.21698 9.76246L6.98587 10.4018ZM7.3191 10.0011L7.95541 10.7725L8.35925 10.4394L7.72295 9.66801L7.08665 8.89656L6.6828 9.22966L7.3191 10.0011ZM7.72295 9.66801L8.45408 10.3502L8.80876 9.97014L8.07763 9.2879L7.3465 8.60566L6.99181 8.98577L7.72295 9.66801ZM8.07763 9.2879L8.98392 9.71056L9.21686 9.21109L8.31057 8.78843L7.40428 8.36577L7.17134 8.86524L8.07763 9.2879ZM8.31057 8.78843L9.05191 9.45956L9.40206 9.07277L8.66072 8.40164L7.91938 7.73052L7.56922 8.1173L8.31057 8.78843ZM8.66072 8.40164L9.14603 9.27599L9.6202 9.01279L9.1349 8.13845L8.64959 7.2641L8.17541 7.5273L8.66072 8.40164ZM9.1349 8.13845L10.0273 8.58977L10.2758 8.09826L9.38349 7.64693L8.49113 7.19561L8.24254 7.68712L9.1349 8.13845ZM9.38349 7.64693L9.87549 8.51753L10.3516 8.24848L9.85958 7.37788L9.36757 6.50729L8.89149 6.77634L9.38349 7.64693ZM9.85958 7.37788L8.9168 7.04446L8.76361 7.47761L9.70639 7.81103L10.6492 8.14446L10.8024 7.7113L9.85958 7.37788ZM9.70639 7.81103L8.74831 7.52451L8.59019 8.05323L9.54827 8.33976L10.5063 8.62628L10.6645 8.09756L9.70639 7.81103ZM9.54827 8.33976L9.04142 7.47772L8.55671 7.76272L9.06355 8.62475L9.5704 9.48679L10.0551 9.20179L9.54827 8.33976ZM9.06355 8.62475L8.3431 7.93125L7.98237 8.306L8.70282 8.9995L9.42327 9.69301L9.784 9.31826L9.06355 8.62475ZM8.70282 8.9995L7.81303 8.54313L7.56931 9.01831L8.4591 9.47468L9.34889 9.93105L9.59261 9.45587L8.70282 8.9995ZM8.4591 9.47468L7.76818 8.75175L7.3912 9.11204L8.08213 9.83496L8.77305 10.5579L9.15003 10.1976L8.4591 9.47468ZM8.08213 9.83496L7.15705 9.4552L6.9455 9.97051L7.87058 10.3503L8.79566 10.73L9.00721 10.2147L8.08213 9.83496ZM7.87058 10.3503L7.6304 9.37955L7.03268 9.52744L7.27286 10.4982L7.51304 11.4689L8.11076 11.321L7.87058 10.3503ZM7.27286 10.4982L6.41261 9.9883L6.14035 10.4476L7.0006 10.9575L7.86085 11.4674L8.13311 11.008L7.27286 10.4982ZM7.0006 10.9575L6.207 10.3491L5.88722 10.7662L6.68082 11.3746L7.47443 11.983L7.79421 11.5659L7.0006 10.9575ZM6.68082 11.3746L5.99013 10.6515L5.6132 11.0115L6.3039 11.7346L6.9946 12.4578L7.37152 12.0978L6.68082 11.3746ZM6.3039 11.7346L5.91888 10.8117L5.40874 11.0245L5.79375 11.9474L6.17877 12.8704L6.68892 12.6575L6.3039 11.7346ZM5.79375 11.9474L5.12124 11.2074L4.73738 11.5562L5.40989 12.2963L6.08241 13.0363L6.46627 12.6875L5.79375 11.9474ZM5.40989 12.2963L4.6509 11.6452L4.30908 12.0436L5.06807 12.6947L5.82706 13.3458L6.16888 12.9474L5.40989 12.2963ZM5.06807 12.6947L4.2823 12.0762L3.95556 12.4913L4.74134 13.1098L5.52711 13.7283L5.85385 13.3132L5.06807 12.6947ZM4.74134 13.1098L4.42443 12.1614L3.88066 12.3431L4.19757 13.2915L4.51448 14.24L5.05825 14.0583L4.74134 13.1098ZM4.19757 13.2915L3.27305 12.9104L3.05602 13.4368L3.98054 13.818L4.90506 14.1991L5.12209 13.6726L4.19757 13.2915ZM3.98054 13.818L3.43909 12.9772L2.99198 13.2652L3.53343 14.1059L4.07487 14.9466L4.52199 14.6587L3.98054 13.818ZM3.53343 14.1059L2.61454 13.7114L2.39378 14.2256L3.31266 14.6201L4.23155 15.0146L4.45231 14.5004L3.53343 14.1059ZM3.31266 14.6201L2.6996 13.8301L2.28552 14.1514L2.89858 14.9414L3.51165 15.7314L3.92573 15.4101L3.31266 14.6201ZM2.89858 14.9414L2.05696 14.4014L1.76914 14.8499L2.61077 15.3899L3.45239 15.93L3.74021 15.4815L2.89858 14.9414ZM2.61077 15.3899L2.34758 14.4252L1.77278 14.582L2.03597 15.5468L2.29915 16.5115L2.87395 16.3547L2.61077 15.3899ZM2.03597 15.5468L1.14575 15.0912L0.892953 15.5852L1.78317 16.0408L2.67338 16.4963L2.92618 16.0023L2.03597 15.5468ZM1.78317 16.0408L1.41271 15.1119L0.929099 15.3048L1.29955 16.2337L1.67001 17.1625L2.15363 16.9696L1.78317 16.0408ZM1.29955 16.2337L2.25049 15.9243L2.09758 15.4543L1.14664 15.7636L0.195703 16.073L0.348616 16.543L1.29955 16.2337ZM1.14664 15.7636L1.83506 16.489L2.24244 16.1023L1.55402 15.377L0.865599 14.6517L0.458223 15.0383L1.14664 15.7636ZM1.55402 15.377L2.51646 15.6485L2.6602 15.1389L1.69776 14.8674L0.735324 14.5959L0.591579 15.1055L1.55402 15.377ZM1.69776 14.8674L2.67935 15.0584L2.78337 14.5239L1.80177 14.3329L0.820184 14.1419L0.716172 14.6764L1.69776 14.8674ZM1.80177 14.3329L2.59072 14.9473L2.91574 14.53L2.1268 13.9156L1.33786 13.3011L1.01283 13.7184L1.80177 14.3329ZM2.1268 13.9156L2.60265 14.7951L3.14499 14.5017L2.66914 13.6222L2.19329 12.7426L1.65095 13.036L2.1268 13.9156ZM2.66914 13.6222L3.669 13.6056L3.65905 13.0029L2.65918 13.0194L1.65932 13.0359L1.66927 13.6387L2.66914 13.6222ZM2.65918 13.0194L3.50149 13.5584L3.78343 13.1178L2.94112 12.5788L2.09881 12.0398L1.81688 12.4804L2.65918 13.0194ZM2.94112 12.5788L3.78034 13.1226L4.06479 12.6836L3.22558 12.1398L2.38637 11.596L2.10191 12.035L2.94112 12.5788ZM3.22558 12.1398L4.0153 12.7533L4.336 12.3404L3.54628 11.727L2.75656 11.1135L2.43586 11.5263L3.22558 12.1398ZM3.54628 11.727L4.18451 12.4968L4.59672 12.1551L3.95849 11.3852L3.32027 10.6154L2.90805 10.9571L3.54628 11.727ZM3.95849 11.3852L4.93115 11.6175L5.06357 11.0629L4.09091 10.8306L3.11825 10.5984L2.98583 11.153L3.95849 11.3852ZM4.09091 10.8306L4.6939 11.6284L5.12364 11.3036L4.52064 10.5058L3.91765 9.70807L3.48791 10.0329L4.09091 10.8306ZM4.52064 10.5058L5.28002 11.1565L5.6187 10.7612L4.85932 10.1105L4.09994 9.45989L3.76126 9.85517L4.52064 10.5058ZM4.85932 10.1105L5.82057 10.3862L5.97601 9.84427L5.01477 9.56858L4.05352 9.29288L3.89808 9.83485L4.85932 10.1105ZM5.01477 9.56858L5.62998 10.3569L6.05119 10.0282L5.43598 9.23988L4.82076 8.45152L4.39955 8.78021L5.01477 9.56858ZM5.43598 9.23988L6.2517 9.81832L6.55254 9.39408L5.73682 8.81564L4.9211 8.23719L4.62026 8.66143L5.43598 9.23988ZM5.73682 8.81564L6.11032 9.74326L6.66876 9.51841L6.29525 8.59078L5.92174 7.66316L5.36331 7.88801L5.73682 8.81564ZM6.29525 8.59078L7.20535 9.00516L7.42702 8.51831L6.51692 8.10393L5.60681 7.68955L5.38514 8.1764L6.29525 8.59078ZM6.51692 8.10393L7.13186 8.8925L7.56158 8.5574L6.94663 7.76883L6.33168 6.98026L5.90197 7.31536L6.51692 8.10393ZM6.94663 7.76883L7.84135 8.21546L8.07877 7.73983L7.18406 7.2932L6.28934 6.84657L6.05191 7.3222L6.94663 7.76883ZM7.18406 7.2932L8.1716 7.45057L8.2606 6.89204L7.27306 6.73468L6.28552 6.57731L6.19651 7.13584L7.18406 7.2932ZM7.27306 6.73468L8.13497 7.24173L8.39599 6.79804L7.53408 6.29099L6.67216 5.78393L6.41114 6.22762L7.27306 6.73468ZM7.53408 6.29099L8.46303 6.66118L8.65622 6.17639L7.72726 5.8062L6.79831 5.43601L6.60512 5.9208L7.53408 6.29099ZM7.72726 5.8062L8.61212 6.27207L8.85453 5.81164L7.96967 5.34578L7.08482 4.87991L6.84241 5.34033L7.72726 5.8062ZM7.96967 5.34578L8.74818 5.97341L9.0825 5.55873L8.304 4.93109L7.52549 4.30345L7.19117 4.71814L7.96967 5.34578ZM8.304 4.93109L9.29883 5.03263L9.35504 4.48185L8.36021 4.38031L7.36538 4.27878L7.30916 4.82956L8.304 4.93109ZM8.36021 4.38031L8.88533 5.23134L9.41281 4.90587L8.88769 4.05484L8.36258 3.20381L7.83509 3.52929L8.36021 4.38031ZM8.88769 4.05484L9.885 4.12819L9.92578 3.57376L8.92847 3.50041L7.93116 3.42706L7.89039 3.98149L8.88769 4.05484ZM8.92847 3.50041L9.75567 4.06232L10.0548 3.62199L9.22758 3.06008L8.40038 2.49817L8.10127 2.9385L8.92847 3.50041ZM9.22758 3.06008L10.1979 3.30206L10.3189 2.81665L9.34864 2.57467L8.37836 2.33269L8.2573 2.8181L9.22758 3.06008ZM9.34864 2.57467L9.65793 1.6237L9.61722 1.61046L9.30793 2.56143L8.99864 3.5124L9.03935 3.52564L9.34864 2.57467ZM10.0703 5.90342L10.8531 6.52577L10.9153 6.4475L10.1326 5.82515L9.34981 5.2028L9.28758 5.28108L10.0703 5.90342ZM10.1326 5.82515L10.2277 6.82061L10.4897 6.79556L10.3945 5.8001L10.2993 4.80464L10.0374 4.82969L10.1326 5.82515ZM10.3945 5.8001L11.2109 6.37761L11.3758 6.14446L10.5594 5.56695L9.74303 4.98945L9.5781 5.22259L10.3945 5.8001ZM10.5594 5.56695L11.5156 5.27431L11.4434 5.03826L10.4872 5.33091L9.53095 5.62356L9.60319 5.8596L10.5594 5.56695ZM10.4872 5.33091L9.87608 6.12247L9.89984 6.14081L10.5109 5.34925L11.122 4.55769L11.0983 4.53935L10.4872 5.33091ZM10.5109 5.34925L9.78703 6.03915L9.85602 6.11154L10.5799 5.42164L11.3038 4.73174L11.2348 4.65935L10.5109 5.34925ZM10.5799 5.42164L10.2447 6.36378L10.6857 6.52068L11.0209 5.57854L11.3561 4.63641L10.9152 4.4795L10.5799 5.42164ZM11.0209 5.57854L10.0585 5.85037L10.2191 6.41886L11.1815 6.14703L12.1438 5.8752L11.9832 5.30671L11.0209 5.57854ZM11.1815 6.14703L10.8209 7.07978L11.3576 7.28721L11.7181 6.35446L12.0786 5.4217L11.542 5.21428L11.1815 6.14703ZM11.7181 6.35446L11.0447 7.09374L11.4311 7.44571L12.1045 6.70643L12.7779 5.96714L12.3915 5.61517L11.7181 6.35446ZM12.1045 6.70643L11.2888 7.2849L11.5928 7.71349L12.4085 7.13502L13.2242 6.55654L12.9202 6.12796L12.1045 6.70643ZM12.4085 7.13502L11.5573 6.61011L11.4804 6.73474L12.3316 7.25965L13.1828 7.78455L13.2596 7.65992L12.4085 7.13502ZM10.5109 5.34925L11.31 5.95055L11.3701 5.87065L10.5711 5.26935L9.77204 4.66805L9.71191 4.74795L10.5109 5.34925ZM10.5711 5.26935L11.0855 6.12688L11.1855 6.06691L10.671 5.20939L10.1566 4.35186L10.0566 4.41182L10.5711 5.26935ZM10.671 5.20939L11.2247 6.04208L11.4092 5.9194L10.8555 5.0867L10.3018 4.254L10.1173 4.37669L10.671 5.20939ZM10.8555 5.0867L11.6826 4.52461L11.5058 4.26442L10.6787 4.82651L9.85161 5.3886L10.0284 5.64879L10.8555 5.0867ZM10.6787 4.82651L10.0846 5.63091L10.2296 5.73803L10.8237 4.93362L11.4178 4.12922L11.2728 4.02211L10.6787 4.82651ZM12.3316 7.25965L11.4855 7.79274L11.5389 7.87734L12.3849 7.34425L13.231 6.81116L13.1777 6.72656L12.3316 7.25965ZM12.3849 7.34425L11.6989 8.07187L12.0065 8.36185L12.6925 7.63424L13.3785 6.90662L13.0709 6.61664L12.3849 7.34425ZM12.6925 7.63424L12.1908 8.4993L12.6629 8.77305L13.1646 7.90799L13.6662 7.04293L13.1942 6.76917L12.6925 7.63424ZM13.1646 7.90799L12.3515 8.49024L12.6567 8.91627L13.4697 8.33402L14.2827 7.75177L13.9776 7.32574L13.1646 7.90799ZM13.4697 8.33402L12.6386 8.89023L12.9313 9.32753L13.7623 8.77132L14.5934 8.21511L14.3007 7.77781L13.4697 8.33402ZM13.7623 8.77132L12.8802 9.24229L13.1316 9.71309L14.0137 9.24212L14.8958 8.77114L14.6445 8.30035L13.7623 8.77132ZM14.0137 9.24212L13.4439 10.0639L13.8876 10.3715L14.4574 9.54972L15.0271 8.72791L14.5835 8.4203L14.0137 9.24212ZM14.4574 9.54972L13.6912 10.1924L14.0273 10.593L14.7935 9.95035L15.5596 9.30768L15.2235 8.90705L14.4574 9.54972ZM14.7935 9.95035L13.8835 10.365L14.1045 10.85L15.0145 10.4354L15.9244 10.0207L15.7034 9.53571L14.7935 9.95035ZM15.0145 10.4354L14.0618 10.7394L14.2261 11.2542L15.1788 10.9502L16.1314 10.6462L15.9671 10.1313L15.0145 10.4354ZM15.1788 10.9502L14.3154 11.4548L14.574 11.8972L15.4374 11.3927L16.3007 10.8881L16.0421 10.4456L15.1788 10.9502ZM15.4374 11.3927L14.8854 12.2265L15.3675 12.5456L15.9194 11.7117L16.4714 10.8778L15.9893 10.5588L15.4374 11.3927ZM15.9194 11.7117L14.9479 11.9486L15.0743 12.4673L16.0459 12.2304L17.0174 11.9935L16.891 11.4749L15.9194 11.7117ZM16.0459 12.2304L15.3876 12.9831L15.8384 13.3774L16.4967 12.6246L17.155 11.8719L16.7042 11.4776L16.0459 12.2304ZM16.4967 12.6246L15.6682 12.0646L15.3123 12.5911L16.1408 13.1511L16.9693 13.7111L17.3252 13.1846L16.4967 12.6246ZM16.1408 13.1511L17.0764 12.798L16.8667 12.2426L15.9312 12.5957L14.9956 12.9488L15.2052 13.5043L16.1408 13.1511ZM15.9312 12.5957L16.4036 11.7143L15.9192 11.4547L15.4468 12.3361L14.9744 13.2175L15.4587 13.4771L15.9312 12.5957ZM15.4468 12.3361L16.2372 11.7235L15.9171 11.3105L15.1267 11.9231L14.3363 12.5357L14.6564 12.9487L15.4468 12.3361ZM15.1267 11.9231L16.1076 11.7282L15.9984 11.1788L15.0176 11.3736L14.0367 11.5685L14.1459 12.118L15.1267 11.9231ZM15.0176 11.3736L15.7118 10.6539L15.3277 10.2834L14.6334 11.0031L13.9391 11.7228L14.3233 12.0934L15.0176 11.3736ZM14.6334 11.0031L15.4748 10.4626L15.194 10.0255L14.3526 10.5659L13.5112 11.1063L13.792 11.5435L14.6334 11.0031ZM14.3526 10.5659L14.9701 9.77929L14.5317 9.43519L13.9142 10.2218L13.2968 11.0084L13.7352 11.3525L14.3526 10.5659ZM13.9142 10.2218L14.9038 10.0779L14.8229 9.52104L13.8333 9.66491L12.8437 9.80877L12.9246 10.3657L13.9142 10.2218ZM13.8333 9.66491L14.4753 8.89824L14.0528 8.54437L13.4107 9.31103L12.7687 10.0777L13.1912 10.4316L13.8333 9.66491ZM13.4107 9.31103L14.3299 8.91725L14.1234 8.43507L13.2042 8.82885L12.285 9.22264L12.4915 9.70482L13.4107 9.31103ZM13.2042 8.82885L14.0965 8.37746L13.8611 7.91216L12.9688 8.36355L12.0765 8.81494L12.3118 9.28024L13.2042 8.82885ZM12.9688 8.36355L13.8271 7.85043L13.5606 7.40469L12.7023 7.91781L11.844 8.43093L12.1105 8.87666L12.9688 8.36355ZM12.7023 7.91781L13.6338 7.55408L13.4414 7.06133L12.5099 7.42506L11.5784 7.78878L11.7708 8.28154L12.7023 7.91781ZM12.5099 7.42506L13.19 6.69194L13.0117 6.52653L12.3316 7.25965L11.6515 7.99276L11.8298 8.15817L12.5099 7.42506ZM12.3316 7.25965L13.1707 6.71568L13.1163 6.63177L12.2772 7.17574L11.4381 7.7197L11.4925 7.80362L12.3316 7.25965ZM12.2772 7.17574L13.2624 7.00438L13.1843 6.55547L12.1991 6.72682L11.2139 6.89817L11.292 7.34709L12.2772 7.17574ZM12.1991 6.72682L12.8469 5.96498L12.4327 5.6128L11.7849 6.37463L11.1372 7.13647L11.5514 7.48866L12.1991 6.72682ZM11.7849 6.37463L12.5965 5.79044L12.2924 5.36792L11.4808 5.95211L10.6692 6.53631L10.9733 6.95883L11.7849 6.37463ZM11.4808 5.95211L12.2966 5.37378L11.9957 4.94928L11.1799 5.52761L10.3641 6.10594L10.665 6.53044L11.4808 5.95211ZM11.1799 5.52761L12.1227 5.19438L11.9443 4.68963L11.0015 5.02286L10.0586 5.35609L10.237 5.86084L11.1799 5.52761ZM11.0015 5.02286L11.4501 4.12916L11.2724 4.03992L10.8237 4.93362L10.3751 5.82733L10.5528 5.91657L11.0015 5.02286ZM10.8237 4.93362L11.6664 4.39518L11.6125 4.31091L10.7699 4.84936L9.92721 5.3878L9.98105 5.47207L10.8237 4.93362ZM10.7699 4.84936L11.5642 4.24187L11.3083 3.90728L10.514 4.51477L9.71965 5.12226L9.97554 5.45685L10.7699 4.84936ZM10.514 4.51477L11.4242 4.10059L11.2063 3.62188L10.2961 4.03605L9.38595 4.45023L9.60379 4.92895L10.514 4.51477ZM10.2961 4.03605L10.926 3.25931L10.5008 2.91461L9.87103 3.69136L9.24122 4.4681L9.66633 4.8128L10.2961 4.03605ZM9.87103 3.69136L10.8531 3.50305L10.7478 2.95356L9.76568 3.14186L8.78357 3.33016L8.88892 3.87966L9.87103 3.69136ZM9.76568 3.14186L10.4943 2.45691L10.1313 2.07084L9.40273 2.75579L8.67414 3.44074L9.03709 3.82682L9.76568 3.14186ZM9.40273 2.75579L10.3015 2.31741L10.2067 2.12305L9.30793 2.56143L8.40914 2.99981L8.50394 3.19417L9.40273 2.75579ZM10.8237 4.93362L11.7339 5.34779L11.7753 5.25677L10.8651 4.8426L9.95493 4.42844L9.91351 4.51946L10.8237 4.93362ZM10.8651 4.8426L11.8335 5.09203L11.9383 4.6854L10.9699 4.43597L10.0015 4.18654L9.89674 4.59317L10.8651 4.8426ZM10.9699 4.43597L11.8508 4.90917L12.0966 4.45159L11.2156 3.97839L10.3347 3.5052L10.0889 3.96277L10.9699 4.43597ZM11.2156 3.97839L12.2134 4.0456L12.2338 3.74283L11.236 3.67562L10.2383 3.60841L10.2179 3.91118L11.2156 3.97839ZM11.236 3.67562L10.8852 4.61204L11.0219 4.66329L11.3728 3.72687L11.7237 2.79045L11.5869 2.7392L11.236 3.67562ZM9.30793 2.56143L10.0003 1.83985L9.60745 1.46296L8.91512 2.18454L8.22279 2.90612L8.61559 3.28301L9.30793 2.56143ZM8.91512 2.18454L9.91329 2.24507L9.94968 1.64479L8.95152 1.58426L7.95335 1.52374L7.91695 2.12402L8.91512 2.18454ZM8.95152 1.58426L9.6893 0.909231L9.24375 0.422261L8.50597 1.0973L7.76818 1.77233L8.21373 2.2593L8.95152 1.58426ZM8.50597 1.0973L8.46513 2.09646L9.12962 2.12362L9.17046 1.12446L9.2113 0.125291L8.54681 0.0981293L8.50597 1.0973ZM9.17046 1.12446L8.31192 1.6372L8.56389 2.05911L9.42244 1.54637L10.281 1.03363L10.029 0.611716L9.17046 1.12446ZM9.42244 1.54637L8.4321 1.40768L8.36298 1.90128L9.35331 2.03997L10.3436 2.17866L10.4128 1.68506L9.42244 1.54637ZM9.35331 2.03997L8.3683 2.21247L8.46738 2.7782L9.45239 2.60571L10.4374 2.43321L10.3383 1.86747L9.35331 2.03997ZM9.45239 2.60571L9.74546 1.64962L9.601 1.60534L9.30793 2.56143L9.01485 3.51752L9.15931 3.5618L9.45239 2.60571Z" fill="white"/>
</svg>
