<svg width="15" height="17" viewBox="0 0 15 17" fill="none" xmlns="http://www.w3.org/2000/svg">
<path d="M6.90695 11.471C6.10969 11.8394 5.41594 12.1461 4.85215 12.3836C4.81005 12.2291 4.75697 12.0426 4.6853 11.804C4.41212 10.8944 3.86876 9.2267 2.63286 5.67764C2.16414 3.97482 1.91142 3.20318 1.97574 3.29857C2.19501 3.62377 2.56549 4.14564 3.07375 5.52833C4.16594 8.49961 5.0872 10.7136 5.0897 10.5654C5.09704 10.1301 4.53822 7.88872 3.03841 4.88767C1.94389 2.69761 1.30912 0.347193 1.00652 0.862589C0.976995 0.912874 0.972141 1.66107 1.27483 4.01799C1.50734 5.82844 2.75018 8.9268 2.85529 10.611C2.94225 12.0044 3.06586 13.3158 2.99856 14.188C2.27184 14.7284 1.89238 15.0904 2.10736 15.184C2.70168 15.4427 2.93506 15.0108 2.99856 14.188C3.51015 13.8076 4.19383 13.3386 4.96337 12.8126C5.4325 12.4919 5.93354 12.15 6.44695 11.7939C6.60328 11.6855 6.75661 11.5777 6.90695 11.471C7.32443 11.278 7.77029 11.0682 8.24074 10.8425C11.2318 9.40741 12.2429 8.11552 11.8649 8.16817C10.9571 8.29459 9.31546 9.7604 6.90695 11.471Z" fill="white"/>
<path d="M6.18036 14.6836C5.74216 15.0197 5.11442 14.937 4.77826 14.4988C4.4421 14.0606 4.52482 13.4329 4.96301 13.0967L5.57168 13.8902L6.18036 14.6836ZM5.65103 13.8293L5.04235 13.0359L5.10051 12.9913L5.16454 12.9556L5.65103 13.8293ZM6.0249 13.6211L6.91877 14.0694L6.78062 14.3449L6.51139 14.4948L6.0249 13.6211ZM6.27911 13.1143L5.38524 12.666L5.57599 12.2856L5.98231 12.1593L6.27911 13.1143ZM6.81509 12.9477L7.29664 13.8241L7.20823 13.8727L7.11188 13.9026L6.81509 12.9477ZM7.27548 12.6947L8.09588 13.2665L7.9621 13.4585L7.75704 13.5711L7.27548 12.6947ZM7.58707 12.2477L6.76667 11.6759L6.85952 11.5427L6.98975 11.4457L7.58707 12.2477ZM8.00466 11.9366L7.40734 11.1346L7.54535 11.0318L7.70978 10.9811L8.00466 11.9366ZM8.52009 11.7776L9.11959 12.5779L8.98074 12.682L8.81497 12.7331L8.52009 11.7776ZM8.932 11.469L9.69897 12.1107L9.62446 12.1998L9.53151 12.2694L8.932 11.469ZM9.30156 11.0273L8.53459 10.3856L8.88854 9.96258L9.4352 10.0363L9.30156 11.0273ZM9.92807 11.1118L10.6706 11.7816L10.3172 12.1734L9.79442 12.1028L9.92807 11.1118ZM10.2967 10.7031L9.5542 10.0333L9.67692 9.89726L9.83991 9.81356L10.2967 10.7031ZM10.7822 10.4538L11.7284 10.7774L11.5979 11.1591L11.239 11.3434L10.7822 10.4538ZM10.9716 9.89984L10.0254 9.57626L10.1224 9.29268L10.3594 9.10918L10.9716 9.89984ZM11.3849 9.57981L12.0067 10.3631L11.9972 10.3705L11.3849 9.57981ZM11.7966 9.25305L11.1749 8.46982L11.2197 8.43419L11.2684 8.40393L11.7966 9.25305ZM12.2525 8.96948L13.2443 9.09702L13.1837 9.56786L12.7806 9.8186L12.2525 8.96948ZM12.3348 8.32901L11.343 8.20147L11.4345 7.48978L12.138 7.34857L12.3348 8.32901ZM12.9657 8.20237L13.9064 8.54167L13.7152 9.07189L13.1625 9.18282L12.9657 8.20237ZM13.1564 7.67378L14.1087 7.97894L14.1032 7.99612L14.0971 8.01308L13.1564 7.67378ZM13.3323 7.12468L12.605 6.43839L14.2846 7.42984L13.3323 7.12468ZM12.9045 7.57812L13.6318 8.26441L13.2538 8.66504L12.7131 8.55965L12.9045 7.57812ZM12.2622 7.45292L11.6241 6.68296L11.9887 6.38079L12.4535 6.47139L12.2622 7.45292ZM11.8517 7.79315L12.4897 8.56311L12.4419 8.6028L12.3894 8.63624L11.8517 7.79315ZM11.412 8.07358L11.9498 8.91668L11.8804 8.96093L11.8047 8.99325L11.412 8.07358ZM10.933 8.27811L10.1211 7.69435L10.2839 7.46794L10.5403 7.35844L10.933 8.27811ZM10.5918 8.75261L11.4038 9.33637L11.1464 9.69435L10.7085 9.74578L10.5918 8.75261ZM10.0398 8.81743L9.60348 7.91767L9.75545 7.84396L9.92321 7.82426L10.0398 8.81743ZM9.57176 9.04445L8.77296 8.44285L8.91818 8.25002L9.13539 8.14468L9.57176 9.04445ZM9.22643 9.50297L10.0252 10.1046L9.70003 10.5364L9.16064 10.5008L9.22643 9.50297ZM8.61541 9.46269L7.97615 8.69369L8.28302 8.4386L8.68121 8.46485L8.61541 9.46269ZM8.2072 9.80203L7.54138 9.05592L7.55446 9.04425L7.56794 9.03304L8.2072 9.80203ZM7.80868 10.1577L8.4745 10.9038L8.26343 11.0921L7.98497 11.142L7.80868 10.1577ZM7.26881 10.2544L6.81135 9.36512L6.9448 9.29647L7.09253 9.27001L7.26881 10.2544ZM6.80593 10.4925L5.95461 9.96783L6.10076 9.73069L6.34847 9.60325L6.80593 10.4925ZM6.49331 10.9998L7.34463 11.5244L7.00484 12.0758L6.36273 11.9912L6.49331 10.9998ZM5.84935 10.9149L4.95067 10.4763L5.26635 9.8295L5.97994 9.9235L5.84935 10.9149ZM5.57359 11.48L6.47227 11.9186L6.31434 12.2422L5.98635 12.3908L5.57359 11.48ZM5.09951 11.6948L5.51226 12.6056L5.25555 12.722L4.97587 12.6871L5.09951 11.6948ZM4.5767 11.6296L3.72794 12.1584L2.61867 10.378L4.70034 10.6373L4.5767 11.6296ZM4.6853 11.804L5.63641 11.4951L5.64162 11.5111L5.64628 11.5273L4.6853 11.804ZM4.18198 11.9864L3.53798 11.2214L3.74906 11.0437L4.0214 10.9994L4.18198 11.9864ZM3.77916 12.3256L4.42316 13.0906L4.36424 13.1402L4.29841 13.1802L3.77916 12.3256ZM3.31885 12.6052L2.37094 12.9238L2.11625 12.1658L2.79959 11.7506L3.31885 12.6052ZM3.41206 12.8826L3.30388 13.8767L2.66791 13.8075L2.46414 13.2011L3.41206 12.8826ZM3.98676 12.9451L4.74534 13.5967L4.40216 13.9962L3.87858 13.9393L3.98676 12.9451ZM4.37157 12.4971L3.61299 11.8456L3.80783 11.6187L4.09522 11.5361L4.37157 12.4971ZM4.84289 12.3616L4.56654 11.4006L5.41975 11.1552L5.76444 11.9734L4.84289 12.3616ZM4.65441 11.7089L5.54049 11.2453L5.57952 11.3199L5.60553 11.4L4.65441 11.7089ZM4.45672 11.331L3.57063 11.7945L3.56807 11.7895L4.45672 11.331ZM4.21535 10.8632L3.3267 11.3218L3.28431 11.2397L3.25769 11.1511L4.21535 10.8632ZM4.066 10.3664L3.10834 10.6543L3.08239 10.568L3.0723 10.4785L4.066 10.3664ZM4.00651 9.83896L4.84819 9.29899L4.97408 9.49522L5.00021 9.72689L4.00651 9.83896ZM3.7167 9.38722L2.87502 9.92719L2.80801 9.82274L2.76856 9.70507L3.7167 9.38722ZM3.55179 8.89532L2.60366 9.21317L2.49668 8.89408L2.6044 8.57524L3.55179 8.89532ZM3.76138 8.27497L4.4205 7.52293L4.92238 7.9628L4.70877 8.59505L3.76138 8.27497ZM3.3102 7.87953L2.65108 8.63156L2.29492 8.31941L2.31076 7.84609L3.3102 7.87953ZM3.32881 7.3234L4.18954 6.81436L4.338 7.06537L4.32825 7.35684L3.32881 7.3234ZM3.05831 6.86602L2.19757 7.37507L2.18376 7.35173L2.17124 7.32767L3.05831 6.86602ZM2.81568 6.39981L1.92862 6.86145L1.91467 6.83465L1.90236 6.80706L2.81568 6.39981ZM2.60337 5.92368L1.69006 6.33093L1.65798 6.25898L1.63755 6.18289L2.60337 5.92368ZM2.46647 5.41359L1.50065 5.6728L1.44584 5.46855L1.4784 5.2596L2.46647 5.41359ZM2.55456 4.84835L3.29628 4.17763L3.61605 4.53125L3.54263 5.00233L2.55456 4.84835ZM2.16577 4.4184L1.42406 5.08912L1.26444 4.91261L1.20144 4.68312L2.16577 4.4184ZM2.02832 3.91768L1.06399 4.18239L1.05889 4.16381L1.05451 4.14505L2.02832 3.91768ZM1.90936 3.40819L0.93555 3.63557L0.512181 1.82238L2.2576 2.47079L1.90936 3.40819ZM2.324 3.56223L2.67224 2.62483L3.16115 2.80645L3.29201 3.31132L2.324 3.56223ZM2.46058 4.08914L3.42859 3.83822L3.43474 3.86192L3.43971 3.8859L2.46058 4.08914ZM2.56887 4.61079L1.87287 5.32884L1.6522 5.11494L1.58974 4.81404L2.56887 4.61079ZM2.97336 5.00287L3.66935 4.28482L3.78742 4.39927L3.86263 4.54549L2.97336 5.00287ZM3.21434 5.47141L4.10362 5.01403L4.12789 5.06123L4.14703 5.11073L3.21434 5.47141ZM3.40193 5.9565L4.33462 5.59582L4.45401 5.90456L4.36561 6.22355L3.40193 5.9565ZM3.23024 6.57608L2.40741 7.14436L2.14169 6.75962L2.26656 6.30903L3.23024 6.57608ZM3.53511 7.0175L4.35794 6.44922L4.40016 6.51036L4.43289 6.57707L3.53511 7.0175ZM3.76523 7.4866L4.66302 7.04616L4.68129 7.08341L4.69641 7.12204L3.76523 7.4866ZM3.95488 7.971L3.17234 8.5936L3.07859 8.47577L3.0237 8.33556L3.95488 7.971ZM4.29325 8.3963L5.07579 7.7737L5.36341 8.13521L5.27459 8.58856L4.29325 8.3963ZM4.17418 9.00402L3.33859 9.55337L3.11437 9.21231L3.19284 8.81176L4.17418 9.00402ZM4.46591 9.44776L3.7649 10.1609L3.68888 10.0862L3.63032 9.99711L4.46591 9.44776ZM4.86915 9.84414L5.57017 9.131L5.86311 9.41895L5.86905 9.82968L4.86915 9.84414ZM4.87731 10.4088L5.3781 11.2743L3.90207 12.1283L3.87742 10.4232L4.87731 10.4088ZM5.07915 10.292L6.06095 10.1021L6.19613 10.801L5.57993 11.1576L5.07915 10.292ZM4.97991 9.77888L5.8778 9.33866L5.93643 9.45824L5.96172 9.589L4.97991 9.77888ZM4.74751 9.30488L3.84963 9.74511L3.72711 9.49523L3.7513 9.21799L4.74751 9.30488ZM4.79639 8.74461L5.75522 8.46065L5.80909 8.64253L5.7926 8.8315L4.79639 8.74461ZM4.64734 8.24131L5.44877 7.64322L5.5555 7.78624L5.60617 7.95736L4.64734 8.24131ZM4.32185 7.80517L3.52043 8.40326L3.41859 8.26681L3.36766 8.10435L4.32185 7.80517ZM4.16585 7.3076L5.04037 6.82262L5.08965 6.91147L5.12004 7.00842L4.16585 7.3076ZM3.91177 6.84944L3.03724 7.33442L3.009 7.28349L2.98686 7.22963L3.91177 6.84944ZM3.71418 6.36877L2.78928 6.74896L2.73151 6.60844L2.71809 6.45711L3.71418 6.36877ZM3.66545 5.8193L4.587 5.43105L4.64772 5.57518L4.66154 5.73096L3.66545 5.8193ZM3.46213 5.33672L4.20355 4.66567L4.31766 4.79175L4.38369 4.94847L3.46213 5.33672ZM3.09785 4.93423L2.35643 5.60528L2.14543 5.37215L2.10582 5.06021L3.09785 4.93423ZM3.02897 4.39184L3.81575 3.77461L3.98622 3.99189L4.02101 4.26587L3.02897 4.39184ZM2.70078 3.9735L1.914 4.59073L1.90005 4.57296L1.88692 4.55457L2.70078 3.9735ZM2.39217 3.54126L1.57832 4.12233L1.41466 3.8931L1.39469 3.61216L2.39217 3.54126ZM2.3533 2.99444L3.06977 2.29681L3.32486 2.5588L3.35079 2.92354L2.3533 2.99444ZM1.96218 2.59276L1.24572 3.29039L1.13844 3.18021L1.06922 3.04289L1.96218 2.59276ZM1.72736 2.12693L0.834399 2.57706L0.765167 2.43972L0.740404 2.28792L1.72736 2.12693ZM1.64136 1.59971L2.51084 1.10575L2.59944 1.2617L2.62831 1.43872L1.64136 1.59971ZM1.38387 1.14649L2.13949 0.491476L2.2044 0.566356L2.25335 0.652519L1.38387 1.14649ZM0.957831 0.655007L-0.000354413 0.941151L1.71345 -3.77855e-06L0.957831 0.655007ZM1.14972 1.29755L2.1079 1.01141L2.17653 1.24121L2.13346 1.47715L1.14972 1.29755ZM1.05406 1.82149L0.0553911 1.76996L0.0587197 1.70545L0.0703216 1.6419L1.05406 1.82149ZM1.02698 2.34629L0.0322651 2.44894L0.0243258 2.372L0.0283109 2.29476L1.02698 2.34629ZM1.08051 2.86502L0.187218 3.31449L0.104653 3.1504L0.0857962 2.96767L1.08051 2.86502ZM1.32912 3.35911L2.22241 2.90964L2.30138 3.06659L2.32212 3.24105L1.32912 3.35911ZM1.39031 3.87383L2.38332 3.75577L2.38992 3.81131L2.39029 3.86723L1.39031 3.87383ZM1.39375 4.39474L0.39425 4.42627L0.393857 4.41381L0.393775 4.40135L1.39375 4.39474ZM1.41037 4.92163L0.626654 5.54274L0.421296 5.28362L0.410871 4.95315L1.41037 4.92163ZM1.76437 5.3683L2.54809 4.74719L2.81972 5.08993L2.75248 5.52205L1.76437 5.3683ZM1.67727 5.92809L0.790995 6.39125L0.638555 6.09955L0.68916 5.77433L1.67727 5.92809ZM1.92336 6.39899L2.80963 5.93583L2.94717 6.19901L2.91878 6.49461L1.92336 6.39899ZM1.86986 6.95595L0.955084 7.35992L0.84943 7.12067L0.874439 6.86033L1.86986 6.95595ZM2.08179 7.43587L2.99657 7.0319L3.06708 7.19158L3.07933 7.3657L2.08179 7.43587ZM2.11907 7.96583L1.41069 8.67167L1.14768 8.40771L1.12154 8.036L2.11907 7.96583ZM2.5399 8.38818L3.24828 7.68234L3.58254 8.01781L3.53481 8.48898L2.5399 8.38818ZM2.48389 8.94102L1.5627 9.33013L1.46321 9.0946L1.48898 8.84022L2.48389 8.94102ZM2.68903 9.42668L3.61022 9.03758L3.71568 9.28724L3.68064 9.55599L2.68903 9.42668ZM2.61851 9.96749L1.74806 10.4598L1.58374 10.1692L1.6269 9.83819L2.61851 9.96749ZM2.89172 10.4506L3.76217 9.95836L3.9253 10.2468L3.88388 10.5756L2.89172 10.4506ZM2.82535 10.9776L3.8175 11.1025L3.81115 11.153L3.79972 11.2025L2.82535 10.9776ZM2.70305 11.5073L1.72991 11.7375L1.67611 11.5101L1.72868 11.2824L2.70305 11.5073ZM2.8243 12.0198L2.01578 12.6083L1.89745 12.4457L1.85116 12.25L2.8243 12.0198ZM3.18772 12.5191L3.99624 11.9307L4.36136 12.4323L4.07403 12.9822L3.18772 12.5191ZM2.90839 13.0537L1.9106 13.1201L1.89194 12.8397L2.02209 12.5906L2.90839 13.0537ZM2.94276 13.5702L3.94056 13.5038L3.94355 13.5489L3.94248 13.594L2.94276 13.5702ZM2.93054 14.0853L2.0969 14.6377L1.92336 14.3757L1.93082 14.0616L2.93054 14.0853ZM4.91975 11.987L5.30729 11.0651L6.40074 11.5248L5.76281 12.5248L4.91975 11.987ZM4.72373 12.2943L3.79063 12.6539L3.60893 12.1824L3.88067 11.7565L4.72373 12.2943ZM4.7671 12.4068L5.02994 13.3716L4.15871 13.609L3.83399 12.7664L4.7671 12.4068ZM4.94354 12.343L4.53763 11.4291L4.58097 11.4099L4.62594 11.3948L4.94354 12.343ZM5.34318 12.2092L5.93609 13.0144L5.80966 13.1075L5.66078 13.1574L5.34318 12.2092ZM5.77221 11.8933L5.1793 11.088L5.25405 11.033L5.33765 10.9926L5.77221 11.8933ZM6.24014 11.6675L6.83341 12.4725L6.75851 12.5277L6.6747 12.5681L6.24014 11.6675ZM6.66716 11.3528L6.07389 10.5478L6.5636 10.1869L7.10925 10.4558L6.66716 11.3528ZM6.90695 11.471L7.49958 12.2764L7.48744 12.2854L7.47503 12.2939L6.90695 11.471ZM4.87725 12.4804L5.84525 12.2294L6.01026 12.866L5.49127 13.2697L4.87725 12.4804ZM4.70022 12.6181L4.11313 13.4276L3.03557 12.6462L4.0862 11.8288L4.70022 12.6181ZM4.89749 12.7612L5.48458 11.9517L5.4988 11.962L5.51265 11.9728L4.89749 12.7612ZM4.96337 12.8126L5.78891 12.2483L5.95243 12.4875L5.96274 12.777L4.96337 12.8126ZM6.9875 11.4117L6.39487 10.6062L6.56684 10.4797L6.77548 10.4344L6.9875 11.4117ZM7.41043 11.32L7.87576 12.2051L7.75537 12.2684L7.62246 12.2972L7.41043 11.32ZM7.87143 11.0776L7.4061 10.1925L7.45733 10.1655L7.51132 10.1447L7.87143 11.0776ZM8.35962 10.8892L8.82838 11.7725L8.77553 11.8005L8.71972 11.8221L8.35962 10.8892ZM8.82006 10.6448L9.46995 11.4048L9.38618 11.4765L9.28882 11.5281L8.82006 10.6448ZM9.22575 10.2979L8.57585 9.53788L8.78703 9.35731L9.06108 9.31155L9.22575 10.2979ZM9.77382 10.2064L10.6752 10.6394L10.4505 11.1073L9.93849 11.1928L9.77382 10.2064ZM10.0418 9.64856L9.14041 9.21555L9.3479 8.78362L9.81455 8.67472L10.0418 9.64856ZM10.5794 9.52311L11.3175 10.1978L11.1084 10.4265L10.8066 10.4969L10.5794 9.52311ZM10.9359 9.13313L10.1978 8.45844L10.2803 8.36811L10.3823 8.30036L10.9359 9.13313ZM11.3669 8.84658L12.111 9.51466L12.0262 9.60909L11.9205 9.67935L11.3669 8.84658ZM11.7093 8.46522L12.6888 8.66693L12.6342 8.93196L12.4534 9.1333L11.7093 8.46522ZM11.7852 8.09658L11.3536 7.19454L13.1711 6.32477L12.7647 8.2983L11.7852 8.09658ZM11.301 8.32831L10.7024 7.52727L10.7809 7.46859L10.8693 7.42628L11.301 8.32831ZM10.881 8.64221L10.1852 7.92395L10.2311 7.87945L10.2823 7.84117L10.881 8.64221ZM10.5033 9.00809L11.199 9.72634L11.0292 9.89088L10.8036 9.96191L10.5033 9.00809ZM9.98478 9.17136L9.31879 8.4254L9.47925 8.28214L9.68442 8.21753L9.98478 9.17136ZM9.595 9.51936L10.261 10.2653L10.0803 10.4267L9.84578 10.4874L9.595 9.51936ZM9.05091 9.66031L8.33804 8.95901L8.53217 8.76169L8.80013 8.69227L9.05091 9.66031ZM8.68174 10.0356L9.3946 10.7369L9.36092 10.7711L9.3241 10.802L8.68174 10.0356ZM8.28302 10.3698L8.92539 11.1362L8.81531 11.2284L8.68372 11.286L8.28302 10.3698ZM7.79476 10.5833L7.10051 9.86358L7.22965 9.739L7.39406 9.6671L7.79476 10.5833ZM7.4179 10.9468L8.11215 11.6666L7.99895 11.7757L7.8577 11.8449L7.4179 10.9468ZM6.94531 11.1783L5.95378 11.0483L6.02351 10.5162L6.50551 10.2802L6.94531 11.1783ZM6.82465 11.5278L7.39274 12.3508L7.29958 12.4151L7.19442 12.4569L6.82465 11.5278ZM6.42402 11.6872L5.51661 11.267L5.68406 10.9054L6.05426 10.7581L6.42402 11.6872ZM6.17034 12.2349L7.07774 12.6552L6.8638 13.1171L6.36441 13.2159L6.17034 12.2349ZM5.61469 12.3449L4.81594 11.7432L5.04582 11.438L5.42063 11.3639L5.61469 12.3449ZM5.2845 12.7832L6.08325 13.3849L5.7658 13.8063L5.23873 13.7822L5.2845 12.7832ZM4.93227 12.7671L4.10672 13.3314L2.97535 11.6764L4.97803 11.7681L4.93227 12.7671ZM4.88145 12.8699L4.07745 12.2753L4.1744 12.1442L4.30797 12.0507L4.88145 12.8699ZM4.61717 13.2273L5.42117 13.8219L5.25105 14.0519L4.98503 14.1571L4.61717 13.2273ZM4.12123 13.4235L3.47988 12.6562L3.60352 12.5528L3.75337 12.4936L4.12123 13.4235ZM3.72101 13.758L2.99826 13.0669L3.03684 13.0265L3.07966 12.9907L3.72101 13.758ZM3.35635 14.1393L4.0791 14.8305L3.97222 14.9422L3.83655 15.0165L3.35635 14.1393ZM3.07636 14.2926L3.55656 15.1698L2.79323 15.5877L2.27392 14.8894L3.07636 14.2926ZM4.96692 12.9125L5.96629 12.877L5.96869 12.9444L5.962 13.0116L4.96692 12.9125ZM4.9321 13.2622L5.92718 13.3613L5.91798 13.4536L5.89194 13.5427L4.9321 13.2622ZM4.8016 13.7086L3.95399 14.2393L3.71584 13.8589L3.84176 13.4281L4.8016 13.7086ZM4.94613 13.9395L4.91319 14.939L4.38105 14.9214L4.09853 14.4702L4.94613 13.9395ZM5.03647 12.942C5.58846 12.9602 6.02118 13.4224 6.00299 13.9744C5.98479 14.5264 5.52257 14.9591 4.97058 14.9409L5.00353 13.9414L5.03647 12.942ZM2.5665 14.4809L1.92237 13.7159L1.96227 13.6823L2.00544 13.6531L2.5665 14.4809ZM2.16449 14.8194L1.23516 15.1886L0.969005 14.5188L1.52036 14.0545L2.16449 14.8194ZM2.26354 15.0687L2.13704 16.0606L1.55198 15.986L1.33421 15.4379L2.26354 15.0687ZM2.67758 15.1215L3.56663 15.5793L3.24593 16.2021L2.55108 16.1134L2.67758 15.1215ZM2.90463 14.6806L2.01558 14.2228L2.02442 14.2056L2.03391 14.1888L2.90463 14.6806ZM3.17514 14.2016L3.25207 13.2046L4.81848 13.3255L4.04585 14.6934L3.17514 14.2016ZM5.57168 13.8902L4.96301 13.0967L5.04235 13.0359L5.65103 13.8293L6.2597 14.6227L6.18036 14.6836L5.57168 13.8902ZM5.65103 13.8293L5.16454 12.9556L5.53842 12.7474L6.0249 13.6211L6.51139 14.4948L6.13751 14.703L5.65103 13.8293ZM6.0249 13.6211L5.13103 13.1728L5.38524 12.666L6.27911 13.1143L7.17298 13.5626L6.91877 14.0694L6.0249 13.6211ZM6.27911 13.1143L5.98231 12.1593L6.51829 11.9928L6.81509 12.9477L7.11188 13.9026L6.5759 14.0692L6.27911 13.1143ZM6.81509 12.9477L6.33353 12.0713L6.79392 11.8183L7.27548 12.6947L7.75704 13.5711L7.29664 13.8241L6.81509 12.9477ZM7.27548 12.6947L6.45508 12.1229L6.76667 11.6759L7.58707 12.2477L8.40748 12.8194L8.09588 13.2665L7.27548 12.6947ZM7.58707 12.2477L6.98975 11.4457L7.40734 11.1346L8.00466 11.9366L8.60199 12.7386L8.1844 13.0497L7.58707 12.2477ZM8.00466 11.9366L7.70978 10.9811L8.22521 10.822L8.52009 11.7776L8.81497 12.7331L8.29954 12.8922L8.00466 11.9366ZM8.52009 11.7776L7.92058 10.9772L8.3325 10.6687L8.932 11.469L9.53151 12.2694L9.11959 12.5779L8.52009 11.7776ZM8.932 11.469L8.16503 10.8274L8.53459 10.3856L9.30156 11.0273L10.0685 11.669L9.69897 12.1107L8.932 11.469ZM9.30156 11.0273L9.4352 10.0363L10.0617 10.1208L9.92807 11.1118L9.79442 12.1028L9.16791 12.0184L9.30156 11.0273ZM9.92807 11.1118L9.18553 10.442L9.5542 10.0333L10.2967 10.7031L11.0393 11.3729L10.6706 11.7816L9.92807 11.1118ZM10.2967 10.7031L9.83991 9.81356L10.3254 9.56426L10.7822 10.4538L11.239 11.3434L10.7536 11.5927L10.2967 10.7031ZM10.7822 10.4538L9.83599 10.1302L10.0254 9.57626L10.9716 9.89984L11.9178 10.2234L11.7284 10.7774L10.7822 10.4538ZM10.9716 9.89984L10.3594 9.10918L10.7727 8.78915L11.3849 9.57981L11.9972 10.3705L11.5839 10.6905L10.9716 9.89984ZM11.3849 9.57981L10.7632 8.79657L11.1749 8.46982L11.7966 9.25305L12.4183 10.0363L12.0067 10.363L11.3849 9.57981ZM11.7966 9.25305L11.2684 8.40393L11.7243 8.12035L12.2525 8.96948L12.7806 9.8186L12.3248 10.1022L11.7966 9.25305ZM12.2525 8.96948L11.2606 8.84194L11.343 8.20147L12.3348 8.32901L13.3266 8.45655L13.2443 9.09702L12.2525 8.96948ZM12.3348 8.32901L12.138 7.34857L12.7689 7.22193L12.9657 8.20237L13.1625 9.18282L12.5316 9.30946L12.3348 8.32901ZM12.9657 8.20237L12.025 7.86307L12.2157 7.33448L13.1564 7.67378L14.0971 8.01308L13.9064 8.54167L12.9657 8.20237ZM13.1564 7.67378L12.2041 7.36862L12.38 6.81952L13.3323 7.12468L14.2846 7.42984L14.1087 7.97894L13.1564 7.67378ZM13.3323 7.12468L14.0597 7.81097L13.6318 8.26441L12.9045 7.57812L12.1772 6.89183L12.605 6.43839L13.3323 7.12468ZM12.9045 7.57812L12.7131 8.55965L12.0709 8.43444L12.2622 7.45292L12.4535 6.47139L13.0958 6.5966L12.9045 7.57812ZM12.2622 7.45292L12.9003 8.22288L12.4897 8.56311L11.8517 7.79315L11.2136 7.02319L11.6241 6.68296L12.2622 7.45292ZM11.8517 7.79315L12.3894 8.63624L11.9498 8.91668L11.412 8.07358L10.8742 7.23049L11.3139 6.95006L11.8517 7.79315ZM11.412 8.07358L11.8047 8.99325L11.3257 9.19778L10.933 8.27811L10.5403 7.35844L11.0193 7.15391L11.412 8.07358ZM10.933 8.27811L11.7449 8.86188L11.4038 9.33637L10.5918 8.75261L9.77992 8.16884L10.1211 7.69435L10.933 8.27811ZM10.5918 8.75261L10.7085 9.74578L10.1565 9.81061L10.0398 8.81743L9.92321 7.82426L10.4752 7.75943L10.5918 8.75261ZM10.0398 8.81743L10.4762 9.7172L10.0081 9.94422L9.57176 9.04445L9.13539 8.14468L9.60348 7.91767L10.0398 8.81743ZM9.57176 9.04445L10.3706 9.64605L10.0252 10.1046L9.22643 9.50297L8.42763 8.90138L8.77296 8.44285L9.57176 9.04445ZM9.22643 9.50297L9.16064 10.5008L8.54962 10.4605L8.61541 9.46269L8.68121 8.46485L9.29222 8.50514L9.22643 9.50297ZM8.61541 9.46269L9.25467 10.2317L8.84646 10.571L8.2072 9.80203L7.56794 9.03304L7.97615 8.69369L8.61541 9.46269ZM8.2072 9.80203L8.87302 10.5481L8.4745 10.9038L7.80868 10.1577L7.14286 9.41156L7.54138 9.05592L8.2072 9.80203ZM7.80868 10.1577L7.98497 11.142L7.4451 11.2387L7.26881 10.2544L7.09253 9.27001L7.6324 9.17333L7.80868 10.1577ZM7.26881 10.2544L7.72628 11.1436L7.2634 11.3817L6.80593 10.4925L6.34847 9.60325L6.81135 9.36512L7.26881 10.2544ZM6.80593 10.4925L7.65725 11.0171L7.34463 11.5244L6.49331 10.9998L5.64199 10.4751L5.95461 9.96783L6.80593 10.4925ZM6.49331 10.9998L6.36273 11.9912L5.71876 11.9064L5.84935 10.9149L5.97994 9.9235L6.6239 10.0083L6.49331 10.9998ZM5.84935 10.9149L6.74803 11.3535L6.47227 11.9186L5.57359 11.48L4.67491 11.0413L4.95067 10.4763L5.84935 10.9149ZM5.57359 11.48L5.98635 12.3908L5.51226 12.6056L5.09951 11.6948L4.68676 10.7839L5.16084 10.5691L5.57359 11.48ZM5.09951 11.6948L4.97587 12.6871L4.45306 12.622L4.5767 11.6296L4.70034 10.6373L5.22315 10.7025L5.09951 11.6948ZM4.5767 11.6296L5.42545 11.1009L5.53405 11.2752L4.6853 11.804L3.83654 12.3328L3.72794 12.1584L4.5767 11.6296ZM4.6853 11.804L5.64628 11.5273L5.67394 11.6234L4.71296 11.9001L3.75198 12.1767L3.72432 12.0806L4.6853 11.804ZM4.71296 11.9001L4.87354 12.8871L4.34257 12.9735L4.18198 11.9864L4.0214 10.9994L4.55238 10.913L4.71296 11.9001ZM4.18198 11.9864L4.82599 12.7515L4.42316 13.0906L3.77916 12.3256L3.13515 11.5605L3.53798 11.2214L4.18198 11.9864ZM3.77916 12.3256L4.29841 13.1802L3.83811 13.4598L3.31885 12.6052L2.79959 11.7506L3.25989 11.4709L3.77916 12.3256ZM3.31885 12.6052L4.26677 12.2867L4.35997 12.5641L3.41206 12.8826L2.46414 13.2011L2.37094 12.9238L3.31885 12.6052ZM3.41206 12.8826L3.52023 11.8885L4.09493 11.951L3.98676 12.9451L3.87858 13.9393L3.30388 13.8767L3.41206 12.8826ZM3.98676 12.9451L3.22818 12.2936L3.61299 11.8456L4.37157 12.4971L5.13014 13.1487L4.74534 13.5967L3.98676 12.9451ZM4.37157 12.4971L4.09522 11.5361L4.56654 11.4006L4.84289 12.3616L5.11923 13.3227L4.64791 13.4582L4.37157 12.4971ZM4.84289 12.3616L5.76444 11.9734L5.7737 11.9954L4.85215 12.3836L3.9306 12.7719L3.92133 12.7499L4.84289 12.3616ZM4.6853 11.804L3.73419 12.1128L3.7033 12.0177L4.65441 11.7089L5.60553 11.4L5.63641 11.4951L4.6853 11.804ZM4.65441 11.7089L3.76834 12.1724L3.57065 11.7945L4.45672 11.331L5.3428 10.8674L5.54049 11.2453L4.65441 11.7089ZM4.45672 11.331L3.56807 11.7895L3.3267 11.3218L4.21535 10.8632L5.104 10.4046L5.34537 10.8724L4.45672 11.331ZM4.21535 10.8632L3.25769 11.1511L3.10834 10.6543L4.066 10.3664L5.02366 10.0785L5.17301 10.5753L4.21535 10.8632ZM4.066 10.3664L3.0723 10.4785L3.01281 9.95103L4.00651 9.83896L5.00021 9.72689L5.0597 10.2544L4.066 10.3664ZM4.00651 9.83896L3.16483 10.3789L2.87502 9.92719L3.7167 9.38722L4.55838 8.84725L4.84819 9.29899L4.00651 9.83896ZM3.7167 9.38722L2.76856 9.70507L2.60366 9.21317L3.55179 8.89532L4.49993 8.57746L4.66484 9.06937L3.7167 9.38722ZM3.55179 8.89532L2.6044 8.57524L2.81399 7.95489L3.76138 8.27497L4.70877 8.59505L4.49919 9.2154L3.55179 8.89532ZM3.76138 8.27497L3.10226 9.027L2.65108 8.63156L3.3102 7.87953L3.96932 7.12749L4.4205 7.52293L3.76138 8.27497ZM3.3102 7.87953L2.31076 7.84609L2.32936 7.28996L3.32881 7.3234L4.32825 7.35684L4.30964 7.91297L3.3102 7.87953ZM3.32881 7.3234L2.46807 7.83245L2.19757 7.37507L3.05831 6.86602L3.91905 6.35698L4.18954 6.81436L3.32881 7.3234ZM3.05831 6.86602L2.17124 7.32767L1.92862 6.86145L2.81568 6.39981L3.70274 5.93816L3.94537 6.40438L3.05831 6.86602ZM2.81568 6.39981L1.90236 6.80706L1.69006 6.33093L2.60337 5.92368L3.51669 5.51643L3.729 5.99255L2.81568 6.39981ZM2.60337 5.92368L1.63755 6.18289L1.50065 5.6728L2.46647 5.41359L3.43229 5.15437L3.56919 5.66447L2.60337 5.92368ZM2.46647 5.41359L1.4784 5.2596L1.56649 4.69436L2.55456 4.84835L3.54263 5.00233L3.45454 5.56757L2.46647 5.41359ZM2.55456 4.84835L1.81285 5.51906L1.42406 5.08912L2.16577 4.4184L2.90748 3.74768L3.29628 4.17763L2.55456 4.84835ZM2.16577 4.4184L1.20144 4.68312L1.06399 4.18239L2.02832 3.91768L2.99264 3.65296L3.1301 4.15368L2.16577 4.4184ZM2.02832 3.91768L1.05451 4.14505L0.93555 3.63557L1.90936 3.40819L2.88316 3.18082L3.00212 3.6903L2.02832 3.91768ZM1.90936 3.40819L2.2576 2.47079L2.67224 2.62483L2.324 3.56223L1.97576 4.49964L1.56112 4.3456L1.90936 3.40819ZM2.324 3.56223L3.29201 3.31132L3.42859 3.83822L2.46058 4.08914L1.49257 4.34006L1.356 3.81315L2.324 3.56223ZM2.46058 4.08914L3.43971 3.8859L3.54799 4.40755L2.56887 4.61079L1.58974 4.81404L1.48145 4.29238L2.46058 4.08914ZM2.56887 4.61079L3.26486 3.89275L3.66935 4.28482L2.97336 5.00287L2.27736 5.72091L1.87287 5.32884L2.56887 4.61079ZM2.97336 5.00287L3.86263 4.54549L4.10362 5.01403L3.21434 5.47141L2.32507 5.92879L2.08408 5.46024L2.97336 5.00287ZM3.21434 5.47141L4.14703 5.11073L4.33462 5.59582L3.40193 5.9565L2.46924 6.31718L2.28165 5.83209L3.21434 5.47141ZM3.40193 5.9565L4.36561 6.22355L4.19392 6.84312L3.23024 6.57608L2.26656 6.30903L2.43825 5.68945L3.40193 5.9565ZM3.23024 6.57608L4.05307 6.00779L4.35794 6.44922L3.53511 7.0175L2.71227 7.58578L2.40741 7.14436L3.23024 6.57608ZM3.53511 7.0175L4.43289 6.57707L4.66302 7.04616L3.76523 7.4866L2.86745 7.92703L2.63732 7.45794L3.53511 7.0175ZM3.76523 7.4866L4.69641 7.12204L4.88606 7.60644L3.95488 7.971L3.0237 8.33556L2.83406 7.85116L3.76523 7.4866ZM3.95488 7.971L4.73743 7.34841L5.07579 7.7737L4.29325 8.3963L3.5107 9.01889L3.17234 8.5936L3.95488 7.971ZM4.29325 8.3963L5.27459 8.58856L5.15553 9.19628L4.17418 9.00402L3.19284 8.81176L3.3119 8.20404L4.29325 8.3963ZM4.17418 9.00402L5.00978 8.45467L5.30151 8.89841L4.46591 9.44776L3.63032 9.99711L3.33859 9.55337L4.17418 9.00402ZM4.46591 9.44776L5.16693 8.73461L5.57017 9.131L4.86915 9.84414L4.16813 10.5573L3.7649 10.1609L4.46591 9.44776ZM4.86915 9.84414L5.86905 9.82968L5.87721 10.3943L4.87731 10.4088L3.87742 10.4232L3.86926 9.8586L4.86915 9.84414ZM4.87731 10.4088L4.37653 9.54318L4.57836 9.42641L5.07915 10.292L5.57993 11.1576L5.3781 11.2743L4.87731 10.4088ZM5.07915 10.292L4.09734 10.4819L3.99811 9.96877L4.97991 9.77888L5.96172 9.589L6.06095 10.1021L5.07915 10.292ZM4.97991 9.77888L4.08202 10.2191L3.84963 9.74511L4.74751 9.30488L5.6454 8.86466L5.8778 9.33866L4.97991 9.77888ZM4.74751 9.30488L3.7513 9.21799L3.80017 8.65771L4.79639 8.74461L5.7926 8.8315L5.74373 9.39178L4.74751 9.30488ZM4.79639 8.74461L3.83755 9.02856L3.6885 8.52526L4.64734 8.24131L5.60617 7.95736L5.75522 8.46065L4.79639 8.74461ZM4.64734 8.24131L3.84591 8.8394L3.52043 8.40326L4.32185 7.80517L5.12328 7.20708L5.44877 7.64322L4.64734 8.24131ZM4.32185 7.80517L3.36766 8.10435L3.21165 7.60678L4.16585 7.3076L5.12004 7.00842L5.27605 7.50599L4.32185 7.80517ZM4.16585 7.3076L3.29132 7.79258L3.03724 7.33442L3.91177 6.84944L4.78629 6.36446L5.04037 6.82262L4.16585 7.3076ZM3.91177 6.84944L2.98686 7.22963L2.78928 6.74896L3.71418 6.36877L4.63909 5.98858L4.83667 6.46925L3.91177 6.84944ZM3.71418 6.36877L2.71809 6.45711L2.66936 5.90765L3.66545 5.8193L4.66154 5.73096L4.71027 6.28042L3.71418 6.36877ZM3.66545 5.8193L2.7439 6.20756L2.54058 5.72497L3.46213 5.33672L4.38369 4.94847L4.587 5.43105L3.66545 5.8193ZM3.46213 5.33672L2.72072 6.00777L2.35643 5.60528L3.09785 4.93423L3.83926 4.26319L4.20355 4.66567L3.46213 5.33672ZM3.09785 4.93423L2.10582 5.06021L2.03694 4.51781L3.02897 4.39184L4.02101 4.26587L4.08988 4.80826L3.09785 4.93423ZM3.02897 4.39184L2.24219 5.00908L1.914 4.59073L2.70078 3.9735L3.48756 3.35626L3.81575 3.77461L3.02897 4.39184ZM2.70078 3.9735L1.88692 4.55457L1.57832 4.12233L2.39217 3.54126L3.20603 2.96019L3.51463 3.39243L2.70078 3.9735ZM2.39217 3.54126L1.39469 3.61216L1.35582 3.06534L2.3533 2.99444L3.35079 2.92354L3.38966 3.47036L2.39217 3.54126ZM2.3533 2.99444L1.63684 3.69207L1.24572 3.29039L1.96218 2.59276L2.67864 1.89513L3.06977 2.29681L2.3533 2.99444ZM1.96218 2.59276L1.06922 3.04289L0.834399 2.57706L1.72736 2.12693L2.62032 1.67679L2.85514 2.14262L1.96218 2.59276ZM1.72736 2.12693L0.740404 2.28792L0.654403 1.76071L1.64136 1.59971L2.62831 1.43872L2.71431 1.96593L1.72736 2.12693ZM1.64136 1.59971L0.771877 2.09368L0.514392 1.64045L1.38387 1.14649L2.25335 0.652519L2.51084 1.10575L1.64136 1.59971ZM1.38387 1.14649L0.628252 1.8015L0.202212 1.31002L0.957831 0.655007L1.71345 -3.77855e-06L2.13949 0.491476L1.38387 1.14649ZM0.957831 0.655007L1.91602 0.368862L2.1079 1.01141L1.14972 1.29755L0.19153 1.5837L-0.000354413 0.941151L0.957831 0.655007ZM1.14972 1.29755L2.13346 1.47715L2.0378 2.00109L1.05406 1.82149L0.0703216 1.6419L0.165975 1.11796L1.14972 1.29755ZM1.05406 1.82149L2.05273 1.87303L2.02565 2.39782L1.02698 2.34629L0.0283109 2.29476L0.0553911 1.76996L1.05406 1.82149ZM1.02698 2.34629L2.0217 2.24364L2.07523 2.76237L1.08051 2.86502L0.0857962 2.96767L0.0322651 2.44894L1.02698 2.34629ZM1.08051 2.86502L1.97381 2.41555L2.22241 2.90964L1.32912 3.35911L0.435822 3.80858L0.187218 3.31449L1.08051 2.86502ZM1.32912 3.35911L2.32212 3.24105L2.38332 3.75577L1.39031 3.87383L0.397308 3.99189L0.336112 3.47717L1.32912 3.35911ZM1.39031 3.87383L2.39029 3.86723L2.39373 4.38814L1.39375 4.39474L0.393775 4.40135L0.390336 3.88043L1.39031 3.87383ZM1.39375 4.39474L2.39326 4.36321L2.40988 4.8901L1.41037 4.92163L0.410871 4.95315L0.39425 4.42627L1.39375 4.39474ZM1.41037 4.92163L2.19409 4.30051L2.54809 4.74719L1.76437 5.3683L0.980654 5.98941L0.626654 5.54274L1.41037 4.92163ZM1.76437 5.3683L2.75248 5.52205L2.66538 6.08184L1.67727 5.92809L0.68916 5.77433L0.776264 5.21455L1.76437 5.3683ZM1.67727 5.92809L2.56354 5.46493L2.80963 5.93583L1.92336 6.39899L1.03708 6.86215L0.790995 6.39125L1.67727 5.92809ZM1.92336 6.39899L2.91878 6.49461L2.86527 7.05157L1.86986 6.95595L0.874439 6.86033L0.927941 6.30337L1.92336 6.39899ZM1.86986 6.95595L2.78463 6.55198L2.99657 7.0319L2.08179 7.43587L1.16702 7.83984L0.955084 7.35992L1.86986 6.95595ZM2.08179 7.43587L3.07933 7.3657L3.11661 7.89567L2.11907 7.96583L1.12154 8.036L1.08426 7.50603L2.08179 7.43587ZM2.11907 7.96583L2.82745 7.26L3.24828 7.68234L2.5399 8.38818L1.83152 9.09401L1.41069 8.67167L2.11907 7.96583ZM2.5399 8.38818L3.53481 8.48898L3.4788 9.04182L2.48389 8.94102L1.48898 8.84022L1.54499 8.28738L2.5399 8.38818ZM2.48389 8.94102L3.40508 8.55191L3.61022 9.03758L2.68903 9.42668L1.76784 9.81579L1.5627 9.33013L2.48389 8.94102ZM2.68903 9.42668L3.68064 9.55599L3.61011 10.0968L2.61851 9.96749L1.6269 9.83819L1.69743 9.29737L2.68903 9.42668ZM2.61851 9.96749L3.48896 9.47524L3.76217 9.95836L2.89172 10.4506L2.02127 10.9429L1.74806 10.4598L2.61851 9.96749ZM2.89172 10.4506L3.88388 10.5756L3.8175 11.1025L2.82535 10.9776L1.83319 10.8526L1.89956 10.3256L2.89172 10.4506ZM2.82535 10.9776L3.79972 11.2025L3.67743 11.7322L2.70305 11.5073L1.72868 11.2824L1.85097 10.7526L2.82535 10.9776ZM2.70305 11.5073L3.67619 11.2771L3.79744 11.7896L2.8243 12.0198L1.85116 12.25L1.72991 11.7375L2.70305 11.5073ZM2.8243 12.0198L3.63282 11.4313L3.99624 11.9307L3.18772 12.5191L2.3792 13.1076L2.01578 12.6083L2.8243 12.0198ZM3.18772 12.5191L4.07403 12.9822L3.7947 13.5168L2.90839 13.0537L2.02209 12.5906L2.30141 12.056L3.18772 12.5191ZM2.90839 13.0537L3.90619 12.9873L3.94056 13.5038L2.94276 13.5702L1.94497 13.6366L1.9106 13.1201L2.90839 13.0537ZM2.94276 13.5702L3.94248 13.594L3.93026 14.1091L2.93054 14.0853L1.93082 14.0616L1.94304 13.5465L2.94276 13.5702ZM2.93054 14.0853L3.76417 13.533L3.83219 13.6357L2.99856 14.188L2.16492 14.7403L2.0969 14.6377L2.93054 14.0853ZM4.6853 11.804L5.64628 11.5273L5.67394 11.6234L4.71296 11.9001L3.75198 12.1767L3.72432 12.0806L4.6853 11.804ZM4.71296 11.9001L5.1005 10.9782L5.30729 11.0651L4.91975 11.987L4.53221 12.9088L4.32542 12.8219L4.71296 11.9001ZM4.91975 11.987L5.76281 12.5248L5.5668 12.8321L4.72373 12.2943L3.88067 11.7565L4.07669 11.4492L4.91975 11.987ZM4.72373 12.2943L5.65684 11.9347L5.7002 12.0472L4.7671 12.4068L3.83399 12.7664L3.79063 12.6539L4.72373 12.2943ZM4.7671 12.4068L4.50425 11.4419L4.5893 11.4188L4.85215 12.3836L5.115 13.3484L5.02994 13.3716L4.7671 12.4068ZM4.85215 12.3836L4.44624 11.4697L4.53763 11.4291L4.94354 12.343L5.34946 13.2569L5.25806 13.2975L4.85215 12.3836ZM4.94354 12.343L4.62594 11.3948L5.02558 11.2609L5.34318 12.2092L5.66078 13.1574L5.26115 13.2912L4.94354 12.343ZM5.34318 12.2092L4.75027 11.4039L5.1793 11.088L5.77221 11.8933L6.36513 12.6985L5.93609 13.0144L5.34318 12.2092ZM5.77221 11.8933L5.33765 10.9926L5.80558 10.7668L6.24014 11.6675L6.6747 12.5681L6.20678 12.7939L5.77221 11.8933ZM6.24014 11.6675L5.64687 10.8625L6.07389 10.5478L6.66716 11.3528L7.26043 12.1578L6.83341 12.4725L6.24014 11.6675ZM6.66716 11.3528L7.10925 10.4558L7.34904 10.574L6.90695 11.471L6.46486 12.3679L6.22507 12.2498L6.66716 11.3528ZM4.85215 12.3836L5.82015 12.1326L5.84525 12.2294L4.87725 12.4804L3.90925 12.7314L3.88415 12.6346L4.85215 12.3836ZM4.87725 12.4804L5.49127 13.2697L5.31424 13.4074L4.70022 12.6181L4.0862 11.8288L4.26323 11.6911L4.87725 12.4804ZM4.70022 12.6181L5.28732 11.8086L5.48458 11.9517L4.89749 12.7612L4.31039 13.5707L4.11313 13.4276L4.70022 12.6181ZM4.89749 12.7612L5.51265 11.9728L5.57853 12.0242L4.96337 12.8126L4.34821 13.601L4.28233 13.5496L4.89749 12.7612ZM6.90695 11.471L6.31432 10.6655L6.39487 10.6062L6.9875 11.4117L7.58013 12.2172L7.49958 12.2764L6.90695 11.471ZM6.9875 11.4117L6.77548 10.4344L7.19841 10.3427L7.41043 11.32L7.62246 12.2972L7.19952 12.389L6.9875 11.4117ZM7.41043 11.32L6.9451 10.4348L7.4061 10.1925L7.87143 11.0776L8.33676 11.9627L7.87576 12.2051L7.41043 11.32ZM7.87143 11.0776L7.51132 10.1447L7.99951 9.95624L8.35962 10.8892L8.71972 11.8221L8.23154 12.0105L7.87143 11.0776ZM8.35962 10.8892L7.89085 10.0058L8.3513 9.76148L8.82006 10.6448L9.28882 11.5281L8.82838 11.7725L8.35962 10.8892ZM8.82006 10.6448L8.17017 9.88478L8.57585 9.53788L9.22575 10.2979L9.87564 11.0579L9.46995 11.4048L8.82006 10.6448ZM9.22575 10.2979L9.06108 9.31155L9.60915 9.22005L9.77382 10.2064L9.93849 11.1928L9.39042 11.2843L9.22575 10.2979ZM9.77382 10.2064L8.87243 9.77339L9.14041 9.21555L10.0418 9.64856L10.9432 10.0816L10.6752 10.6394L9.77382 10.2064ZM10.0418 9.64856L9.81455 8.67472L10.3521 8.54927L10.5794 9.52311L10.8066 10.4969L10.269 10.6224L10.0418 9.64856ZM10.5794 9.52311L9.84129 8.84842L10.1978 8.45844L10.9359 9.13313L11.674 9.80783L11.3175 10.1978L10.5794 9.52311ZM10.9359 9.13313L10.3823 8.30036L10.8133 8.01381L11.3669 8.84658L11.9205 9.67935L11.4895 9.96591L10.9359 9.13313ZM11.3669 8.84658L10.6228 8.1785L10.9652 7.79713L11.7093 8.46522L12.4534 9.1333L12.111 9.51466L11.3669 8.84658ZM11.7093 8.46522L10.7299 8.2635L10.8058 7.89486L11.7852 8.09658L12.7647 8.2983L12.6888 8.66693L11.7093 8.46522ZM11.7852 8.09658L12.2169 8.99861L11.7327 9.23035L11.301 8.32831L10.8693 7.42628L11.3536 7.19454L11.7852 8.09658ZM11.301 8.32831L11.8996 9.12935L11.4796 9.44324L10.881 8.64221L10.2823 7.84117L10.7024 7.52727L11.301 8.32831ZM10.881 8.64221L11.5767 9.36046L11.199 9.72634L10.5033 9.00809L9.80748 8.28983L10.1852 7.92395L10.881 8.64221ZM10.5033 9.00809L10.8036 9.96191L10.2851 10.1252L9.98478 9.17136L9.68442 8.21753L10.2029 8.05426L10.5033 9.00809ZM9.98478 9.17136L10.6508 9.91731L10.261 10.2653L9.595 9.51936L8.929 8.7734L9.31879 8.4254L9.98478 9.17136ZM9.595 9.51936L9.84578 10.4874L9.30169 10.6284L9.05091 9.66031L8.80013 8.69227L9.34422 8.55132L9.595 9.51936ZM9.05091 9.66031L9.76378 10.3616L9.3946 10.7369L8.68174 10.0356L7.96887 9.33428L8.33804 8.95901L9.05091 9.66031ZM8.68174 10.0356L9.3241 10.802L8.92539 11.1362L8.28302 10.3698L7.64065 9.60337L8.03937 9.26918L8.68174 10.0356ZM8.28302 10.3698L8.68372 11.286L8.19546 11.4995L7.79476 10.5833L7.39406 9.6671L7.88231 9.45356L8.28302 10.3698ZM7.79476 10.5833L8.48901 11.303L8.11215 11.6666L7.4179 10.9468L6.72365 10.2271L7.10051 9.86358L7.79476 10.5833ZM7.4179 10.9468L7.8577 11.8449L7.38511 12.0764L6.94531 11.1783L6.50551 10.2802L6.9781 10.0487L7.4179 10.9468ZM6.94531 11.1783L7.93683 11.3082L7.89848 11.6009L6.90695 11.471L5.91543 11.3411L5.95378 11.0483L6.94531 11.1783ZM6.90695 11.471L7.47503 12.2939L7.39274 12.3508L6.82465 11.5278L6.25657 10.7048L6.33887 10.648L6.90695 11.471ZM6.82465 11.5278L7.19442 12.4569L6.79378 12.6163L6.42402 11.6872L6.05426 10.7581L6.45489 10.5987L6.82465 11.5278ZM6.42402 11.6872L7.33142 12.1075L7.07774 12.6552L6.17034 12.2349L5.26294 11.8147L5.51661 11.267L6.42402 11.6872ZM6.17034 12.2349L6.36441 13.2159L5.80876 13.3259L5.61469 12.3449L5.42063 11.3639L5.97627 11.254L6.17034 12.2349ZM5.61469 12.3449L6.41345 12.9465L6.08325 13.3849L5.2845 12.7832L4.48574 12.1816L4.81594 11.7432L5.61469 12.3449ZM5.2845 12.7832L5.23873 13.7822L4.8865 13.766L4.93227 12.7671L4.97803 11.7681L5.33026 11.7843L5.2845 12.7832ZM4.93227 12.7671L5.75781 12.2028L5.78891 12.2483L4.96337 12.8126L4.13782 13.3769L4.10672 13.3314L4.93227 12.7671ZM4.96337 12.8126L5.53684 13.6318L5.45492 13.6892L4.88145 12.8699L4.30797 12.0507L4.38989 11.9934L4.96337 12.8126ZM4.88145 12.8699L5.68544 13.4646L5.42117 13.8219L4.61717 13.2273L3.81318 12.6326L4.07745 12.2753L4.88145 12.8699ZM4.61717 13.2273L4.98503 14.1571L4.48909 14.3533L4.12123 13.4235L3.75337 12.4936L4.24932 12.2974L4.61717 13.2273ZM4.12123 13.4235L4.76258 14.1907L4.36236 14.5252L3.72101 13.758L3.07966 12.9907L3.47988 12.6562L4.12123 13.4235ZM3.72101 13.758L4.44376 14.4491L4.0791 14.8305L3.35635 14.1393L2.6336 13.4482L2.99826 13.0669L3.72101 13.758ZM3.35635 14.1393L3.83655 15.0165L3.55656 15.1698L3.07636 14.2926L2.59616 13.4155L2.87615 13.2622L3.35635 14.1393ZM3.07636 14.2926L2.27392 14.8894L2.19612 14.7847L2.99856 14.188L3.80099 13.5913L3.8788 13.6959L3.07636 14.2926ZM4.96337 12.8126L5.96274 12.777L5.96629 12.877L4.96692 12.9125L3.96756 12.9481L3.964 12.8481L4.96337 12.8126ZM4.96692 12.9125L5.962 13.0116L5.92718 13.3613L4.9321 13.2622L3.93703 13.1631L3.97185 12.8134L4.96692 12.9125ZM4.9321 13.2622L5.89194 13.5427L5.76143 13.9892L4.8016 13.7086L3.84176 13.4281L3.97227 12.9816L4.9321 13.2622ZM4.8016 13.7086L5.6492 13.178L5.79374 13.4089L4.94613 13.9395L4.09853 14.4702L3.95399 14.2393L4.8016 13.7086ZM4.94613 13.9395L4.97908 12.9401L5.03647 12.942L5.00353 13.9414L4.97058 14.9409L4.91319 14.939L4.94613 13.9395ZM2.99856 14.188L3.55962 15.0158L3.12756 15.3086L2.5665 14.4809L2.00544 13.6531L2.4375 13.3602L2.99856 14.188ZM2.5665 14.4809L3.21063 15.2458L2.80862 15.5843L2.16449 14.8194L1.52036 14.0545L1.92237 13.7159L2.5665 14.4809ZM2.16449 14.8194L3.09382 14.4501L3.19287 14.6994L2.26354 15.0687L1.33421 15.4379L1.23516 15.1886L2.16449 14.8194ZM2.26354 15.0687L2.39004 14.0767L2.80408 14.1295L2.67758 15.1215L2.55108 16.1134L2.13704 16.0606L2.26354 15.0687ZM2.67758 15.1215L1.78853 14.6637L2.01558 14.2228L2.90463 14.6806L3.79367 15.1384L3.56663 15.5793L2.67758 15.1215ZM2.90463 14.6806L2.03391 14.1888L2.30442 13.7098L3.17514 14.2016L4.04585 14.6934L3.77534 15.1724L2.90463 14.6806ZM3.17514 14.2016L3.0982 15.1987L2.92162 15.185L2.99856 14.188L3.0755 13.191L3.25207 13.2046L3.17514 14.2016Z" fill="white"/>
</svg>
