<svg width="69" height="58" viewBox="0 0 69 58" fill="none" xmlns="http://www.w3.org/2000/svg">
<path d="M66.8383 57.3157C67.3682 57.4711 67.9238 57.1674 68.0792 56.6374C68.2346 56.1075 67.9309 55.5519 67.4009 55.3965L67.1196 56.3561L66.8383 57.3157ZM67.0236 56.328L66.7108 57.2778L66.7265 57.283L66.7423 57.2876L67.0236 56.328ZM66.624 56.1964L65.909 56.8956L66.0796 57.0699L66.3112 57.1462L66.624 56.1964ZM66.2268 55.7902L66.9418 55.0911L66.6312 54.7734L66.1873 54.791L66.2268 55.7902ZM65.666 55.8124L65.5188 56.8015L65.6117 56.8153L65.7055 56.8116L65.666 55.8124ZM65.1494 55.7355L64.5788 56.5567L64.7709 56.6902L65.0022 56.7246L65.1494 55.7355ZM64.7014 55.4242L65.2721 54.603L65.1432 54.5134L64.9931 54.4677L64.7014 55.4242ZM64.2059 55.2731L64.4976 54.3166L64.3459 54.2703L64.1873 54.2733L64.2059 55.2731ZM63.6644 55.2832L63.2955 56.2127L63.4823 56.2868L63.6831 56.283L63.6644 55.2832ZM63.1788 55.0905L62.5276 55.8494L62.6545 55.9583L62.8099 56.02L63.1788 55.0905ZM62.7395 54.7135L63.3908 53.9546L62.9468 53.5737L62.3972 53.7739L62.7395 54.7135ZM62.1487 54.9287L61.7073 55.826L62.0901 56.0144L62.491 55.8683L62.1487 54.9287ZM61.6701 54.6933L62.1116 53.796L61.8906 53.6873L61.6444 53.6936L61.6701 54.6933ZM61.1287 54.7072L60.4811 55.4692L60.7723 55.7167L61.1544 55.7069L61.1287 54.7072ZM60.6885 54.3331L61.3361 53.5712L61.096 53.367L60.7822 53.3375L60.6885 54.3331ZM60.1669 54.2841L60.0729 55.2796L60.0732 55.2797L60.1669 54.2841ZM59.6395 54.2343L59.7335 53.2387L59.6706 53.2328L59.6075 53.2348L59.6395 54.2343ZM59.1083 54.2513L58.3568 54.911L58.6683 55.2659L59.1403 55.2508L59.1083 54.2513ZM58.683 53.7668L59.4345 53.1071L58.9535 52.5591L58.2846 52.8496L58.683 53.7668ZM58.0921 54.0235L57.537 54.8553L57.9905 55.1579L58.4904 54.9407L58.0921 54.0235ZM57.6308 53.7157L58.1858 52.8839L57.9311 52.714L57.6249 52.7157L57.6308 53.7157ZM57.0924 53.7189L56.411 54.4509L56.7015 54.7212L57.0982 54.7189L57.0924 53.7189ZM56.654 53.3108L57.3353 52.5789L56.8397 52.1175L56.2273 52.4065L56.654 53.3108ZM56.056 53.593L55.647 54.5055L56.0667 54.6937L56.4827 54.4974L56.056 53.593ZM55.5773 53.3784L55.9864 52.4659L55.927 52.4393L55.8647 52.4206L55.5773 53.3784ZM55.0716 53.2267L55.359 52.2688L55.2827 52.246L55.2038 52.2354L55.0716 53.2267ZM54.561 53.1586L53.938 53.9408L54.1545 54.1132L54.4288 54.1498L54.561 53.1586ZM54.1012 52.7923L54.7242 52.0102L54.3766 51.7332L53.938 51.8057L54.1012 52.7923ZM53.5548 52.8827L53.3896 53.869L53.5538 53.8965L53.718 53.8693L53.5548 52.8827ZM53.0421 52.7969L52.4517 53.604L52.6431 53.744L52.877 53.7831L53.0421 52.7969ZM52.5759 52.4559L53.1663 51.6487L52.7267 51.3272L52.2181 51.5221L52.5759 52.4559ZM52.0083 52.6734L51.6268 53.5978L51.9946 53.7495L52.3661 53.6072L52.0083 52.6734ZM51.512 52.4686L51.0982 53.379L51.1143 53.3863L51.1306 53.393L51.512 52.4686ZM51.0303 52.2497L51.4441 51.3393L51.1834 51.2208L50.8994 51.2583L51.0303 52.2497ZM50.4868 52.3214L50.3249 53.3083L50.471 53.3322L50.6177 53.3128L50.4868 52.3214ZM49.968 52.2363L49.319 52.9972L49.531 53.178L49.8061 53.2232L49.968 52.2363ZM49.5189 51.8533L50.1679 51.0925L49.6706 50.6683L49.0826 50.9535L49.5189 51.8533ZM48.9324 52.1377L48.228 52.8476L48.731 53.3468L49.3687 53.0375L48.9324 52.1377ZM48.4824 51.6913L49.1868 50.9815L48.9325 50.7291L48.5758 50.6957L48.4824 51.6913ZM47.9638 51.6427L48.0571 50.6471L47.833 50.626L47.6215 50.7031L47.9638 51.6427ZM47.3857 51.8533L47.1474 52.8245L47.4425 52.8969L47.728 52.7929L47.3857 51.8533ZM46.8781 51.7288L46.1737 52.4386L46.3705 52.634L46.6398 52.7L46.8781 51.7288ZM46.4465 51.3005L47.1509 50.5907L46.8672 50.3092L46.4677 50.3007L46.4465 51.3005ZM45.9133 51.2892L45.6758 52.2606L45.7824 52.2867L45.8922 52.289L45.9133 51.2892ZM45.408 51.1656L45.0321 52.0923L45.0996 52.1197L45.1704 52.137L45.408 51.1656ZM44.9232 50.969L45.299 50.0423L45.2921 50.0395L45.2851 50.0368L44.9232 50.969ZM44.4372 50.7803L44.0173 51.6879L44.0459 51.7011L44.0753 51.7125L44.4372 50.7803ZM43.9618 50.5604L44.3817 49.6528L44.0843 49.5152L43.763 49.5803L43.9618 50.5604ZM43.3799 50.6784L42.8887 51.5494L43.2134 51.7325L43.5787 51.6584L43.3799 50.6784ZM42.9172 50.4174L43.4085 49.5464L43.18 49.4175L42.9176 49.4174L42.9172 50.4174ZM42.3679 50.4171L41.6683 51.1317L41.9597 51.417L42.3674 51.4171L42.3679 50.4171ZM41.9561 50.014L42.6556 49.2994L42.4535 49.1015L42.1775 49.0389L41.9561 50.014ZM41.4457 49.8981L41.1113 50.8406L41.1668 50.8603L41.2243 50.8733L41.4457 49.8981ZM40.9555 49.7242L41.2899 48.7818L41.2026 48.7508L41.1111 48.7364L40.9555 49.7242ZM40.4308 49.6415L40.0006 50.5443L40.1317 50.6068L40.2752 50.6294L40.4308 49.6415ZM39.9592 49.4168L39.5183 50.3144L39.529 50.3195L39.9592 49.4168ZM39.4905 49.1865L39.9313 48.289L39.9183 48.2826L39.9052 48.2766L39.4905 49.1865ZM39.0166 48.9706L39.4313 48.0606L39.347 48.0222L39.257 47.9999L39.0166 48.9706ZM38.5064 48.8442L38.2517 49.8112L38.2588 49.8131L38.2659 49.8148L38.5064 48.8442ZM37.9982 48.7104L37.5852 49.6211L37.662 49.6559L37.7436 49.6774L37.9982 48.7104ZM37.5236 48.4952L37.0616 49.3821L37.0858 49.3947L37.1106 49.4059L37.5236 48.4952ZM37.0604 48.2539L36.3061 48.9105L36.4305 49.0533L36.5985 49.1408L37.0604 48.2539ZM36.6823 47.8195L37.4366 47.1629L37.255 46.9544L36.9921 46.8687L36.6823 47.8195ZM36.186 47.6577L36.4958 46.7069L36.3529 46.6604L36.2026 46.6579L36.186 47.6577ZM35.6206 47.6484L35.2147 48.5623L35.4006 48.6448L35.604 48.6482L35.6206 47.6484ZM35.1447 47.4371L34.4894 48.1924L34.6023 48.2903L34.7389 48.351L35.1447 47.4371ZM34.7352 47.0818L35.3905 46.3264L35.3314 46.2751L35.265 46.2337L34.7352 47.0818ZM34.2909 46.8043L34.8207 45.9561L34.7998 45.943L34.7782 45.931L34.2909 46.8043ZM33.836 46.5504L33.3402 47.4189L33.3488 47.4237L33.836 46.5504ZM33.3816 46.2909L33.8774 45.4225L33.7834 45.3688L33.6801 45.3365L33.3816 46.2909ZM32.8821 46.1347L32.3968 47.009L32.4861 47.0586L32.5836 47.0891L32.8821 46.1347ZM32.4257 45.8813L31.8319 46.6859L31.8839 46.7243L31.9404 46.7557L32.4257 45.8813ZM32.0034 45.5696L32.5972 44.765L32.3376 44.5735L32.0151 44.5697L32.0034 45.5696ZM31.4237 45.5628L31.1975 46.5369L31.3033 46.5615L31.412 46.5628L31.4237 45.5628ZM30.902 45.4417L30.2881 46.2311L30.4617 46.366L30.6758 46.4158L30.902 45.4417ZM30.4846 45.117L31.0985 44.3277L31.0458 44.2867L30.988 44.253L30.4846 45.117ZM30.033 44.854L30.5365 43.9899L30.4916 43.9638L30.4443 43.9425L30.033 44.854ZM29.5591 44.6401L29.1012 45.5291L29.1242 45.541L29.1478 45.5516L29.5591 44.6401ZM29.096 44.4016L28.3105 45.0204L28.4449 45.1911L28.6381 45.2906L29.096 44.4016ZM28.7455 43.9566L29.5311 43.3378L29.2882 43.0295L28.9005 42.9687L28.7455 43.9566ZM28.2001 43.8711L27.6389 44.6987L27.8241 44.8243L28.0452 44.859L28.2001 43.8711ZM27.7682 43.5781L28.3295 42.7505L28.2865 42.7213L28.2406 42.6967L27.7682 43.5781ZM27.3084 43.3317L26.7557 44.1651L26.7948 44.191L26.8361 44.2131L27.3084 43.3317ZM26.8747 43.0441L26.1461 43.729L26.2254 43.8134L26.322 43.8774L26.8747 43.0441ZM26.506 42.6518L27.2346 41.9669L26.9094 41.6209L26.4357 41.6542L26.506 42.6518ZM25.8688 42.6966L24.9327 43.0483L25.195 43.7466L25.939 43.6942L25.8688 42.6966ZM25.6372 42.0802L26.5734 41.7286L26.4479 41.3946L26.1393 41.2154L25.6372 42.0802ZM25.1888 41.8199L25.6908 40.9551L25.5655 40.8823L25.4247 40.8481L25.1888 41.8199ZM24.6558 41.6905L24.3536 42.6437L24.3864 42.6541L24.4198 42.6623L24.6558 41.6905ZM24.1414 41.5275L23.5824 42.3566L23.7019 42.4372L23.8393 42.4807L24.1414 41.5275ZM23.7081 41.2353L24.2671 40.4062L24.2512 40.3954L24.2348 40.3853L23.7081 41.2353ZM23.2636 40.9599L22.3325 41.3246L22.4539 41.6346L22.7368 41.8099L23.2636 40.9599ZM23.0358 40.3784L23.9669 40.0136L23.8081 39.6082L23.4031 39.4483L23.0358 40.3784ZM22.5381 40.1818L21.8267 40.8847L21.9748 41.0345L22.1708 41.1119L22.5381 40.1818ZM22.1687 39.808L22.88 39.1051L22.7504 38.974L22.5826 38.8977L22.1687 39.808ZM21.6844 39.5877L20.9962 40.3133L21.1178 40.4286L21.2704 40.498L21.6844 39.5877ZM21.3055 39.2284L21.9937 38.5029L21.8037 38.3226L21.5497 38.2587L21.3055 39.2284ZM20.7511 39.0888L19.7846 39.3457L19.9359 39.9148L20.5069 40.0586L20.7511 39.0888ZM20.5865 38.4697L21.5529 38.2128L21.3952 37.6194L20.7946 37.4916L20.5865 38.4697ZM20.0114 38.3473L19.226 38.9663L19.4498 39.2502L19.8033 39.3254L20.0114 38.3473ZM19.6837 37.9315L20.4691 37.3125L20.4359 37.2703L20.3984 37.232L19.6837 37.9315ZM19.3188 37.5587L20.0335 36.8592L19.868 36.6901L19.6443 36.6131L19.3188 37.5587ZM18.7801 37.3732L17.8845 37.8181L18.0669 38.1853L18.4546 38.3188L18.7801 37.3732ZM18.5341 36.8779L19.4297 36.4331L19.3687 36.3103L19.2769 36.2084L18.5341 36.8779ZM18.1849 36.4905L17.2817 36.9197L17.3444 37.0515L17.4421 37.16L18.1849 36.4905ZM17.9504 35.9968L18.8536 35.5677L18.6638 35.1683L18.2406 35.0399L17.9504 35.9968ZM17.3807 35.824L16.6137 36.4657L16.805 36.6944L17.0904 36.781L17.3807 35.824ZM17.046 35.4241L16.1574 35.8826L16.2081 35.9809L16.2791 36.0657L17.046 35.4241ZM16.7988 34.9449L17.6875 34.4864L17.6624 34.4378L17.6322 34.3922L16.7988 34.9449ZM16.5094 34.5086L17.3428 33.9558L17.2775 33.8575L17.1912 33.7771L16.5094 34.5086ZM16.1269 34.1521L16.8088 33.4206L16.7434 33.3597L16.6683 33.3113L16.1269 34.1521ZM15.6728 33.8596L14.9983 34.5979L15.0605 34.6548L15.1314 34.7004L15.6728 33.8596ZM15.2856 33.5059L14.6053 34.2389L14.6111 34.2442L15.2856 33.5059ZM14.9015 33.1494L13.9094 33.2751L13.9551 33.6354L14.2212 33.8824L14.9015 33.1494ZM14.8235 32.5338L15.8155 32.4081L15.7335 31.761L15.1084 31.5752L14.8235 32.5338ZM14.2265 32.3564L13.3589 32.8536L13.5579 33.2009L13.9416 33.3149L14.2265 32.3564ZM13.9636 31.8976L14.8312 31.4003L14.7822 31.3148L14.7174 31.2405L13.9636 31.8976ZM13.6218 31.5054L12.732 31.9618L12.7877 32.0704L12.8679 32.1624L13.6218 31.5054ZM13.3787 31.0316L14.2685 30.5751L14.1794 30.4015L14.0315 30.2741L13.3787 31.0316ZM12.9786 30.6868L12.0531 31.0655L12.144 31.2876L12.3258 31.4443L12.9786 30.6868ZM12.7728 30.1838L13.6984 29.8051L13.5999 29.5644L13.3967 29.4022L12.7728 30.1838ZM12.3568 29.8517L11.3923 30.1161L11.4784 30.4301L11.7329 30.6332L12.3568 29.8517ZM12.2069 29.3052L13.1713 29.0408L13.0254 28.5087L12.4976 28.3484L12.2069 29.3052ZM11.6033 29.1218L10.6051 29.1818L10.6469 29.8764L11.3127 30.0787L11.6033 29.1218ZM11.5653 28.4883L12.5635 28.4283L12.5422 28.0743L12.3026 27.8128L11.5653 28.4883ZM11.2133 28.1041L11.9507 27.4286L11.7593 27.2197L11.4867 27.1422L11.2133 28.1041ZM10.5942 27.9282L9.73711 28.4433L9.9407 28.7821L10.3209 28.8901L10.5942 27.9282ZM10.3242 27.4789L9.39335 27.8443L9.42395 27.9222L9.46709 27.994L10.3242 27.4789ZM10.1262 26.9744L9.17165 27.2725L9.18229 27.3066L9.19532 27.3398L10.1262 26.9744ZM9.96091 26.4453L10.9154 26.1472L10.8118 25.8154L10.5248 25.6195L9.96091 26.4453ZM9.50959 26.1371L8.66613 26.6743L8.77631 26.8473L8.94569 26.963L9.50959 26.1371ZM9.22909 25.6967L10.0725 25.1595L10.0372 25.1041L9.99496 25.0537L9.22909 25.6967ZM8.8938 25.2973L9.65968 24.6543L9.64691 24.6391L9.63355 24.6245L8.8938 25.2973ZM8.54175 24.9103L7.61992 25.2979L7.68646 25.4562L7.802 25.5832L8.54175 24.9103ZM8.33548 24.4198L9.2573 24.0322L9.22121 23.9463L9.16989 23.8686L8.33548 24.4198ZM8.04972 23.9871L7.12771 24.3743L7.16385 24.4604L7.21531 24.5383L8.04972 23.9871ZM7.84417 23.4976L8.76619 23.1104L8.64176 22.8141L8.36801 22.6458L7.84417 23.4976ZM7.35859 23.199L6.37926 23.4013L6.46667 23.8244L6.83474 24.0508L7.35859 23.199ZM7.24516 22.6498L8.22448 22.4475L8.17578 22.2117L8.02508 22.024L7.24516 22.6498ZM6.91899 22.2434L6.04345 22.7265L6.0851 22.802L6.13906 22.8692L6.91899 22.2434ZM6.66781 21.7882L7.54335 21.3051L7.45983 21.1537L7.33035 21.0392L6.66781 21.7882ZM6.26293 21.4301L6.92547 20.681L6.90582 20.6637L6.88529 20.6473L6.26293 21.4301ZM5.83009 21.0859L4.97764 21.6087L5.06978 21.7589L5.20773 21.8686L5.83009 21.0859ZM5.55742 20.6413L4.57283 20.8162L4.60595 21.0027L4.70497 21.1641L5.55742 20.6413ZM5.46008 20.0933L6.44467 19.9184L6.38873 19.6035L6.16041 19.3795L5.46008 20.0933ZM5.0748 19.7153L4.0948 19.9143L4.15577 20.2146L4.37447 20.4291L5.0748 19.7153ZM4.96585 19.1788L5.94585 18.9798L5.89853 18.7467L5.75139 18.5599L4.96585 19.1788ZM4.6401 18.7653L3.76026 19.2405L3.80123 19.3164L3.85457 19.3841L4.6401 18.7653ZM4.39313 18.3081L5.27297 17.8328L5.25264 17.7951L5.22916 17.7594L4.39313 18.3081ZM4.10632 17.871L4.94234 17.3224L4.90074 17.259L4.85006 17.2026L4.10632 17.871ZM3.7447 17.4687L2.78858 17.7617L2.8533 17.9729L3.00096 18.1372L3.7447 17.4687ZM3.58968 16.9628L2.59431 17.0589L2.604 17.1593L2.63357 17.2558L3.58968 16.9628ZM3.53654 16.412L4.53191 16.316L4.51383 16.1286L4.42887 15.9606L3.53654 16.412ZM3.30152 15.9474L2.36703 16.3034L2.38561 16.3522L2.40918 16.3988L3.30152 15.9474ZM3.1167 15.4622L4.05119 15.1062L3.95624 14.857L3.74979 14.6882L3.1167 15.4622ZM2.66146 15.0899L1.66695 14.9852L1.61041 15.5221L2.02836 15.864L2.66146 15.0899ZM2.72343 14.5015L3.71792 14.6062L3.7694 14.1175L3.41392 13.7782L2.72343 14.5015ZM2.30679 14.1038L1.34728 14.3854L1.42267 14.6423L1.6163 14.8271L2.30679 14.1038ZM2.15174 13.5755L1.15265 13.6183L1.15787 13.7402L1.19222 13.8572L2.15174 13.5755ZM2.12922 13.0499L1.20938 12.6576L1.12043 12.8662L1.13014 13.0927L2.12922 13.0499ZM2.37145 12.482L3.29129 12.8743L3.41261 12.5898L3.35215 12.2865L2.37145 12.482ZM2.26997 11.9729L3.25067 11.7774L3.20165 11.5315L3.0424 11.3378L2.26997 11.9729ZM1.88576 11.5056L0.906464 11.3032L0.809676 11.7714L1.11333 12.1407L1.88576 11.5056ZM1.99787 10.9633L2.97717 11.1657L2.98847 11.111L2.99362 11.0554L1.99787 10.9633ZM2.04705 10.4321L3.04279 10.5242L3.06843 10.2472L2.94734 9.99679L2.04705 10.4321ZM1.80914 9.93999L0.820015 10.0871L0.842451 10.2379L0.908839 10.3753L1.80914 9.93999ZM1.73254 9.42493L2.72166 9.27784L2.70176 9.14401L2.64702 9.0203L1.73254 9.42493ZM1.51239 8.92742L0.5327 9.1279L0.554307 9.23349L0.597923 9.33206L1.51239 8.92742ZM1.40764 8.4155L0.547351 7.90569L0.350555 8.23778L0.427945 8.61597L1.40764 8.4155ZM1.74014 7.85442L2.60043 8.36423L2.78914 8.04578L2.72502 7.68121L1.74014 7.85442ZM1.65018 7.34294L2.63507 7.16973L2.62187 7.09466L2.59744 7.02246L1.65018 7.34294ZM1.47891 6.83668L0.478936 6.84416L0.480139 7.0049L0.531654 7.15716L1.47891 6.83668ZM1.47501 6.31547L0.479896 6.21677L0.474641 6.26973L0.47504 6.32295L1.47501 6.31547ZM1.52716 5.78966L2.52228 5.88836L2.53536 5.75644L2.51363 5.62568L1.52716 5.78966ZM1.44168 5.27542L0.44665 5.37503L0.449883 5.40735L0.455212 5.4394L1.44168 5.27542ZM1.39006 4.75977L2.38508 4.66016L2.37688 4.57818L2.35537 4.49866L1.39006 4.75977ZM1.25128 4.24669L2.21659 3.98559L2.20252 3.93357L2.18294 3.88337L1.25128 4.24669ZM1.05123 3.73371L0.0542759 3.81174L0.0658211 3.95922L0.119563 4.09703L1.05123 3.73371ZM1.01013 3.20868L0.0415358 2.96005L0.000213952 3.12103L0.013186 3.28672L1.01013 3.20868ZM1.14352 2.68904L2.11212 2.93767L2.16682 2.72456L2.12702 2.50816L1.14352 2.68904ZM1.04691 2.16374L0.0843746 1.89257L0.0213847 2.11616L0.0634038 2.34462L1.04691 2.16374ZM1.19181 1.6494L2.15434 1.92056L2.20386 1.74479L2.18806 1.56287L1.19181 1.6494ZM1.14637 1.12621L0.4804 0.38023L0.106788 0.713774L0.150122 1.21273L1.14637 1.12621ZM1.95365 1.74604C2.36565 1.37823 2.40147 0.746082 2.03366 0.33409C1.66586 -0.0779057 1.0337 -0.113729 0.62171 0.254076L1.28768 1.00006L1.95365 1.74604ZM67.1196 56.3561L67.4009 55.3965L67.3049 55.3684L67.0236 56.328L66.7423 57.2876L66.8383 57.3157L67.1196 56.3561ZM67.0236 56.328L67.3364 55.3782L66.9368 55.2466L66.624 56.1964L66.3112 57.1462L66.7108 57.2778L67.0236 56.328ZM66.624 56.1964L67.339 55.4973L66.9418 55.0911L66.2268 55.7902L65.5119 56.4894L65.909 56.8956L66.624 56.1964ZM66.2268 55.7902L66.1873 54.791L65.6265 54.8132L65.666 55.8124L65.7055 56.8116L66.2664 56.7894L66.2268 55.7902ZM65.666 55.8124L65.8133 54.8233L65.2967 54.7464L65.1494 55.7355L65.0022 56.7246L65.5188 56.8015L65.666 55.8124ZM65.1494 55.7355L65.7201 54.9143L65.2721 54.603L64.7014 55.4242L64.1308 56.2454L64.5788 56.5567L65.1494 55.7355ZM64.7014 55.4242L64.9931 54.4677L64.4976 54.3166L64.2059 55.2731L63.9143 56.2296L64.4098 56.3807L64.7014 55.4242ZM64.2059 55.2731L64.1873 54.2733L63.6458 54.2834L63.6644 55.2832L63.6831 56.283L64.2246 56.2729L64.2059 55.2731ZM63.6644 55.2832L64.0334 54.3538L63.5478 54.161L63.1788 55.0905L62.8099 56.02L63.2955 56.2127L63.6644 55.2832ZM63.1788 55.0905L63.8301 54.3316L63.3908 53.9546L62.7395 54.7135L62.0883 55.4724L62.5276 55.8494L63.1788 55.0905ZM62.7395 54.7135L62.3972 53.7739L61.8064 53.9891L62.1487 54.9287L62.491 55.8683L63.0818 55.6531L62.7395 54.7135ZM62.1487 54.9287L62.5901 54.0314L62.1116 53.796L61.6701 54.6933L61.2287 55.5906L61.7073 55.826L62.1487 54.9287ZM61.6701 54.6933L61.6444 53.6936L61.103 53.7076L61.1287 54.7072L61.1544 55.7069L61.6958 55.693L61.6701 54.6933ZM61.1287 54.7072L61.7763 53.9453L61.3361 53.5712L60.6885 54.3331L60.0409 55.0951L60.4811 55.4692L61.1287 54.7072ZM60.6885 54.3331L60.7822 53.3375L60.2605 53.2885L60.1669 54.2841L60.0732 55.2797L60.5949 55.3287L60.6885 54.3331ZM60.1669 54.2841L60.2608 53.2885L59.7335 53.2387L59.6395 54.2343L59.5456 55.2299L60.0729 55.2796L60.1669 54.2841ZM59.6395 54.2343L59.6075 53.2348L59.0763 53.2518L59.1083 54.2513L59.1403 55.2508L59.6715 55.2338L59.6395 54.2343ZM59.1083 54.2513L59.8598 53.5916L59.4345 53.1071L58.683 53.7668L57.9315 54.4265L58.3568 54.911L59.1083 54.2513ZM58.683 53.7668L58.2846 52.8496L57.6937 53.1063L58.0921 54.0235L58.4904 54.9407L59.0814 54.684L58.683 53.7668ZM58.0921 54.0235L58.6471 53.1917L58.1858 52.8839L57.6308 53.7157L57.0758 54.5476L57.537 54.8553L58.0921 54.0235ZM57.6308 53.7157L57.6249 52.7157L57.0865 52.7189L57.0924 53.7189L57.0982 54.7189L57.6367 54.7157L57.6308 53.7157ZM57.0924 53.7189L57.7737 52.9869L57.3353 52.5789L56.654 53.3108L55.9727 54.0428L56.411 54.4509L57.0924 53.7189ZM56.654 53.3108L56.2273 52.4065L55.6293 52.6886L56.056 53.593L56.4827 54.4974L57.0807 54.2152L56.654 53.3108ZM56.056 53.593L56.4651 52.6805L55.9864 52.4659L55.5773 53.3784L55.1683 54.2909L55.647 54.5055L56.056 53.593ZM55.5773 53.3784L55.8647 52.4206L55.359 52.2688L55.0716 53.2267L54.7843 54.1845L55.29 54.3362L55.5773 53.3784ZM55.0716 53.2267L55.2038 52.2354L54.6932 52.1674L54.561 53.1586L54.4288 54.1498L54.9394 54.2179L55.0716 53.2267ZM54.561 53.1586L55.184 52.3764L54.7242 52.0102L54.1012 52.7923L53.4782 53.5745L53.938 53.9408L54.561 53.1586ZM54.1012 52.7923L53.938 51.8057L53.3916 51.8961L53.5548 52.8827L53.718 53.8693L54.2644 53.7789L54.1012 52.7923ZM53.5548 52.8827L53.72 51.8965L53.2073 51.8106L53.0421 52.7969L52.877 53.7831L53.3896 53.869L53.5548 52.8827ZM53.0421 52.7969L53.6325 51.9897L53.1663 51.6487L52.5759 52.4559L51.9856 53.263L52.4517 53.604L53.0421 52.7969ZM52.5759 52.4559L52.2181 51.5221L51.6505 51.7396L52.0083 52.6734L52.3661 53.6072L52.9338 53.3897L52.5759 52.4559ZM52.0083 52.6734L52.3897 51.749L51.8934 51.5442L51.512 52.4686L51.1306 53.393L51.6268 53.5978L52.0083 52.6734ZM51.512 52.4686L51.9258 51.5583L51.4441 51.3393L51.0303 52.2497L50.6165 53.16L51.0982 53.379L51.512 52.4686ZM51.0303 52.2497L50.8994 51.2583L50.3558 51.3301L50.4868 52.3214L50.6177 53.3128L51.1612 53.241L51.0303 52.2497ZM50.4868 52.3214L50.6486 51.3346L50.1298 51.2495L49.968 52.2363L49.8061 53.2232L50.3249 53.3083L50.4868 52.3214ZM49.968 52.2363L50.6169 51.4755L50.1679 51.0925L49.5189 51.8533L48.8699 52.6141L49.319 52.9972L49.968 52.2363ZM49.5189 51.8533L49.0826 50.9535L48.496 51.238L48.9324 52.1377L49.3687 53.0375L49.9553 52.7531L49.5189 51.8533ZM48.9324 52.1377L49.6367 51.4279L49.1868 50.9815L48.4824 51.6913L47.7781 52.4011L48.228 52.8476L48.9324 52.1377ZM48.4824 51.6913L48.5758 50.6957L48.0571 50.6471L47.9638 51.6427L47.8705 52.6383L48.3891 52.6869L48.4824 51.6913ZM47.9638 51.6427L47.6215 50.7031L47.0433 50.9138L47.3857 51.8533L47.728 52.7929L48.3062 52.5823L47.9638 51.6427ZM47.3857 51.8533L47.6239 50.8821L47.1164 50.7576L46.8781 51.7288L46.6398 52.7L47.1474 52.8245L47.3857 51.8533ZM46.8781 51.7288L47.5825 51.019L47.1509 50.5907L46.4465 51.3005L45.7421 52.0103L46.1737 52.4386L46.8781 51.7288ZM46.4465 51.3005L46.4677 50.3007L45.9345 50.2894L45.9133 51.2892L45.8922 52.289L46.4253 52.3003L46.4465 51.3005ZM45.9133 51.2892L46.1509 50.3178L45.6455 50.1943L45.408 51.1656L45.1704 52.137L45.6758 52.2606L45.9133 51.2892ZM45.408 51.1656L45.7838 50.239L45.299 50.0423L44.9232 50.969L44.5473 51.8957L45.0321 52.0923L45.408 51.1656ZM44.9232 50.969L45.2851 50.0368L44.7992 49.8481L44.4372 50.7803L44.0753 51.7125L44.5612 51.9012L44.9232 50.969ZM44.4372 50.7803L44.8571 49.8728L44.3817 49.6528L43.9618 50.5604L43.5419 51.468L44.0173 51.6879L44.4372 50.7803ZM43.9618 50.5604L43.763 49.5803L43.1812 49.6984L43.3799 50.6784L43.5787 51.6584L44.1606 51.5404L43.9618 50.5604ZM43.3799 50.6784L43.8712 49.8074L43.4085 49.5464L42.9172 50.4174L42.4259 51.2884L42.8887 51.5494L43.3799 50.6784ZM42.9172 50.4174L42.9176 49.4174L42.3683 49.4171L42.3679 50.4171L42.3674 51.4171L42.9167 51.4174L42.9172 50.4174ZM42.3679 50.4171L43.0674 49.7025L42.6556 49.2994L41.9561 50.014L41.2566 50.7286L41.6683 51.1317L42.3679 50.4171ZM41.9561 50.014L42.1775 49.0389L41.6671 48.923L41.4457 49.8981L41.2243 50.8733L41.7347 50.9892L41.9561 50.014ZM41.4457 49.8981L41.7801 48.9557L41.2899 48.7818L40.9555 49.7242L40.6211 50.6666L41.1113 50.8406L41.4457 49.8981ZM40.9555 49.7242L41.1111 48.7364L40.5865 48.6537L40.4308 49.6415L40.2752 50.6294L40.7999 50.712L40.9555 49.7242ZM40.4308 49.6415L40.8611 48.7388L40.3895 48.5141L39.9592 49.4168L39.529 50.3195L40.0006 50.5443L40.4308 49.6415ZM39.9592 49.4168L40.4001 48.5192L39.9313 48.289L39.4905 49.1865L39.0496 50.0841L39.5184 50.3144L39.9592 49.4168ZM39.4905 49.1865L39.9052 48.2766L39.4313 48.0606L39.0166 48.9706L38.6019 49.8805L39.0758 50.0965L39.4905 49.1865ZM39.0166 48.9706L39.257 47.9999L38.7468 47.8735L38.5064 48.8442L38.2659 49.8148L38.7761 49.9412L39.0166 48.9706ZM38.5064 48.8442L38.761 47.8771L38.2528 47.7433L37.9982 48.7104L37.7436 49.6774L38.2517 49.8112L38.5064 48.8442ZM37.9982 48.7104L38.4111 47.7996L37.9365 47.5844L37.5236 48.4952L37.1106 49.4059L37.5852 49.6211L37.9982 48.7104ZM37.5236 48.4952L37.9855 47.6083L37.5224 47.367L37.0604 48.2539L36.5985 49.1408L37.0616 49.3821L37.5236 48.4952ZM37.0604 48.2539L37.8147 47.5974L37.4366 47.1629L36.6823 47.8195L35.928 48.476L36.3061 48.9105L37.0604 48.2539ZM36.6823 47.8195L36.9921 46.8687L36.4958 46.7069L36.186 47.6577L35.8761 48.6085L36.3724 48.7703L36.6823 47.8195ZM36.186 47.6577L36.2026 46.6579L35.6371 46.6485L35.6206 47.6484L35.604 48.6482L36.1694 48.6576L36.186 47.6577ZM35.6206 47.6484L36.0264 46.7344L35.5506 46.5231L35.1447 47.4371L34.7389 48.351L35.2147 48.5623L35.6206 47.6484ZM35.1447 47.4371L35.8 46.6817L35.3905 46.3264L34.7352 47.0818L34.0799 47.8372L34.4894 48.1924L35.1447 47.4371ZM34.7352 47.0818L35.265 46.2337L34.8207 45.9561L34.2909 46.8043L33.7611 47.6524L34.2054 47.9299L34.7352 47.0818ZM34.2909 46.8043L34.7782 45.931L34.3233 45.6772L33.836 46.5504L33.3488 47.4237L33.8036 47.6775L34.2909 46.8043ZM33.836 46.5504L34.3319 45.682L33.8774 45.4225L33.3816 46.2909L32.8857 47.1593L33.3402 47.4188L33.836 46.5504ZM33.3816 46.2909L33.6801 45.3365L33.1807 45.1803L32.8821 46.1347L32.5836 47.0891L33.083 47.2453L33.3816 46.2909ZM32.8821 46.1347L33.3675 45.2603L32.911 45.007L32.4257 45.8813L31.9404 46.7557L32.3968 47.009L32.8821 46.1347ZM32.4257 45.8813L33.0196 45.0768L32.5972 44.765L32.0034 45.5696L31.4095 46.3742L31.8319 46.6859L32.4257 45.8813ZM32.0034 45.5696L32.0151 44.5697L31.4354 44.5629L31.4237 45.5628L31.412 46.5628L31.9917 46.5696L32.0034 45.5696ZM31.4237 45.5628L31.6499 44.5888L31.1282 44.4676L30.902 45.4417L30.6758 46.4158L31.1975 46.5369L31.4237 45.5628ZM30.902 45.4417L31.516 44.6523L31.0985 44.3277L30.4846 45.117L29.8707 45.9064L30.2881 46.2311L30.902 45.4417ZM30.4846 45.117L30.988 44.253L30.5365 43.9899L30.033 44.854L29.5296 45.718L29.9812 45.9811L30.4846 45.117ZM30.033 44.854L30.4443 43.9425L29.9704 43.7286L29.5591 44.6401L29.1478 45.5516L29.6217 45.7655L30.033 44.854ZM29.5591 44.6401L30.017 43.7511L29.5539 43.5126L29.096 44.4016L28.6381 45.2906L29.1012 45.5291L29.5591 44.6401ZM29.096 44.4016L29.8816 43.7828L29.5311 43.3378L28.7455 43.9566L27.96 44.5754L28.3105 45.0204L29.096 44.4016ZM28.7455 43.9566L28.9005 42.9687L28.3551 42.8832L28.2001 43.8711L28.0452 44.859L28.5905 44.9446L28.7455 43.9566ZM28.2001 43.8711L28.7614 43.0435L28.3295 42.7505L27.7682 43.5781L27.2069 44.4058L27.6389 44.6987L28.2001 43.8711ZM27.7682 43.5781L28.2406 42.6967L27.7808 42.4503L27.3084 43.3317L26.8361 44.2131L27.2958 44.4595L27.7682 43.5781ZM27.3084 43.3317L27.8612 42.4984L27.4274 42.2107L26.8747 43.0441L26.322 43.8774L26.7557 44.1651L27.3084 43.3317ZM26.8747 43.0441L27.6034 42.3592L27.2346 41.9669L26.506 42.6518L25.7773 43.3367L26.1461 43.729L26.8747 43.0441ZM26.506 42.6518L26.4357 41.6542L25.7985 41.6991L25.8688 42.6966L25.939 43.6942L26.5762 43.6493L26.506 42.6518ZM25.8688 42.6966L26.8049 42.345L26.5734 41.7286L25.6372 42.0802L24.7011 42.4319L24.9327 43.0483L25.8688 42.6966ZM25.6372 42.0802L26.1393 41.2154L25.6908 40.9551L25.1888 41.8199L24.6867 42.6847L25.1352 42.9451L25.6372 42.0802ZM25.1888 41.8199L25.4247 40.8481L24.8917 40.7187L24.6558 41.6905L24.4198 42.6623L24.9528 42.7917L25.1888 41.8199ZM24.6558 41.6905L24.9579 40.7372L24.4436 40.5742L24.1414 41.5275L23.8393 42.4807L24.3536 42.6437L24.6558 41.6905ZM24.1414 41.5275L24.7004 40.6983L24.2671 40.4062L23.7081 41.2353L23.1491 42.0645L23.5824 42.3566L24.1414 41.5275ZM23.7081 41.2353L24.2348 40.3853L23.7903 40.1098L23.2636 40.9599L22.7368 41.8099L23.1814 42.0854L23.7081 41.2353ZM23.2636 40.9599L24.1947 40.5951L23.9669 40.0136L23.0358 40.3784L22.1047 40.7431L22.3325 41.3246L23.2636 40.9599ZM23.0358 40.3784L23.4031 39.4483L22.9054 39.2517L22.5381 40.1818L22.1708 41.1119L22.6685 41.3085L23.0358 40.3784ZM22.5381 40.1818L23.2494 39.4789L22.88 39.1051L22.1687 39.808L21.4573 40.5108L21.8267 40.8847L22.5381 40.1818ZM22.1687 39.808L22.5826 38.8977L22.0983 38.6774L21.6844 39.5877L21.2704 40.498L21.7547 40.7183L22.1687 39.808ZM21.6844 39.5877L22.3726 38.8622L21.9937 38.5029L21.3055 39.2284L20.6173 39.9539L20.9962 40.3133L21.6844 39.5877ZM21.3055 39.2284L21.5497 38.2587L20.9952 38.1191L20.7511 39.0888L20.5069 40.0586L21.0614 40.1981L21.3055 39.2284ZM20.7511 39.0888L21.7175 38.8319L21.5529 38.2128L20.5865 38.4697L19.62 38.7266L19.7846 39.3457L20.7511 39.0888ZM20.5865 38.4697L20.7946 37.4916L20.2196 37.3692L20.0114 38.3473L19.8033 39.3254L20.3783 39.4478L20.5865 38.4697ZM20.0114 38.3473L20.7968 37.7283L20.4691 37.3125L19.6837 37.9315L18.8983 38.5505L19.226 38.9663L20.0114 38.3473ZM19.6837 37.9315L20.3984 37.232L20.0335 36.8592L19.3188 37.5587L18.6041 38.2581L18.969 38.6309L19.6837 37.9315ZM19.3188 37.5587L19.6443 36.6131L19.1056 36.4277L18.7801 37.3732L18.4546 38.3188L18.9933 38.5042L19.3188 37.5587ZM18.7801 37.3732L19.6757 36.9284L19.4297 36.4331L18.5341 36.8779L17.6385 37.3227L17.8845 37.8181L18.7801 37.3732ZM18.5341 36.8779L19.2769 36.2084L18.9278 35.821L18.1849 36.4905L17.4421 37.16L17.7912 37.5474L18.5341 36.8779ZM18.1849 36.4905L19.0882 36.0613L18.8536 35.5677L17.9504 35.9968L17.0471 36.426L17.2817 36.9197L18.1849 36.4905ZM17.9504 35.9968L18.2406 35.0399L17.6709 34.8671L17.3807 35.824L17.0904 36.781L17.6601 36.9538L17.9504 35.9968ZM17.3807 35.824L18.1476 35.1824L17.813 34.7824L17.046 35.4241L16.2791 36.0657L16.6137 36.4657L17.3807 35.824ZM17.046 35.4241L17.9347 34.9655L17.6875 34.4864L16.7988 34.9449L15.9101 35.4034L16.1574 35.8826L17.046 35.4241ZM16.7988 34.9449L17.6322 34.3922L17.3428 33.9558L16.5094 34.5086L15.676 35.0613L15.9655 35.4976L16.7988 34.9449ZM16.5094 34.5086L17.1912 33.7771L16.8088 33.4206L16.1269 34.1521L15.4451 34.8836L15.8276 35.2401L16.5094 34.5086ZM16.1269 34.1521L16.6683 33.3113L16.2142 33.0189L15.6728 33.8596L15.1314 34.7004L15.5855 34.9928L16.1269 34.1521ZM15.6728 33.8596L16.3473 33.1213L15.9601 32.7676L15.2856 33.5059L14.6111 34.2442L14.9983 34.5979L15.6728 33.8596ZM15.2856 33.5059L15.9659 32.773L15.5818 32.4164L14.9015 33.1494L14.2212 33.8824L14.6054 34.2389L15.2856 33.5059ZM14.9015 33.1494L15.8935 33.0237L15.8155 32.4081L14.8235 32.5338L13.8314 32.6595L13.9094 33.2751L14.9015 33.1494ZM14.8235 32.5338L15.1084 31.5752L14.5114 31.3978L14.2265 32.3564L13.9416 33.3149L14.5386 33.4923L14.8235 32.5338ZM14.2265 32.3564L15.0942 31.8591L14.8312 31.4003L13.9636 31.8976L13.096 32.3948L13.3589 32.8536L14.2265 32.3564ZM13.9636 31.8976L14.7174 31.2405L14.3756 30.8483L13.6218 31.5054L12.8679 32.1624L13.2098 32.5546L13.9636 31.8976ZM13.6218 31.5054L14.5115 31.0489L14.2685 30.5751L13.3787 31.0316L12.489 31.488L12.732 31.9618L13.6218 31.5054ZM13.3787 31.0316L14.0315 30.2741L13.6315 29.9293L12.9786 30.6868L12.3258 31.4443L12.7259 31.7891L13.3787 31.0316ZM12.9786 30.6868L13.9042 30.3081L13.6984 29.8051L12.7728 30.1838L11.8473 30.5624L12.0531 31.0655L12.9786 30.6868ZM12.7728 30.1838L13.3967 29.4022L12.9806 29.0701L12.3568 29.8517L11.7329 30.6332L12.149 30.9653L12.7728 30.1838ZM12.3568 29.8517L13.3212 29.5872L13.1713 29.0408L12.2069 29.3052L11.2425 29.5696L11.3923 30.1161L12.3568 29.8517ZM12.2069 29.3052L12.4976 28.3484L11.894 28.165L11.6033 29.1218L11.3127 30.0787L11.9163 30.262L12.2069 29.3052ZM11.6033 29.1218L12.6015 29.0619L12.5635 28.4283L11.5653 28.4883L10.5671 28.5482L10.6051 29.1818L11.6033 29.1218ZM11.5653 28.4883L12.3026 27.8128L11.9507 27.4286L11.2133 28.1041L10.476 28.7796L10.8279 29.1638L11.5653 28.4883ZM11.2133 28.1041L11.4867 27.1422L10.8676 26.9663L10.5942 27.9282L10.3209 28.8901L10.94 29.066L11.2133 28.1041ZM10.5942 27.9282L11.4513 27.4131L11.1813 26.9638L10.3242 27.4789L9.46709 27.994L9.73711 28.4433L10.5942 27.9282ZM10.3242 27.4789L11.2551 27.1135L11.057 26.609L10.1262 26.9744L9.19532 27.3398L9.39335 27.8443L10.3242 27.4789ZM10.1262 26.9744L11.0807 26.6763L10.9154 26.1472L9.96091 26.4453L9.00639 26.7434L9.17165 27.2725L10.1262 26.9744ZM9.96091 26.4453L10.5248 25.6195L10.0735 25.3113L9.50959 26.1371L8.94569 26.963L9.39701 27.2711L9.96091 26.4453ZM9.50959 26.1371L10.3531 25.5999L10.0725 25.1595L9.22909 25.6967L8.38562 26.2339L8.66613 26.6743L9.50959 26.1371ZM9.22909 25.6967L9.99496 25.0537L9.65968 24.6543L8.8938 25.2973L8.12793 25.9403L8.46321 26.3397L9.22909 25.6967ZM8.8938 25.2973L9.63355 24.6245L9.28148 24.2374L8.54175 24.9103L7.802 25.5832L8.15406 25.9702L8.8938 25.2973ZM8.54175 24.9103L9.46356 24.5227L9.2573 24.0322L8.33548 24.4198L7.41365 24.8074L7.61992 25.2979L8.54175 24.9103ZM8.33548 24.4198L9.16989 23.8686L8.88413 23.436L8.04972 23.9871L7.21531 24.5383L7.50107 24.9709L8.33548 24.4198ZM8.04972 23.9871L8.97174 23.6L8.76619 23.1104L7.84417 23.4976L6.92215 23.8847L7.12771 24.3743L8.04972 23.9871ZM7.84417 23.4976L8.36801 22.6458L7.88243 22.3472L7.35859 23.199L6.83474 24.0508L7.32032 24.3494L7.84417 23.4976ZM7.35859 23.199L8.33792 22.9967L8.22448 22.4475L7.24516 22.6498L6.26583 22.8521L6.37926 23.4013L7.35859 23.199ZM7.24516 22.6498L8.02508 22.024L7.69892 21.6175L6.91899 22.2434L6.13906 22.8692L6.46523 23.2757L7.24516 22.6498ZM6.91899 22.2434L7.79453 21.7602L7.54335 21.3051L6.66781 21.7882L5.79227 22.2713L6.04345 22.7265L6.91899 22.2434ZM6.66781 21.7882L7.33035 21.0392L6.92547 20.681L6.26293 21.4301L5.60038 22.1791L6.00526 22.5372L6.66781 21.7882ZM6.26293 21.4301L6.88529 20.6473L6.45245 20.3032L5.83009 21.0859L5.20773 21.8686L5.64056 22.2128L6.26293 21.4301ZM5.83009 21.0859L6.68254 20.5631L6.40987 20.1185L5.55742 20.6413L4.70497 21.1641L4.97764 21.6087L5.83009 21.0859ZM5.55742 20.6413L6.54201 20.4664L6.44467 19.9184L5.46008 20.0933L4.47549 20.2682L4.57283 20.8162L5.55742 20.6413ZM5.46008 20.0933L6.16041 19.3795L5.77513 19.0015L5.0748 19.7153L4.37447 20.4291L4.75975 20.8071L5.46008 20.0933ZM5.0748 19.7153L6.0548 19.5163L5.94585 18.9798L4.96585 19.1788L3.98585 19.3778L4.0948 19.9143L5.0748 19.7153ZM4.96585 19.1788L5.75139 18.5599L5.42564 18.1464L4.6401 18.7653L3.85457 19.3841L4.18031 19.7976L4.96585 19.1788ZM4.6401 18.7653L5.51994 18.29L5.27297 17.8328L4.39313 18.3081L3.5133 18.7833L3.76026 19.2405L4.6401 18.7653ZM4.39313 18.3081L5.22916 17.7594L4.94234 17.3224L4.10632 17.871L3.27029 18.4197L3.55711 18.8567L4.39313 18.3081ZM4.10632 17.871L4.85006 17.2026L4.48844 16.8002L3.7447 17.4687L3.00096 18.1372L3.36258 18.5395L4.10632 17.871ZM3.7447 17.4687L4.70082 17.1757L4.5458 16.6698L3.58968 16.9628L2.63357 17.2558L2.78858 17.7617L3.7447 17.4687ZM3.58968 16.9628L4.58506 16.8668L4.53191 16.316L3.53654 16.412L2.54116 16.5081L2.59431 17.0589L3.58968 16.9628ZM3.53654 16.412L4.42887 15.9606L4.19386 15.496L3.30152 15.9474L2.40918 16.3988L2.6442 16.8634L3.53654 16.412ZM3.30152 15.9474L4.23601 15.5914L4.05119 15.1062L3.1167 15.4622L2.18221 15.8182L2.36703 16.3034L3.30152 15.9474ZM3.1167 15.4622L3.74979 14.6882L3.29455 14.3158L2.66146 15.0899L2.02836 15.864L2.48361 16.2363L3.1167 15.4622ZM2.66146 15.0899L3.65596 15.1946L3.71792 14.6062L2.72343 14.5015L1.72892 14.3968L1.66695 14.9852L2.66146 15.0899ZM2.72343 14.5015L3.41392 13.7782L2.99729 13.3804L2.30679 14.1038L1.6163 14.8271L2.03293 15.2248L2.72343 14.5015ZM2.30679 14.1038L3.26631 13.8221L3.11126 13.2939L2.15174 13.5755L1.19222 13.8572L1.34728 14.3854L2.30679 14.1038ZM2.15174 13.5755L3.15082 13.5327L3.12831 13.0071L2.12922 13.0499L1.13014 13.0927L1.15265 13.6183L2.15174 13.5755ZM2.12922 13.0499L3.04906 13.4422L3.29129 12.8743L2.37145 12.482L1.45161 12.0897L1.20938 12.6576L2.12922 13.0499ZM2.37145 12.482L3.35215 12.2865L3.25067 11.7774L2.26997 11.9729L1.28927 12.1684L1.39074 12.6775L2.37145 12.482ZM2.26997 11.9729L3.0424 11.3378L2.65818 10.8705L1.88576 11.5056L1.11333 12.1407L1.49754 12.608L2.26997 11.9729ZM1.88576 11.5056L2.86506 11.7081L2.97717 11.1657L1.99787 10.9633L1.01857 10.7608L0.906464 11.3032L1.88576 11.5056ZM1.99787 10.9633L2.99362 11.0554L3.04279 10.5242L2.04705 10.4321L1.0513 10.3399L1.00213 10.8711L1.99787 10.9633ZM2.04705 10.4321L2.94734 9.99679L2.70944 9.50471L1.80914 9.93999L0.908839 10.3753L1.14675 10.8673L2.04705 10.4321ZM1.80914 9.93999L2.79826 9.79288L2.72166 9.27784L1.73254 9.42493L0.743416 9.57203L0.820015 10.0871L1.80914 9.93999ZM1.73254 9.42493L2.64702 9.0203L2.42687 8.52278L1.51239 8.92742L0.597923 9.33206L0.818062 9.82957L1.73254 9.42493ZM1.51239 8.92742L2.49209 8.72694L2.38734 8.21502L1.40764 8.4155L0.427945 8.61597L0.5327 9.1279L1.51239 8.92742ZM1.40764 8.4155L2.26793 8.9253L2.60043 8.36423L1.74014 7.85442L0.879852 7.34461L0.547351 7.90569L1.40764 8.4155ZM1.74014 7.85442L2.72502 7.68121L2.63507 7.16973L1.65018 7.34294L0.6653 7.51615L0.755256 8.02763L1.74014 7.85442ZM1.65018 7.34294L2.59744 7.02246L2.42617 6.51621L1.47891 6.83668L0.531654 7.15716L0.702931 7.66342L1.65018 7.34294ZM1.47891 6.83668L2.47888 6.8292L2.47498 6.30799L1.47501 6.31547L0.47504 6.32295L0.478936 6.84416L1.47891 6.83668ZM1.47501 6.31547L2.47013 6.41416L2.52228 5.88836L1.52716 5.78966L0.532045 5.69096L0.479896 6.21677L1.47501 6.31547ZM1.52716 5.78966L2.51363 5.62568L2.42814 5.11144L1.44168 5.27542L0.455212 5.4394L0.540697 5.95364L1.52716 5.78966ZM1.44168 5.27542L2.4367 5.17581L2.38508 4.66016L1.39006 4.75977L0.395031 4.85938L0.44665 5.37503L1.44168 5.27542ZM1.39006 4.75977L2.35537 4.49866L2.21659 3.98559L1.25128 4.24669L0.285968 4.5078L0.424742 5.02087L1.39006 4.75977ZM1.25128 4.24669L2.18294 3.88337L1.98289 3.37039L1.05123 3.73371L0.119563 4.09703L0.319611 4.61001L1.25128 4.24669ZM1.05123 3.73371L2.04818 3.65568L2.00709 3.13065L1.01013 3.20868L0.013186 3.28672L0.0542759 3.81174L1.05123 3.73371ZM1.01013 3.20868L1.97873 3.4573L2.11212 2.93767L1.14352 2.68904L0.174919 2.44041L0.0415358 2.96005L1.01013 3.20868ZM1.14352 2.68904L2.12702 2.50816L2.03041 1.98285L1.04691 2.16374L0.0634038 2.34462L0.160016 2.86992L1.14352 2.68904ZM1.04691 2.16374L2.00944 2.4349L2.15434 1.92056L1.19181 1.6494L0.229276 1.37823L0.0843746 1.89257L1.04691 2.16374ZM1.19181 1.6494L2.18806 1.56287L2.14262 1.03969L1.14637 1.12621L0.150122 1.21273L0.195556 1.73591L1.19181 1.6494ZM1.14637 1.12621L1.81234 1.87219L1.95365 1.74604L1.28768 1.00006L0.62171 0.254076L0.4804 0.38023L1.14637 1.12621Z" fill="white"/>
</svg>
