<svg width="19" height="21" viewBox="0 0 19 21" fill="none" xmlns="http://www.w3.org/2000/svg">
<path d="M11.2036 6.37819C10.3582 5.76566 9.61944 5.24888 9.01637 4.84256C8.93182 5.01315 8.82716 5.21844 8.68884 5.48032C8.16164 6.4785 7.14546 8.2989 4.89012 12.1547C3.95295 14.0332 3.48123 14.8752 3.57813 14.7786C3.90844 14.4497 4.46021 13.926 5.37008 12.4299C7.32531 9.21504 8.90751 6.84418 8.87643 7.01763C8.78518 7.5269 7.6194 10.0129 5.18194 13.169C3.40316 15.4722 2.1238 18.0679 1.88908 17.3974C1.86618 17.332 2.03211 16.4583 2.92565 13.7789C3.61203 11.7207 5.7721 8.39213 6.28094 6.45195C6.70192 4.84679 7.14684 3.34568 7.26836 2.31301C6.54474 1.51605 6.18518 1.00693 6.45737 0.947061C7.20987 0.781559 7.38301 1.33885 7.26836 2.31301C7.77777 2.87405 8.4676 3.57773 9.24446 4.36774C9.71806 4.84935 10.224 5.36305 10.7411 5.89607C10.8986 6.05837 11.0527 6.21918 11.2036 6.37819C11.6462 6.69894 12.1181 7.04593 12.615 7.41708C15.7743 9.77673 16.6573 11.5153 16.2285 11.3672C15.1987 11.0116 13.6203 8.92557 11.2036 6.37819Z" fill="white"/>
<path d="M10.933 2.56907C10.5566 2.16486 9.92385 2.14226 9.51964 2.5186C9.11543 2.89493 9.09283 3.5277 9.46917 3.93191L10.2011 3.25049L10.933 2.56907ZM10.2692 3.32368L9.53731 4.0051L9.57556 4.04619L9.61818 4.08274L10.2692 3.32368ZM10.5929 3.60127L11.557 3.33603L11.476 3.04125L11.2439 2.84221L10.5929 3.60127ZM10.7434 4.14864L9.77926 4.41388L9.89171 4.82267L10.2637 5.02606L10.7434 4.14864ZM11.2356 4.41771L11.8839 3.65634L11.8056 3.58964L11.7153 3.54029L11.2356 4.41771ZM11.6364 4.75903L12.557 4.36841L12.4647 4.15087L12.2847 3.99766L11.6364 4.75903ZM11.8494 5.26098L10.9289 5.6516L10.9906 5.79707L11.0942 5.91642L11.8494 5.26098ZM12.1905 5.65404L11.4353 6.30948L11.5425 6.433L11.6834 6.51594L12.1905 5.65404ZM12.6572 5.9286L13.4463 5.31436L13.3289 5.16359L13.1643 5.0667L12.6572 5.9286ZM12.9762 6.33845L13.9081 5.97571L13.8551 5.83953L13.7653 5.72421L12.9762 6.33845ZM13.1875 6.88137L12.2556 7.2441L12.4868 7.83806L13.1229 7.87928L13.1875 6.88137ZM13.8135 6.92193L14.5413 6.23612L14.2712 5.94949L13.8781 5.92402L13.8135 6.92193ZM14.1787 7.30952L13.4509 7.99533L13.5876 8.14031L13.7693 8.22187L14.1787 7.30952ZM14.6866 7.53745L15.6463 7.25621L15.5166 6.81383L15.0961 6.6251L14.6866 7.53745ZM14.8532 8.10573L13.8935 8.38697L13.9655 8.63234L14.1463 8.81307L14.8532 8.10573ZM15.2226 8.47488L15.9604 7.79985L15.9453 7.78335L15.9295 7.76754L15.2226 8.47488ZM15.5773 8.86255L14.8395 9.53759L14.8728 9.57401L14.9096 9.60696L15.5773 8.86255ZM15.9779 9.22192L16.9765 9.27544L17.0021 8.79726L16.6456 8.47751L15.9779 9.22192ZM15.9434 9.86521L14.9449 9.81168L14.9061 10.5344L15.5805 10.797L15.9434 9.86521ZM16.5429 10.0987L17.5237 9.90367L17.4168 9.36589L16.9059 9.16689L16.5429 10.0987ZM16.6517 10.6457L15.6709 10.8407L15.7298 11.1372L15.9431 11.3513L16.6517 10.6457ZM17.0295 11.0251L18.0293 11.0043L18.0209 10.6035L17.7381 10.3195L17.0295 11.0251ZM17.0421 11.6292L16.0423 11.6501L16.0561 12.3131L16.6723 12.5583L17.0421 11.6292ZM17.6519 11.872L18.6123 11.5933L18.476 11.1237L18.0217 10.9429L17.6519 11.872ZM17.8036 12.3948L18.6675 12.8984L18.8834 12.528L18.764 12.1162L17.8036 12.3948ZM17.5724 12.7914L17.0872 13.6658L17.9433 14.1408L18.4363 13.295L17.5724 12.7914ZM17.1041 12.5316L16.1988 12.9563L16.3361 13.2491L16.6189 13.406L17.1041 12.5316ZM16.8561 12.0029L17.7614 11.5782L17.5765 11.184L17.1619 11.0508L16.8561 12.0029ZM16.3275 11.8331L15.728 12.6335L15.8622 12.7339L16.0217 12.7852L16.3275 11.8331ZM15.9109 11.521L15.0159 11.9672L15.1217 12.1793L15.3113 12.3213L15.9109 11.521ZM15.6544 11.0067L16.5493 10.5605L16.3057 10.0718L15.7628 10.0126L15.6544 11.0067ZM15.0453 10.9403L14.2825 11.5869L14.5404 11.8912L14.9369 11.9344L15.0453 10.9403ZM14.7021 10.5355L13.916 11.1536L13.9274 11.1681L13.9393 11.1821L14.7021 10.5355ZM14.3718 10.1154L15.1579 9.49727L14.9833 9.2753L14.7185 9.17741L14.3718 10.1154ZM13.8575 9.92529L13.2506 10.7201L13.3699 10.8112L13.5108 10.8633L13.8575 9.92529ZM13.4439 9.6095L12.5139 9.97706L12.6161 10.2356L12.837 10.4043L13.4439 9.6095ZM13.2248 9.05507L14.1548 8.68751L13.9163 8.08415L13.2681 8.05601L13.2248 9.05507ZM12.5758 9.0269L11.616 9.30754L11.817 9.9949L12.5325 10.026L12.5758 9.0269ZM12.3992 8.42292L13.359 8.14229L13.2564 7.79121L12.9514 7.58922L12.3992 8.42292ZM11.9636 8.13437L12.5158 7.30067L12.3231 7.17306L12.094 7.14292L11.9636 8.13437ZM11.3538 8.05415L10.7012 8.81187L10.9274 9.00667L11.2233 9.04561L11.3538 8.05415ZM10.9591 7.71423L10.0124 8.03636L10.1001 8.29421L10.3065 8.47195L10.9591 7.71423ZM10.7633 7.13884L11.71 6.8167L11.5796 6.43355L11.2194 6.24894L10.7633 7.13884ZM10.2886 6.8955L9.6559 7.66994L9.73803 7.73703L9.8324 7.7854L10.2886 6.8955ZM9.88531 6.56609L9.15031 7.24416L9.19809 7.29595L9.25266 7.34053L9.88531 6.56609ZM9.53105 6.18208L10.2661 5.50395L10.2564 5.49372L9.53105 6.18208ZM9.17238 5.80413L8.40188 6.44156L8.42358 6.4678L8.44701 6.49249L9.17238 5.80413ZM8.83906 5.40122L9.60956 4.76379L9.09181 4.13795L8.37312 4.5164L8.83906 5.40122ZM8.33427 5.0992L8.92387 4.2915L8.8324 4.22473L8.72832 4.18011L8.33427 5.0992ZM7.81514 4.87663L6.81865 4.96037L6.86896 5.559L7.42109 5.79572L7.81514 4.87663ZM7.76076 4.22951L8.75724 4.14577L8.72454 3.75659L8.43673 3.49259L7.76076 4.22951ZM7.39223 3.89147L8.04515 3.13404L6.71626 4.62839L7.39223 3.89147ZM7.54437 4.02262L6.89145 4.78005L7.13875 4.99322L7.46418 5.0194L7.54437 4.02262ZM8.12132 4.06903L8.94777 3.50603L8.67841 3.11062L8.2015 3.07225L8.12132 4.06903ZM8.44063 4.53777L7.61417 5.10077L7.80824 5.38565L8.13662 5.49044L8.44063 4.53777ZM8.95589 4.70219L9.87427 4.30648L9.69397 3.88804L9.2599 3.74952L8.95589 4.70219ZM9.01637 4.84256L8.098 5.23827L8.21004 5.49829L8.44176 5.66098L9.01637 4.84256ZM8.63957 5.56734L7.76941 5.07456L7.69363 5.20838L7.66155 5.35879L8.63957 5.56734ZM8.54842 5.99476L9.3119 6.6406L9.47407 6.44889L9.52643 6.20331L8.54842 5.99476ZM8.20491 6.40084L7.44144 5.755L7.42555 5.77377L7.41061 5.79331L8.20491 6.40084ZM7.88554 6.81839L7.09124 6.21086L7.07398 6.23343L7.05802 6.25695L7.88554 6.81839ZM7.59328 7.24916L6.76576 6.68772L6.73263 6.73655L6.70548 6.78893L7.59328 7.24916ZM7.35359 7.71154L6.46578 7.25132L6.3749 7.42664L6.35749 7.62334L7.35359 7.71154ZM7.30322 8.28042L7.86286 9.10915L8.25733 8.84276L8.29932 8.36862L7.30322 8.28042ZM6.82282 8.60483L6.26317 7.7761L6.06535 7.90969L5.9492 8.11823L6.82282 8.60483ZM6.56954 9.05955L5.69592 8.57294L5.68824 8.58673L5.681 8.60075L6.56954 9.05955ZM6.33116 9.52122L7.12401 10.1306L7.1786 10.0596L7.2197 9.98002L6.33116 9.52122ZM6.01183 9.93668L5.21897 9.32726L5.09717 9.48572L5.04564 9.67883L6.01183 9.93668ZM5.8727 10.458L6.83313 10.7365L6.83612 10.7262L6.83889 10.7158L5.8727 10.458ZM5.72368 10.9718L6.3251 11.7708L6.59131 11.5704L6.68411 11.2504L5.72368 10.9718ZM5.27289 11.3112L4.67147 10.5123L4.55531 10.5997L4.46886 10.7166L5.27289 11.3112ZM4.96123 11.7326L4.1572 11.138L4.12487 11.1817L4.09747 11.2287L4.96123 11.7326ZM4.69361 12.1913L3.82985 11.6874L3.64859 11.9982L3.70679 12.3532L4.69361 12.1913ZM4.79762 12.8257L5.55431 13.4794L5.86013 13.1255L5.78444 12.6638L4.79762 12.8257ZM4.44699 13.2315L3.6903 12.5777L3.64164 12.634L3.60185 12.6969L4.44699 13.2315ZM4.16777 13.6729L3.32263 13.1384L3.30008 13.1741L3.28062 13.2115L4.16777 13.6729ZM3.928 14.1339L4.64574 14.8302L4.74763 14.7252L4.81515 14.5954L3.928 14.1339ZM3.54822 14.5254L2.76398 13.9049L4.26596 15.2217L3.54822 14.5254ZM3.62236 14.4317L3.03529 13.6221L2.92366 13.7031L2.83811 13.8112L3.62236 14.4317ZM4.04304 14.1266L3.57192 13.2445L3.51146 13.2768L3.45597 13.317L4.04304 14.1266ZM4.54096 13.8606L5.01208 14.7427L5.41011 14.5301L5.51406 14.091L4.54096 13.8606ZM4.67098 13.3114L3.94757 12.621L3.76035 12.8171L3.69788 13.081L4.67098 13.3114ZM5.03382 12.9312L5.75723 13.6216L5.83373 13.5415L5.89082 13.4465L5.03382 12.9312ZM5.3012 12.4865L4.56056 11.8146L4.4947 11.8872L4.44419 11.9712L5.3012 12.4865ZM5.65771 12.0935L6.39834 12.7655L6.59643 12.5471L6.64439 12.2562L5.65771 12.0935ZM5.74908 11.5394L4.87899 11.0465L4.79133 11.2012L4.7624 11.3767L5.74908 11.5394ZM6.00591 11.086L5.34611 10.3346L5.21912 10.4461L5.13582 10.5931L6.00591 11.086ZM6.41382 10.7279L7.07362 11.4793L7.20843 11.3609L7.29369 11.2031L6.41382 10.7279ZM6.66187 10.2686L5.88574 9.63803L5.82659 9.71084L5.782 9.79338L6.66187 10.2686ZM6.99225 9.86197L7.76838 10.4925L7.80954 10.4419L7.84377 10.3863L6.99225 9.86197ZM7.26487 9.41924L8.11638 9.94356L8.19964 9.80835L8.23692 9.65401L7.26487 9.41924ZM7.39418 8.88384L6.53443 8.37312L6.45749 8.50263L6.42213 8.64906L7.39418 8.88384ZM7.66053 8.43546L7.01119 7.67496L6.88531 7.78244L6.80078 7.92474L7.66053 8.43546ZM8.07201 8.08413L8.72134 8.84463L8.9564 8.64394L9.03722 8.34561L8.07201 8.08413ZM8.21583 7.55323L7.54692 6.80989L7.32773 7.00713L7.25063 7.29174L8.21583 7.55323ZM8.6163 7.19286L8.70658 6.19694L8.27185 6.15753L7.94738 6.44952L8.6163 7.19286ZM8.79633 7.20918L9.79462 7.26775L9.85135 6.30072L8.88662 6.21326L8.79633 7.20918ZM8.76402 7.75998L9.44445 8.49279L9.73878 8.2195L9.7623 7.81855L8.76402 7.75998ZM8.35123 8.14326L7.67079 7.41045L7.57229 7.50191L7.50144 7.61613L8.35123 8.14326ZM8.07779 8.58408L7.228 8.05695L7.151 8.18107L7.11273 8.32204L8.07779 8.58408ZM7.93763 9.10025L8.7629 9.66498L8.85838 9.52545L8.90269 9.36229L7.93763 9.10025ZM7.64306 9.53072L6.81779 8.96598L6.69808 9.14093L6.65964 9.34939L7.64306 9.53072ZM7.54208 10.0784L7.97605 10.9794L8.43344 10.759L8.5255 10.2598L7.54208 10.0784ZM6.98761 10.3455L6.55363 9.4446L6.17635 9.62634L6.04115 10.0227L6.98761 10.3455ZM6.8152 10.851L7.71655 11.2841L7.74239 11.2303L7.76166 11.1738L6.8152 10.851ZM6.58759 11.3247L7.4116 11.8912L7.45543 11.8275L7.48893 11.7578L6.58759 11.3247ZM6.29216 11.7543L6.85764 12.5791L7.01089 12.474L7.11617 12.3209L6.29216 11.7543ZM5.83642 12.0668L5.27093 11.242L5.12831 11.3398L5.02681 11.4798L5.83642 12.0668ZM5.53181 12.4869L4.7222 11.9L4.6858 11.9502L4.65588 12.0045L5.53181 12.4869ZM5.27933 12.9453L4.40341 12.4629L4.39785 12.473L4.39253 12.4832L5.27933 12.9453ZM5.03511 13.414L5.52099 14.288L5.78324 14.1422L5.92191 13.8761L5.03511 13.414ZM4.53395 13.6926L4.04807 12.8185L3.64764 13.0411L3.55473 13.4898L4.53395 13.6926ZM4.41843 14.2503L5.10822 14.9743L5.33432 14.7589L5.39765 14.4531L4.41843 14.2503ZM4.03343 14.6171L3.34365 13.8931L3.12136 14.1049L3.05621 14.4049L4.03343 14.6171ZM3.91476 15.1636L4.66908 15.8201L4.83753 15.6266L4.89198 15.3758L3.91476 15.1636ZM3.57046 15.5592L2.81614 14.9027L2.70168 15.0342L2.63848 15.1967L3.57046 15.5592ZM3.37747 16.0554L3.83371 16.9452L4.17174 16.7719L4.30945 16.4179L3.37747 16.0554ZM2.84785 16.3269L2.39161 15.437L1.98642 15.6448L1.8771 16.0868L2.84785 16.3269ZM2.71453 16.8659L3.39884 17.5951L3.61433 17.3929L3.68528 17.106L2.71453 16.8659ZM2.3287 17.228L2.90467 18.0455L2.96193 18.0051L3.01301 17.9572L2.3287 17.228ZM1.82352 17.584L0.868271 17.2882L-4.52479e-05 20.0921L2.39949 18.4014L1.82352 17.584ZM2.00874 16.9858L2.96399 17.2817L3.00027 17.1645L3.00716 17.042L2.00874 16.9858ZM2.03853 16.4564L3.03695 16.5125L3.03902 16.4757L3.03838 16.4389L2.03853 16.4564ZM2.029 15.9111L1.13078 15.4716L1.02495 15.6878L1.02916 15.9286L2.029 15.9111ZM2.26183 15.4353L1.61799 14.6701L1.45642 14.8061L1.3636 14.9958L2.26183 15.4353ZM2.73305 15.0388L3.37689 15.804L3.84108 15.4134L3.7091 14.8212L2.73305 15.0388ZM2.60183 14.4501L1.66611 14.0973L1.56089 14.3765L1.62578 14.6676L2.60183 14.4501ZM2.7854 13.9631L3.72112 14.3159L3.72599 14.3029L3.7305 14.2899L2.7854 13.9631ZM2.95616 13.4693L2.04718 13.0524L2.02693 13.0966L2.01106 13.1425L2.95616 13.4693ZM3.17445 12.9933L2.38377 12.3811L2.3134 12.4719L2.26548 12.5764L3.17445 12.9933ZM3.50232 12.5698L4.293 13.1821L4.49487 12.9214L4.50208 12.5917L3.50232 12.5698ZM3.5148 11.9996L2.76029 11.3433L2.52295 11.6162L2.51504 11.9778L3.5148 11.9996ZM3.86852 11.593L4.62303 12.2493L4.69248 12.1694L4.74368 12.0768L3.86852 11.593ZM4.12032 11.1375L4.99548 11.6213L5.09995 11.4324L5.11714 11.2171L4.12032 11.1375ZM4.16522 10.5752L3.40783 9.92224L3.19442 10.1698L3.1684 10.4956L4.16522 10.5752ZM4.51445 10.1701L5.27185 10.8231L5.36635 10.7134L5.42589 10.5815L4.51445 10.1701ZM4.72863 9.69564L4.18772 8.85455L3.93891 9.01457L3.81719 9.2842L4.72863 9.69564ZM5.23489 9.37006L5.7758 10.2111L6.10988 9.99629L6.20549 9.61076L5.23489 9.37006ZM5.36347 8.85157L4.61961 8.18324L4.45291 8.36878L4.39287 8.61087L5.36347 8.85157ZM5.72675 8.44724L6.47061 9.11557L6.61911 8.95028L6.68364 8.73767L5.72675 8.44724ZM5.88044 7.94084L6.83734 8.23127L6.87963 8.09194L6.88043 7.94634L5.88044 7.94084ZM5.88355 7.3752L4.96456 6.98092L4.88468 7.16711L4.88357 7.3697L5.88355 7.3752ZM6.08763 6.89953L7.00662 7.2938L7.04381 7.20712L7.06413 7.11502L6.08763 6.89953ZM6.19854 6.39693L5.23866 6.11652L5.22926 6.1487L5.22204 6.18143L6.19854 6.39693ZM6.34453 5.8972L5.45839 5.43378L5.41245 5.52163L5.38465 5.6168L6.34453 5.8972ZM6.59141 5.42512L7.47755 5.88854L7.61383 5.62795L7.58735 5.33507L6.59141 5.42512ZM6.54153 4.8734L5.86813 4.13413L5.50086 4.46867L5.54559 4.96345L6.54153 4.8734ZM6.99959 4.45616L7.67299 5.19544L8.04711 4.85466L7.99409 4.35139L6.99959 4.45616ZM6.94144 3.90414L6.03342 3.48521L5.91811 3.73516L5.94694 4.0089L6.94144 3.90414ZM7.16416 3.42139L8.07218 3.84032L8.14114 3.69086L8.15855 3.52718L7.16416 3.42139ZM7.21971 2.89925L6.24288 2.68527L6.23113 2.73888L6.22533 2.79346L7.21971 2.89925ZM7.33189 2.38718L8.30872 2.60115L8.41526 2.11481L8.09139 1.73668L7.33189 2.38718ZM8.97444 5.30519L9.31249 6.24632L10.078 5.97134L9.96468 5.16584L8.97444 5.30519ZM8.92548 4.95729L8.43491 4.08589L7.84012 4.42073L7.93524 5.09664L8.92548 4.95729ZM9.07642 4.87232L9.56699 5.74372L11.2148 4.81606L9.52049 3.97632L9.07642 4.87232ZM9.09822 4.90002L9.79635 4.18405L9.73872 4.12785L9.67284 4.0816L9.09822 4.90002ZM9.40329 5.1975L8.70516 5.91346L8.92985 6.13256L9.23943 6.18398L9.40329 5.1975ZM9.97099 5.2918L10.4811 4.4317L10.3198 4.33604L10.1348 4.30531L9.97099 5.2918ZM10.4207 5.5585L11.1031 4.82752L11.0239 4.75364L10.9308 4.69841L10.4207 5.5585ZM10.8048 5.91711L11.7345 5.54891L11.6517 5.33969L11.4872 5.18613L10.8048 5.91711ZM11.0321 6.49117L10.1024 6.85937L10.5553 8.00309L11.5825 7.32613L11.0321 6.49117ZM11.2036 6.37819L11.927 5.68771L11.9198 5.68029L11.2036 6.37819ZM9.05968 4.75242L8.75992 3.7984L8.34611 3.92842L8.15829 4.31941L9.05968 4.75242ZM9.21398 4.70394L9.51373 5.65795L10.6862 5.28957L10.0871 4.21649L9.21398 4.70394ZM9.03657 4.38615L9.21387 3.40199L7.13256 3.02704L8.16342 4.87359L9.03657 4.38615ZM9.43762 4.4584L9.26032 5.44256L9.8625 3.55315L9.43762 4.4584ZM11.2726 6.45053L10.5492 7.14098L10.7666 7.36869L11.0752 7.43084L11.2726 6.45053ZM11.7279 6.54222L12.4078 5.80895L12.2013 5.6175L11.9253 5.56191L11.7279 6.54222ZM12.1121 6.89851L12.8126 6.1849L12.8025 6.17492L12.792 6.16524L12.1121 6.89851ZM12.487 7.26653L13.2469 6.61648L13.2186 6.58341L13.1875 6.55291L12.487 7.26653ZM12.8333 7.6714L12.0734 8.32145L12.2313 8.50602L12.4563 8.5976L12.8333 7.6714ZM13.3351 7.87568L13.9401 7.07941L13.8347 6.99937L13.7122 6.94948L13.3351 7.87568ZM13.7499 8.19082L14.5437 7.58258L14.4619 7.47587L14.3549 7.39455L13.7499 8.19082ZM14.0745 8.61441L14.9326 8.10086L14.9031 8.05167L14.8683 8.00617L14.0745 8.61441ZM14.3524 9.07866L13.4943 9.59221L13.5525 9.68933L13.6308 9.77101L14.3524 9.07866ZM14.7087 9.45003L13.9872 10.1424L14.1516 10.3138L14.3756 10.3929L14.7087 9.45003ZM15.2532 9.64242L16.1311 9.1635L15.9476 8.82718L15.5864 8.69955L15.2532 9.64242ZM15.5087 10.1108L14.6309 10.5897L14.7948 10.8902L15.1086 11.0272L15.5087 10.1108ZM16.0521 10.348L16.9649 9.93966L16.8069 9.58645L16.4523 9.4316L16.0521 10.348ZM16.2752 10.8467L17.2732 10.9089L17.2886 10.6631L17.188 10.4383L16.2752 10.8467ZM16.2526 11.209L16.1992 12.2075L17.1889 12.2604L17.2506 11.2712L16.2526 11.209ZM15.8027 11.1849L15.2257 12.0017L15.4613 12.1681L15.7493 12.1835L15.8027 11.1849ZM15.3747 10.8826L14.4728 11.3145L14.5852 11.5493L14.7978 11.6994L15.3747 10.8826ZM15.1333 10.3785L16.0352 9.94659L15.9049 9.67439L15.6457 9.51974L15.1333 10.3785ZM14.6762 10.1057L13.9701 10.8138L14.0576 10.9011L14.1637 10.9644L14.6762 10.1057ZM14.3084 9.73898L15.0145 9.03086L14.8982 8.9149L14.7509 8.84222L14.3084 9.73898ZM13.8079 9.49198L12.8674 9.83191L13.0043 10.2106L13.3653 10.3887L13.8079 9.49198ZM13.6164 8.96219L14.5568 8.62225L14.4279 8.26573L14.0951 8.08424L13.6164 8.96219ZM13.1324 8.69829L12.3068 9.26253L12.4425 9.46109L12.6537 9.57624L13.1324 8.69829ZM12.8366 8.2654L13.6622 7.70116L13.645 7.67594L13.6262 7.65181L12.8366 8.2654ZM12.5169 7.85401L13.3065 7.24042L13.2855 7.21336L13.2627 7.1878L12.5169 7.85401ZM12.1706 7.46632L11.3238 7.99832L11.3687 8.06968L11.4248 8.13253L12.1706 7.46632ZM11.889 7.01812L12.7357 6.48612L12.715 6.45308L12.6917 6.42175L11.889 7.01812ZM11.5768 6.5979L12.3795 6.00153L12.1407 5.68016L11.7462 5.61235L11.5768 6.5979ZM11.0647 6.5099L10.3765 5.78443L8.92913 7.15753L10.8954 7.49545L11.0647 6.5099ZM11.1338 6.30657L11.85 5.60866L11.8453 5.60397L11.1338 6.30657ZM10.8387 6.00769L11.5502 5.30509L11.5398 5.29449L11.529 5.2842L10.8387 6.00769ZM10.4622 5.6485L9.6014 6.15742L9.6718 6.27649L9.77188 6.37199L10.4622 5.6485ZM10.1897 5.18763L11.0506 4.6787L10.8442 4.32961L10.4529 4.22288L10.1897 5.18763ZM9.60879 5.02915L8.7671 5.5691L8.97469 5.89271L9.34561 5.99389L9.60879 5.02915ZM9.32197 4.58204L8.38159 4.92216L8.41973 5.02761L8.48028 5.122L9.32197 4.58204ZM9.17515 4.29567L9.89591 3.60249L9.79329 3.49578L9.66415 3.42338L9.17515 4.29567ZM8.79347 4.0817L7.87132 4.46855L8.0044 4.78576L8.30447 4.95398L8.79347 4.0817ZM8.57703 3.56577L9.49918 3.17892L9.38537 2.90764L9.14279 2.7412L8.57703 3.56577ZM8.13987 3.26582L7.30697 3.81924L7.41425 3.98071L7.5741 4.09039L8.13987 3.26582ZM7.8476 2.82596L8.6805 2.27254L8.50087 2.0022L8.19672 1.88888L7.8476 2.82596ZM7.3027 2.62295L6.30878 2.73305L6.37657 3.34507L6.95358 3.56004L7.3027 2.62295ZM9.26724 4.27037L10.241 4.49808L10.2684 4.38072L10.2672 4.26019L9.26724 4.27037ZM9.26291 3.84513L8.26938 3.7315L8.26233 3.7932L8.26296 3.8553L9.26291 3.84513ZM9.32134 3.3342L8.44978 2.84391L8.35076 3.01992L8.32782 3.22057L9.32134 3.3342ZM9.48163 3.04927L9.64214 2.06223L8.95258 1.95009L8.61006 2.55898L9.48163 3.04927ZM9.38967 4.04745C9.9348 4.1361 10.4486 3.76605 10.5372 3.22093C10.6259 2.6758 10.2558 2.16203 9.7107 2.07338L9.55018 3.06041L9.38967 4.04745ZM6.78339 2.04256L5.85049 2.4027L5.98066 2.73989L6.29634 2.91593L6.78339 2.04256ZM6.58455 1.52751L5.64993 1.88319L5.65166 1.88766L6.58455 1.52751ZM6.40564 1.05739L6.30043 0.0629345L5.00922 0.199541L5.47103 1.41306L6.40564 1.05739ZM6.802 1.01545L7.08669 0.0568341L6.89531 -2.8133e-06L6.69679 0.021002L6.802 1.01545ZM7.34268 1.17603L8.2896 1.49748L8.6237 0.513307L7.62737 0.217409L7.34268 1.17603ZM7.14783 1.74998L6.20091 1.42853L6.07348 1.80389L6.23784 2.16461L7.14783 1.74998ZM7.3879 2.27686L7.6774 3.23403L8.77207 2.90294L8.29789 1.86223L7.3879 2.27686ZM10.2011 3.25049L9.46917 3.93191L9.53731 4.0051L10.2692 3.32368L11.0011 2.64226L10.933 2.56907L10.2011 3.25049ZM10.2692 3.32368L9.61818 4.08274L9.94184 4.36033L10.5929 3.60127L11.2439 2.84221L10.9202 2.56462L10.2692 3.32368ZM10.5929 3.60127L9.62868 3.86651L9.77926 4.41388L10.7434 4.14864L11.7076 3.8834L11.557 3.33603L10.5929 3.60127ZM10.7434 4.14864L10.2637 5.02606L10.7558 5.29513L11.2356 4.41771L11.7153 3.54029L11.2232 3.27122L10.7434 4.14864ZM11.2356 4.41771L10.5873 5.17909L10.9881 5.52041L11.6364 4.75903L12.2847 3.99766L11.8839 3.65634L11.2356 4.41771ZM11.6364 4.75903L10.7159 5.14965L10.9289 5.6516L11.8494 5.26098L12.77 4.87036L12.557 4.36841L11.6364 4.75903ZM11.8494 5.26098L11.0942 5.91642L11.4353 6.30948L12.1905 5.65404L12.9458 4.99861L12.6047 4.60554L11.8494 5.26098ZM12.1905 5.65404L11.6834 6.51594L12.1501 6.79049L12.6572 5.9286L13.1643 5.0667L12.6976 4.79215L12.1905 5.65404ZM12.6572 5.9286L11.8681 6.54283L12.1871 6.95268L12.9762 6.33845L13.7653 5.72421L13.4463 5.31436L12.6572 5.9286ZM12.9762 6.33845L12.0443 6.70118L12.2556 7.2441L13.1875 6.88137L14.1194 6.51864L13.9081 5.97571L12.9762 6.33845ZM13.1875 6.88137L13.1229 7.87928L13.7488 7.91983L13.8135 6.92193L13.8781 5.92402L13.2522 5.88346L13.1875 6.88137ZM13.8135 6.92193L13.0857 7.60774L13.4509 7.99533L14.1787 7.30952L14.9065 6.62371L14.5413 6.23612L13.8135 6.92193ZM14.1787 7.30952L13.7693 8.22187L14.2772 8.4498L14.6866 7.53745L15.0961 6.6251L14.5881 6.39717L14.1787 7.30952ZM14.6866 7.53745L13.727 7.81869L13.8935 8.38697L14.8532 8.10573L15.8128 7.82449L15.6463 7.25621L14.6866 7.53745ZM14.8532 8.10573L14.1463 8.81307L14.5157 9.18222L15.2226 8.47488L15.9295 7.76754L15.5601 7.39839L14.8532 8.10573ZM15.2226 8.47488L14.4848 9.14992L14.8395 9.53759L15.5773 8.86255L16.3151 8.18752L15.9604 7.79985L15.2226 8.47488ZM15.5773 8.86255L14.9096 9.60696L15.3102 9.96633L15.9779 9.22192L16.6456 8.47751L16.245 8.11815L15.5773 8.86255ZM15.9779 9.22192L14.9794 9.1684L14.9449 9.81168L15.9434 9.86521L16.942 9.91873L16.9765 9.27544L15.9779 9.22192ZM15.9434 9.86521L15.5805 10.797L16.18 11.0305L16.5429 10.0987L16.9059 9.16689L16.3064 8.93339L15.9434 9.86521ZM16.5429 10.0987L15.5621 10.2937L15.6709 10.8407L16.6517 10.6457L17.6325 10.4507L17.5237 9.90367L16.5429 10.0987ZM16.6517 10.6457L15.9431 11.3513L16.3209 11.7307L17.0295 11.0251L17.7381 10.3195L17.3603 9.94009L16.6517 10.6457ZM17.0295 11.0251L16.0297 11.046L16.0423 11.6501L17.0421 11.6292L18.0419 11.6084L18.0293 11.0043L17.0295 11.0251ZM17.0421 11.6292L16.6723 12.5583L17.2821 12.8011L17.6519 11.872L18.0217 10.9429L17.4119 10.7001L17.0421 11.6292ZM17.6519 11.872L16.6915 12.1506L16.8432 12.6734L17.8036 12.3948L18.764 12.1162L18.6123 11.5933L17.6519 11.872ZM17.8036 12.3948L16.9396 11.8912L16.7084 12.2878L17.5724 12.7914L18.4363 13.295L18.6675 12.8984L17.8036 12.3948ZM17.5724 12.7914L18.0575 11.917L17.5893 11.6572L17.1041 12.5316L16.6189 13.406L17.0872 13.6658L17.5724 12.7914ZM17.1041 12.5316L18.0095 12.1069L17.7614 11.5782L16.8561 12.0029L15.9508 12.4276L16.1988 12.9563L17.1041 12.5316ZM16.8561 12.0029L17.1619 11.0508L16.6334 10.881L16.3275 11.8331L16.0217 12.7852L16.5503 12.955L16.8561 12.0029ZM16.3275 11.8331L16.9271 11.0327L16.5104 10.7206L15.9109 11.521L15.3113 12.3213L15.728 12.6335L16.3275 11.8331ZM15.9109 11.521L16.8058 11.0747L16.5493 10.5605L15.6544 11.0067L14.7595 11.453L15.0159 11.9672L15.9109 11.521ZM15.6544 11.0067L15.7628 10.0126L15.1537 9.94619L15.0453 10.9403L14.9369 11.9344L15.546 12.0008L15.6544 11.0067ZM15.0453 10.9403L15.8081 10.2937L15.4649 9.88888L14.7021 10.5355L13.9393 11.1821L14.2825 11.5869L15.0453 10.9403ZM14.7021 10.5355L15.4882 9.9174L15.1579 9.49727L14.3718 10.1154L13.5857 10.7335L13.916 11.1536L14.7021 10.5355ZM14.3718 10.1154L14.7185 9.17741L14.2042 8.98731L13.8575 9.92529L13.5108 10.8633L14.0251 11.0534L14.3718 10.1154ZM13.8575 9.92529L14.4643 9.13048L14.0508 8.8147L13.4439 9.6095L12.837 10.4043L13.2506 10.7201L13.8575 9.92529ZM13.4439 9.6095L14.3739 9.24194L14.1548 8.68751L13.2248 9.05507L12.2948 9.42263L12.5139 9.97706L13.4439 9.6095ZM13.2248 9.05507L13.2681 8.05601L12.6192 8.02784L12.5758 9.0269L12.5325 10.026L13.1814 10.0541L13.2248 9.05507ZM12.5758 9.0269L13.5356 8.74626L13.359 8.14229L12.3992 8.42292L11.4394 8.70356L11.616 9.30754L12.5758 9.0269ZM12.3992 8.42292L12.9514 7.58922L12.5158 7.30067L11.9636 8.13437L11.4114 8.96808L11.847 9.25663L12.3992 8.42292ZM11.9636 8.13437L12.094 7.14292L11.4842 7.06269L11.3538 8.05415L11.2233 9.04561L11.8332 9.12583L11.9636 8.13437ZM11.3538 8.05415L12.0063 7.29643L11.6116 6.95651L10.9591 7.71423L10.3065 8.47195L10.7012 8.81187L11.3538 8.05415ZM10.9591 7.71423L11.9058 7.39209L11.71 6.8167L10.7633 7.13884L9.81659 7.46097L10.0124 8.03636L10.9591 7.71423ZM10.7633 7.13884L11.2194 6.24894L10.7447 6.0056L10.2886 6.8955L9.8324 7.7854L10.3071 8.02874L10.7633 7.13884ZM10.2886 6.8955L10.9212 6.12106L10.518 5.79165L9.88531 6.56609L9.25266 7.34053L9.6559 7.66994L10.2886 6.8955ZM9.88531 6.56609L10.6203 5.88802L10.2661 5.50401L9.53105 6.18208L8.79605 6.86015L9.15031 7.24416L9.88531 6.56609ZM9.53105 6.18208L10.2564 5.49372L9.89775 5.11577L9.17238 5.80413L8.44701 6.49249L8.80569 6.87044L9.53105 6.18208ZM9.17238 5.80413L9.94289 5.1667L9.60956 4.76379L8.83906 5.40122L8.06855 6.03866L8.40188 6.44156L9.17238 5.80413ZM8.83906 5.40122L8.37312 4.5164L8.22291 4.59551L8.68884 5.48032L9.15478 6.36514L9.305 6.28604L8.83906 5.40122ZM8.68884 5.48032L9.57839 5.93716L9.62408 5.84821L8.73453 5.39137L7.84498 4.93453L7.79929 5.02349L8.68884 5.48032ZM8.73453 5.39137L9.32412 4.58367L8.92387 4.2915L8.33427 5.0992L7.74468 5.9069L8.14493 6.19907L8.73453 5.39137ZM8.33427 5.0992L8.72832 4.18011L8.20918 3.95754L7.81514 4.87663L7.42109 5.79572L7.94023 6.01829L8.33427 5.0992ZM7.81514 4.87663L8.81163 4.79288L8.75724 4.14577L7.76076 4.22951L6.76427 4.31326L6.81865 4.96037L7.81514 4.87663ZM7.76076 4.22951L8.43673 3.49259L8.0682 3.15454L7.39223 3.89147L6.71626 4.62839L7.08478 4.96644L7.76076 4.22951ZM7.39223 3.89147L6.73931 4.6489L6.89145 4.78005L7.54437 4.02262L8.19729 3.26519L8.04515 3.13404L7.39223 3.89147ZM7.54437 4.02262L7.46418 5.0194L8.04113 5.06581L8.12132 4.06903L8.2015 3.07225L7.62456 3.02584L7.54437 4.02262ZM8.12132 4.06903L7.29486 4.63203L7.61417 5.10077L8.44063 4.53777L9.26708 3.97476L8.94777 3.50603L8.12132 4.06903ZM8.44063 4.53777L8.13662 5.49044L8.65189 5.65486L8.95589 4.70219L9.2599 3.74952L8.74463 3.5851L8.44063 4.53777ZM8.95589 4.70219L8.03752 5.0979L8.098 5.23827L9.01637 4.84256L9.93475 4.44684L9.87427 4.30648L8.95589 4.70219ZM8.68884 5.48032L7.81869 4.98754L7.76941 5.07456L8.63957 5.56734L9.50972 6.06012L9.559 5.97311L8.68884 5.48032ZM8.63957 5.56734L7.66155 5.35879L7.57041 5.78621L8.54842 5.99476L9.52643 6.20331L9.61758 5.77589L8.63957 5.56734ZM8.54842 5.99476L7.78495 5.34892L7.44144 5.755L8.20491 6.40084L8.96838 7.04668L9.3119 6.6406L8.54842 5.99476ZM8.20491 6.40084L7.41061 5.79331L7.09124 6.21086L7.88554 6.81839L8.67984 7.42592L8.99921 7.00837L8.20491 6.40084ZM7.88554 6.81839L7.05802 6.25695L6.76576 6.68772L7.59328 7.24916L8.4208 7.81059L8.71306 7.37983L7.88554 6.81839ZM7.59328 7.24916L6.70548 6.78893L6.46578 7.25132L7.35359 7.71154L8.24139 8.17176L8.48109 7.70938L7.59328 7.24916ZM7.35359 7.71154L6.35749 7.62334L6.30711 8.19221L7.30322 8.28042L8.29932 8.36862L8.34969 7.79975L7.35359 7.71154ZM7.30322 8.28042L6.74357 7.45169L6.26317 7.7761L6.82282 8.60483L7.38246 9.43356L7.86286 9.10915L7.30322 8.28042ZM6.82282 8.60483L5.9492 8.11823L5.69592 8.57294L6.56954 9.05955L7.44316 9.54616L7.69644 9.09144L6.82282 8.60483ZM6.56954 9.05955L5.681 8.60075L5.44261 9.06243L6.33116 9.52122L7.2197 9.98002L7.45808 9.51834L6.56954 9.05955ZM6.33116 9.52122L5.5383 8.91181L5.21897 9.32726L6.01183 9.93668L6.80468 10.5461L7.12401 10.1306L6.33116 9.52122ZM6.01183 9.93668L5.04564 9.67883L4.90652 10.2001L5.8727 10.458L6.83889 10.7158L6.97801 10.1945L6.01183 9.93668ZM5.8727 10.458L4.91227 10.1794L4.76325 10.6933L5.72368 10.9718L6.68411 11.2504L6.83313 10.7365L5.8727 10.458ZM5.72368 10.9718L5.12227 10.1729L4.67147 10.5123L5.27289 11.3112L5.8743 12.1101L6.3251 11.7708L5.72368 10.9718ZM5.27289 11.3112L4.46886 10.7166L4.1572 11.138L4.96123 11.7326L5.76525 12.3272L6.07691 11.9058L5.27289 11.3112ZM4.96123 11.7326L4.09747 11.2287L3.82985 11.6874L4.69361 12.1913L5.55738 12.6952L5.82499 12.2365L4.96123 11.7326ZM4.69361 12.1913L3.70679 12.3532L3.8108 12.9875L4.79762 12.8257L5.78444 12.6638L5.68044 12.0295L4.69361 12.1913ZM4.79762 12.8257L4.04093 12.1719L3.6903 12.5777L4.44699 13.2315L5.20369 13.8852L5.55431 13.4794L4.79762 12.8257ZM4.44699 13.2315L3.60185 12.6969L3.32263 13.1384L4.16777 13.6729L5.01291 14.2075L5.29214 13.766L4.44699 13.2315ZM4.16777 13.6729L3.28062 13.2115L3.04085 13.6724L3.928 14.1339L4.81515 14.5954L5.05492 14.1344L4.16777 13.6729ZM3.928 14.1339L3.21026 13.4376L2.83048 13.8291L3.54822 14.5254L4.26596 15.2217L4.64574 14.8302L3.928 14.1339ZM3.54822 14.5254L4.33247 15.1458L4.4066 15.0521L3.62236 14.4317L2.83811 13.8112L2.76398 13.9049L3.54822 14.5254ZM3.62236 14.4317L4.20943 15.2412L4.63011 14.9361L4.04304 14.1266L3.45597 13.317L3.03529 13.6221L3.62236 14.4317ZM4.04304 14.1266L4.51416 15.0086L5.01208 14.7427L4.54096 13.8606L4.06983 12.9786L3.57192 13.2445L4.04304 14.1266ZM4.54096 13.8606L5.51406 14.091L5.64409 13.5418L4.67098 13.3114L3.69788 13.081L3.56785 13.6303L4.54096 13.8606ZM4.67098 13.3114L5.3944 14.0018L5.75723 13.6216L5.03382 12.9312L4.3104 12.2408L3.94757 12.621L4.67098 13.3114ZM5.03382 12.9312L5.89082 13.4465L6.15821 13.0018L5.3012 12.4865L4.44419 11.9712L4.17681 12.4159L5.03382 12.9312ZM5.3012 12.4865L6.04183 13.1584L6.39834 12.7655L5.65771 12.0935L4.91707 11.4216L4.56056 11.8146L5.3012 12.4865ZM5.65771 12.0935L6.64439 12.2562L6.73575 11.7021L5.74908 11.5394L4.7624 11.3767L4.67103 11.9309L5.65771 12.0935ZM5.74908 11.5394L6.61917 12.0323L6.876 11.5789L6.00591 11.086L5.13582 10.5931L4.87899 11.0465L5.74908 11.5394ZM6.00591 11.086L6.66571 11.8375L7.07362 11.4793L6.41382 10.7279L5.75402 9.97641L5.34611 10.3346L6.00591 11.086ZM6.41382 10.7279L7.29369 11.2031L7.54173 10.7438L6.66187 10.2686L5.782 9.79338L5.53396 10.2526L6.41382 10.7279ZM6.66187 10.2686L7.43799 10.8992L7.76838 10.4925L6.99225 9.86197L6.21613 9.23139L5.88574 9.63803L6.66187 10.2686ZM6.99225 9.86197L7.84377 10.3863L8.11638 9.94356L7.26487 9.41924L6.41335 8.89491L6.14074 9.33764L6.99225 9.86197ZM7.26487 9.41924L8.23692 9.65401L8.36623 9.11861L7.39418 8.88384L6.42213 8.64906L6.29282 9.18447L7.26487 9.41924ZM7.39418 8.88384L8.25393 9.39455L8.52027 8.94618L7.66053 8.43546L6.80078 7.92474L6.53443 8.37312L7.39418 8.88384ZM7.66053 8.43546L8.30986 9.19597L8.72134 8.84463L8.07201 8.08413L7.42267 7.32363L7.01119 7.67496L7.66053 8.43546ZM8.07201 8.08413L9.03722 8.34561L9.18104 7.81471L8.21583 7.55323L7.25063 7.29174L7.1068 7.82264L8.07201 8.08413ZM8.21583 7.55323L8.88475 8.29656L9.28521 7.9362L8.6163 7.19286L7.94738 6.44952L7.54692 6.80989L8.21583 7.55323ZM8.6163 7.19286L8.52601 8.18878L8.70605 8.2051L8.79633 7.20918L8.88662 6.21326L8.70658 6.19694L8.6163 7.19286ZM8.79633 7.20918L7.79805 7.15061L7.76573 7.70141L8.76402 7.75998L9.7623 7.81855L9.79462 7.26775L8.79633 7.20918ZM8.76402 7.75998L8.08359 7.02717L7.67079 7.41045L8.35123 8.14326L9.03166 8.87607L9.44445 8.49279L8.76402 7.75998ZM8.35123 8.14326L7.50144 7.61613L7.228 8.05695L8.07779 8.58408L8.92757 9.11121L9.20101 8.67039L8.35123 8.14326ZM8.07779 8.58408L7.11273 8.32204L6.97257 8.83821L7.93763 9.10025L8.90269 9.36229L9.04284 8.84612L8.07779 8.58408ZM7.93763 9.10025L7.11235 8.53552L6.81779 8.96598L7.64306 9.53072L8.46834 10.0954L8.7629 9.66498L7.93763 9.10025ZM7.64306 9.53072L6.65964 9.34939L6.55865 9.89711L7.54208 10.0784L8.5255 10.2598L8.62649 9.71204L7.64306 9.53072ZM7.54208 10.0784L7.1081 9.17751L6.55363 9.4446L6.98761 10.3455L7.42159 11.2464L7.97605 10.9794L7.54208 10.0784ZM6.98761 10.3455L6.04115 10.0227L5.86875 10.5281L6.8152 10.851L7.76166 11.1738L7.93406 10.6684L6.98761 10.3455ZM6.8152 10.851L5.91386 10.4179L5.68624 10.8916L6.58759 11.3247L7.48893 11.7578L7.71655 11.2841L6.8152 10.851ZM6.58759 11.3247L5.76358 10.7581L5.46815 11.1878L6.29216 11.7543L7.11617 12.3209L7.4116 11.8912L6.58759 11.3247ZM6.29216 11.7543L5.72667 10.9296L5.27093 11.242L5.83642 12.0668L6.4019 12.8916L6.85764 12.5791L6.29216 11.7543ZM5.83642 12.0668L5.02681 11.4798L4.7222 11.9L5.53181 12.4869L6.34142 13.0739L6.64602 12.6538L5.83642 12.0668ZM5.53181 12.4869L4.65588 12.0045L4.40341 12.4629L5.27933 12.9453L6.15526 13.4278L6.40774 12.9694L5.53181 12.4869ZM5.27933 12.9453L4.39253 12.4832L4.14831 12.9518L5.03511 13.414L5.92191 13.8761L6.16613 13.4075L5.27933 12.9453ZM5.03511 13.414L4.54923 12.5399L4.04807 12.8185L4.53395 13.6926L5.01983 14.5666L5.52099 14.288L5.03511 13.414ZM4.53395 13.6926L3.55473 13.4898L3.43922 14.0475L4.41843 14.2503L5.39765 14.4531L5.51317 13.8954L4.53395 13.6926ZM4.41843 14.2503L3.72865 13.5263L3.34365 13.8931L4.03343 14.6171L4.72321 15.3411L5.10822 14.9743L4.41843 14.2503ZM4.03343 14.6171L3.05621 14.4049L2.93753 14.9514L3.91476 15.1636L4.89198 15.3758L5.01066 14.8293L4.03343 14.6171ZM3.91476 15.1636L3.16043 14.5071L2.81614 14.9027L3.57046 15.5592L4.32478 16.2157L4.66908 15.8201L3.91476 15.1636ZM3.57046 15.5592L2.63848 15.1967L2.44549 15.6928L3.37747 16.0554L4.30945 16.4179L4.50244 15.9217L3.57046 15.5592ZM3.37747 16.0554L2.92123 15.1655L2.39161 15.437L2.84785 16.3269L3.30409 17.2168L3.83371 16.9452L3.37747 16.0554ZM2.84785 16.3269L1.8771 16.0868L1.74378 16.6258L2.71453 16.8659L3.68528 17.106L3.8186 16.567L2.84785 16.3269ZM2.71453 16.8659L2.03022 16.1368L1.64439 16.4988L2.3287 17.228L3.01301 17.9572L3.39884 17.5951L2.71453 16.8659ZM2.3287 17.228L1.75272 16.4106L1.24754 16.7665L1.82352 17.584L2.39949 18.4014L2.90467 18.0455L2.3287 17.228ZM1.82352 17.584L2.77876 17.8798L2.96399 17.2817L2.00874 16.9858L1.0535 16.69L0.868271 17.2882L1.82352 17.584ZM2.00874 16.9858L3.00716 17.042L3.03695 16.5125L2.03853 16.4564L1.04011 16.4002L1.01032 16.9297L2.00874 16.9858ZM2.03853 16.4564L3.03838 16.4389L3.02885 15.8936L2.029 15.9111L1.02916 15.9286L1.03868 16.4738L2.03853 16.4564ZM2.029 15.9111L2.92723 16.3506L3.16006 15.8748L2.26183 15.4353L1.3636 14.9958L1.13078 15.4716L2.029 15.9111ZM2.26183 15.4353L2.90567 16.2005L3.37689 15.804L2.73305 15.0388L2.08922 14.2736L1.61799 14.6701L2.26183 15.4353ZM2.73305 15.0388L3.7091 14.8212L3.57788 14.2325L2.60183 14.4501L1.62578 14.6676L1.757 15.2563L2.73305 15.0388ZM2.60183 14.4501L3.53755 14.8028L3.72112 14.3159L2.7854 13.9631L1.84968 13.6104L1.66611 14.0973L2.60183 14.4501ZM2.7854 13.9631L3.7305 14.2899L3.90125 13.7961L2.95616 13.4693L2.01106 13.1425L1.8403 13.6363L2.7854 13.9631ZM2.95616 13.4693L3.86513 13.8861L4.08343 13.4101L3.17445 12.9933L2.26548 12.5764L2.04718 13.0524L2.95616 13.4693ZM3.17445 12.9933L3.96514 13.6055L4.293 13.1821L3.50232 12.5698L2.71163 11.9576L2.38377 12.3811L3.17445 12.9933ZM3.50232 12.5698L4.50208 12.5917L4.51456 12.0215L3.5148 11.9996L2.51504 11.9778L2.50256 12.548L3.50232 12.5698ZM3.5148 11.9996L4.26931 12.6559L4.62303 12.2493L3.86852 11.593L3.11401 10.9367L2.76029 11.3433L3.5148 11.9996ZM3.86852 11.593L4.74368 12.0768L4.99548 11.6213L4.12032 11.1375L3.24515 10.6537L2.99335 11.1091L3.86852 11.593ZM4.12032 11.1375L5.11714 11.2171L5.16205 10.6548L4.16522 10.5752L3.1684 10.4956L3.12349 11.0579L4.12032 11.1375ZM4.16522 10.5752L4.92262 11.2281L5.27185 10.8231L4.51445 10.1701L3.75705 9.51715L3.40783 9.92224L4.16522 10.5752ZM4.51445 10.1701L5.42589 10.5815L5.64007 10.1071L4.72863 9.69564L3.81719 9.2842L3.60301 9.75868L4.51445 10.1701ZM4.72863 9.69564L5.26954 10.5367L5.7758 10.2111L5.23489 9.37006L4.69398 8.52897L4.18772 8.85455L4.72863 9.69564ZM5.23489 9.37006L6.20549 9.61076L6.33407 9.09227L5.36347 8.85157L4.39287 8.61087L4.26429 9.12936L5.23489 9.37006ZM5.36347 8.85157L6.10734 9.5199L6.47061 9.11557L5.72675 8.44724L4.98288 7.77891L4.61961 8.18324L5.36347 8.85157ZM5.72675 8.44724L6.68364 8.73767L6.83734 8.23127L5.88044 7.94084L4.92355 7.65041L4.76985 8.15681L5.72675 8.44724ZM5.88044 7.94084L6.88043 7.94634L6.88354 7.3807L5.88355 7.3752L4.88357 7.3697L4.88046 7.93534L5.88044 7.94084ZM5.88355 7.3752L6.80255 7.76947L7.00662 7.2938L6.08763 6.89953L5.16864 6.50525L4.96456 6.98092L5.88355 7.3752ZM6.08763 6.89953L7.06413 7.11502L7.17505 6.61243L6.19854 6.39693L5.22204 6.18143L5.11112 6.68403L6.08763 6.89953ZM6.19854 6.39693L7.15842 6.67734L7.30441 6.17761L6.34453 5.8972L5.38465 5.6168L5.23866 6.11652L6.19854 6.39693ZM6.34453 5.8972L7.23067 6.36062L7.47755 5.88854L6.59141 5.42512L5.70527 4.9617L5.45839 5.43378L6.34453 5.8972ZM6.59141 5.42512L7.58735 5.33507L7.53747 4.78336L6.54153 4.8734L5.54559 4.96345L5.59547 5.51516L6.59141 5.42512ZM6.54153 4.8734L7.21493 5.61268L7.67299 5.19544L6.99959 4.45616L6.32619 3.71688L5.86813 4.13413L6.54153 4.8734ZM6.99959 4.45616L7.99409 4.35139L7.93594 3.79937L6.94144 3.90414L5.94694 4.0089L6.0051 4.56092L6.99959 4.45616ZM6.94144 3.90414L7.84946 4.32307L8.07218 3.84032L7.16416 3.42139L6.25614 3.00246L6.03342 3.48521L6.94144 3.90414ZM7.16416 3.42139L8.15855 3.52718L8.2141 3.00504L7.21971 2.89925L6.22533 2.79346L6.16978 3.3156L7.16416 3.42139ZM7.21971 2.89925L8.19655 3.11323L8.30872 2.60115L7.33189 2.38718L6.35505 2.1732L6.24288 2.68527L7.21971 2.89925ZM7.33189 2.38718L8.09139 1.73668L8.02787 1.66251L7.26836 2.31301L6.50886 2.96351L6.57238 3.03768L7.33189 2.38718ZM8.68884 5.48032L9.57839 5.93716L9.62408 5.84821L8.73453 5.39137L7.84498 4.93453L7.79929 5.02349L8.68884 5.48032ZM8.73453 5.39137L9.07258 6.3325L9.31249 6.24632L8.97444 5.30519L8.63638 4.36407L8.39647 4.45024L8.73453 5.39137ZM8.97444 5.30519L9.96468 5.16584L9.91572 4.81794L8.92548 4.95729L7.93524 5.09664L7.98419 5.44454L8.97444 5.30519ZM8.92548 4.95729L9.41605 5.82869L9.56699 5.74372L9.07642 4.87232L8.58585 4.00091L8.43491 4.08589L8.92548 4.95729ZM9.07642 4.87232L9.52049 3.97632L9.46044 3.94656L9.01637 4.84256L8.57231 5.73855L8.63235 5.76831L9.07642 4.87232ZM9.01637 4.84256L8.44176 5.66098L8.5236 5.71844L9.09822 4.90002L9.67284 4.0816L9.59099 4.02413L9.01637 4.84256ZM9.09822 4.90002L8.40008 5.61598L8.70516 5.91346L9.40329 5.1975L10.1014 4.48153L9.79635 4.18405L9.09822 4.90002ZM9.40329 5.1975L9.23943 6.18398L9.80712 6.27828L9.97099 5.2918L10.1348 4.30531L9.56716 4.21101L9.40329 5.1975ZM9.97099 5.2918L9.46085 6.15189L9.91053 6.4186L10.4207 5.5585L10.9308 4.69841L10.4811 4.4317L9.97099 5.2918ZM10.4207 5.5585L9.73826 6.28948L10.1224 6.64809L10.8048 5.91711L11.4872 5.18613L11.1031 4.82752L10.4207 5.5585ZM10.8048 5.91711L9.87505 6.28531L10.1024 6.85937L11.0321 6.49117L11.9619 6.12297L11.7345 5.54891L10.8048 5.91711ZM11.0321 6.49117L11.5825 7.32613L11.7539 7.21315L11.2036 6.37819L10.6532 5.54323L10.4818 5.65621L11.0321 6.49117ZM9.01637 4.84256L9.91776 5.27556L9.96107 5.18543L9.05968 4.75242L8.15829 4.31941L8.11498 4.40955L9.01637 4.84256ZM9.05968 4.75242L9.35943 5.70643L9.51373 5.65795L9.21398 4.70394L8.91422 3.74992L8.75992 3.7984L9.05968 4.75242ZM9.21398 4.70394L10.0871 4.21649L9.90972 3.8987L9.03657 4.38615L8.16342 4.87359L8.34082 5.19138L9.21398 4.70394ZM9.03657 4.38615L8.85927 5.37031L9.26032 5.44256L9.43762 4.4584L9.61492 3.47424L9.21387 3.40199L9.03657 4.38615ZM9.43762 4.4584L9.8625 3.55315L9.66934 3.46249L9.24446 4.36774L8.81959 5.27299L9.01274 5.36365L9.43762 4.4584ZM11.2036 6.37819L10.4802 7.06864L10.5492 7.14098L11.2726 6.45053L11.996 5.76008L11.9269 5.68775L11.2036 6.37819ZM11.2726 6.45053L11.0752 7.43084L11.5304 7.52253L11.7279 6.54222L11.9253 5.56191L11.47 5.47022L11.2726 6.45053ZM11.7279 6.54222L11.0479 7.27549L11.4322 7.63178L12.1121 6.89851L12.792 6.16524L12.4078 5.80895L11.7279 6.54222ZM12.1121 6.89851L11.4116 7.61213L11.7864 7.98014L12.487 7.26653L13.1875 6.55291L12.8126 6.1849L12.1121 6.89851ZM12.487 7.26653L11.7271 7.91657L12.0734 8.32145L12.8333 7.6714L13.5932 7.02136L13.2469 6.61648L12.487 7.26653ZM12.8333 7.6714L12.4563 8.5976L12.9581 8.80187L13.3351 7.87568L13.7122 6.94948L13.2104 6.74521L12.8333 7.6714ZM13.3351 7.87568L12.7302 8.67195L13.145 8.98709L13.7499 8.19082L14.3549 7.39455L13.9401 7.07941L13.3351 7.87568ZM13.7499 8.19082L12.9562 8.79907L13.2808 9.22266L14.0745 8.61441L14.8683 8.00617L14.5437 7.58258L13.7499 8.19082ZM14.0745 8.61441L13.2165 9.12796L13.4943 9.59221L14.3524 9.07866L15.2104 8.5651L14.9326 8.10086L14.0745 8.61441ZM14.3524 9.07866L13.6308 9.77101L13.9872 10.1424L14.7087 9.45003L15.4303 8.75768L15.0739 8.3863L14.3524 9.07866ZM14.7087 9.45003L14.3756 10.3929L14.9201 10.5853L15.2532 9.64242L15.5864 8.69955L15.0419 8.50716L14.7087 9.45003ZM15.2532 9.64242L14.3754 10.1213L14.6309 10.5897L15.5087 10.1108L16.3866 9.63187L16.1311 9.1635L15.2532 9.64242ZM15.5087 10.1108L15.1086 11.0272L15.6519 11.2645L16.0521 10.348L16.4523 9.4316L15.9089 9.19434L15.5087 10.1108ZM16.0521 10.348L15.1393 10.7564L15.3624 11.255L16.2752 10.8467L17.188 10.4383L16.9649 9.93966L16.0521 10.348ZM16.2752 10.8467L15.2771 10.7844L15.2545 11.1467L16.2526 11.209L17.2506 11.2712L17.2732 10.9089L16.2752 10.8467ZM16.2526 11.209L16.306 10.2104L15.856 10.1863L15.8027 11.1849L15.7493 12.1835L16.1992 12.2075L16.2526 11.209ZM15.8027 11.1849L16.3796 10.3681L15.9516 10.0658L15.3747 10.8826L14.7978 11.6994L15.2257 12.0017L15.8027 11.1849ZM15.3747 10.8826L16.2766 10.4508L16.0352 9.94659L15.1333 10.3785L14.2314 10.8103L14.4728 11.3145L15.3747 10.8826ZM15.1333 10.3785L15.6457 9.51974L15.1886 9.24695L14.6762 10.1057L14.1637 10.9644L14.6209 11.2372L15.1333 10.3785ZM14.6762 10.1057L15.3823 9.39756L15.0145 9.03086L14.3084 9.73898L13.6023 10.4471L13.9701 10.8138L14.6762 10.1057ZM14.3084 9.73898L14.7509 8.84222L14.2504 8.59522L13.8079 9.49198L13.3653 10.3887L13.8659 10.6357L14.3084 9.73898ZM13.8079 9.49198L14.7483 9.15204L14.5568 8.62225L13.6164 8.96219L12.6759 9.30212L12.8674 9.83191L13.8079 9.49198ZM13.6164 8.96219L14.0951 8.08424L13.6112 7.82035L13.1324 8.69829L12.6537 9.57624L13.1376 9.84013L13.6164 8.96219ZM13.1324 8.69829L13.958 8.13405L13.6622 7.70116L12.8366 8.2654L12.011 8.82964L12.3068 9.26253L13.1324 8.69829ZM12.8366 8.2654L13.6262 7.65181L13.3065 7.24042L12.5169 7.85401L11.7273 8.4676L12.047 8.87899L12.8366 8.2654ZM12.5169 7.85401L13.2627 7.1878L12.9163 6.80011L12.1706 7.46632L11.4248 8.13253L11.7711 8.52022L12.5169 7.85401ZM12.1706 7.46632L13.0173 6.93432L12.7357 6.48612L11.889 7.01812L11.0422 7.55012L11.3238 7.99832L12.1706 7.46632ZM11.889 7.01812L12.6917 6.42175L12.3795 6.00153L11.5768 6.5979L10.7741 7.19427L11.0863 7.61449L11.889 7.01812ZM11.5768 6.5979L11.7462 5.61235L11.2341 5.52435L11.0647 6.5099L10.8954 7.49545L11.4074 7.58345L11.5768 6.5979ZM11.0647 6.5099L11.753 7.23537L11.8918 7.10366L11.2036 6.37819L10.5153 5.65272L10.3765 5.78443L11.0647 6.5099ZM11.2036 6.37819L11.9198 5.68029L11.85 5.60867L11.1338 6.30657L10.4176 7.00447L10.4874 7.07609L11.2036 6.37819ZM11.1338 6.30657L11.8453 5.60397L11.5502 5.30509L10.8387 6.00769L10.1271 6.7103L10.4222 7.00918L11.1338 6.30657ZM10.8387 6.00769L11.529 5.2842L11.1525 4.92501L10.4622 5.6485L9.77188 6.37199L10.1483 6.73118L10.8387 6.00769ZM10.4622 5.6485L11.323 5.13957L11.0506 4.6787L10.1897 5.18763L9.32893 5.69655L9.6014 6.15742L10.4622 5.6485ZM10.1897 5.18763L10.4529 4.22288L9.87197 4.0644L9.60879 5.02915L9.34561 5.99389L9.92656 6.15237L10.1897 5.18763ZM9.60879 5.02915L10.4505 4.48919L10.1637 4.04209L9.32197 4.58204L8.48028 5.122L8.7671 5.5691L9.60879 5.02915ZM9.32197 4.58204L10.2624 4.24192L10.1848 4.02762L9.24446 4.36774L8.30408 4.70786L8.38159 4.92216L9.32197 4.58204ZM9.24446 4.36774L9.96523 3.67456L9.89591 3.60249L9.17515 4.29567L8.45438 4.98885L8.5237 5.06092L9.24446 4.36774ZM9.17515 4.29567L9.66415 3.42338L9.28247 3.20941L8.79347 4.0817L8.30447 4.95398L8.68614 5.16795L9.17515 4.29567ZM8.79347 4.0817L9.71561 3.69485L9.49918 3.17892L8.57703 3.56577L7.65489 3.95262L7.87132 4.46855L8.79347 4.0817ZM8.57703 3.56577L9.14279 2.7412L8.70563 2.44125L8.13987 3.26582L7.5741 4.09039L8.01127 4.39034L8.57703 3.56577ZM8.13987 3.26582L8.97277 2.7124L8.6805 2.27254L7.8476 2.82596L7.0147 3.37938L7.30697 3.81924L8.13987 3.26582ZM7.8476 2.82596L8.19672 1.88888L7.65181 1.68587L7.3027 2.62295L6.95358 3.56004L7.49849 3.76304L7.8476 2.82596ZM7.3027 2.62295L8.29662 2.51286L8.26228 2.20291L7.26836 2.31301L6.27444 2.42311L6.30878 2.73305L7.3027 2.62295ZM9.24446 4.36774L10.2182 4.59545L10.241 4.49808L9.26724 4.27037L8.29351 4.04266L8.27073 4.14004L9.24446 4.36774ZM9.26724 4.27037L10.2672 4.26019L10.2629 3.83495L9.26291 3.84513L8.26296 3.8553L8.26729 4.28054L9.26724 4.27037ZM9.26291 3.84513L10.2564 3.95875L10.3149 3.44782L9.32134 3.3342L8.32782 3.22057L8.26938 3.7315L9.26291 3.84513ZM9.32134 3.3342L10.1929 3.82448L10.3532 3.53955L9.48163 3.04927L8.61006 2.55898L8.44978 2.84391L9.32134 3.3342ZM9.48163 3.04927L9.32111 4.0363L9.38967 4.04745L9.55018 3.06041L9.7107 2.07338L9.64214 2.06223L9.48163 3.04927ZM7.26836 2.31301L7.75541 1.43963L7.27043 1.16918L6.78339 2.04256L6.29634 2.91593L6.78131 3.18638L7.26836 2.31301ZM6.78339 2.04256L7.71628 1.6824L7.51744 1.16736L6.58455 1.52751L5.65166 1.88766L5.85049 2.4027L6.78339 2.04256ZM6.58455 1.52751L7.51916 1.17184L7.34025 0.701715L6.40564 1.05739L5.47103 1.41306L5.64994 1.88318L6.58455 1.52751ZM6.40564 1.05739L6.51085 2.05184L6.90721 2.0099L6.802 1.01545L6.69679 0.021002L6.30043 0.0629345L6.40564 1.05739ZM6.802 1.01545L6.5173 1.97407L7.05798 2.13464L7.34268 1.17603L7.62737 0.217409L7.08669 0.0568341L6.802 1.01545ZM7.34268 1.17603L6.39575 0.85457L6.20091 1.42853L7.14783 1.74998L8.09476 2.07144L8.2896 1.49748L7.34268 1.17603ZM7.14783 1.74998L6.23784 2.16461L6.4779 2.69148L7.3879 2.27686L8.29789 1.86223L8.05782 1.33536L7.14783 1.74998ZM7.3879 2.27686L7.09839 1.31968L6.97886 1.35583L7.26836 2.31301L7.55787 3.27019L7.6774 3.23403L7.3879 2.27686Z" fill="white"/>
</svg>
