<svg width="57" height="69" viewBox="0 0 57 69" fill="none" xmlns="http://www.w3.org/2000/svg">
<path d="M55.3184 68.5518C55.8078 68.8076 56.412 68.6183 56.6678 68.1289C56.9237 67.6394 56.7343 67.0352 56.2449 66.7794L55.7816 67.6656L55.3184 68.5518ZM55.693 67.6192L55.2009 68.4898L55.2152 68.4978L55.2297 68.5055L55.693 67.6192ZM55.3271 67.4124L54.4897 67.959L54.6229 68.163L54.835 68.2829L55.3271 67.4124ZM55.0163 66.9363L55.8537 66.3897L55.6108 66.0175L55.1718 65.9485L55.0163 66.9363ZM54.4628 66.8492L54.125 67.7904L54.214 67.8223L54.3074 67.837L54.4628 66.8492ZM53.9697 66.6722L53.2491 67.3656L53.4115 67.5343L53.6318 67.6134L53.9697 66.6722ZM53.5925 66.2802L54.3131 65.5868L54.2039 65.4734L54.0653 65.399L53.5925 66.2802ZM53.1353 66.0349L53.6081 65.1537L53.4684 65.0788L53.3125 65.0508L53.1353 66.0349ZM52.6018 65.9389L52.0586 66.7785L52.2271 66.8875L52.4247 66.9231L52.6018 65.9389ZM52.1631 65.655L51.3761 66.2719L51.4793 66.4036L51.6198 66.4946L52.1631 65.655ZM51.8061 65.1996L52.5931 64.5826L52.2319 64.1219L51.6533 64.2113L51.8061 65.1996ZM51.1851 65.2955L50.5766 66.0891L50.9156 66.3491L51.3379 66.2838L51.1851 65.2955ZM50.7627 64.9716L51.3712 64.1781L51.1756 64.028L50.9327 63.9861L50.7627 64.9716ZM50.2293 64.8796L49.4468 65.5023L49.684 65.8003L50.0593 65.865L50.2293 64.8796ZM49.8677 64.4253L50.6502 63.8026L50.4546 63.5568L50.1536 63.4671L49.8677 64.4253ZM49.3675 64.2761L49.0813 65.2343L49.0816 65.2343L49.3675 64.2761ZM48.8622 64.1252L49.1483 63.167L49.0891 63.1493L49.0282 63.139L48.8622 64.1252ZM48.3339 64.0362L47.4666 64.534L47.7018 64.9439L48.1679 65.0224L48.3339 64.0362ZM48.0141 63.4791L48.8814 62.9814L48.519 62.3498L47.8067 62.5009L48.0141 63.4791ZM47.3803 63.6136L46.6718 64.3192L47.0556 64.7047L47.5878 64.5918L47.3803 63.6136ZM46.9913 63.223L47.6998 62.5173L47.4828 62.2994L47.1808 62.2411L46.9913 63.223ZM46.4632 63.1211L45.6525 63.7065L45.8845 64.0278L46.2737 64.1029L46.4632 63.1211ZM46.112 62.6347L46.9227 62.0493L46.5257 61.4995L45.8681 61.6649L46.112 62.6347ZM45.4728 62.7955L44.894 63.611L45.2698 63.8777L45.7167 63.7653L45.4728 62.7955ZM45.043 62.4905L45.6217 61.675L45.5691 61.6376L45.5121 61.6074L45.043 62.4905ZM44.5771 62.243L45.0463 61.3599L44.9759 61.3225L44.9006 61.2968L44.5771 62.243ZM44.0898 62.0764L43.3281 62.7244L43.5062 62.9338L43.7664 63.0227L44.0898 62.0764ZM43.7063 61.6256L44.4681 60.9777L44.18 60.639L43.7356 60.6261L43.7063 61.6256ZM43.158 61.6096L42.8029 62.5444L42.9604 62.6042L43.1288 62.6092L43.158 61.6096ZM42.668 61.4234L41.9281 62.0962L42.0891 62.2733L42.3129 62.3583L42.668 61.4234ZM42.2832 61.0002L43.0231 60.3275L42.6563 59.9241L42.1186 60.0138L42.2832 61.0002ZM41.6799 61.1009L41.1247 61.9326L41.4539 62.1524L41.8444 62.0872L41.6799 61.1009ZM41.2344 60.8035L40.6501 61.615L40.6644 61.6253L40.6792 61.6352L41.2344 60.8035ZM40.8059 60.495L41.3902 59.6834L41.1586 59.5167L40.8739 59.4973L40.8059 60.495ZM40.2547 60.4574L39.9033 61.3936L40.0404 61.4451L40.1866 61.455L40.2547 60.4574ZM39.7694 60.2752L38.9863 60.8972L39.1586 61.1141L39.418 61.2114L39.7694 60.2752ZM39.3999 59.8101L40.1829 59.1881L39.7798 58.6806L39.1519 58.8413L39.3999 59.8101ZM38.7649 59.9726L37.9307 60.5242L38.3233 61.1179L39.0128 60.9414L38.7649 59.9726ZM38.4172 59.4469L39.2513 58.8953L39.0533 58.5958L38.71 58.4907L38.4172 59.4469ZM37.9191 59.2944L38.2119 58.3382L37.9966 58.2722L37.7738 58.305L37.9191 59.2944ZM37.3103 59.3837L36.8806 60.2867L37.155 60.4173L37.4556 60.3731L37.3103 59.3837ZM36.8384 59.1592L36.0051 59.712L36.1584 59.943L36.4087 60.0622L36.8384 59.1592ZM36.5023 58.6525L37.3357 58.0997L37.1147 57.7666L36.725 57.6776L36.5023 58.6525ZM35.9825 58.5337L35.5536 59.4371L35.6528 59.4842L35.7598 59.5086L35.9825 58.5337ZM35.5125 58.3107L34.9573 59.1424L35.0179 59.1828L35.0837 59.2141L35.5125 58.3107ZM35.0774 58.0202L35.6325 57.1885L35.6263 57.1843L35.62 57.1802L35.0774 58.0202ZM34.6395 57.7374L34.0452 58.5416L34.0705 58.5603L34.0969 58.5774L34.6395 57.7374ZM34.2182 57.426L34.8125 56.6218L34.5489 56.427L34.2211 56.4261L34.2182 57.426ZM33.6245 57.4243L32.9678 58.1784L33.2489 58.4232L33.6216 58.4243L33.6245 57.4243ZM33.2238 57.0754L33.8806 56.3213L33.6827 56.149L33.4257 56.096L33.2238 57.0754ZM32.6859 56.9645L31.8568 57.5237L32.0847 57.8616L32.484 57.9439L32.6859 56.9645ZM32.3637 56.4868L33.1927 55.9277L33.0345 55.693L32.7768 55.5761L32.3637 56.4868ZM31.887 56.2705L31.3699 57.1264L31.4202 57.1569L31.4739 57.1812L31.887 56.2705ZM31.4418 56.0016L31.959 55.1457L31.8796 55.0977L31.7928 55.0652L31.4418 56.0016ZM30.9445 55.8151L30.3416 56.613L30.4575 56.7005L30.5935 56.7515L30.9445 55.8151ZM30.5277 55.5002L29.9155 56.291L29.9248 56.298L30.5277 55.5002ZM30.1147 55.1805L30.7268 54.3897L30.7153 54.3808L30.7035 54.3723L30.1147 55.1805ZM29.6938 54.8738L30.2827 54.0656L30.2077 54.011L30.124 53.9711L29.6938 54.8738ZM29.2193 54.6476L28.776 55.544L28.7825 55.5472L28.789 55.5504L29.2193 54.6476ZM28.7483 54.4147L28.1612 55.2243L28.2294 55.2737L28.305 55.3111L28.7483 54.4147ZM28.3265 54.1088L27.6963 54.8853L27.7174 54.9024L27.7394 54.9184L28.3265 54.1088ZM27.921 53.7798L27.0506 54.2721L27.1438 54.4369L27.2908 54.5562L27.921 53.7798ZM27.6375 53.2784L28.5079 52.7861L28.3717 52.5454L28.1312 52.4088L27.6375 53.2784ZM27.1835 53.0207L27.6772 52.1511L27.5464 52.0768L27.3996 52.0443L27.1835 53.0207ZM26.6314 52.8985L26.0512 53.713L26.2168 53.831L26.4153 53.8749L26.6314 52.8985ZM26.2073 52.5965L25.4145 53.2059L25.5055 53.3243L25.6271 53.411L26.2073 52.5965ZM25.8769 52.1666L26.6697 51.5572L26.622 51.4951L26.5651 51.4412L25.8769 52.1666ZM25.4968 51.8061L26.1851 51.0806L26.167 51.0635L26.1482 51.0473L25.4968 51.8061ZM25.1001 51.4656L24.4401 52.2169L24.4488 52.2243L25.1001 51.4656ZM24.709 51.1221L25.369 50.3707L25.2879 50.2995L25.1934 50.2472L24.709 51.1221ZM24.2492 50.8674L23.5979 51.6263L23.6754 51.6928L23.7648 51.7423L24.2492 50.8674ZM23.8565 50.5305L23.1143 51.2007L23.1569 51.2479L23.2052 51.2894L23.8565 50.5305ZM23.5012 50.1371L24.2434 49.4669L24.027 49.2273L23.7114 49.1594L23.5012 50.1371ZM22.9372 50.0158L22.5195 50.9244L22.6195 50.9704L22.7271 50.9935L22.9372 50.0158ZM22.4505 49.7921L21.6906 50.4422L21.8333 50.609L22.0328 50.7007L22.4505 49.7921ZM22.1052 49.3885L22.8651 48.7384L22.8221 48.6882L22.7729 48.644L22.1052 49.3885ZM21.7186 49.0418L22.3863 48.2973L22.3477 48.2628L22.3058 48.2324L21.7186 49.0418ZM21.296 48.7352L20.6677 49.5132L20.6879 49.5295L20.7088 49.5447L21.296 48.7352ZM20.8903 48.4076L19.9949 48.8529L20.0921 49.0484L20.262 49.1856L20.8903 48.4076ZM20.6391 47.9024L21.5345 47.4571L21.3596 47.1054L20.9921 46.9668L20.6391 47.9024ZM20.1214 47.7071L19.4038 48.4035L19.5594 48.5639L19.7684 48.6428L20.1214 47.7071ZM19.757 47.3316L20.4747 46.6352L20.4386 46.5981L20.3989 46.5648L19.757 47.3316ZM19.3583 46.9978L18.6471 47.7008L18.6803 47.7344L18.7164 47.7646L19.3583 46.9978ZM18.9933 46.6286L18.1408 47.1513L18.201 47.2496L18.2821 47.3316L18.9933 46.6286ZM18.7105 46.1673L19.563 45.6446L19.3152 45.2405L18.8456 45.1765L18.7105 46.1673ZM18.078 46.0811L17.0895 46.2324L17.2026 46.9709L17.9429 47.0719L18.078 46.0811ZM17.9784 45.4308L18.9669 45.2794L18.9129 44.9266L18.6476 44.6877L17.9784 45.4308ZM17.5935 45.0841L18.2627 44.341L18.1552 44.2442L18.0247 44.1818L17.5935 45.0841ZM17.0987 44.8476L16.6056 45.7176L16.636 45.7348L16.6675 45.7498L17.0987 44.8476ZM16.6286 44.5811L15.9098 45.2763L16.01 45.38L16.1354 45.4511L16.6286 44.5811ZM16.2653 44.2056L16.9841 43.5104L16.971 43.4967L16.9573 43.4837L16.2653 44.2056ZM15.8879 43.8438L14.9012 44.0062L14.9553 44.3351L15.1959 44.5657L15.8879 43.8438ZM15.7865 43.2276L16.7732 43.0653L16.7026 42.6359L16.3403 42.395L15.7865 43.2276ZM15.341 42.9314L14.4979 43.4692L14.6115 43.6471L14.7872 43.764L15.341 42.9314ZM15.0584 42.4884L15.9015 41.9506L15.8026 41.7955L15.6549 41.6857L15.0584 42.4884ZM14.6316 42.1712L13.8055 42.7347L13.9002 42.8736L14.0352 42.9739L14.6316 42.1712ZM14.3376 41.7402L15.1637 41.1767L15.0162 40.9605L14.7817 40.8442L14.3376 41.7402ZM13.8258 41.4865L12.8268 41.5324L12.8538 42.1208L13.3816 42.3824L13.8258 41.4865ZM13.7963 40.8457L14.7953 40.7998L14.7672 40.1885L14.2101 39.9353L13.7963 40.8457ZM13.26 40.6019L12.3599 41.0376L12.5173 41.3628L12.8462 41.5123L13.26 40.6019ZM13.0291 40.125L13.9292 39.6893L13.9061 39.6416L13.8781 39.5966L13.0291 40.125ZM12.7547 39.684L13.6037 39.1557L13.479 38.9553L13.2779 38.8319L12.7547 39.684ZM12.2685 39.3855L11.2977 39.6254L11.396 40.0232L11.7452 40.2377L12.2685 39.3855ZM12.1356 38.8477L13.1064 38.6078L13.0737 38.4755L13.0067 38.3567L12.1356 38.8477ZM11.8812 38.3964L10.9071 38.6223L10.9395 38.7623L11.0101 38.8874L11.8812 38.3964ZM11.7574 37.8622L12.7316 37.6364L12.6314 37.2046L12.2443 36.9888L11.7574 37.8622ZM11.2352 37.5711L10.3518 38.0397L10.4902 38.3007L10.7483 38.4446L11.2352 37.5711ZM10.9913 37.1113L10.0274 37.3774L10.0565 37.4831L10.1079 37.5799L10.9913 37.1113ZM10.8479 36.5916L11.8118 36.3256L11.7971 36.2722L11.7765 36.2207L10.8479 36.5916ZM10.6535 36.1051L11.5822 35.7341L11.5382 35.6241L11.4698 35.5275L10.6535 36.1051ZM10.3516 35.6784L11.1679 35.1008L11.1161 35.0277L11.0522 34.9649L10.3516 35.6784ZM9.96595 35.2998L9.15626 35.8866L9.20549 35.9545L9.26533 36.0133L9.96595 35.2998ZM9.65837 34.8754L8.84422 35.4561L8.84868 35.4623L9.65837 34.8754ZM9.35386 34.4485L8.3568 34.3718L8.32897 34.7337L8.53973 35.0292L9.35386 34.4485ZM9.40143 33.8298L10.3985 33.9065L10.4485 33.2558L9.87307 32.9481L9.40143 33.8298ZM8.85247 33.5362L7.90266 33.8491L8.02788 34.2292L8.38082 34.418L8.85247 33.5362ZM8.687 33.0339L9.63681 32.721L9.60596 32.6273L9.5574 32.5415L8.687 33.0339ZM8.43083 32.581L7.46757 32.8495L7.50035 32.9671L7.56042 33.0733L8.43083 32.581ZM8.28782 32.0681L9.25107 31.7995L9.19864 31.6114L9.07932 31.4569L8.28782 32.0681ZM7.9651 31.6501L6.98242 31.8354L7.02689 32.0713L7.17359 32.2613L7.9651 31.6501ZM7.86439 31.116L8.84708 30.9307L8.7989 30.6752L8.63239 30.4756L7.86439 31.116ZM7.52339 30.7071L6.52553 30.7726L6.54685 31.0975L6.75539 31.3476L7.52339 30.7071ZM7.48629 30.1417L8.48415 30.0762L8.44804 29.5258L7.96319 29.2627L7.48629 30.1417ZM6.93186 29.8408L5.94199 29.6988L5.84312 30.3878L6.45496 30.7198L6.93186 29.8408ZM7.02199 29.2127L8.01185 29.3547L8.06222 29.0037L7.88019 28.6994L7.02199 29.2127ZM6.75451 28.7655L7.61272 28.2522L7.46733 28.0091L7.21608 27.8784L6.75451 28.7655ZM6.18354 28.4684L5.24009 28.7999L5.37118 29.173L5.72198 29.3555L6.18354 28.4684ZM6.00982 27.974L5.02424 28.1432L5.03847 28.2261L5.06636 28.3055L6.00982 27.974ZM5.91788 27.4385L4.92236 27.533L4.92592 27.5705L4.9323 27.6077L5.91788 27.4385ZM5.86555 26.8875L6.86107 26.793L6.82826 26.4474L6.58842 26.1965L5.86555 26.8875ZM5.48729 26.4918L4.55077 26.8424L4.62269 27.0345L4.76442 27.1828L5.48729 26.4918ZM5.3049 26.0047L6.24142 25.654L6.21836 25.5925L6.18744 25.5344L5.3049 26.0047ZM5.06 25.545L5.94254 25.0748L5.93335 25.0576L5.9235 25.0407L5.06 25.545ZM4.79567 25.0925L3.81344 25.2802L3.84563 25.4487L3.93218 25.5969L4.79567 25.0925ZM4.69563 24.5689L5.67787 24.3812L5.66047 24.2901L5.62661 24.2038L4.69563 24.5689ZM4.50596 24.0852L3.52333 24.2707L3.54074 24.3629L3.57498 24.4502L4.50596 24.0852ZM4.40763 23.5644L5.39027 23.3789L5.33058 23.0627L5.09776 22.8407L4.40763 23.5644ZM3.99569 23.1716L2.99572 23.1635L2.9922 23.5964L3.30557 23.8953L3.99569 23.1716ZM4.00024 22.6114L5.00021 22.6196L5.00217 22.3788L4.89433 22.1635L4.00024 22.6114ZM3.767 22.1458L2.80927 22.4335L2.83416 22.5163L2.87292 22.5937L3.767 22.1458ZM3.61751 21.6481L4.57524 21.3604L4.5256 21.1951L4.42344 21.0561L3.61751 21.6481ZM3.29747 21.2124L4.10341 20.6204L4.0881 20.5995L4.07174 20.5795L3.29747 21.2124ZM2.94734 20.784L2.00321 21.1136L2.06138 21.2802L2.17307 21.4169L2.94734 20.784ZM2.77533 20.2912L1.77609 20.2522L1.76869 20.4417L1.8312 20.6208L2.77533 20.2912ZM2.79707 19.7348L3.7963 19.7738L3.80876 19.4548L3.63404 19.1875L2.79707 19.7348ZM2.50162 19.2829L1.50175 19.2665L1.49671 19.5733L1.66464 19.8302L2.50162 19.2829ZM2.5106 18.7356L3.51046 18.752L3.51436 18.5146L3.4111 18.3008L2.5106 18.7356ZM2.28198 18.2622L1.32001 18.5354L1.34372 18.6189L1.38148 18.697L2.28198 18.2622ZM2.13975 17.7613L3.10172 17.4881L3.09022 17.4476L3.07535 17.4083L2.13975 17.7613ZM1.95483 17.2712L2.89043 16.9182L2.86367 16.8473L2.82654 16.7812L1.95483 17.2712ZM1.69076 16.8015L0.693589 16.8767L0.710295 17.098L0.819042 17.2915L1.69076 16.8015ZM1.65081 16.2723L0.659051 16.1442L0.645956 16.2456L0.65365 16.3475L1.65081 16.2723ZM1.72162 15.7241L2.71339 15.8522L2.73739 15.6663L2.69248 15.4844L1.72162 15.7241ZM1.59679 15.2184L0.605939 15.3534L0.613148 15.4063L0.625941 15.4581L1.59679 15.2184ZM1.52661 14.7031L2.51746 14.5682L2.48171 14.3057L2.32069 14.0953L1.52661 14.7031ZM1.16904 14.236L0.269419 13.7993L0.000128243 14.3541L0.374968 14.8438L1.16904 14.236ZM1.43525 13.6875L2.33487 14.1242L2.53812 13.7055L2.3486 13.2804L1.43525 13.6875ZM1.20095 13.162L0.202049 13.2087L0.210866 13.397L0.287599 13.5691L1.20095 13.162ZM1.17648 12.6393L0.191006 12.4695L0.172463 12.5771L0.177568 12.6861L1.17648 12.6393ZM1.26582 12.121L0.449312 11.5436L0.318759 11.7283L0.280348 11.9511L1.26582 12.121ZM1.62232 11.6168L2.43883 12.1941L2.61767 11.9412L2.62221 11.6315L1.62232 11.6168ZM1.62995 11.0975L2.62984 11.1122L2.63353 10.8609L2.51804 10.6378L1.62995 11.0975ZM1.35192 10.5603L0.436394 10.158L0.244156 10.5956L0.463824 11.02L1.35192 10.5603ZM1.57458 10.0535L2.4901 10.4558L2.51276 10.4042L2.52948 10.3505L1.57458 10.0535ZM1.73313 9.54363L2.68804 9.84055L2.77066 9.57483L2.70415 9.30462L1.73313 9.54363ZM1.60247 9.01279L0.604321 8.95192L0.595055 9.10393L0.631451 9.2518L1.60247 9.01279ZM1.63413 8.49348L2.63228 8.55435L2.64052 8.41926L2.61255 8.28684L1.63413 8.49348ZM1.52166 7.96091L0.521677 7.95462L0.520997 8.06224L0.543239 8.16755L1.52166 7.96091ZM1.52495 7.43834L0.788801 6.76151L0.527399 7.04583L0.524969 7.43204L1.52495 7.43834ZM1.96615 6.95847L2.70229 7.63528L2.95285 7.36276L2.96556 6.99278L1.96615 6.95847ZM1.98401 6.43799L2.98343 6.4723L2.98605 6.39583L2.97701 6.31985L1.98401 6.43799ZM1.92108 5.90902L0.941354 5.70866L0.90901 5.86684L0.928082 6.02716L1.92108 5.90902ZM2.0256 5.39788L1.07302 5.0936L1.05666 5.14484L1.04588 5.19753L2.0256 5.39788ZM2.18672 4.89352L3.1393 5.19781L3.1791 5.07318L3.18551 4.94251L2.18672 4.89352ZM2.21217 4.37444L1.22087 4.24286L1.21541 4.284L1.21337 4.32545L2.21217 4.37444ZM2.27956 3.86671L3.27087 3.99829L3.27928 3.93496L3.27956 3.87107L2.27956 3.86671ZM2.28186 3.33876L3.28186 3.34312L3.28207 3.2922L3.27713 3.24153L2.28186 3.33876ZM2.22851 2.79266L1.24123 2.63371L1.22069 2.76128L1.23325 2.88989L2.22851 2.79266ZM2.31162 2.27651L1.42038 1.82296L1.34926 1.96273L1.32433 2.11755L2.31162 2.27651ZM2.55393 1.80035L3.44516 2.2539L3.54831 2.05121L3.55365 1.82384L2.55393 1.80035ZM2.56631 1.27308L2.8086 0.302872L1.59594 4.44855e-05L1.56659 1.2496L2.56631 1.27308ZM2.50742 2.28908C3.04325 2.42288 3.5861 2.09698 3.71991 1.56115C3.85372 1.02532 3.52781 0.482475 2.99198 0.348666L2.7497 1.31887L2.50742 2.28908ZM55.7816 67.6656L56.2449 66.7794L56.1563 66.733L55.693 67.6192L55.2297 68.5055L55.3184 68.5518L55.7816 67.6656ZM55.693 67.6192L56.1851 66.7487L55.8192 66.5419L55.3271 67.4124L54.835 68.2829L55.2009 68.4898L55.693 67.6192ZM55.3271 67.4124L56.1645 66.8658L55.8537 66.3897L55.0163 66.9363L54.179 67.4829L54.4897 67.959L55.3271 67.4124ZM55.0163 66.9363L55.1718 65.9485L54.6183 65.8613L54.4628 66.8492L54.3074 67.837L54.8609 67.9241L55.0163 66.9363ZM54.4628 66.8492L54.8007 65.908L54.3076 65.731L53.9697 66.6722L53.6318 67.6134L54.125 67.7904L54.4628 66.8492ZM53.9697 66.6722L54.6903 65.9788L54.3131 65.5868L53.5925 66.2802L52.872 66.9736L53.2491 67.3656L53.9697 66.6722ZM53.5925 66.2802L54.0653 65.399L53.6081 65.1537L53.1353 66.0349L52.6626 66.9162L53.1198 67.1614L53.5925 66.2802ZM53.1353 66.0349L53.3125 65.0508L52.779 64.9547L52.6018 65.9389L52.4247 66.9231L52.9582 67.0191L53.1353 66.0349ZM52.6018 65.9389L53.1451 65.0994L52.7063 64.8154L52.1631 65.655L51.6198 66.4946L52.0586 66.7785L52.6018 65.9389ZM52.1631 65.655L52.9501 65.0381L52.5931 64.5826L51.8061 65.1996L51.019 65.8165L51.3761 66.2719L52.1631 65.655ZM51.8061 65.1996L51.6533 64.2113L51.0324 64.3073L51.1851 65.2955L51.3379 66.2838L51.9588 66.1878L51.8061 65.1996ZM51.1851 65.2955L51.7937 64.502L51.3712 64.1781L50.7627 64.9716L50.1541 65.7651L50.5766 66.0891L51.1851 65.2955ZM50.7627 64.9716L50.9327 63.9861L50.3992 63.8941L50.2293 64.8796L50.0593 65.865L50.5927 65.957L50.7627 64.9716ZM50.2293 64.8796L51.0117 64.2568L50.6502 63.8026L49.8677 64.4253L49.0853 65.048L49.4468 65.5023L50.2293 64.8796ZM49.8677 64.4253L50.1536 63.4671L49.6534 63.3178L49.3675 64.2761L49.0816 65.2343L49.5818 65.3836L49.8677 64.4253ZM49.3675 64.2761L49.6536 63.3179L49.1483 63.167L48.8622 64.1252L48.576 65.0834L49.0813 65.2343L49.3675 64.2761ZM48.8622 64.1252L49.0282 63.139L48.4999 63.0501L48.3339 64.0362L48.1679 65.0224L48.6962 65.1113L48.8622 64.1252ZM48.3339 64.0362L49.2012 63.5385L48.8814 62.9814L48.0141 63.4791L47.1468 63.9769L47.4666 64.534L48.3339 64.0362ZM48.0141 63.4791L47.8067 62.5009L47.1728 62.6353L47.3803 63.6136L47.5878 64.5918L48.2216 64.4574L48.0141 63.4791ZM47.3803 63.6136L48.0888 62.9079L47.6998 62.5173L46.9913 63.223L46.2827 63.9286L46.6718 64.3192L47.3803 63.6136ZM46.9913 63.223L47.1808 62.2411L46.6527 62.1392L46.4632 63.1211L46.2737 64.1029L46.8018 64.2049L46.9913 63.223ZM46.4632 63.1211L47.2739 62.5356L46.9227 62.0493L46.112 62.6347L45.3013 63.2202L45.6525 63.7065L46.4632 63.1211ZM46.112 62.6347L45.8681 61.6649L45.2289 61.8257L45.4728 62.7955L45.7167 63.7653L46.3559 63.6045L46.112 62.6347ZM45.4728 62.7955L46.0515 61.98L45.6217 61.675L45.043 62.4905L44.4642 63.306L44.894 63.611L45.4728 62.7955ZM45.043 62.4905L45.5121 61.6074L45.0463 61.3599L44.5771 62.243L44.108 63.1261L44.5738 63.3736L45.043 62.4905ZM44.5771 62.243L44.9006 61.2968L44.4132 61.1302L44.0898 62.0764L43.7664 63.0227L44.2537 63.1893L44.5771 62.243ZM44.0898 62.0764L44.8515 61.4285L44.4681 60.9777L43.7063 61.6256L42.9446 62.2735L43.3281 62.7244L44.0898 62.0764ZM43.7063 61.6256L43.7356 60.6261L43.1873 60.61L43.158 61.6096L43.1288 62.6092L43.6771 62.6252L43.7063 61.6256ZM43.158 61.6096L43.5131 60.6748L43.0231 60.4886L42.668 61.4234L42.3129 62.3583L42.8029 62.5444L43.158 61.6096ZM42.668 61.4234L43.4079 60.7507L43.0231 60.3275L42.2832 61.0002L41.5433 61.6729L41.9281 62.0962L42.668 61.4234ZM42.2832 61.0002L42.1186 60.0138L41.5153 60.1145L41.6799 61.1009L41.8444 62.0872L42.4477 61.9866L42.2832 61.0002ZM41.6799 61.1009L42.2351 60.2691L41.7896 59.9717L41.2344 60.8035L40.6792 61.6352L41.1247 61.9326L41.6799 61.1009ZM41.2344 60.8035L41.8187 59.9919L41.3902 59.6834L40.8059 60.495L40.2216 61.3065L40.6501 61.615L41.2344 60.8035ZM40.8059 60.495L40.8739 59.4973L40.3227 59.4597L40.2547 60.4574L40.1866 61.455L40.7378 61.4926L40.8059 60.495ZM40.2547 60.4574L40.606 59.5211L40.1207 59.339L39.7694 60.2752L39.418 61.2114L39.9033 61.3936L40.2547 60.4574ZM39.7694 60.2752L40.5524 59.6532L40.1829 59.1881L39.3999 59.8101L38.6169 60.4321L38.9863 60.8972L39.7694 60.2752ZM39.3999 59.8101L39.1519 58.8413L38.5169 59.0039L38.7649 59.9726L39.0128 60.9414L39.6478 60.7789L39.3999 59.8101ZM38.7649 59.9726L39.599 59.4211L39.2513 58.8953L38.4172 59.4469L37.5831 59.9984L37.9307 60.5242L38.7649 59.9726ZM38.4172 59.4469L38.71 58.4907L38.2119 58.3382L37.9191 59.2944L37.6263 60.2505L38.1244 60.4031L38.4172 59.4469ZM37.9191 59.2944L37.7738 58.305L37.165 58.3943L37.3103 59.3837L37.4556 60.3731L38.0644 60.2837L37.9191 59.2944ZM37.3103 59.3837L37.74 58.4808L37.2681 58.2562L36.8384 59.1592L36.4087 60.0622L36.8806 60.2867L37.3103 59.3837ZM36.8384 59.1592L37.6718 58.6064L37.3357 58.0997L36.5023 58.6525L35.669 59.2053L36.0051 59.712L36.8384 59.1592ZM36.5023 58.6525L36.725 57.6776L36.2052 57.5589L35.9825 58.5337L35.7598 59.5086L36.2796 59.6274L36.5023 58.6525ZM35.9825 58.5337L36.4113 57.6303L35.9413 57.4073L35.5125 58.3107L35.0837 59.2141L35.5536 59.4371L35.9825 58.5337ZM35.5125 58.3107L36.0677 57.4789L35.6325 57.1885L35.0774 58.0202L34.5222 58.8519L34.9573 59.1424L35.5125 58.3107ZM35.0774 58.0202L35.62 57.1802L35.1821 56.8974L34.6395 57.7374L34.0969 58.5774L34.5347 58.8602L35.0774 58.0202ZM34.6395 57.7374L35.2338 56.9331L34.8125 56.6218L34.2182 57.426L33.6239 58.2303L34.0452 58.5416L34.6395 57.7374ZM34.2182 57.426L34.2211 56.4261L33.6274 56.4243L33.6245 57.4243L33.6216 58.4243L34.2153 58.426L34.2182 57.426ZM33.6245 57.4243L34.2812 56.6702L33.8806 56.3213L33.2238 57.0754L32.5671 57.8295L32.9678 58.1784L33.6245 57.4243ZM33.2238 57.0754L33.4257 56.096L32.8877 55.9851L32.6859 56.9645L32.484 57.9439L33.022 58.0548L33.2238 57.0754ZM32.6859 56.9645L33.5149 56.4054L33.1927 55.9277L32.3637 56.4868L31.5346 57.0459L31.8568 57.5237L32.6859 56.9645ZM32.3637 56.4868L32.7768 55.5761L32.3001 55.3599L31.887 56.2705L31.4739 57.1812L31.9505 57.3974L32.3637 56.4868ZM31.887 56.2705L32.4041 55.4146L31.959 55.1457L31.4418 56.0016L30.9247 56.8575L31.3699 57.1264L31.887 56.2705ZM31.4418 56.0016L31.7928 55.0652L31.2955 54.8787L30.9445 55.8151L30.5935 56.7515L31.0908 56.9379L31.4418 56.0016ZM30.9445 55.8151L31.5473 55.0172L31.1305 54.7023L30.5277 55.5002L29.9248 56.298L30.3416 56.613L30.9445 55.8151ZM30.5277 55.5002L31.1398 54.7094L30.7268 54.3897L30.1147 55.1805L29.5025 55.9712L29.9155 56.2909L30.5277 55.5002ZM30.1147 55.1805L30.7035 54.3723L30.2827 54.0656L29.6938 54.8738L29.1049 55.682L29.5258 55.9887L30.1147 55.1805ZM29.6938 54.8738L30.124 53.9711L29.6495 53.7449L29.2193 54.6476L28.789 55.5504L29.2635 55.7765L29.6938 54.8738ZM29.2193 54.6476L29.6626 53.7513L29.1916 53.5183L28.7483 54.4147L28.305 55.3111L28.776 55.544L29.2193 54.6476ZM28.7483 54.4147L29.3353 53.6052L28.9135 53.2993L28.3265 54.1088L27.7394 54.9184L28.1612 55.2243L28.7483 54.4147ZM28.3265 54.1088L28.9566 53.3324L28.5512 53.0033L27.921 53.7798L27.2908 54.5562L27.6963 54.8853L28.3265 54.1088ZM27.921 53.7798L28.7915 53.2875L28.5079 52.7861L27.6375 53.2784L26.7671 53.7707L27.0506 54.2721L27.921 53.7798ZM27.6375 53.2784L28.1312 52.4088L27.6772 52.1511L27.1835 53.0207L26.6898 53.8903L27.1438 54.1481L27.6375 53.2784ZM27.1835 53.0207L27.3996 52.0443L26.8474 51.9222L26.6314 52.8985L26.4153 53.8749L26.9675 53.9971L27.1835 53.0207ZM26.6314 52.8985L27.2115 52.084L26.7875 51.782L26.2073 52.5965L25.6271 53.411L26.0512 53.713L26.6314 52.8985ZM26.2073 52.5965L27.0001 51.987L26.6697 51.5572L25.8769 52.1666L25.0841 52.7761L25.4145 53.2059L26.2073 52.5965ZM25.8769 52.1666L26.5651 51.4412L26.1851 51.0806L25.4968 51.8061L24.8086 52.5316L25.1886 52.8921L25.8769 52.1666ZM25.4968 51.8061L26.1482 51.0473L25.7515 50.7068L25.1001 51.4656L24.4488 52.2243L24.8455 52.5649L25.4968 51.8061ZM25.1001 51.4656L25.7601 50.7142L25.369 50.3707L24.709 51.1221L24.0491 51.8734L24.4402 52.2169L25.1001 51.4656ZM24.709 51.1221L25.1934 50.2472L24.7335 49.9926L24.2492 50.8674L23.7648 51.7423L24.2247 51.9969L24.709 51.1221ZM24.2492 50.8674L24.9004 50.1085L24.5077 49.7716L23.8565 50.5305L23.2052 51.2894L23.5979 51.6263L24.2492 50.8674ZM23.8565 50.5305L24.5986 49.8602L24.2434 49.4669L23.5012 50.1371L22.7591 50.8073L23.1143 51.2007L23.8565 50.5305ZM23.5012 50.1371L23.7114 49.1594L23.1474 49.0382L22.9372 50.0158L22.7271 50.9935L23.2911 51.1148L23.5012 50.1371ZM22.9372 50.0158L23.3549 49.1073L22.8682 48.8835L22.4505 49.7921L22.0328 50.7007L22.5195 50.9244L22.9372 50.0158ZM22.4505 49.7921L23.2104 49.142L22.8651 48.7384L22.1052 49.3885L21.3454 50.0386L21.6906 50.4422L22.4505 49.7921ZM22.1052 49.3885L22.7729 48.644L22.3863 48.2973L21.7186 49.0418L21.051 49.7863L21.4376 50.133L22.1052 49.3885ZM21.7186 49.0418L22.3058 48.2324L21.8832 47.9258L21.296 48.7352L20.7088 49.5447L21.1315 49.8513L21.7186 49.0418ZM21.296 48.7352L21.9243 47.9573L21.5186 47.6296L20.8903 48.4076L20.262 49.1856L20.6677 49.5132L21.296 48.7352ZM20.8903 48.4076L21.7857 47.9623L21.5345 47.4571L20.6391 47.9024L19.7437 48.3477L19.9949 48.8529L20.8903 48.4076ZM20.6391 47.9024L20.9921 46.9668L20.4744 46.7715L20.1214 47.7071L19.7684 48.6428L20.2861 48.838L20.6391 47.9024ZM20.1214 47.7071L20.8391 47.0107L20.4747 46.6352L19.757 47.3316L19.0394 48.028L19.4038 48.4035L20.1214 47.7071ZM19.757 47.3316L20.3989 46.5648L20.0002 46.231L19.3583 46.9978L18.7164 47.7646L19.1152 48.0984L19.757 47.3316ZM19.3583 46.9978L20.0695 46.2948L19.7045 45.9255L18.9933 46.6286L18.2821 47.3316L18.6471 47.7008L19.3583 46.9978ZM18.9933 46.6286L19.8458 46.1058L19.563 45.6446L18.7105 46.1673L17.8579 46.69L18.1408 47.1513L18.9933 46.6286ZM18.7105 46.1673L18.8456 45.1765L18.2131 45.0902L18.078 46.0811L17.9429 47.0719L18.5753 47.1581L18.7105 46.1673ZM18.078 46.0811L19.0665 45.9297L18.9669 45.2794L17.9784 45.4308L16.9899 45.5821L17.0895 46.2324L18.078 46.0811ZM17.9784 45.4308L18.6476 44.6877L18.2627 44.341L17.5935 45.0841L16.9243 45.8271L17.3092 46.1738L17.9784 45.4308ZM17.5935 45.0841L18.0247 44.1818L17.5299 43.9453L17.0987 44.8476L16.6675 45.7498L17.1622 45.9863L17.5935 45.0841ZM17.0987 44.8476L17.5918 43.9776L17.1217 43.7111L16.6286 44.5811L16.1354 45.4511L16.6056 45.7176L17.0987 44.8476ZM16.6286 44.5811L17.3474 43.8859L16.9841 43.5104L16.2653 44.2056L15.5466 44.9008L15.9098 45.2763L16.6286 44.5811ZM16.2653 44.2056L16.9573 43.4837L16.5799 43.1219L15.8879 43.8438L15.1959 44.5657L15.5734 44.9275L16.2653 44.2056ZM15.8879 43.8438L16.8746 43.6814L16.7732 43.0653L15.7865 43.2276L14.7998 43.39L14.9012 44.0062L15.8879 43.8438ZM15.7865 43.2276L16.3403 42.395L15.8948 42.0987L15.341 42.9314L14.7872 43.764L15.2327 44.0603L15.7865 43.2276ZM15.341 42.9314L16.1841 42.3936L15.9015 41.9506L15.0584 42.4884L14.2154 43.0262L14.4979 43.4692L15.341 42.9314ZM15.0584 42.4884L15.6549 41.6857L15.228 41.3686L14.6316 42.1712L14.0352 42.9739L14.462 43.2911L15.0584 42.4884ZM14.6316 42.1712L15.4577 41.6077L15.1637 41.1767L14.3376 41.7402L13.5114 42.3037L13.8055 42.7347L14.6316 42.1712ZM14.3376 41.7402L14.7817 40.8442L14.2699 40.5905L13.8258 41.4865L13.3816 42.3824L13.8934 42.6361L14.3376 41.7402ZM13.8258 41.4865L14.8247 41.4406L14.7953 40.7998L13.7963 40.8457L12.7974 40.8916L12.8268 41.5324L13.8258 41.4865ZM13.7963 40.8457L14.2101 39.9353L13.6738 39.6915L13.26 40.6019L12.8462 41.5123L13.3825 41.7561L13.7963 40.8457ZM13.26 40.6019L14.1601 40.1662L13.9292 39.6893L13.0291 40.125L12.129 40.5607L12.3599 41.0376L13.26 40.6019ZM13.0291 40.125L13.8781 39.5966L13.6037 39.1557L12.7547 39.684L11.9057 40.2124L12.1801 40.6534L13.0291 40.125ZM12.7547 39.684L13.2779 38.8319L12.7917 38.5333L12.2685 39.3855L11.7452 40.2377L12.2314 40.5362L12.7547 39.684ZM12.2685 39.3855L13.2393 39.1456L13.1064 38.6078L12.1356 38.8477L11.1648 39.0876L11.2977 39.6254L12.2685 39.3855ZM12.1356 38.8477L13.0067 38.3567L12.7524 37.9054L11.8812 38.3964L11.0101 38.8874L11.2644 39.3387L12.1356 38.8477ZM11.8812 38.3964L12.8554 38.1706L12.7316 37.6364L11.7574 37.8622L10.7832 38.0881L10.9071 38.6223L11.8812 38.3964ZM11.7574 37.8622L12.2443 36.9888L11.7221 36.6977L11.2352 37.5711L10.7483 38.4446L11.2705 38.7357L11.7574 37.8622ZM11.2352 37.5711L12.1186 37.1025L11.8747 36.6427L10.9913 37.1113L10.1079 37.5799L10.3518 38.0397L11.2352 37.5711ZM10.9913 37.1113L11.9553 36.8453L11.8118 36.3256L10.8479 36.5916L9.88392 36.8577L10.0274 37.3774L10.9913 37.1113ZM10.8479 36.5916L11.7765 36.2207L11.5822 35.7341L10.6535 36.1051L9.72487 36.4761L9.91924 36.9626L10.8479 36.5916ZM10.6535 36.1051L11.4698 35.5275L11.1679 35.1008L10.3516 35.6784L9.5353 36.2561L9.83723 36.6827L10.6535 36.1051ZM10.3516 35.6784L11.0522 34.9649L10.6666 34.5862L9.96595 35.2998L9.26533 36.0133L9.65097 36.392L10.3516 35.6784ZM9.96595 35.2998L10.7756 34.7129L10.4681 34.2885L9.65837 34.8754L8.84868 35.4623L9.15626 35.8866L9.96595 35.2998ZM9.65837 34.8754L10.4725 34.2947L10.168 33.8678L9.35386 34.4485L8.53973 35.0292L8.84425 35.4561L9.65837 34.8754ZM9.35386 34.4485L10.3509 34.5251L10.3985 33.9065L9.40143 33.8298L8.40438 33.7532L8.3568 34.3718L9.35386 34.4485ZM9.40143 33.8298L9.87307 32.9481L9.3241 32.6544L8.85247 33.5362L8.38082 34.418L8.92979 34.7116L9.40143 33.8298ZM8.85247 33.5362L9.80227 33.2234L9.63681 32.721L8.687 33.0339L7.73719 33.3467L7.90266 33.8491L8.85247 33.5362ZM8.687 33.0339L9.5574 32.5415L9.30123 32.0886L8.43083 32.581L7.56042 33.0733L7.81659 33.5262L8.687 33.0339ZM8.43083 32.581L9.39408 32.3124L9.25107 31.7995L8.28782 32.0681L7.32456 32.3367L7.46757 32.8495L8.43083 32.581ZM8.28782 32.0681L9.07932 31.4569L8.75661 31.039L7.9651 31.6501L7.17359 32.2613L7.49631 32.6792L8.28782 32.0681ZM7.9651 31.6501L8.94778 31.4648L8.84708 30.9307L7.86439 31.116L6.88171 31.3013L6.98242 31.8354L7.9651 31.6501ZM7.86439 31.116L8.63239 30.4756L8.29139 30.0667L7.52339 30.7071L6.75539 31.3476L7.09639 31.7565L7.86439 31.116ZM7.52339 30.7071L8.52124 30.6416L8.48415 30.0762L7.48629 30.1417L6.48844 30.2071L6.52553 30.7726L7.52339 30.7071ZM7.48629 30.1417L7.96319 29.2627L7.40875 28.9619L6.93186 29.8408L6.45496 30.7198L7.0094 31.0206L7.48629 30.1417ZM6.93186 29.8408L7.92172 29.9829L8.01185 29.3547L7.02199 29.2127L6.03213 29.0707L5.94199 29.6988L6.93186 29.8408ZM7.02199 29.2127L7.88019 28.6994L7.61272 28.2522L6.75451 28.7655L5.89631 29.2788L6.16379 29.726L7.02199 29.2127ZM6.75451 28.7655L7.21608 27.8784L6.64511 27.5813L6.18354 28.4684L5.72198 29.3555L6.29295 29.6526L6.75451 28.7655ZM6.18354 28.4684L7.127 28.1369L6.95327 27.6425L6.00982 27.974L5.06636 28.3055L5.24009 28.7999L6.18354 28.4684ZM6.00982 27.974L6.9954 27.8048L6.90346 27.2693L5.91788 27.4385L4.9323 27.6077L5.02424 28.1432L6.00982 27.974ZM5.91788 27.4385L6.9134 27.3439L6.86107 26.793L5.86555 26.8875L4.87003 26.9821L4.92236 27.533L5.91788 27.4385ZM5.86555 26.8875L6.58842 26.1965L6.21015 25.8008L5.48729 26.4918L4.76442 27.1828L5.14269 27.5785L5.86555 26.8875ZM5.48729 26.4918L6.4238 26.1412L6.24142 25.654L5.3049 26.0047L4.36839 26.3553L4.55077 26.8424L5.48729 26.4918ZM5.3049 26.0047L6.18744 25.5344L5.94254 25.0748L5.06 25.545L4.17747 26.0153L4.42236 26.4749L5.3049 26.0047ZM5.06 25.545L5.9235 25.0407L5.65917 24.5881L4.79567 25.0925L3.93218 25.5969L4.19651 26.0494L5.06 25.545ZM4.79567 25.0925L5.77791 24.9049L5.67787 24.3812L4.69563 24.5689L3.7134 24.7565L3.81344 25.2802L4.79567 25.0925ZM4.69563 24.5689L5.62661 24.2038L5.43695 23.7201L4.50596 24.0852L3.57498 24.4502L3.76465 24.9339L4.69563 24.5689ZM4.50596 24.0852L5.4886 23.8996L5.39027 23.3789L4.40763 23.5644L3.425 23.75L3.52333 24.2707L4.50596 24.0852ZM4.40763 23.5644L5.09776 22.8407L4.68582 22.4479L3.99569 23.1716L3.30557 23.8953L3.71751 24.2881L4.40763 23.5644ZM3.99569 23.1716L4.99566 23.1797L5.00021 22.6196L4.00024 22.6114L3.00028 22.6033L2.99572 23.1635L3.99569 23.1716ZM4.00024 22.6114L4.89433 22.1635L4.66109 21.6979L3.767 22.1458L2.87292 22.5937L3.10616 23.0593L4.00024 22.6114ZM3.767 22.1458L4.72474 21.8582L4.57524 21.3604L3.61751 21.6481L2.65977 21.9357L2.80927 22.4335L3.767 22.1458ZM3.61751 21.6481L4.42344 21.0561L4.10341 20.6204L3.29747 21.2124L2.49153 21.8044L2.81156 22.2401L3.61751 21.6481ZM3.29747 21.2124L4.07174 20.5795L3.72162 20.1512L2.94734 20.784L2.17307 21.4169L2.5232 21.8452L3.29747 21.2124ZM2.94734 20.784L3.89148 20.4545L3.71947 19.9617L2.77533 20.2912L1.8312 20.6208L2.00321 21.1136L2.94734 20.784ZM2.77533 20.2912L3.77457 20.3302L3.7963 19.7738L2.79707 19.7348L1.79783 19.6958L1.77609 20.2522L2.77533 20.2912ZM2.79707 19.7348L3.63404 19.1875L3.33859 18.7357L2.50162 19.2829L1.66464 19.8302L1.96009 20.282L2.79707 19.7348ZM2.50162 19.2829L3.50148 19.2993L3.51046 18.752L2.5106 18.7356L1.51073 18.7192L1.50175 19.2665L2.50162 19.2829ZM2.5106 18.7356L3.4111 18.3008L3.18248 17.8274L2.28198 18.2622L1.38148 18.697L1.61009 19.1705L2.5106 18.7356ZM2.28198 18.2622L3.24395 17.989L3.10172 17.4881L2.13975 17.7613L1.17778 18.0344L1.32001 18.5354L2.28198 18.2622ZM2.13975 17.7613L3.07535 17.4083L2.89043 16.9182L1.95483 17.2712L1.01922 17.6243L1.20414 18.1143L2.13975 17.7613ZM1.95483 17.2712L2.82654 16.7812L2.56247 16.3114L1.69076 16.8015L0.819042 17.2915L1.08311 17.7612L1.95483 17.2712ZM1.69076 16.8015L2.68792 16.7262L2.64797 16.197L1.65081 16.2723L0.65365 16.3475L0.693589 16.8767L1.69076 16.8015ZM1.65081 16.2723L2.64257 16.4004L2.71339 15.8522L1.72162 15.7241L0.729863 15.596L0.659051 16.1442L1.65081 16.2723ZM1.72162 15.7241L2.69248 15.4844L2.56764 14.9787L1.59679 15.2184L0.625941 15.4581L0.750774 15.9638L1.72162 15.7241ZM1.59679 15.2184L2.58765 15.0835L2.51746 14.5682L1.52661 14.7031L0.535758 14.8381L0.605939 15.3534L1.59679 15.2184ZM1.52661 14.7031L2.32069 14.0953L1.96312 13.6282L1.16904 14.236L0.374968 14.8438L0.732537 15.3109L1.52661 14.7031ZM1.16904 14.236L2.06866 14.6726L2.33487 14.1242L1.43525 13.6875L0.535626 13.2509L0.269419 13.7993L1.16904 14.236ZM1.43525 13.6875L2.3486 13.2804L2.1143 12.7548L1.20095 13.162L0.287599 13.5691L0.521898 14.0947L1.43525 13.6875ZM1.20095 13.162L2.19986 13.1152L2.17538 12.5925L1.17648 12.6393L0.177568 12.6861L0.202049 13.2087L1.20095 13.162ZM1.17648 12.6393L2.16194 12.8092L2.25129 12.2908L1.26582 12.121L0.280348 11.9511L0.191006 12.4695L1.17648 12.6393ZM1.26582 12.121L2.08233 12.6983L2.43883 12.1941L1.62232 11.6168L0.805814 11.0394L0.449312 11.5436L1.26582 12.121ZM1.62232 11.6168L2.62221 11.6315L2.62984 11.1122L1.62995 11.0975L0.630055 11.0828L0.622431 11.6021L1.62232 11.6168ZM1.62995 11.0975L2.51804 10.6378L2.24001 10.1006L1.35192 10.5603L0.463824 11.02L0.741855 11.5571L1.62995 11.0975ZM1.35192 10.5603L2.26744 10.9626L2.4901 10.4558L1.57458 10.0535L0.65906 9.65127L0.436394 10.158L1.35192 10.5603ZM1.57458 10.0535L2.52948 10.3505L2.68804 9.84055L1.73313 9.54363L0.77823 9.24672L0.619677 9.75662L1.57458 10.0535ZM1.73313 9.54363L2.70415 9.30462L2.57349 8.77378L1.60247 9.01279L0.631451 9.2518L0.762116 9.78264L1.73313 9.54363ZM1.60247 9.01279L2.60062 9.07366L2.63228 8.55435L1.63413 8.49348L0.635992 8.43261L0.604321 8.95192L1.60247 9.01279ZM1.63413 8.49348L2.61255 8.28684L2.50008 7.75427L1.52166 7.96091L0.543239 8.16755L0.655722 8.70012L1.63413 8.49348ZM1.52166 7.96091L2.52164 7.96721L2.52493 7.44463L1.52495 7.43834L0.524969 7.43204L0.521677 7.95462L1.52166 7.96091ZM1.52495 7.43834L2.26109 8.11515L2.70229 7.63528L1.96615 6.95847L1.23 6.28164L0.788801 6.76151L1.52495 7.43834ZM1.96615 6.95847L2.96556 6.99278L2.98343 6.4723L1.98401 6.43799L0.984604 6.40368L0.966733 6.92415L1.96615 6.95847ZM1.98401 6.43799L2.97701 6.31985L2.91407 5.79087L1.92108 5.90902L0.928082 6.02716L0.991019 6.55613L1.98401 6.43799ZM1.92108 5.90902L2.9008 6.10937L3.00533 5.59824L2.0256 5.39788L1.04588 5.19753L0.941354 5.70866L1.92108 5.90902ZM2.0256 5.39788L2.97819 5.70217L3.1393 5.19781L2.18672 4.89352L1.23413 4.58924L1.07302 5.0936L2.0256 5.39788ZM2.18672 4.89352L3.18551 4.94251L3.21097 4.42342L2.21217 4.37444L1.21337 4.32545L1.18791 4.84454L2.18672 4.89352ZM2.21217 4.37444L3.20348 4.50602L3.27087 3.99829L2.27956 3.86671L1.28826 3.73513L1.22087 4.24286L2.21217 4.37444ZM2.27956 3.86671L3.27956 3.87107L3.28186 3.34312L2.28186 3.33876L1.28187 3.33441L1.27958 3.86236L2.27956 3.86671ZM2.28186 3.33876L3.27713 3.24153L3.22377 2.69543L2.22851 2.79266L1.23325 2.88989L1.2866 3.43599L2.28186 3.33876ZM2.22851 2.79266L3.2158 2.95162L3.2989 2.43547L2.31162 2.27651L1.32433 2.11755L1.24123 2.63371L2.22851 2.79266ZM2.31162 2.27651L3.20285 2.73006L3.44516 2.2539L2.55393 1.80035L1.6627 1.34681L1.42038 1.82296L2.31162 2.27651ZM2.55393 1.80035L3.55365 1.82384L3.56604 1.29656L2.56631 1.27308L1.56659 1.2496L1.5542 1.77687L2.55393 1.80035ZM2.56631 1.27308L2.32403 2.24328L2.50742 2.28908L2.7497 1.31887L2.99198 0.348666L2.8086 0.302872L2.56631 1.27308Z" fill="white"/>
</svg>
