<svg width="281" height="281" viewBox="0 0 281 281" fill="none" xmlns="http://www.w3.org/2000/svg">
<g clip-path="url(#clip0_338_214)">
<path d="M155.248 218.653C155.248 218.653 144.559 314.57 144.559 383.283" stroke="black" stroke-width="25"/>
<path d="M14.5751 218.653C14.5751 218.653 3.88574 314.57 3.88574 383.283" stroke="black" stroke-width="25"/>
<path d="M250.74 149.941C250.74 238.886 178.651 310.971 89.722 310.971C0.792603 310.971 -71.3204 238.874 -71.3204 149.941" fill="#FFC7D7"/>
<path d="M63.5588 102.53C58.4344 98.0077 55.2093 91.7213 54.5287 84.928C53.8009 77.7544 55.9576 70.5859 60.5245 64.9994C65.0913 59.4129 71.6943 55.8658 78.881 55.1384C86.0685 54.412 93.2507 56.5653 98.8476 61.1247C104.445 65.684 107.998 72.2758 108.725 79.45C109.424 86.2414 107.527 93.0456 103.414 98.5005C108.148 101.21 112.165 105.008 115.133 109.578C118.102 114.149 119.935 119.359 120.482 124.779C121.399 133.828 118.678 142.87 112.917 149.916C107.156 156.963 98.8262 161.437 89.7606 162.354C85.2719 162.808 80.7375 162.375 76.4164 161.079C72.0954 159.784 68.0723 157.651 64.577 154.804C61.0816 151.956 58.1825 148.449 56.0452 144.483C53.9079 140.517 52.5742 136.17 52.1204 131.689C51.5662 126.271 52.3149 120.799 54.3042 115.728C56.2936 110.656 59.4662 106.132 63.5588 102.53Z" fill="white"/>
<path d="M222.94 195.573C222.94 207.74 232.803 217.603 244.97 217.603C257.137 217.603 267 207.74 267 195.573C267 183.406 257.137 173.543 244.97 173.543C232.803 173.543 222.94 183.406 222.94 195.573Z" fill="white"/>
<path d="M246.018 188.23L223.987 188.23" stroke="black" stroke-width="3.2211" stroke-linecap="round"/>
<path d="M246.018 201.868L223.987 201.868" stroke="black" stroke-width="3.2211" stroke-linecap="round"/>
<path d="M60.9547 224.653L-82.0007 146.902" stroke="black" stroke-width="25"/>
<path d="M98.2594 248.07C91.7837 258.38 78.1858 261.499 67.8876 255.036C57.5893 248.572 54.4905 234.974 60.9662 224.664C67.4419 214.353 81.0398 211.234 91.338 217.698C101.636 224.161 104.735 237.759 98.2594 248.07Z" fill="white"/>
<path d="M82.6289 229.589L101.287 241.303" stroke="black" stroke-width="3.2211" stroke-linecap="round"/>
<path d="M75.3779 241.139L94.0356 252.853" stroke="black" stroke-width="3.2211" stroke-linecap="round"/>
<path d="M98.6555 109.665C98.4064 116.364 92.7737 121.593 86.0744 121.344C79.3752 121.095 74.1464 115.462 74.3955 108.763" stroke="black" stroke-width="2.40857" stroke-linecap="round"/>
</g>
<defs>
<clipPath id="clip0_338_214">
<rect width="281" height="281" fill="white"/>
</clipPath>
</defs>
</svg>
