<svg width="448" height="439" viewBox="0 0 448 439" fill="none" xmlns="http://www.w3.org/2000/svg">
<path d="M143.594 149.717L186.07 132.328L240.603 282.721L198.128 300.11L143.594 149.717Z" fill="black"/>
<path d="M140.607 176.152C142.152 169.552 146.437 131.054 170.503 136.685C202.126 144.085 174.711 196.21 205.369 203.383C227.756 208.621 231.904 184.585 236.38 165.456" stroke="#4C575E" stroke-width="30" stroke-linecap="square"/>
<path d="M150.097 95.3229C147.645 93.4037 145.808 90.812 144.81 87.8648C143.812 84.9176 143.696 81.7425 144.477 78.7279C145.257 75.7133 146.901 72.9898 149.206 70.8902C151.511 68.7907 154.378 67.4062 157.457 66.9061C160.535 66.4059 163.691 66.8118 166.539 68.0741C169.387 69.3363 171.804 71.4002 173.493 74.0134C175.183 76.6266 176.073 79.6759 176.053 82.7885C176.034 85.901 175.106 88.9419 173.384 91.5393C177.219 93.441 180.348 96.5093 182.321 100.303C184.294 104.096 185.009 108.418 184.364 112.648C183.718 116.877 181.745 120.794 178.728 123.836C175.712 126.878 171.807 128.887 167.578 129.575C163.348 130.262 159.011 129.592 155.191 127.66C151.371 125.729 148.266 122.637 146.322 118.828C144.379 115.02 143.697 110.692 144.375 106.468C145.053 102.244 147.057 98.3416 150.097 95.3229Z" fill="white"/>
<path d="M132.389 203.124C139.232 206.075 147.171 202.919 150.122 196.077C153.073 189.234 149.918 181.294 143.075 178.343C136.232 175.392 128.293 178.547 125.342 185.39C122.391 192.233 125.546 200.173 132.389 203.124Z" fill="white"/>
<path d="M133.857 188.363L128.513 200.753" stroke="black" stroke-width="2.88653" stroke-linecap="round"/>
<path d="M141.527 191.67L136.183 204.061" stroke="black" stroke-width="2.88653" stroke-linecap="round"/>
<path d="M244.467 139.96C251.398 142.699 254.795 150.538 252.056 157.468C249.317 164.399 241.478 167.796 234.548 165.057C227.617 162.318 224.22 154.479 226.959 147.549C229.698 140.618 237.537 137.221 244.467 139.96Z" fill="white"/>
<path d="M235.088 151.452L240.048 138.903" stroke="black" stroke-width="2.88653" stroke-linecap="round"/>
<path d="M242.857 154.522L247.816 141.974" stroke="black" stroke-width="2.88653" stroke-linecap="round"/>
<path d="M167.104 116.237C167.446 118.155 169.278 119.433 171.196 119.091C173.115 118.75 174.393 116.918 174.051 114.999" stroke="black" stroke-width="2.1301" stroke-linecap="round"/>
<path d="M285.004 274.635C281.368 262.612 268.674 255.812 256.651 259.448L216.18 271.686L222.764 293.456L285.004 274.635Z" fill="black"/>
<path d="M262.539 295.763C259.269 283.648 246.797 276.479 234.683 279.749L193.907 290.757L199.828 312.692L262.539 295.763Z" fill="black"/>
</svg>
