<svg width="299" height="394" viewBox="0 0 299 394" fill="none" xmlns="http://www.w3.org/2000/svg">
<path d="M41.5597 37.2582L32.5791 171.871" stroke="black" stroke-width="56.3692"/>
<path d="M75.8884 225.684C75.8884 225.684 66.4443 305.183 66.4443 362.135" stroke="#FF884C" stroke-width="56.3692"/>
<path d="M200.174 225.684C200.174 225.684 190.729 305.183 190.729 362.135" stroke="#FF884C" stroke-width="56.3692"/>
<path d="M284.541 168.733C284.541 242.453 220.851 302.2 142.281 302.2C63.712 302.2 9.71214e-05 242.443 0.00010399 168.733" fill="#4C575E"/>
<path d="M46.464 0.741243C35.7145 0.741242 27.0003 8.91622 27.0003 19.0006C27.0003 29.0849 35.7145 37.2599 46.464 37.2599C57.2135 37.2599 65.9277 29.0849 65.9277 19.0006C65.9277 8.91622 57.2135 0.741244 46.464 0.741243Z" fill="#F7F0F5"/>
<path d="M52.9521 19.8699L52.9521 1.61055" stroke="black" stroke-width="3.2211" stroke-linecap="round"/>
<path d="M40.9033 19.8699L40.9033 1.61055" stroke="black" stroke-width="3.2211" stroke-linecap="round"/>
<path d="M119.167 129.438C114.639 125.69 111.79 120.479 111.189 114.849C110.546 108.903 112.451 102.962 116.486 98.3313C120.521 93.701 126.354 90.7611 132.704 90.1582C139.054 89.5561 145.399 91.3409 150.344 95.1198C155.289 98.8987 158.428 104.362 159.071 110.308C159.689 115.937 158.013 121.577 154.379 126.098C158.561 128.344 162.11 131.492 164.733 135.28C167.355 139.068 168.975 143.387 169.458 147.878C170.269 155.378 167.864 162.873 162.774 168.713C157.684 174.554 150.325 178.262 142.316 179.022C138.35 179.398 134.344 179.039 130.526 177.965C126.709 176.892 123.154 175.124 120.066 172.764C116.978 170.404 114.417 167.497 112.528 164.21C110.64 160.923 109.462 157.32 109.061 153.606C108.571 149.115 109.233 144.58 110.99 140.376C112.748 136.173 115.551 132.423 119.167 129.438Z" fill="#F7F0F5"/>
<path d="M286.395 201.991C286.395 183.622 270.604 168.733 251.126 168.733H198.344V235.249H251.126C270.604 235.249 286.395 220.359 286.395 201.991ZM251.126 221.513V182.468C253.846 182.467 256.539 182.971 259.051 183.952C261.564 184.933 263.847 186.371 265.771 188.184C267.694 189.997 269.219 192.149 270.26 194.518C271.301 196.888 271.837 199.427 271.837 201.991C271.837 204.556 271.301 207.095 270.26 209.464C269.219 211.833 267.694 213.985 265.77 215.798C263.847 217.611 261.564 219.049 259.051 220.03C256.539 221.01 253.846 221.514 251.126 221.513Z" fill="black"/>
<path d="M259.978 206.555C259.978 216.639 268.692 224.814 279.442 224.814C290.191 224.814 298.905 216.639 298.905 206.555C298.905 196.471 290.191 188.296 279.442 188.296C268.692 188.296 259.978 196.471 259.978 206.555Z" fill="#F7F0F5"/>
<path d="M280.368 200.469L260.904 200.469" stroke="black" stroke-width="3.2211" stroke-linecap="round"/>
<path d="M280.368 211.772L260.904 211.772" stroke="black" stroke-width="3.2211" stroke-linecap="round"/>
<path d="M1.79642 392.119C1.79642 392.119 -1.67188 372.176 2.40108 360.512C14.8131 324.97 98.7236 362.134 98.7236 362.134L98.119 393.741L1.79642 392.119Z" fill="#FF884C"/>
<path d="M126.206 392.119C126.206 392.119 122.737 372.176 126.81 360.512C139.222 324.97 223.133 362.134 223.133 362.134L222.528 393.741L126.206 392.119Z" fill="#FF884C"/>
<path d="M150.174 135.352C149.954 140.904 144.977 145.238 139.059 145.032C133.14 144.825 128.52 140.157 128.74 134.604" stroke="black" stroke-width="2.40857" stroke-linecap="round"/>
</svg>
